<svg xmlns="http://www.w3.org/2000/svg" xmlns:xlink="http://www.w3.org/1999/xlink" width="50" zoomAndPan="magnify" viewBox="0 0 37.5 36.75" height="49" preserveAspectRatio="xMidYMid meet" version="1.0"><defs><clipPath id="f774df38fe"><path d="M 0.464844 0.265625 L 36.511719 0.265625 L 36.511719 36.3125 L 0.464844 36.3125 Z M 0.464844 0.265625 " clip-rule="nonzero"/></clipPath><clipPath id="d9a082b400"><path d="M 18.488281 0.265625 C 8.535156 0.265625 0.464844 8.335938 0.464844 18.289062 C 0.464844 28.242188 8.535156 36.3125 18.488281 36.3125 C 28.441406 36.3125 36.511719 28.242188 36.511719 18.289062 C 36.511719 8.335938 28.441406 0.265625 18.488281 0.265625 Z M 18.488281 0.265625 " clip-rule="nonzero"/></clipPath><clipPath id="85fc14df97"><path d="M 8.414062 8.214844 L 28.398438 8.214844 L 28.398438 28.199219 L 8.414062 28.199219 Z M 8.414062 8.214844 " clip-rule="nonzero"/></clipPath></defs><g clip-path="url(#f774df38fe)"><g clip-path="url(#d9a082b400)"><path stroke-linecap="butt" transform="matrix(0.740132, 0, 0, 0.740132, 0.464614, 0.265498)" fill="none" stroke-linejoin="miter" d="M 24.351978 0.000171058 C 10.9042 0.000171058 0.000310686 10.90406 0.000310686 24.351839 C 0.000310686 37.799617 10.9042 48.703506 24.351978 48.703506 C 37.799757 48.703506 48.703646 37.799617 48.703646 24.351839 C 48.703646 10.90406 37.799757 0.000171058 24.351978 0.000171058 Z M 24.351978 0.000171058 " stroke="#1a9dfc" stroke-width="2" stroke-opacity="1" stroke-miterlimit="4"/></g></g><g clip-path="url(#85fc14df97)"><path fill="#1a9dfc" d="M 18.488281 8.214844 C 12.929688 8.214844 8.414062 12.730469 8.414062 18.289062 C 8.414062 23.84375 12.929688 28.359375 18.488281 28.359375 C 24.042969 28.359375 28.558594 23.84375 28.558594 18.289062 C 28.558594 12.730469 24.042969 8.214844 18.488281 8.214844 Z M 24.148438 19.261719 L 19.460938 19.261719 L 19.460938 23.949219 C 19.460938 24.480469 19.027344 24.921875 18.488281 24.921875 C 17.945312 24.921875 17.511719 24.480469 17.511719 23.949219 L 17.511719 19.261719 L 12.828125 19.261719 C 12.292969 19.261719 11.851562 18.828125 11.851562 18.289062 C 11.851562 17.75 12.292969 17.3125 12.828125 17.3125 L 17.511719 17.3125 L 17.511719 12.628906 C 17.511719 12.09375 17.945312 11.652344 18.488281 11.652344 C 19.027344 11.652344 19.460938 12.09375 19.460938 12.628906 L 19.460938 17.3125 L 24.148438 17.3125 C 24.679688 17.3125 25.121094 17.75 25.121094 18.289062 C 25.121094 18.828125 24.679688 19.261719 24.148438 19.261719 Z M 24.148438 19.261719 " fill-opacity="1" fill-rule="nonzero"/></g></svg>