<svg xmlns="http://www.w3.org/2000/svg" xmlns:xlink="http://www.w3.org/1999/xlink" width="50" zoomAndPan="magnify" viewBox="0 0 37.5 37.499999" height="50" preserveAspectRatio="xMidYMid meet" version="1.0"><defs><clipPath id="191160d0d3"><path d="M 0.507812 0.457031 L 36.554688 0.457031 L 36.554688 36.503906 L 0.507812 36.503906 Z M 0.507812 0.457031 " clip-rule="nonzero"/></clipPath><clipPath id="0c1ac7bc95"><path d="M 18.53125 0.457031 C 8.578125 0.457031 0.507812 8.527344 0.507812 18.480469 C 0.507812 28.433594 8.578125 36.503906 18.53125 36.503906 C 28.484375 36.503906 36.554688 28.433594 36.554688 18.480469 C 36.554688 8.527344 28.484375 0.457031 18.53125 0.457031 Z M 18.53125 0.457031 " clip-rule="nonzero"/></clipPath><clipPath id="cedb6f85de"><path d="M 8.457031 8.40625 L 28.441406 8.40625 L 28.441406 28.390625 L 8.457031 28.390625 Z M 8.457031 8.40625 " clip-rule="nonzero"/></clipPath></defs><g clip-path="url(#191160d0d3)"><g clip-path="url(#0c1ac7bc95)"><path stroke-linecap="butt" transform="matrix(0.740132, 0, 0, 0.740132, 0.507497, 0.457048)" fill="none" stroke-linejoin="miter" d="M 24.352095 -0.0000227418 C 10.904316 -0.0000227418 0.00042629 10.903867 0.00042629 24.351646 C 0.00042629 37.799424 10.904316 48.703314 24.352095 48.703314 C 37.799873 48.703314 48.703763 37.799424 48.703763 24.351646 C 48.703763 10.903867 37.799873 -0.0000227418 24.352095 -0.0000227418 Z M 24.352095 -0.0000227418 " stroke="#ffffff" stroke-width="2" stroke-opacity="1" stroke-miterlimit="4"/></g></g><g clip-path="url(#cedb6f85de)"><path fill="#ffffff" d="M 18.53125 8.40625 C 12.972656 8.40625 8.457031 12.921875 8.457031 18.480469 C 8.457031 24.035156 12.972656 28.550781 18.53125 28.550781 C 24.085938 28.550781 28.601562 24.035156 28.601562 18.480469 C 28.601562 12.921875 24.085938 8.40625 18.53125 8.40625 Z M 24.191406 19.453125 L 19.503906 19.453125 L 19.503906 24.140625 C 19.503906 24.671875 19.070312 25.113281 18.53125 25.113281 C 17.988281 25.113281 17.554688 24.671875 17.554688 24.140625 L 17.554688 19.453125 L 12.871094 19.453125 C 12.335938 19.453125 11.894531 19.019531 11.894531 18.480469 C 11.894531 17.941406 12.335938 17.503906 12.871094 17.503906 L 17.554688 17.503906 L 17.554688 12.820312 C 17.554688 12.285156 17.988281 11.84375 18.53125 11.84375 C 19.070312 11.84375 19.503906 12.285156 19.503906 12.820312 L 19.503906 17.503906 L 24.191406 17.503906 C 24.722656 17.503906 25.164062 17.941406 25.164062 18.480469 C 25.164062 19.019531 24.722656 19.453125 24.191406 19.453125 Z M 24.191406 19.453125 " fill-opacity="1" fill-rule="nonzero"/></g></svg>