<svg xmlns="http://www.w3.org/2000/svg" xmlns:xlink="http://www.w3.org/1999/xlink" width="50" zoomAndPan="magnify" viewBox="0 0 37.5 37.499999" height="50" preserveAspectRatio="xMidYMid meet" version="1.0"><defs><clipPath id="d1d83a4872"><path d="M 0.242188 0.695312 L 36.296875 0.695312 L 36.296875 36.75 L 0.242188 36.75 Z M 0.242188 0.695312 " clip-rule="nonzero"/></clipPath><clipPath id="1ccfd1593c"><path d="M 18.269531 0.695312 C 8.3125 0.695312 0.242188 8.765625 0.242188 18.722656 C 0.242188 28.679688 8.3125 36.75 18.269531 36.75 C 28.226562 36.75 36.296875 28.679688 36.296875 18.722656 C 36.296875 8.765625 28.226562 0.695312 18.269531 0.695312 Z M 18.269531 0.695312 " clip-rule="nonzero"/></clipPath><clipPath id="72f502d241"><path d="M 9.1875 9.210938 L 27.691406 9.210938 L 27.691406 28.457031 L 9.1875 28.457031 Z M 9.1875 9.210938 " clip-rule="nonzero"/></clipPath></defs><g clip-path="url(#d1d83a4872)"><g clip-path="url(#1ccfd1593c)"><path fill="#bfecef" d="M 0.242188 0.695312 L 36.296875 0.695312 L 36.296875 36.75 L 0.242188 36.75 Z M 0.242188 0.695312 " fill-opacity="1" fill-rule="nonzero"/></g></g><path fill="#008080" d="M 18.226562 13.503906 C 17.398438 13.515625 16.578125 13.863281 15.992188 14.453125 C 15.410156 15.042969 15.070312 15.867188 15.070312 16.695312 C 15.070312 17.53125 15.414062 18.363281 16.003906 18.953125 C 16.59375 19.546875 17.425781 19.890625 18.261719 19.890625 C 19.09375 19.890625 19.925781 19.546875 20.519531 18.953125 C 21.109375 18.363281 21.453125 17.53125 21.453125 16.695312 C 21.453125 15.859375 21.109375 15.03125 20.519531 14.441406 C 19.925781 13.847656 19.09375 13.503906 18.261719 13.503906 C 18.25 13.503906 18.238281 13.503906 18.230469 13.503906 L 18.226562 13.503906 " fill-opacity="1" fill-rule="nonzero"/><g clip-path="url(#72f502d241)"><path fill="#008080" d="M 18.242188 10.742188 L 18.257812 10.742188 C 18.3125 10.742188 18.382812 10.75 18.449219 10.777344 C 18.449219 10.777344 18.453125 10.777344 18.457031 10.78125 L 18.476562 10.785156 C 18.480469 10.785156 18.480469 10.789062 18.480469 10.789062 C 18.480469 10.789062 18.484375 10.789062 18.488281 10.792969 L 25.335938 13.324219 C 25.335938 13.324219 25.339844 13.324219 25.339844 13.328125 C 25.589844 13.425781 25.726562 13.660156 25.6875 13.925781 C 25.390625 15.988281 25.054688 18.054688 24.230469 20.023438 C 23.910156 20.777344 23.519531 21.503906 23.074219 22.1875 C 22.78125 21.300781 22.246094 20.527344 21.550781 19.933594 C 21.542969 19.941406 21.535156 19.953125 21.523438 19.960938 C 20.671875 20.816406 19.46875 21.308594 18.261719 21.308594 C 17.050781 21.308594 15.851562 20.816406 14.996094 19.960938 C 14.988281 19.953125 14.980469 19.941406 14.972656 19.933594 C 14.277344 20.527344 13.742188 21.296875 13.449219 22.1875 C 13.003906 21.5 12.613281 20.777344 12.296875 20.023438 C 11.472656 18.054688 11.132812 15.988281 10.835938 13.925781 C 10.796875 13.660156 10.9375 13.425781 11.1875 13.328125 C 11.1875 13.324219 11.191406 13.324219 11.191406 13.324219 L 18.042969 10.789062 L 18.046875 10.789062 L 18.066406 10.785156 L 18.070312 10.78125 C 18.070312 10.78125 18.074219 10.78125 18.074219 10.78125 C 18.074219 10.78125 18.085938 10.773438 18.089844 10.773438 C 18.097656 10.769531 18.101562 10.769531 18.105469 10.769531 C 18.113281 10.765625 18.121094 10.765625 18.128906 10.761719 C 18.144531 10.757812 18.160156 10.753906 18.179688 10.75 C 18.199219 10.746094 18.21875 10.742188 18.242188 10.742188 Z M 18.183594 9.210938 C 17.964844 9.222656 17.746094 9.269531 17.539062 9.34375 L 10.660156 11.890625 C 10.214844 12.054688 9.832031 12.375 9.59375 12.777344 C 9.351562 13.183594 9.25 13.675781 9.320312 14.140625 C 9.621094 16.21875 9.972656 18.4375 10.882812 20.613281 C 12.152344 23.632812 14.386719 26.1875 17.195312 27.851562 C 17.835938 28.234375 18.683594 28.234375 19.324219 27.851562 C 22.132812 26.1875 24.375 23.636719 25.640625 20.613281 C 26.554688 18.4375 26.902344 16.21875 27.203125 14.140625 C 27.269531 13.675781 27.171875 13.183594 26.929688 12.777344 C 26.691406 12.375 26.304688 12.054688 25.863281 11.890625 L 18.984375 9.34375 C 18.746094 9.257812 18.496094 9.210938 18.242188 9.210938 C 18.242188 9.210938 18.242188 9.210938 18.238281 9.210938 C 18.222656 9.210938 18.203125 9.210938 18.183594 9.210938 " fill-opacity="1" fill-rule="nonzero"/></g></svg>