<svg xmlns="http://www.w3.org/2000/svg" xmlns:xlink="http://www.w3.org/1999/xlink" width="50" zoomAndPan="magnify" viewBox="0 0 37.5 37.499999" height="50" preserveAspectRatio="xMidYMid meet" version="1.0"><defs><clipPath id="174a5e383a"><path d="M 18 3.445312 L 24 3.445312 L 24 7 L 18 7 Z M 18 3.445312 " clip-rule="nonzero"/></clipPath><clipPath id="642e5a0dcf"><path d="M 13 3.445312 L 19 3.445312 L 19 7 L 13 7 Z M 13 3.445312 " clip-rule="nonzero"/></clipPath><clipPath id="85688f8203"><path d="M 0.894531 29 L 12 29 L 12 33.050781 L 0.894531 33.050781 Z M 0.894531 29 " clip-rule="nonzero"/></clipPath><clipPath id="898ad7a931"><path d="M 25 29 L 36.417969 29 L 36.417969 33.050781 L 25 33.050781 Z M 25 29 " clip-rule="nonzero"/></clipPath><clipPath id="53e48dcfe3"><path d="M 13 29 L 25 29 L 25 33.050781 L 13 33.050781 Z M 13 29 " clip-rule="nonzero"/></clipPath></defs><path fill="#3c5edb" d="M 24.496094 10.574219 L 26.234375 10.574219 C 26.140625 8.703125 25.46875 7.09375 24.234375 5.730469 C 23.816406 6.148438 23.414062 6.550781 23.007812 6.957031 C 23.878906 7.925781 24.429688 9.1875 24.496094 10.574219 " fill-opacity="1" fill-rule="nonzero"/><path fill="#3c5edb" d="M 14.28125 14.753906 C 13.421875 13.789062 12.878906 12.539062 12.808594 11.164062 L 11.066406 11.164062 C 11.167969 13.035156 11.835938 14.644531 13.054688 15.984375 C 13.472656 15.566406 13.878906 15.160156 14.28125 14.753906 " fill-opacity="1" fill-rule="nonzero"/><path fill="#3c5edb" d="M 26.234375 11.15625 L 24.496094 11.15625 C 24.429688 12.53125 23.886719 13.78125 23.03125 14.746094 C 23.445312 15.164062 23.847656 15.570312 24.253906 15.980469 C 25.476562 14.625 26.144531 13.015625 26.234375 11.15625 " fill-opacity="1" fill-rule="nonzero"/><path fill="#3c5edb" d="M 18.9375 16.710938 L 18.9375 18.449219 C 20.816406 18.351562 22.425781 17.683594 23.773438 16.460938 C 23.359375 16.046875 22.957031 15.640625 22.550781 15.230469 C 21.582031 16.097656 20.320312 16.644531 18.9375 16.710938 " fill-opacity="1" fill-rule="nonzero"/><g clip-path="url(#174a5e383a)"><path fill="#3c5edb" d="M 23.789062 5.464844 C 22.410156 4.222656 20.804688 3.554688 18.941406 3.464844 L 18.941406 5.203125 C 20.328125 5.269531 21.59375 5.824219 22.558594 6.691406 L 23.789062 5.464844 " fill-opacity="1" fill-rule="nonzero"/></g><path fill="#3c5edb" d="M 14.296875 7.140625 C 13.914062 6.757812 13.5 6.34375 13.082031 5.921875 C 12 6.886719 11.035156 9.203125 11.085938 10.753906 L 12.808594 10.753906 C 12.875 9.371094 13.425781 8.109375 14.296875 7.140625 " fill-opacity="1" fill-rule="nonzero"/><path fill="#3c5edb" d="M 18.355469 16.710938 C 16.976562 16.640625 15.726562 16.097656 14.761719 15.234375 C 14.367188 15.628906 13.953125 16.042969 13.539062 16.457031 C 14.605469 17.566406 16.558594 18.378906 18.355469 18.441406 L 18.355469 16.710938 " fill-opacity="1" fill-rule="nonzero"/><g clip-path="url(#642e5a0dcf)"><path fill="#3c5edb" d="M 18.363281 5.203125 L 18.363281 3.464844 C 16.488281 3.5625 14.878906 4.226562 13.542969 5.441406 C 13.960938 5.863281 14.367188 6.269531 14.769531 6.675781 C 15.734375 5.8125 16.984375 5.269531 18.363281 5.203125 " fill-opacity="1" fill-rule="nonzero"/></g><path fill="#3c5edb" d="M 16.703125 12.535156 L 17.296875 12.535156 C 17.351562 12.75 17.421875 12.914062 17.507812 13.027344 C 17.59375 13.144531 17.710938 13.226562 17.851562 13.28125 C 17.996094 13.335938 18.183594 13.359375 18.421875 13.359375 L 18.421875 11.425781 C 18.417969 11.425781 18.328125 11.378906 18.152344 11.285156 C 18.019531 11.21875 17.886719 11.144531 17.75 11.066406 C 17.609375 10.984375 17.488281 10.902344 17.375 10.8125 C 17.261719 10.726562 17.164062 10.632812 17.085938 10.539062 C 17.003906 10.449219 16.9375 10.351562 16.886719 10.25 C 16.835938 10.152344 16.796875 10.050781 16.769531 9.953125 C 16.746094 9.855469 16.734375 9.746094 16.734375 9.632812 C 16.734375 9.390625 16.777344 9.175781 16.863281 8.996094 C 16.949219 8.8125 17.070312 8.660156 17.222656 8.53125 C 17.375 8.402344 17.554688 8.300781 17.757812 8.226562 C 17.964844 8.152344 18.183594 8.097656 18.421875 8.070312 L 18.421875 7.316406 L 18.929688 7.316406 L 18.929688 8.046875 C 19.113281 8.046875 19.285156 8.058594 19.453125 8.070312 C 19.617188 8.085938 19.773438 8.105469 19.925781 8.136719 C 20.078125 8.164062 20.257812 8.207031 20.472656 8.265625 L 20.472656 9.320312 L 19.882812 9.320312 C 19.808594 9.050781 19.699219 8.855469 19.546875 8.734375 C 19.398438 8.613281 19.191406 8.554688 18.929688 8.550781 L 18.929688 10.339844 L 19.128906 10.441406 C 19.289062 10.515625 19.425781 10.59375 19.550781 10.664062 C 19.671875 10.734375 19.789062 10.8125 19.898438 10.894531 C 20.003906 10.972656 20.101562 11.0625 20.195312 11.160156 C 20.285156 11.257812 20.359375 11.363281 20.421875 11.472656 C 20.480469 11.582031 20.527344 11.695312 20.554688 11.816406 C 20.582031 11.9375 20.597656 12.070312 20.597656 12.207031 C 20.597656 12.527344 20.527344 12.804688 20.378906 13.039062 C 20.234375 13.273438 20.035156 13.457031 19.785156 13.59375 C 19.53125 13.726562 19.246094 13.8125 18.929688 13.847656 L 18.929688 14.597656 L 18.421875 14.597656 L 18.421875 13.867188 C 18.15625 13.863281 17.875 13.839844 17.574219 13.800781 C 17.273438 13.757812 16.984375 13.699219 16.703125 13.625 Z M 13.457031 10.957031 C 13.457031 13.824219 15.78125 16.152344 18.652344 16.152344 C 21.519531 16.152344 23.847656 13.824219 23.847656 10.957031 C 23.847656 8.085938 21.519531 5.757812 18.652344 5.757812 C 15.78125 5.757812 13.457031 8.085938 13.457031 10.957031 " fill-opacity="1" fill-rule="nonzero"/><path fill="#3c5edb" d="M 19.5625 12.527344 C 19.5625 12.332031 19.507812 12.167969 19.40625 12.027344 C 19.300781 11.882812 19.144531 11.757812 18.929688 11.644531 L 18.929688 13.316406 C 19.128906 13.285156 19.285156 13.199219 19.394531 13.058594 C 19.507812 12.921875 19.5625 12.742188 19.5625 12.527344 " fill-opacity="1" fill-rule="nonzero"/><path fill="#3c5edb" d="M 18.421875 8.578125 C 18.214844 8.609375 18.054688 8.6875 17.941406 8.8125 C 17.828125 8.9375 17.773438 9.09375 17.773438 9.285156 C 17.773438 9.472656 17.824219 9.628906 17.925781 9.757812 C 18.03125 9.882812 18.195312 10.007812 18.421875 10.128906 L 18.421875 8.578125 " fill-opacity="1" fill-rule="nonzero"/><g clip-path="url(#85688f8203)"><path fill="#3c5edb" d="M 2.277344 29.070312 C 1.988281 29.925781 1.683594 30.785156 1.386719 31.640625 C 1.222656 32.117188 1.058594 32.601562 0.894531 33.085938 L 11.652344 33.085938 C 11.175781 31.726562 10.71875 30.386719 10.242188 29.070312 L 2.277344 29.070312 " fill-opacity="1" fill-rule="nonzero"/></g><g clip-path="url(#898ad7a931)"><path fill="#3c5edb" d="M 36.328125 32.699219 C 35.90625 31.488281 35.480469 30.285156 35.074219 29.070312 L 27.09375 29.070312 C 27.074219 29.113281 27.058594 29.164062 27.039062 29.222656 C 26.597656 30.5 26.152344 31.777344 25.691406 33.101562 L 36.453125 33.101562 C 36.402344 32.949219 36.367188 32.824219 36.328125 32.699219 " fill-opacity="1" fill-rule="nonzero"/></g><g clip-path="url(#53e48dcfe3)"><path fill="#3c5edb" d="M 22.652344 29.070312 L 14.6875 29.070312 C 14.375 30.003906 14.046875 30.929688 13.722656 31.859375 C 13.582031 32.261719 13.441406 32.664062 13.289062 33.097656 L 24 33.097656 C 24.007812 33.035156 24.023438 32.996094 24.007812 32.960938 C 23.5625 31.660156 23.113281 30.363281 22.652344 29.070312 " fill-opacity="1" fill-rule="nonzero"/></g><path fill="#3c5edb" d="M 20.003906 26.902344 C 19.839844 27.386719 19.675781 27.867188 19.496094 28.378906 L 30.261719 28.378906 C 29.777344 27 29.316406 25.671875 28.847656 24.347656 L 20.90625 24.347656 C 20.59375 25.195312 20.304688 26.046875 20.003906 26.902344 " fill-opacity="1" fill-rule="nonzero"/><path fill="#3c5edb" d="M 17.796875 28.238281 C 17.351562 26.9375 16.902344 25.640625 16.441406 24.347656 L 8.484375 24.347656 C 8.160156 25.320312 7.8125 26.289062 7.476562 27.269531 C 7.351562 27.628906 7.226562 27.996094 7.089844 28.378906 L 17.8125 28.378906 C 17.808594 28.320312 17.8125 28.273438 17.796875 28.238281 " fill-opacity="1" fill-rule="nonzero"/><path fill="#3c5edb" d="M 23.996094 23.675781 C 24.007812 23.601562 24.015625 23.570312 24.011719 23.550781 C 23.550781 22.214844 23.097656 20.886719 22.617188 19.558594 L 14.722656 19.558594 C 14.246094 20.929688 13.777344 22.289062 13.289062 23.675781 L 23.996094 23.675781 " fill-opacity="1" fill-rule="nonzero"/></svg>