<svg xmlns="http://www.w3.org/2000/svg" xmlns:xlink="http://www.w3.org/1999/xlink" width="108" zoomAndPan="magnify" viewBox="0 0 81 80.999996" height="108" preserveAspectRatio="xMidYMid meet" version="1.0"><defs><clipPath id="2815df1d6e"><path d="M 0 0 L 80.417969 0 L 80.417969 80.417969 L 0 80.417969 Z M 0 0 " clip-rule="nonzero"/></clipPath><clipPath id="e8c6b57739"><path d="M 40.210938 0 C 18.003906 0 0 18.003906 0 40.210938 C 0 62.417969 18.003906 80.417969 40.210938 80.417969 C 62.417969 80.417969 80.417969 62.417969 80.417969 40.210938 C 80.417969 18.003906 62.417969 0 40.210938 0 Z M 40.210938 0 " clip-rule="nonzero"/></clipPath><clipPath id="6cc24a9626"><path d="M 14 13.3125 L 67.851562 13.3125 L 67.851562 67.3125 L 14 67.3125 Z M 14 13.3125 " clip-rule="nonzero"/></clipPath></defs><g clip-path="url(#2815df1d6e)"><g clip-path="url(#e8c6b57739)"><path fill="#fff1f1" d="M 0 0 L 80.417969 0 L 80.417969 80.417969 L 0 80.417969 Z M 0 0 " fill-opacity="1" fill-rule="nonzero"/></g></g><g clip-path="url(#6cc24a9626)"><path fill="#ff3131" d="M 67.851562 62.902344 C 67.851562 62.4375 67.476562 62.058594 67.011719 62.058594 L 64.070312 62.058594 L 64.070312 59.539062 C 64.070312 59.078125 63.691406 58.699219 63.230469 58.699219 L 61.128906 58.699219 L 61.128906 57.4375 C 61.128906 56.976562 60.75 56.597656 60.289062 56.597656 L 59.867188 56.597656 L 59.867188 36.425781 L 60.289062 36.425781 C 60.75 36.425781 61.128906 36.046875 61.128906 35.585938 L 61.128906 34.324219 L 63.230469 34.324219 C 63.691406 34.324219 64.070312 33.945312 64.070312 33.484375 L 64.070312 30.964844 L 67.476562 30.964844 C 67.9375 30.964844 68.019531 30.753906 67.601562 30.5 L 41.378906 13.523438 C 41.167969 13.398438 40.917969 13.3125 40.664062 13.3125 C 40.414062 13.3125 40.160156 13.398438 39.949219 13.523438 L 14.316406 30.5 C 13.9375 30.753906 13.980469 30.964844 14.441406 30.964844 L 17.847656 30.964844 L 17.847656 33.484375 C 17.847656 33.945312 18.222656 34.324219 18.6875 34.324219 L 20.789062 34.324219 L 20.789062 35.585938 C 20.789062 36.046875 21.164062 36.425781 21.628906 36.425781 L 22.046875 36.425781 L 22.046875 56.597656 L 21.628906 56.597656 C 21.164062 56.597656 20.789062 56.976562 20.789062 57.4375 L 20.789062 58.699219 L 18.6875 58.699219 C 18.222656 58.699219 17.847656 59.078125 17.847656 59.539062 L 17.847656 62.058594 L 14.90625 62.058594 C 14.441406 62.058594 14.0625 62.4375 14.0625 62.902344 L 14.0625 67.101562 L 67.851562 67.101562 Z M 63.230469 33.484375 L 59.660156 33.484375 L 59.660156 30.964844 L 63.230469 30.964844 Z M 16.375 30.121094 L 40.453125 14.195312 C 40.496094 14.195312 40.582031 14.152344 40.664062 14.152344 C 40.789062 14.152344 40.875 14.195312 40.917969 14.195312 L 65.5 30.121094 Z M 56.925781 50.082031 C 56.800781 50.082031 56.71875 50.167969 56.71875 50.292969 L 56.71875 56.597656 L 54.40625 56.597656 L 54.40625 36.425781 L 56.71875 36.425781 L 56.71875 42.730469 C 56.71875 42.855469 56.800781 42.941406 56.925781 42.941406 C 57.054688 42.941406 57.136719 42.855469 57.136719 42.730469 L 57.136719 36.425781 L 59.449219 36.425781 L 59.449219 56.597656 L 57.136719 56.597656 L 57.136719 50.292969 C 57.136719 50.167969 57.054688 50.082031 56.925781 50.082031 Z M 44.320312 56.597656 L 43.898438 56.597656 L 43.898438 36.425781 L 44.320312 36.425781 C 44.78125 36.425781 45.160156 36.046875 45.160156 35.585938 L 45.160156 34.324219 L 52.726562 34.324219 L 52.726562 35.585938 C 52.726562 36.046875 53.101562 36.425781 53.566406 36.425781 L 53.984375 36.425781 L 53.984375 56.597656 L 53.566406 56.597656 C 53.101562 56.597656 52.726562 56.976562 52.726562 57.4375 L 52.726562 58.699219 L 45.160156 58.699219 L 45.160156 57.4375 C 45.160156 56.976562 44.78125 56.597656 44.320312 56.597656 Z M 40.957031 50.082031 C 40.832031 50.082031 40.75 50.167969 40.75 50.292969 L 40.75 56.597656 L 38.4375 56.597656 L 38.4375 36.425781 L 40.75 36.425781 L 40.75 42.730469 C 40.75 42.855469 40.832031 42.941406 40.957031 42.941406 C 41.085938 42.941406 41.167969 42.855469 41.167969 42.730469 L 41.167969 36.425781 L 43.480469 36.425781 L 43.480469 56.597656 L 41.167969 56.597656 L 41.167969 50.292969 C 41.167969 50.167969 41.085938 50.082031 40.957031 50.082031 Z M 28.351562 56.597656 L 27.929688 56.597656 L 27.929688 36.425781 L 28.351562 36.425781 C 28.8125 36.425781 29.191406 36.046875 29.191406 35.585938 L 29.191406 34.324219 L 36.757812 34.324219 L 36.757812 35.585938 C 36.757812 36.046875 37.132812 36.425781 37.597656 36.425781 L 38.015625 36.425781 L 38.015625 56.597656 L 37.597656 56.597656 C 37.132812 56.597656 36.757812 56.976562 36.757812 57.4375 L 36.757812 58.699219 L 29.191406 58.699219 L 29.191406 57.4375 C 29.191406 56.976562 28.8125 56.597656 28.351562 56.597656 Z M 24.988281 50.082031 C 24.863281 50.082031 24.78125 50.167969 24.78125 50.292969 L 24.78125 56.597656 L 22.46875 56.597656 L 22.46875 36.425781 L 24.78125 36.425781 L 24.78125 42.730469 C 24.78125 42.855469 24.863281 42.941406 24.988281 42.941406 C 25.117188 42.941406 25.199219 42.855469 25.199219 42.730469 L 25.199219 36.425781 L 27.511719 36.425781 L 27.511719 56.597656 L 25.199219 56.597656 L 25.199219 50.292969 C 25.199219 50.167969 25.117188 50.082031 24.988281 50.082031 Z M 26.796875 33.484375 L 26.796875 30.964844 L 30.496094 30.964844 L 30.496094 33.484375 Z M 34.992188 33.484375 L 34.992188 30.964844 L 38.6875 30.964844 L 38.6875 33.484375 Z M 43.226562 33.484375 L 43.226562 30.964844 L 46.925781 30.964844 L 46.925781 33.484375 Z M 51.421875 33.484375 L 51.421875 30.964844 L 55.121094 30.964844 L 55.121094 33.484375 Z M 18.6875 33.484375 L 18.6875 30.964844 L 22.257812 30.964844 L 22.257812 33.484375 Z M 63.230469 62.058594 L 18.6875 62.058594 L 18.6875 59.539062 L 63.230469 59.539062 Z M 63.230469 62.058594 " fill-opacity="1" fill-rule="nonzero"/></g><path fill="#ff3131" d="M 25.199219 43.78125 C 25.199219 43.921875 25.128906 43.992188 24.988281 43.992188 C 24.851562 43.992188 24.78125 43.921875 24.78125 43.78125 C 24.78125 43.640625 24.851562 43.570312 24.988281 43.570312 C 25.128906 43.570312 25.199219 43.640625 25.199219 43.78125 Z M 25.199219 43.78125 " fill-opacity="1" fill-rule="nonzero"/><path fill="#ff3131" d="M 25.199219 49.242188 C 25.199219 49.382812 25.128906 49.453125 24.988281 49.453125 C 24.851562 49.453125 24.78125 49.382812 24.78125 49.242188 C 24.78125 49.101562 24.851562 49.03125 24.988281 49.03125 C 25.128906 49.03125 25.199219 49.101562 25.199219 49.242188 Z M 25.199219 49.242188 " fill-opacity="1" fill-rule="nonzero"/><path fill="#ff3131" d="M 41.167969 43.78125 C 41.167969 43.921875 41.097656 43.992188 40.957031 43.992188 C 40.816406 43.992188 40.75 43.921875 40.75 43.78125 C 40.75 43.640625 40.816406 43.570312 40.957031 43.570312 C 41.097656 43.570312 41.167969 43.640625 41.167969 43.78125 Z M 41.167969 43.78125 " fill-opacity="1" fill-rule="nonzero"/><path fill="#ff3131" d="M 41.167969 49.242188 C 41.167969 49.382812 41.097656 49.453125 40.957031 49.453125 C 40.816406 49.453125 40.75 49.382812 40.75 49.242188 C 40.75 49.101562 40.816406 49.03125 40.957031 49.03125 C 41.097656 49.03125 41.167969 49.101562 41.167969 49.242188 Z M 41.167969 49.242188 " fill-opacity="1" fill-rule="nonzero"/><path fill="#ff3131" d="M 57.136719 43.78125 C 57.136719 43.921875 57.066406 43.992188 56.925781 43.992188 C 56.785156 43.992188 56.71875 43.921875 56.71875 43.78125 C 56.71875 43.640625 56.785156 43.570312 56.925781 43.570312 C 57.066406 43.570312 57.136719 43.640625 57.136719 43.78125 Z M 57.136719 43.78125 " fill-opacity="1" fill-rule="nonzero"/><path fill="#ff3131" d="M 57.136719 49.242188 C 57.136719 49.382812 57.066406 49.453125 56.925781 49.453125 C 56.785156 49.453125 56.71875 49.382812 56.71875 49.242188 C 56.71875 49.101562 56.785156 49.03125 56.925781 49.03125 C 57.066406 49.03125 57.136719 49.101562 57.136719 49.242188 Z M 57.136719 49.242188 " fill-opacity="1" fill-rule="nonzero"/><path fill="#ff3131" d="M 38.144531 25.039062 L 39.277344 25.039062 L 38.6875 23.441406 Z M 38.144531 25.039062 " fill-opacity="1" fill-rule="nonzero"/><path fill="#ff3131" d="M 35.539062 24.199219 C 35.621094 24.15625 35.707031 24.070312 35.789062 23.988281 C 35.832031 23.902344 35.875 23.820312 35.875 23.734375 C 35.875 23.523438 35.789062 23.398438 35.664062 23.355469 C 35.539062 23.316406 35.328125 23.273438 35.035156 23.273438 L 34.402344 23.273438 L 34.402344 24.238281 L 35.074219 24.238281 C 35.285156 24.28125 35.410156 24.238281 35.539062 24.199219 Z M 35.539062 24.199219 " fill-opacity="1" fill-rule="nonzero"/><path fill="#ff3131" d="M 35.789062 24.953125 C 35.664062 24.871094 35.453125 24.828125 35.203125 24.828125 L 34.402344 24.828125 L 34.402344 25.921875 L 35.242188 25.921875 C 35.746094 25.921875 36.042969 25.753906 36.042969 25.375 C 36 25.164062 35.914062 25.039062 35.789062 24.953125 Z M 35.789062 24.953125 " fill-opacity="1" fill-rule="nonzero"/><path fill="#ff3131" d="M 59.238281 28.105469 L 41.460938 16.71875 C 41.335938 16.632812 41.042969 16.589844 40.789062 16.589844 C 40.496094 16.589844 40.242188 16.632812 40.074219 16.71875 L 22.679688 28.105469 C 22.425781 28.316406 22.46875 28.441406 22.761719 28.441406 L 59.152344 28.441406 C 59.449219 28.441406 59.492188 28.316406 59.238281 28.105469 Z M 36.589844 26.003906 C 36.460938 26.171875 36.335938 26.296875 36.167969 26.382812 C 36.042969 26.425781 35.914062 26.46875 35.789062 26.46875 C 35.621094 26.46875 35.453125 26.507812 35.285156 26.507812 L 34.109375 26.507812 C 33.941406 26.507812 33.816406 26.46875 33.730469 26.382812 C 33.644531 26.296875 33.605469 26.171875 33.605469 26.003906 L 33.605469 23.148438 C 33.605469 22.980469 33.644531 22.851562 33.730469 22.769531 C 33.816406 22.683594 33.941406 22.644531 34.066406 22.644531 L 35.285156 22.644531 C 35.453125 22.644531 35.621094 22.644531 35.746094 22.683594 C 35.875 22.726562 36 22.769531 36.082031 22.8125 C 36.167969 22.851562 36.25 22.9375 36.335938 23.019531 C 36.421875 23.105469 36.460938 23.1875 36.503906 23.273438 C 36.546875 23.355469 36.546875 23.484375 36.546875 23.566406 C 36.546875 23.945312 36.335938 24.238281 35.957031 24.40625 C 36.460938 24.574219 36.714844 24.871094 36.714844 25.332031 C 36.757812 25.625 36.714844 25.835938 36.589844 26.003906 Z M 40.371094 26.46875 C 40.285156 26.550781 40.203125 26.59375 40.117188 26.59375 C 40.074219 26.59375 39.992188 26.59375 39.949219 26.550781 C 39.90625 26.507812 39.867188 26.507812 39.824219 26.46875 C 39.78125 26.425781 39.78125 26.382812 39.738281 26.296875 C 39.699219 26.214844 39.699219 26.171875 39.65625 26.089844 L 39.488281 25.625 L 37.933594 25.625 L 37.765625 26.128906 C 37.679688 26.339844 37.636719 26.46875 37.597656 26.507812 C 37.554688 26.59375 37.46875 26.59375 37.34375 26.59375 C 37.261719 26.59375 37.175781 26.550781 37.09375 26.46875 C 37.007812 26.382812 36.964844 26.296875 36.964844 26.214844 C 36.964844 26.171875 36.964844 26.089844 37.007812 26.046875 C 37.007812 26.003906 37.050781 25.921875 37.09375 25.835938 L 38.058594 23.355469 C 38.101562 23.273438 38.101562 23.1875 38.144531 23.105469 C 38.183594 23.019531 38.226562 22.9375 38.269531 22.851562 C 38.3125 22.769531 38.351562 22.726562 38.4375 22.683594 C 38.519531 22.644531 38.605469 22.644531 38.6875 22.644531 C 38.816406 22.644531 38.898438 22.644531 38.941406 22.683594 C 39.023438 22.726562 39.066406 22.769531 39.109375 22.851562 C 39.152344 22.9375 39.195312 22.980469 39.234375 23.0625 C 39.277344 23.148438 39.320312 23.230469 39.363281 23.355469 L 40.371094 25.792969 C 40.453125 25.960938 40.496094 26.128906 40.496094 26.214844 C 40.496094 26.296875 40.453125 26.382812 40.371094 26.46875 Z M 44.234375 26.089844 C 44.234375 26.425781 44.109375 26.59375 43.816406 26.59375 C 43.730469 26.59375 43.691406 26.59375 43.648438 26.550781 C 43.605469 26.550781 43.523438 26.507812 43.480469 26.46875 C 43.4375 26.425781 43.394531 26.382812 43.355469 26.296875 C 43.3125 26.257812 43.269531 26.171875 43.226562 26.128906 L 41.800781 23.902344 L 41.800781 26.128906 C 41.800781 26.257812 41.757812 26.382812 41.714844 26.46875 C 41.628906 26.550781 41.546875 26.59375 41.460938 26.59375 C 41.335938 26.59375 41.253906 26.550781 41.210938 26.46875 C 41.125 26.382812 41.125 26.296875 41.125 26.128906 L 41.125 23.1875 C 41.125 23.0625 41.125 22.980469 41.167969 22.894531 C 41.210938 22.8125 41.253906 22.769531 41.335938 22.683594 C 41.421875 22.644531 41.503906 22.601562 41.589844 22.601562 C 41.671875 22.601562 41.714844 22.601562 41.757812 22.644531 C 41.800781 22.683594 41.839844 22.683594 41.882812 22.726562 C 41.925781 22.769531 41.96875 22.8125 42.007812 22.894531 C 42.050781 22.9375 42.09375 23.019531 42.136719 23.0625 L 43.605469 25.289062 L 43.605469 23.019531 C 43.605469 22.894531 43.648438 22.769531 43.691406 22.683594 C 43.773438 22.601562 43.859375 22.558594 43.941406 22.558594 C 44.066406 22.558594 44.152344 22.601562 44.195312 22.683594 C 44.277344 22.769531 44.277344 22.851562 44.277344 23.019531 L 44.277344 26.089844 Z M 48.1875 26.46875 C 48.101562 26.507812 48.019531 26.550781 47.933594 26.550781 C 47.808594 26.550781 47.722656 26.507812 47.683594 26.46875 C 47.640625 26.425781 47.554688 26.339844 47.515625 26.296875 C 47.472656 26.214844 47.429688 26.171875 47.386719 26.089844 L 46.464844 24.703125 L 45.832031 25.289062 L 45.832031 26.089844 C 45.832031 26.257812 45.792969 26.382812 45.707031 26.425781 C 45.621094 26.507812 45.539062 26.550781 45.414062 26.550781 C 45.328125 26.550781 45.285156 26.550781 45.246094 26.507812 C 45.203125 26.46875 45.117188 26.425781 45.117188 26.382812 C 45.078125 26.339844 45.078125 26.296875 45.078125 26.214844 C 45.078125 26.128906 45.078125 26.046875 45.078125 25.921875 L 45.078125 23.105469 C 45.078125 22.9375 45.117188 22.851562 45.160156 22.769531 C 45.246094 22.683594 45.328125 22.644531 45.453125 22.644531 C 45.582031 22.644531 45.664062 22.683594 45.75 22.769531 C 45.832031 22.851562 45.875 22.980469 45.875 23.105469 L 45.875 24.449219 L 47.386719 22.894531 C 47.472656 22.8125 47.515625 22.769531 47.554688 22.726562 C 47.597656 22.683594 47.683594 22.683594 47.765625 22.683594 C 47.890625 22.683594 47.976562 22.726562 48.019531 22.769531 C 48.058594 22.8125 48.101562 22.894531 48.101562 22.980469 C 48.101562 23.105469 48.058594 23.1875 47.933594 23.316406 L 47.007812 24.199219 L 48.101562 25.753906 C 48.1875 25.878906 48.226562 25.960938 48.269531 26.046875 C 48.3125 26.128906 48.3125 26.214844 48.3125 26.296875 C 48.3125 26.339844 48.269531 26.425781 48.1875 26.46875 Z M 48.1875 26.46875 " fill-opacity="1" fill-rule="nonzero"/></svg>