<svg xmlns="http://www.w3.org/2000/svg" xmlns:xlink="http://www.w3.org/1999/xlink" width="50" zoomAndPan="magnify" viewBox="0 0 37.5 37.499999" height="50" preserveAspectRatio="xMidYMid meet" version="1.0"><defs><clipPath id="7def0df49a"><path d="M 0.429688 14 L 28 14 L 28 33.445312 L 0.429688 33.445312 Z M 0.429688 14 " clip-rule="nonzero"/></clipPath><clipPath id="9260dac5d4"><path d="M 9 3.839844 L 36.695312 3.839844 L 36.695312 24 L 9 24 Z M 9 3.839844 " clip-rule="nonzero"/></clipPath></defs><path fill="#22b2bb" d="M 15.796875 15.746094 C 16.054688 15.449219 16.441406 15.234375 16.808594 15.066406 C 17.066406 14.949219 17.179688 14.839844 17.167969 14.558594 C 17.15625 14.25 17.1875 13.941406 17.199219 13.59375 C 18.117188 13.628906 18.960938 13.664062 19.84375 13.695312 C 19.824219 14.152344 19.808594 14.589844 19.789062 15.011719 C 20.433594 15.292969 21.039062 15.558594 21.699219 15.847656 C 21.347656 16.496094 21.027344 17.085938 20.746094 17.605469 C 19.957031 17.320312 19.21875 17.03125 18.464844 16.796875 C 18.171875 16.703125 17.734375 16.632812 17.617188 17.019531 C 17.484375 17.445312 17.9375 17.515625 18.21875 17.640625 C 18.746094 17.875 19.28125 18.085938 19.824219 18.289062 C 21.761719 19.015625 21.398438 21.503906 20.132812 22.238281 C 19.535156 22.582031 19.449219 22.988281 19.46875 23.546875 C 19.472656 23.679688 19.460938 23.8125 19.453125 23.972656 C 18.570312 23.9375 17.71875 23.902344 16.792969 23.867188 C 16.804688 23.566406 16.800781 23.257812 16.835938 22.957031 C 16.863281 22.679688 16.792969 22.53125 16.507812 22.433594 C 16.09375 22.289062 15.703125 22.074219 15.261719 21.867188 C 15.597656 21.277344 15.910156 20.730469 16.234375 20.160156 C 16.632812 20.347656 17.007812 20.554688 17.402344 20.695312 C 17.71875 20.808594 18.058594 20.890625 18.390625 20.898438 C 18.566406 20.902344 18.75 20.71875 18.929688 20.617188 C 18.8125 20.449219 18.730469 20.203125 18.570312 20.128906 C 17.941406 19.835938 17.277344 19.621094 16.644531 19.335938 C 15.195312 18.691406 14.773438 16.941406 15.796875 15.746094 Z M 17.929688 26.410156 C 22.023438 26.664062 25.625 23.398438 25.859375 19.226562 C 26.089844 15.136719 22.867188 11.578125 18.699219 11.320312 C 14.605469 11.066406 11 14.332031 10.765625 18.503906 C 10.539062 22.59375 13.761719 26.152344 17.929688 26.410156 " fill-opacity="1" fill-rule="nonzero"/><g clip-path="url(#7def0df49a)"><path fill="#22b2bb" d="M 25.820312 28.890625 C 25.734375 28.945312 25.648438 29.003906 25.5625 29.0625 L 25.53125 29.082031 C 25.40625 29.164062 25.28125 29.25 25.15625 29.328125 C 22.9375 30.734375 20.480469 31.390625 17.863281 31.273438 C 15.402344 31.167969 13.128906 30.375 11.105469 28.921875 C 9.320312 27.640625 7.941406 25.957031 7.011719 23.929688 C 6.238281 22.246094 5.855469 20.441406 5.875 18.554688 C 6.261719 19.078125 6.648438 19.601562 7.035156 20.121094 C 7.277344 20.449219 7.558594 20.632812 7.878906 20.675781 C 8.074219 20.703125 8.371094 20.683594 8.671875 20.441406 C 9.085938 20.117188 9.285156 19.492188 8.800781 18.828125 C 8.5625 18.496094 8.320312 18.167969 8.078125 17.84375 L 5.480469 14.335938 L 0.570312 18.003906 L 0.429688 18.945312 L 0.613281 19.164062 C 1.179688 19.835938 1.699219 19.894531 2.417969 19.363281 L 2.453125 19.339844 C 2.820312 19.070312 3.1875 18.796875 3.554688 18.527344 C 3.601562 18.492188 3.644531 18.457031 3.691406 18.421875 C 3.6875 18.660156 3.683594 18.898438 3.695312 19.136719 C 3.867188 23.152344 5.355469 26.554688 8.125 29.25 C 10.429688 31.496094 13.117188 32.863281 16.109375 33.3125 C 16.84375 33.421875 17.605469 33.476562 18.382812 33.476562 C 18.929688 33.476562 19.488281 33.449219 20.050781 33.394531 C 22.539062 33.152344 24.894531 32.242188 27.054688 30.699219 C 27.382812 30.464844 27.574219 30.1875 27.625 29.875 C 27.65625 29.683594 27.648438 29.390625 27.425781 29.082031 C 27.121094 28.664062 26.507812 28.441406 25.820312 28.890625 " fill-opacity="1" fill-rule="nonzero"/></g><g clip-path="url(#9260dac5d4)"><path fill="#22b2bb" d="M 36.292969 18.261719 C 35.726562 17.589844 35.203125 17.53125 34.484375 18.0625 L 34.207031 18.265625 C 33.882812 18.503906 33.5625 18.742188 33.242188 18.980469 C 33.230469 18.992188 33.21875 19 33.210938 19.007812 C 33.253906 17.226562 32.960938 15.449219 32.339844 13.71875 C 31.320312 10.886719 29.582031 8.554688 27.167969 6.789062 C 24.507812 4.839844 21.488281 3.886719 18.167969 3.945312 C 15.148438 4.003906 12.339844 4.945312 9.820312 6.746094 C 9.511719 6.96875 9.328125 7.238281 9.277344 7.546875 C 9.230469 7.824219 9.300781 8.101562 9.480469 8.34375 C 9.835938 8.839844 10.484375 8.925781 11.050781 8.558594 C 11.183594 8.472656 11.3125 8.386719 11.445312 8.296875 C 11.667969 8.144531 11.875 8.003906 12.09375 7.878906 C 14.050781 6.738281 16.152344 6.15625 18.335938 6.140625 C 20.035156 6.128906 21.640625 6.425781 23.125 7.03125 C 25.375 7.941406 27.226562 9.386719 28.628906 11.320312 C 30.167969 13.445312 30.976562 15.867188 31.03125 18.515625 C 31.03125 18.632812 31.03125 18.753906 31.03125 18.871094 L 30.726562 18.457031 C 30.441406 18.070312 30.160156 17.6875 29.871094 17.300781 C 29.640625 16.992188 29.351562 16.800781 29.027344 16.75 C 28.835938 16.726562 28.539062 16.746094 28.238281 16.980469 C 27.824219 17.300781 27.621094 17.921875 28.097656 18.59375 C 28.160156 18.679688 28.222656 18.765625 28.289062 18.851562 L 31.410156 23.089844 L 36.335938 19.421875 L 36.476562 18.484375 L 36.292969 18.261719 " fill-opacity="1" fill-rule="nonzero"/></g></svg>