<svg xmlns="http://www.w3.org/2000/svg" xmlns:xlink="http://www.w3.org/1999/xlink" width="51" zoomAndPan="magnify" viewBox="0 0 38.25 38.249999" height="51" preserveAspectRatio="xMidYMid meet" version="1.0"><defs><clipPath id="0881b3af64"><path d="M 0 0 L 37.339844 0 L 37.339844 37.339844 L 0 37.339844 Z M 0 0 " clip-rule="nonzero"/></clipPath><clipPath id="4eede56ba5"><path d="M 18.667969 0 C 8.359375 0 0 8.359375 0 18.667969 C 0 28.980469 8.359375 37.339844 18.667969 37.339844 C 28.980469 37.339844 37.339844 28.980469 37.339844 18.667969 C 37.339844 8.359375 28.980469 0 18.667969 0 Z M 18.667969 0 " clip-rule="nonzero"/></clipPath><radialGradient gradientTransform="matrix(1, 0, 0, 1, 0.0000005, 0)" gradientUnits="userSpaceOnUse" r="26.402194" cx="18.669205" id="b8edb53346" cy="18.669205" fx="18.669205" fy="18.669205"><stop stop-opacity="1" stop-color="rgb(91.993713%, 99.54834%, 100%)" offset="0"/><stop stop-opacity="1" stop-color="rgb(92.356873%, 99.455261%, 100%)" offset="0.03125"/><stop stop-opacity="1" stop-color="rgb(92.695618%, 99.36676%, 100%)" offset="0.0585938"/><stop stop-opacity="1" stop-color="rgb(93.034363%, 99.279785%, 100%)" offset="0.0859375"/><stop stop-opacity="1" stop-color="rgb(93.373108%, 99.19281%, 100%)" offset="0.113281"/><stop stop-opacity="1" stop-color="rgb(93.687439%, 99.110413%, 100%)" offset="0.140625"/><stop stop-opacity="1" stop-color="rgb(93.978882%, 99.035645%, 100%)" offset="0.164062"/><stop stop-opacity="1" stop-color="rgb(94.268799%, 98.960876%, 100%)" offset="0.1875"/><stop stop-opacity="1" stop-color="rgb(94.560242%, 98.886108%, 100%)" offset="0.210938"/><stop stop-opacity="1" stop-color="rgb(94.850159%, 98.81134%, 100%)" offset="0.234375"/><stop stop-opacity="1" stop-color="rgb(95.117188%, 98.742676%, 100%)" offset="0.257812"/><stop stop-opacity="1" stop-color="rgb(95.358276%, 98.680115%, 100%)" offset="0.277344"/><stop stop-opacity="1" stop-color="rgb(95.600891%, 98.617554%, 100%)" offset="0.296875"/><stop stop-opacity="1" stop-color="rgb(95.843506%, 98.554993%, 100%)" offset="0.316406"/><stop stop-opacity="1" stop-color="rgb(96.086121%, 98.492432%, 100%)" offset="0.335938"/><stop stop-opacity="1" stop-color="rgb(96.327209%, 98.429871%, 100%)" offset="0.355469"/><stop stop-opacity="1" stop-color="rgb(96.569824%, 98.36731%, 100%)" offset="0.375"/><stop stop-opacity="1" stop-color="rgb(96.788025%, 98.310852%, 100%)" offset="0.394531"/><stop stop-opacity="1" stop-color="rgb(96.981812%, 98.260498%, 100%)" offset="0.410156"/><stop stop-opacity="1" stop-color="rgb(97.175598%, 98.21167%, 100%)" offset="0.425781"/><stop stop-opacity="1" stop-color="rgb(97.467041%, 98.136902%, 100%)" offset="0.441406"/><stop stop-opacity="1" stop-color="rgb(97.756958%, 98.060608%, 100%)" offset="0.472656"/><stop stop-opacity="1" stop-color="rgb(97.901917%, 98.023987%, 100%)" offset="0.488281"/><stop stop-opacity="1" stop-color="rgb(97.975159%, 98.005676%, 100%)" offset="0.496094"/><stop stop-opacity="1" stop-color="rgb(97.616577%, 97.872925%, 99.781799%)" offset="0.5"/><stop stop-opacity="1" stop-color="rgb(96.850586%, 97.622681%, 99.345398%)" offset="0.503906"/><stop stop-opacity="1" stop-color="rgb(96.084595%, 97.372437%, 98.910522%)" offset="0.507812"/><stop stop-opacity="1" stop-color="rgb(95.320129%, 97.120667%, 98.475647%)" offset="0.511719"/><stop stop-opacity="1" stop-color="rgb(94.554138%, 96.870422%, 98.040771%)" offset="0.515625"/><stop stop-opacity="1" stop-color="rgb(93.788147%, 96.620178%, 97.605896%)" offset="0.519531"/><stop stop-opacity="1" stop-color="rgb(93.022156%, 96.368408%, 97.169495%)" offset="0.523438"/><stop stop-opacity="1" stop-color="rgb(92.256165%, 96.118164%, 96.734619%)" offset="0.527344"/><stop stop-opacity="1" stop-color="rgb(91.491699%, 95.86792%, 96.299744%)" offset="0.53125"/><stop stop-opacity="1" stop-color="rgb(90.725708%, 95.61615%, 95.864868%)" offset="0.535156"/><stop stop-opacity="1" stop-color="rgb(89.959717%, 95.365906%, 95.429993%)" offset="0.539062"/><stop stop-opacity="1" stop-color="rgb(89.193726%, 95.115662%, 94.993591%)" offset="0.542969"/><stop stop-opacity="1" stop-color="rgb(88.42926%, 94.863892%, 94.558716%)" offset="0.546875"/><stop stop-opacity="1" stop-color="rgb(87.663269%, 94.613647%, 94.12384%)" offset="0.550781"/><stop stop-opacity="1" stop-color="rgb(86.897278%, 94.363403%, 93.688965%)" offset="0.554688"/><stop stop-opacity="1" stop-color="rgb(86.131287%, 94.111633%, 93.254089%)" offset="0.558594"/><stop stop-opacity="1" stop-color="rgb(85.366821%, 93.861389%, 92.819214%)" offset="0.5625"/><stop stop-opacity="1" stop-color="rgb(84.60083%, 93.609619%, 92.382812%)" offset="0.566406"/><stop stop-opacity="1" stop-color="rgb(83.834839%, 93.359375%, 91.947937%)" offset="0.570312"/><stop stop-opacity="1" stop-color="rgb(83.068848%, 93.109131%, 91.513062%)" offset="0.574219"/><stop stop-opacity="1" stop-color="rgb(82.304382%, 92.857361%, 91.078186%)" offset="0.578125"/><stop stop-opacity="1" stop-color="rgb(81.538391%, 92.607117%, 90.643311%)" offset="0.582031"/><stop stop-opacity="1" stop-color="rgb(80.7724%, 92.356873%, 90.206909%)" offset="0.585938"/><stop stop-opacity="1" stop-color="rgb(80.006409%, 92.105103%, 89.772034%)" offset="0.589844"/><stop stop-opacity="1" stop-color="rgb(79.241943%, 91.854858%, 89.337158%)" offset="0.59375"/><stop stop-opacity="1" stop-color="rgb(78.475952%, 91.604614%, 88.902283%)" offset="0.597656"/><stop stop-opacity="1" stop-color="rgb(77.709961%, 91.352844%, 88.467407%)" offset="0.601562"/><stop stop-opacity="1" stop-color="rgb(76.94397%, 91.1026%, 88.032532%)" offset="0.605469"/><stop stop-opacity="1" stop-color="rgb(76.179504%, 90.852356%, 87.59613%)" offset="0.609375"/><stop stop-opacity="1" stop-color="rgb(75.413513%, 90.600586%, 87.161255%)" offset="0.613281"/><stop stop-opacity="1" stop-color="rgb(74.647522%, 90.350342%, 86.726379%)" offset="0.617188"/><stop stop-opacity="1" stop-color="rgb(73.881531%, 90.100098%, 86.291504%)" offset="0.621094"/><stop stop-opacity="1" stop-color="rgb(73.11554%, 89.848328%, 85.856628%)" offset="0.625"/><stop stop-opacity="1" stop-color="rgb(72.351074%, 89.598083%, 85.420227%)" offset="0.628906"/><stop stop-opacity="1" stop-color="rgb(71.585083%, 89.346313%, 84.985352%)" offset="0.632812"/><stop stop-opacity="1" stop-color="rgb(70.819092%, 89.096069%, 84.550476%)" offset="0.636719"/><stop stop-opacity="1" stop-color="rgb(70.053101%, 88.845825%, 84.115601%)" offset="0.640625"/><stop stop-opacity="1" stop-color="rgb(69.288635%, 88.594055%, 83.680725%)" offset="0.644531"/><stop stop-opacity="1" stop-color="rgb(68.522644%, 88.343811%, 83.24585%)" offset="0.648438"/><stop stop-opacity="1" stop-color="rgb(67.756653%, 88.093567%, 82.809448%)" offset="0.652344"/><stop stop-opacity="1" stop-color="rgb(66.990662%, 87.841797%, 82.374573%)" offset="0.65625"/><stop stop-opacity="1" stop-color="rgb(66.226196%, 87.591553%, 81.939697%)" offset="0.660156"/><stop stop-opacity="1" stop-color="rgb(65.460205%, 87.341309%, 81.504822%)" offset="0.664062"/><stop stop-opacity="1" stop-color="rgb(64.694214%, 87.089539%, 81.069946%)" offset="0.667969"/><stop stop-opacity="1" stop-color="rgb(63.928223%, 86.839294%, 80.633545%)" offset="0.671875"/><stop stop-opacity="1" stop-color="rgb(63.163757%, 86.58905%, 80.198669%)" offset="0.675781"/><stop stop-opacity="1" stop-color="rgb(62.397766%, 86.33728%, 79.763794%)" offset="0.679688"/><stop stop-opacity="1" stop-color="rgb(61.631775%, 86.087036%, 79.328918%)" offset="0.683594"/><stop stop-opacity="1" stop-color="rgb(60.865784%, 85.836792%, 78.894043%)" offset="0.6875"/><stop stop-opacity="1" stop-color="rgb(60.101318%, 85.585022%, 78.457642%)" offset="0.691406"/><stop stop-opacity="1" stop-color="rgb(59.335327%, 85.334778%, 78.022766%)" offset="0.695312"/><stop stop-opacity="1" stop-color="rgb(58.569336%, 85.083008%, 77.587891%)" offset="0.699219"/><stop stop-opacity="1" stop-color="rgb(57.803345%, 84.832764%, 77.153015%)" offset="0.703125"/><stop stop-opacity="1" stop-color="rgb(57.038879%, 84.58252%, 76.71814%)" offset="0.707031"/><stop stop-opacity="1" stop-color="rgb(56.272888%, 84.33075%, 76.283264%)" offset="0.710938"/><stop stop-opacity="1" stop-color="rgb(55.506897%, 84.080505%, 75.846863%)" offset="0.714844"/><stop stop-opacity="1" stop-color="rgb(54.740906%, 83.830261%, 75.411987%)" offset="0.71875"/><stop stop-opacity="1" stop-color="rgb(53.974915%, 83.578491%, 74.977112%)" offset="0.722656"/><stop stop-opacity="1" stop-color="rgb(53.210449%, 83.328247%, 74.542236%)" offset="0.726562"/><stop stop-opacity="1" stop-color="rgb(52.444458%, 83.078003%, 74.107361%)" offset="0.730469"/><stop stop-opacity="1" stop-color="rgb(51.678467%, 82.826233%, 73.670959%)" offset="0.734375"/><stop stop-opacity="1" stop-color="rgb(50.912476%, 82.575989%, 73.236084%)" offset="0.738281"/><stop stop-opacity="1" stop-color="rgb(50.14801%, 82.325745%, 72.801208%)" offset="0.742188"/><stop stop-opacity="1" stop-color="rgb(49.382019%, 82.073975%, 72.366333%)" offset="0.746094"/><stop stop-opacity="1" stop-color="rgb(48.616028%, 81.82373%, 71.931458%)" offset="0.75"/><stop stop-opacity="1" stop-color="rgb(47.850037%, 81.573486%, 71.496582%)" offset="0.753906"/><stop stop-opacity="1" stop-color="rgb(47.085571%, 81.321716%, 71.060181%)" offset="0.757812"/><stop stop-opacity="1" stop-color="rgb(46.31958%, 81.071472%, 70.625305%)" offset="0.761719"/><stop stop-opacity="1" stop-color="rgb(45.553589%, 80.819702%, 70.19043%)" offset="0.765625"/><stop stop-opacity="1" stop-color="rgb(44.787598%, 80.569458%, 69.755554%)" offset="0.769531"/><stop stop-opacity="1" stop-color="rgb(44.023132%, 80.319214%, 69.320679%)" offset="0.773438"/><stop stop-opacity="1" stop-color="rgb(43.257141%, 80.067444%, 68.884277%)" offset="0.777344"/><stop stop-opacity="1" stop-color="rgb(42.49115%, 79.8172%, 68.449402%)" offset="0.78125"/><stop stop-opacity="1" stop-color="rgb(41.725159%, 79.566956%, 68.014526%)" offset="0.785156"/><stop stop-opacity="1" stop-color="rgb(40.960693%, 79.315186%, 67.579651%)" offset="0.789062"/><stop stop-opacity="1" stop-color="rgb(40.194702%, 79.064941%, 67.144775%)" offset="0.792969"/><stop stop-opacity="1" stop-color="rgb(39.428711%, 78.814697%, 66.7099%)" offset="0.796875"/><stop stop-opacity="1" stop-color="rgb(38.66272%, 78.562927%, 66.273499%)" offset="0.800781"/><stop stop-opacity="1" stop-color="rgb(37.898254%, 78.312683%, 65.838623%)" offset="0.804688"/><stop stop-opacity="1" stop-color="rgb(37.132263%, 78.062439%, 65.403748%)" offset="0.808594"/><stop stop-opacity="1" stop-color="rgb(36.366272%, 77.810669%, 64.968872%)" offset="0.8125"/><stop stop-opacity="1" stop-color="rgb(35.600281%, 77.560425%, 64.533997%)" offset="0.816406"/><stop stop-opacity="1" stop-color="rgb(34.83429%, 77.310181%, 64.097595%)" offset="0.820312"/><stop stop-opacity="1" stop-color="rgb(34.069824%, 77.058411%, 63.66272%)" offset="0.824219"/><stop stop-opacity="1" stop-color="rgb(33.303833%, 76.808167%, 63.227844%)" offset="0.828125"/><stop stop-opacity="1" stop-color="rgb(32.537842%, 76.557922%, 62.792969%)" offset="0.832031"/><stop stop-opacity="1" stop-color="rgb(31.771851%, 76.306152%, 62.358093%)" offset="0.835938"/><stop stop-opacity="1" stop-color="rgb(31.007385%, 76.055908%, 61.921692%)" offset="0.839844"/><stop stop-opacity="1" stop-color="rgb(30.241394%, 75.804138%, 61.486816%)" offset="0.84375"/><stop stop-opacity="1" stop-color="rgb(29.475403%, 75.553894%, 61.051941%)" offset="0.847656"/><stop stop-opacity="1" stop-color="rgb(28.709412%, 75.30365%, 60.617065%)" offset="0.851562"/><stop stop-opacity="1" stop-color="rgb(27.944946%, 75.05188%, 60.18219%)" offset="0.855469"/><stop stop-opacity="1" stop-color="rgb(27.178955%, 74.801636%, 59.747314%)" offset="0.859375"/><stop stop-opacity="1" stop-color="rgb(26.412964%, 74.551392%, 59.310913%)" offset="0.863281"/><stop stop-opacity="1" stop-color="rgb(25.646973%, 74.299622%, 58.876038%)" offset="0.867188"/><stop stop-opacity="1" stop-color="rgb(24.882507%, 74.049377%, 58.441162%)" offset="0.871094"/><stop stop-opacity="1" stop-color="rgb(24.116516%, 73.799133%, 58.006287%)" offset="0.875"/><stop stop-opacity="1" stop-color="rgb(23.350525%, 73.547363%, 57.571411%)" offset="0.878906"/><stop stop-opacity="1" stop-color="rgb(22.584534%, 73.297119%, 57.13501%)" offset="0.882812"/><stop stop-opacity="1" stop-color="rgb(21.820068%, 73.046875%, 56.700134%)" offset="0.886719"/><stop stop-opacity="1" stop-color="rgb(21.054077%, 72.795105%, 56.265259%)" offset="0.890625"/><stop stop-opacity="1" stop-color="rgb(20.288086%, 72.544861%, 55.830383%)" offset="0.894531"/><stop stop-opacity="1" stop-color="rgb(19.522095%, 72.294617%, 55.395508%)" offset="0.898438"/><stop stop-opacity="1" stop-color="rgb(18.757629%, 72.042847%, 54.960632%)" offset="0.902344"/><stop stop-opacity="1" stop-color="rgb(17.991638%, 71.792603%, 54.524231%)" offset="0.90625"/><stop stop-opacity="1" stop-color="rgb(17.225647%, 71.540833%, 54.089355%)" offset="0.910156"/><stop stop-opacity="1" stop-color="rgb(16.459656%, 71.290588%, 53.65448%)" offset="0.914062"/><stop stop-opacity="1" stop-color="rgb(15.693665%, 71.040344%, 53.219604%)" offset="0.917969"/><stop stop-opacity="1" stop-color="rgb(14.929199%, 70.788574%, 52.784729%)" offset="0.921875"/><stop stop-opacity="1" stop-color="rgb(14.163208%, 70.53833%, 52.348328%)" offset="0.925781"/><stop stop-opacity="1" stop-color="rgb(13.397217%, 70.288086%, 51.913452%)" offset="0.929688"/><stop stop-opacity="1" stop-color="rgb(12.631226%, 70.036316%, 51.478577%)" offset="0.933594"/><stop stop-opacity="1" stop-color="rgb(11.86676%, 69.786072%, 51.043701%)" offset="0.9375"/><stop stop-opacity="1" stop-color="rgb(11.100769%, 69.535828%, 50.608826%)" offset="0.941406"/><stop stop-opacity="1" stop-color="rgb(10.334778%, 69.284058%, 50.17395%)" offset="0.945312"/><stop stop-opacity="1" stop-color="rgb(9.568787%, 69.033813%, 49.737549%)" offset="0.949219"/><stop stop-opacity="1" stop-color="rgb(8.804321%, 68.783569%, 49.302673%)" offset="0.953125"/><stop stop-opacity="1" stop-color="rgb(8.03833%, 68.531799%, 48.867798%)" offset="0.957031"/><stop stop-opacity="1" stop-color="rgb(7.272339%, 68.281555%, 48.432922%)" offset="0.960938"/><stop stop-opacity="1" stop-color="rgb(6.506348%, 68.031311%, 47.998047%)" offset="0.964844"/><stop stop-opacity="1" stop-color="rgb(5.741882%, 67.779541%, 47.561646%)" offset="0.96875"/><stop stop-opacity="1" stop-color="rgb(4.975891%, 67.529297%, 47.12677%)" offset="0.972656"/><stop stop-opacity="1" stop-color="rgb(4.2099%, 67.277527%, 46.691895%)" offset="0.976562"/><stop stop-opacity="1" stop-color="rgb(3.443909%, 67.027283%, 46.257019%)" offset="0.980469"/><stop stop-opacity="1" stop-color="rgb(2.679443%, 66.777039%, 45.822144%)" offset="0.984375"/><stop stop-opacity="1" stop-color="rgb(1.913452%, 66.525269%, 45.387268%)" offset="0.988281"/><stop stop-opacity="1" stop-color="rgb(1.147461%, 66.275024%, 44.950867%)" offset="0.992188"/><stop stop-opacity="1" stop-color="rgb(0.38147%, 66.02478%, 44.515991%)" offset="0.996094"/><stop stop-opacity="1" stop-color="rgb(0%, 65.899658%, 44.299316%)" offset="1"/></radialGradient><clipPath id="62c772cd8f"><path d="M 3.082031 11 L 33.976562 11 L 33.976562 34.945312 L 3.082031 34.945312 Z M 3.082031 11 " clip-rule="nonzero"/></clipPath><clipPath id="6d97fcf79b"><path d="M 12 2.578125 L 26 2.578125 L 26 16 L 12 16 Z M 12 2.578125 " clip-rule="nonzero"/></clipPath></defs><g clip-path="url(#0881b3af64)"><g clip-path="url(#4eede56ba5)"><path fill="url(#b8edb53346)" d="M 0 0 L 0 37.339844 L 37.339844 37.339844 L 37.339844 0 Z M 0 0 " fill-rule="nonzero"/></g></g><path fill="#00bf63" d="M 7.148438 28.703125 L 16.535156 28.703125 C 17.6875 28.703125 18.640625 27.75 18.640625 26.59375 C 18.640625 27.75 19.597656 28.703125 20.75 28.703125 L 30.136719 28.703125 C 30.941406 28.703125 31.59375 28.050781 31.59375 27.246094 L 31.59375 10.082031 C 31.59375 9.277344 30.941406 8.625 30.136719 8.625 L 26.019531 8.625 C 26.019531 8.777344 26.019531 8.925781 26.019531 9.078125 C 26.019531 13.195312 22.707031 16.507812 18.59375 16.507812 C 14.476562 16.507812 11.164062 13.195312 11.164062 9.078125 C 11.164062 8.925781 11.164062 8.777344 11.164062 8.625 L 7.046875 8.625 C 6.246094 8.625 5.59375 9.277344 5.59375 10.082031 L 5.59375 27.296875 C 5.691406 28.050781 6.34375 28.703125 7.148438 28.703125 Z M 21.253906 16.707031 L 28.980469 16.707031 C 29.234375 16.707031 29.484375 16.90625 29.484375 17.207031 C 29.484375 17.460938 29.285156 17.710938 28.980469 17.710938 L 21.253906 17.710938 C 21 17.710938 20.75 17.511719 20.75 17.207031 C 20.75 16.90625 21 16.707031 21.253906 16.707031 Z M 21.253906 19.667969 L 28.980469 19.667969 C 29.234375 19.667969 29.484375 19.871094 29.484375 20.171875 C 29.484375 20.421875 29.285156 20.671875 28.980469 20.671875 L 21.253906 20.671875 C 21 20.671875 20.75 20.472656 20.75 20.171875 C 20.75 19.871094 21 19.667969 21.253906 19.667969 Z M 21.253906 22.578125 L 28.980469 22.578125 C 29.234375 22.578125 29.484375 22.78125 29.484375 23.082031 C 29.484375 23.382812 29.285156 23.582031 28.980469 23.582031 L 21.253906 23.582031 C 21 23.582031 20.75 23.382812 20.75 23.082031 C 20.75 22.78125 21 22.578125 21.253906 22.578125 Z M 21.253906 25.542969 L 28.980469 25.542969 C 29.234375 25.542969 29.484375 25.742188 29.484375 26.042969 C 29.484375 26.292969 29.285156 26.546875 28.980469 26.546875 L 21.253906 26.546875 C 21 26.546875 20.75 26.34375 20.75 26.042969 C 20.75 25.742188 21 25.542969 21.253906 25.542969 Z M 8.300781 16.707031 L 16.03125 16.707031 C 16.285156 16.707031 16.535156 16.90625 16.535156 17.207031 C 16.535156 17.460938 16.332031 17.710938 16.03125 17.710938 L 8.300781 17.710938 C 8.050781 17.710938 7.800781 17.511719 7.800781 17.207031 C 7.800781 16.90625 8 16.707031 8.300781 16.707031 Z M 8.300781 19.667969 L 16.03125 19.667969 C 16.285156 19.667969 16.535156 19.871094 16.535156 20.171875 C 16.535156 20.421875 16.332031 20.671875 16.03125 20.671875 L 8.300781 20.671875 C 8.050781 20.671875 7.800781 20.472656 7.800781 20.171875 C 7.800781 19.871094 8 19.667969 8.300781 19.667969 Z M 8.300781 22.578125 L 16.03125 22.578125 C 16.285156 22.578125 16.535156 22.78125 16.535156 23.082031 C 16.535156 23.382812 16.332031 23.582031 16.03125 23.582031 L 8.300781 23.582031 C 8.050781 23.582031 7.800781 23.382812 7.800781 23.082031 C 7.800781 22.78125 8 22.578125 8.300781 22.578125 Z M 8.300781 25.542969 L 16.03125 25.542969 C 16.285156 25.542969 16.535156 25.742188 16.535156 26.042969 C 16.535156 26.292969 16.332031 26.546875 16.03125 26.546875 L 8.300781 26.546875 C 8.050781 26.546875 7.800781 26.34375 7.800781 26.042969 C 7.800781 25.742188 8 25.542969 8.300781 25.542969 Z M 8.300781 25.542969 " fill-opacity="1" fill-rule="nonzero"/><g clip-path="url(#62c772cd8f)"><path fill="#00bf63" d="M 32.597656 11.335938 L 32.597656 27.246094 C 32.597656 28.601562 31.492188 29.65625 30.1875 29.65625 L 20.75 29.65625 C 19.949219 29.65625 19.195312 29.355469 18.640625 28.804688 C 18.089844 29.304688 17.335938 29.65625 16.535156 29.65625 L 7.148438 29.65625 C 5.792969 29.65625 4.738281 28.550781 4.738281 27.246094 L 4.738281 11.335938 C 3.785156 11.488281 3.082031 12.289062 3.082031 13.292969 L 3.082031 29.40625 C 3.082031 30.460938 3.9375 31.363281 5.039062 31.363281 L 14.828125 31.363281 C 15.027344 33.21875 16.683594 34.726562 18.640625 34.726562 C 20.601562 34.726562 22.257812 33.21875 22.507812 31.3125 L 32.292969 31.3125 C 33.347656 31.3125 34.253906 30.460938 34.253906 29.355469 L 34.253906 13.292969 C 34.203125 12.289062 33.5 11.488281 32.597656 11.335938 Z M 32.597656 11.335938 " fill-opacity="1" fill-rule="nonzero"/></g><g clip-path="url(#6d97fcf79b)"><path fill="#00bf63" d="M 18.640625 15.503906 C 22.207031 15.503906 25.117188 12.589844 25.117188 9.027344 C 25.117188 5.515625 22.207031 2.601562 18.640625 2.601562 C 15.078125 2.601562 12.167969 5.515625 12.167969 9.078125 C 12.167969 12.640625 15.078125 15.503906 18.640625 15.503906 Z M 18.640625 9.53125 C 17.589844 9.53125 16.734375 8.675781 16.734375 7.621094 C 16.734375 6.71875 17.335938 6.015625 18.140625 5.765625 L 18.140625 5.210938 C 18.140625 4.960938 18.339844 4.710938 18.640625 4.710938 C 18.945312 4.710938 19.144531 4.910156 19.144531 5.210938 L 19.144531 5.816406 C 19.949219 6.015625 20.550781 6.769531 20.550781 7.671875 C 20.550781 7.921875 20.347656 8.175781 20.046875 8.175781 C 19.746094 8.175781 19.546875 7.972656 19.546875 7.671875 C 19.546875 7.171875 19.144531 6.71875 18.59375 6.71875 C 18.089844 6.71875 17.636719 7.121094 17.636719 7.671875 C 17.636719 8.222656 18.039062 8.625 18.59375 8.625 C 19.644531 8.625 20.5 9.480469 20.5 10.535156 C 20.5 11.4375 19.898438 12.140625 19.09375 12.390625 L 19.09375 12.992188 C 19.09375 13.242188 18.894531 13.496094 18.59375 13.496094 C 18.289062 13.496094 18.089844 13.292969 18.089844 12.992188 L 18.089844 12.390625 C 17.285156 12.191406 16.683594 11.4375 16.683594 10.535156 C 16.683594 10.28125 16.886719 10.03125 17.1875 10.03125 C 17.4375 10.03125 17.6875 10.230469 17.6875 10.535156 C 17.6875 11.035156 18.089844 11.488281 18.640625 11.488281 C 19.144531 11.488281 19.597656 11.085938 19.597656 10.535156 C 19.597656 9.980469 19.144531 9.53125 18.640625 9.53125 Z M 18.640625 9.53125 " fill-opacity="1" fill-rule="nonzero"/></g></svg>