<svg xmlns="http://www.w3.org/2000/svg" xmlns:xlink="http://www.w3.org/1999/xlink" width="50" zoomAndPan="magnify" viewBox="0 0 37.5 37.499999" height="50" preserveAspectRatio="xMidYMid meet" version="1.0"><defs><clipPath id="9888e18d3c"><path d="M 20 13 L 34.726562 13 L 34.726562 33.355469 L 20 33.355469 Z M 20 13 " clip-rule="nonzero"/></clipPath><clipPath id="8ecf6f2da5"><path d="M 2.164062 3.753906 L 25 3.753906 L 25 33.355469 L 2.164062 33.355469 Z M 2.164062 3.753906 " clip-rule="nonzero"/></clipPath></defs><g clip-path="url(#9888e18d3c)"><path fill="#e4f2f3" d="M 34.050781 33.449219 L 21.6875 33.449219 C 21.269531 33.449219 20.90625 33.105469 20.90625 32.664062 L 20.90625 14.199219 C 20.90625 13.777344 21.269531 13.414062 21.6875 13.414062 L 34.050781 13.414062 C 34.472656 13.414062 34.835938 13.777344 34.835938 14.199219 L 34.835938 32.664062 C 34.835938 33.105469 34.472656 33.449219 34.050781 33.449219 Z M 28.347656 31.460938 L 27.371094 31.460938 C 26.742188 31.460938 26.222656 30.941406 26.222656 30.292969 C 26.222656 29.660156 26.742188 29.125 27.371094 29.125 L 28.347656 29.125 C 29 29.125 29.515625 29.660156 29.515625 30.292969 C 29.515625 30.941406 29 31.460938 28.347656 31.460938 Z M 27.371094 29.910156 C 27.160156 29.910156 26.988281 30.082031 26.988281 30.292969 C 26.988281 30.523438 27.160156 30.695312 27.371094 30.695312 L 28.347656 30.695312 C 28.578125 30.695312 28.75 30.523438 28.75 30.292969 C 28.75 30.082031 28.578125 29.910156 28.347656 29.910156 Z M 24.40625 31.460938 L 23.449219 31.460938 C 22.800781 31.460938 22.28125 30.941406 22.28125 30.292969 C 22.28125 29.660156 22.800781 29.125 23.449219 29.125 L 24.40625 29.125 C 25.058594 29.125 25.574219 29.660156 25.574219 30.292969 C 25.574219 30.941406 25.058594 31.460938 24.40625 31.460938 Z M 23.449219 29.910156 C 23.21875 29.910156 23.046875 30.082031 23.046875 30.292969 C 23.046875 30.523438 23.21875 30.695312 23.449219 30.695312 L 24.40625 30.695312 C 24.636719 30.695312 24.808594 30.523438 24.808594 30.292969 C 24.808594 30.082031 24.636719 29.910156 24.40625 29.910156 Z M 28.347656 27.863281 L 27.371094 27.863281 C 26.742188 27.863281 26.222656 27.34375 26.222656 26.695312 C 26.222656 26.0625 26.742188 25.546875 27.371094 25.546875 L 28.347656 25.546875 C 29 25.546875 29.515625 26.0625 29.515625 26.695312 C 29.515625 27.34375 29 27.863281 28.347656 27.863281 Z M 27.371094 26.3125 C 27.160156 26.3125 26.988281 26.484375 26.988281 26.695312 C 26.988281 26.925781 27.160156 27.097656 27.371094 27.097656 L 28.347656 27.097656 C 28.578125 27.097656 28.75 26.925781 28.75 26.695312 C 28.75 26.484375 28.578125 26.3125 28.347656 26.3125 Z M 24.40625 27.863281 L 23.449219 27.863281 C 22.800781 27.863281 22.28125 27.34375 22.28125 26.695312 C 22.28125 26.0625 22.800781 25.546875 23.449219 25.546875 L 24.40625 25.546875 C 25.058594 25.546875 25.574219 26.0625 25.574219 26.695312 C 25.574219 27.34375 25.058594 27.863281 24.40625 27.863281 Z M 23.449219 26.3125 C 23.21875 26.3125 23.046875 26.484375 23.046875 26.695312 C 23.046875 26.925781 23.21875 27.097656 23.449219 27.097656 L 24.40625 27.097656 C 24.636719 27.097656 24.808594 26.925781 24.808594 26.695312 C 24.808594 26.484375 24.636719 26.3125 24.40625 26.3125 Z M 32.289062 24.265625 L 31.3125 24.265625 C 30.683594 24.265625 30.164062 23.75 30.164062 23.097656 C 30.164062 22.464844 30.683594 21.949219 31.3125 21.949219 L 32.289062 21.949219 C 32.941406 21.949219 33.457031 22.464844 33.457031 23.097656 C 33.457031 23.75 32.941406 24.265625 32.289062 24.265625 Z M 31.3125 22.714844 C 31.105469 22.714844 30.929688 22.886719 30.929688 23.097656 C 30.929688 23.328125 31.105469 23.5 31.3125 23.5 L 32.289062 23.5 C 32.519531 23.5 32.691406 23.328125 32.691406 23.097656 C 32.691406 22.886719 32.519531 22.714844 32.289062 22.714844 Z M 28.347656 24.265625 L 27.371094 24.265625 C 26.742188 24.265625 26.222656 23.75 26.222656 23.097656 C 26.222656 22.464844 26.742188 21.949219 27.371094 21.949219 L 28.347656 21.949219 C 29 21.949219 29.515625 22.464844 29.515625 23.097656 C 29.515625 23.75 29 24.265625 28.347656 24.265625 Z M 27.371094 22.714844 C 27.160156 22.714844 26.988281 22.886719 26.988281 23.097656 C 26.988281 23.328125 27.160156 23.5 27.371094 23.5 L 28.347656 23.5 C 28.578125 23.5 28.75 23.328125 28.75 23.097656 C 28.75 22.886719 28.578125 22.714844 28.347656 22.714844 Z M 24.40625 24.265625 L 23.449219 24.265625 C 22.800781 24.265625 22.28125 23.75 22.28125 23.097656 C 22.28125 22.464844 22.800781 21.949219 23.449219 21.949219 L 24.40625 21.949219 C 25.058594 21.949219 25.574219 22.464844 25.574219 23.097656 C 25.574219 23.75 25.058594 24.265625 24.40625 24.265625 Z M 23.449219 22.714844 C 23.21875 22.714844 23.046875 22.886719 23.046875 23.097656 C 23.046875 23.328125 23.21875 23.5 23.449219 23.5 L 24.40625 23.5 C 24.636719 23.5 24.808594 23.328125 24.808594 23.097656 C 24.808594 22.886719 24.636719 22.714844 24.40625 22.714844 Z M 31.8125 31.460938 C 30.988281 31.460938 30.320312 30.789062 30.320312 29.96875 L 30.320312 27.039062 C 30.320312 26.214844 30.988281 25.546875 31.8125 25.546875 C 32.632812 25.546875 33.304688 26.214844 33.304688 27.039062 L 33.304688 29.96875 C 33.304688 30.789062 32.632812 31.460938 31.8125 31.460938 Z M 31.8125 26.3125 C 31.410156 26.3125 31.085938 26.636719 31.085938 27.039062 L 31.085938 29.96875 C 31.085938 30.367188 31.410156 30.695312 31.8125 30.695312 C 32.214844 30.695312 32.539062 30.367188 32.539062 29.96875 L 32.539062 27.039062 C 32.539062 26.636719 32.214844 26.3125 31.8125 26.3125 Z M 32.40625 20.707031 L 23.335938 20.707031 C 23.125 20.707031 22.953125 20.535156 22.953125 20.324219 L 22.953125 16.34375 C 22.953125 16.132812 23.125 15.960938 23.335938 15.960938 L 32.40625 15.960938 C 32.617188 15.960938 32.789062 16.132812 32.789062 16.34375 L 32.789062 20.324219 C 32.789062 20.535156 32.617188 20.707031 32.40625 20.707031 Z M 23.71875 19.941406 L 32.023438 19.941406 L 32.023438 16.726562 L 23.71875 16.726562 Z M 23.71875 19.941406 " fill-opacity="1" fill-rule="evenodd"/></g><g clip-path="url(#8ecf6f2da5)"><path fill="#e4f2f3" d="M 20.503906 33.449219 L 4.105469 33.449219 C 3.03125 33.449219 2.171875 32.589844 2.171875 31.515625 L 2.171875 5.683594 C 2.171875 4.632812 3.03125 3.753906 4.105469 3.753906 L 16.523438 3.753906 L 16.523438 11.539062 C 16.523438 11.75 16.695312 11.921875 16.90625 11.921875 L 24.691406 11.921875 L 24.691406 12.785156 L 21.6875 12.785156 C 20.90625 12.785156 20.273438 13.414062 20.273438 14.199219 L 20.273438 16.074219 L 13.367188 16.074219 C 13.15625 16.074219 12.984375 16.246094 12.984375 16.457031 C 12.984375 16.6875 13.15625 16.839844 13.367188 16.839844 L 20.273438 16.839844 L 20.273438 19.308594 L 13.367188 19.308594 C 13.15625 19.308594 12.984375 19.480469 12.984375 19.691406 C 12.984375 19.902344 13.15625 20.074219 13.367188 20.074219 L 20.273438 20.074219 L 20.273438 32.664062 C 20.273438 32.972656 20.351562 33.238281 20.503906 33.449219 Z M 19.03125 30.734375 L 6.574219 30.734375 C 6.363281 30.734375 6.191406 30.558594 6.191406 30.351562 C 6.191406 30.140625 6.363281 29.96875 6.574219 29.96875 L 19.03125 29.96875 C 19.238281 29.96875 19.410156 30.140625 19.410156 30.351562 C 19.410156 30.558594 19.238281 30.734375 19.03125 30.734375 Z M 19.03125 27.710938 L 6.574219 27.710938 C 6.363281 27.710938 6.191406 27.535156 6.191406 27.328125 C 6.191406 27.117188 6.363281 26.945312 6.574219 26.945312 L 19.03125 26.945312 C 19.238281 26.945312 19.410156 27.117188 19.410156 27.328125 C 19.410156 27.535156 19.238281 27.710938 19.03125 27.710938 Z M 19.03125 24.703125 L 6.574219 24.703125 C 6.363281 24.703125 6.191406 24.53125 6.191406 24.320312 C 6.191406 24.113281 6.363281 23.941406 6.574219 23.941406 L 19.03125 23.941406 C 19.238281 23.941406 19.410156 24.113281 19.410156 24.320312 C 19.410156 24.53125 19.238281 24.703125 19.03125 24.703125 Z M 7.988281 21.011719 C 7.242188 20.839844 6.6875 20.171875 6.6875 19.367188 C 6.6875 19.15625 6.859375 18.984375 7.070312 18.984375 C 7.28125 18.984375 7.453125 19.15625 7.453125 19.367188 C 7.453125 19.882812 7.855469 20.285156 8.371094 20.285156 C 8.867188 20.285156 9.269531 19.882812 9.269531 19.367188 C 9.269531 18.867188 8.867188 18.46875 8.371094 18.46875 C 7.433594 18.46875 6.6875 17.71875 6.6875 16.78125 C 6.6875 16 7.242188 15.328125 7.988281 15.15625 L 7.988281 14.5625 C 7.988281 14.351562 8.160156 14.179688 8.371094 14.179688 C 8.582031 14.179688 8.753906 14.351562 8.753906 14.5625 L 8.753906 15.15625 C 9.480469 15.328125 10.035156 16 10.035156 16.78125 C 10.035156 16.992188 9.863281 17.164062 9.652344 17.164062 C 9.441406 17.164062 9.269531 16.992188 9.269531 16.78125 C 9.269531 16.285156 8.867188 15.882812 8.371094 15.882812 C 7.855469 15.882812 7.453125 16.285156 7.453125 16.78125 C 7.453125 17.28125 7.855469 17.703125 8.371094 17.703125 C 9.289062 17.703125 10.035156 18.449219 10.035156 19.367188 C 10.035156 20.171875 9.480469 20.839844 8.753906 21.011719 L 8.753906 21.605469 C 8.753906 21.816406 8.582031 21.988281 8.371094 21.988281 C 8.160156 21.988281 7.988281 21.816406 7.988281 21.605469 Z M 13.382812 10.046875 L 5.808594 10.046875 C 5.597656 10.046875 5.425781 9.875 5.425781 9.664062 L 5.425781 6.660156 C 5.425781 6.449219 5.597656 6.277344 5.808594 6.277344 L 13.382812 6.277344 C 13.59375 6.277344 13.765625 6.449219 13.765625 6.660156 L 13.765625 9.664062 C 13.765625 9.875 13.613281 10.046875 13.382812 10.046875 Z M 6.191406 9.28125 L 13 9.28125 L 13 7.042969 L 6.191406 7.042969 Z M 17.289062 3.980469 L 24.464844 11.15625 L 17.289062 11.15625 Z M 17.289062 3.980469 " fill-opacity="1" fill-rule="evenodd"/></g></svg>