<svg xmlns="http://www.w3.org/2000/svg" xmlns:xlink="http://www.w3.org/1999/xlink" width="50" zoomAndPan="magnify" viewBox="0 0 37.5 37.499999" height="50" preserveAspectRatio="xMidYMid meet" version="1.0"><defs><clipPath id="fa3ac066cd"><path d="M 1.945312 3.472656 L 30.804688 3.472656 L 30.804688 33.53125 L 1.945312 33.53125 Z M 1.945312 3.472656 " clip-rule="nonzero"/></clipPath><clipPath id="98e57dc8c7"><path d="M 25.382812 3.472656 L 35.003906 3.472656 L 35.003906 13.089844 L 25.382812 13.089844 Z M 25.382812 3.472656 " clip-rule="nonzero"/></clipPath></defs><g clip-path="url(#fa3ac066cd)"><path fill="#05ad44" d="M 25.175781 6.441406 L 23.796875 6.441406 L 23.796875 4.382812 C 23.796875 3.886719 23.394531 3.488281 22.902344 3.488281 C 22.410156 3.488281 22.011719 3.890625 22.011719 4.382812 L 22.011719 6.445312 L 9.71875 6.445312 L 9.71875 4.382812 C 9.71875 3.886719 9.316406 3.488281 8.824219 3.488281 C 8.332031 3.488281 7.933594 3.890625 7.933594 4.382812 L 7.933594 6.445312 L 7.0625 6.445312 C 4.238281 6.445312 1.945312 8.734375 1.945312 11.5625 L 1.945312 28.023438 C 1.945312 30.847656 4.238281 33.140625 7.0625 33.140625 L 25.175781 33.140625 C 28.003906 33.140625 30.292969 30.847656 30.292969 28.023438 L 30.292969 11.5625 C 30.296875 8.734375 28.003906 6.441406 25.175781 6.441406 Z M 22.007812 7.386719 L 22.007812 9.246094 C 22.007812 9.738281 22.410156 10.136719 22.898438 10.136719 C 23.394531 10.136719 23.792969 9.734375 23.792969 9.246094 L 23.792969 7.457031 C 24.367188 7.789062 24.753906 8.410156 24.753906 9.117188 C 24.753906 10.179688 23.894531 11.039062 22.832031 11.039062 C 21.773438 11.039062 20.914062 10.179688 20.914062 9.117188 C 20.917969 8.355469 21.363281 7.695312 22.007812 7.386719 Z M 7.929688 7.417969 L 7.929688 9.246094 C 7.929688 9.738281 8.332031 10.136719 8.824219 10.136719 C 9.316406 10.136719 9.714844 9.734375 9.714844 9.246094 L 9.714844 7.417969 C 10.328125 7.742188 10.738281 8.378906 10.738281 9.113281 C 10.738281 10.175781 9.878906 11.035156 8.820312 11.035156 C 7.757812 11.035156 6.898438 10.175781 6.898438 9.113281 C 6.90625 8.378906 7.320312 7.742188 7.929688 7.417969 Z M 28.503906 28.019531 C 28.503906 29.855469 27.011719 31.34375 25.179688 31.34375 L 7.0625 31.34375 C 5.226562 31.34375 3.738281 29.851562 3.738281 28.019531 L 3.738281 14.382812 L 28.503906 14.382812 Z M 28.503906 28.019531 " fill-opacity="1" fill-rule="nonzero"/></g><path fill="#05ad44" d="M 9.746094 19.546875 L 7.265625 19.546875 C 7.066406 19.546875 6.90625 19.382812 6.90625 19.183594 L 6.90625 16.703125 C 6.90625 16.503906 7.066406 16.34375 7.265625 16.34375 L 9.746094 16.34375 C 9.945312 16.34375 10.109375 16.503906 10.109375 16.703125 L 10.109375 19.183594 C 10.105469 19.382812 9.945312 19.546875 9.746094 19.546875 Z M 9.746094 19.546875 " fill-opacity="1" fill-rule="nonzero"/><path fill="#05ad44" d="M 9.746094 24.628906 L 7.265625 24.628906 C 7.066406 24.628906 6.90625 24.46875 6.90625 24.269531 L 6.90625 21.789062 C 6.90625 21.589844 7.066406 21.425781 7.265625 21.425781 L 9.746094 21.425781 C 9.945312 21.425781 10.109375 21.589844 10.109375 21.789062 L 10.109375 24.269531 C 10.105469 24.472656 9.945312 24.628906 9.746094 24.628906 Z M 9.746094 24.628906 " fill-opacity="1" fill-rule="nonzero"/><path fill="#05ad44" d="M 9.746094 29.71875 L 7.265625 29.71875 C 7.066406 29.71875 6.90625 29.554688 6.90625 29.355469 L 6.90625 26.875 C 6.90625 26.675781 7.066406 26.515625 7.265625 26.515625 L 9.746094 26.515625 C 9.945312 26.515625 10.109375 26.675781 10.109375 26.875 L 10.109375 29.359375 C 10.105469 29.554688 9.945312 29.71875 9.746094 29.71875 Z M 9.746094 29.71875 " fill-opacity="1" fill-rule="nonzero"/><path fill="#05ad44" d="M 14.832031 19.546875 L 12.351562 19.546875 C 12.152344 19.546875 11.988281 19.382812 11.988281 19.183594 L 11.988281 16.703125 C 11.988281 16.503906 12.152344 16.34375 12.351562 16.34375 L 14.832031 16.34375 C 15.03125 16.34375 15.191406 16.503906 15.191406 16.703125 L 15.191406 19.183594 C 15.191406 19.382812 15.03125 19.546875 14.832031 19.546875 Z M 14.832031 19.546875 " fill-opacity="1" fill-rule="nonzero"/><path fill="#05ad44" d="M 14.832031 24.628906 L 12.351562 24.628906 C 12.152344 24.628906 11.988281 24.46875 11.988281 24.269531 L 11.988281 21.789062 C 11.988281 21.589844 12.152344 21.425781 12.351562 21.425781 L 14.832031 21.425781 C 15.03125 21.425781 15.191406 21.589844 15.191406 21.789062 L 15.191406 24.269531 C 15.191406 24.472656 15.03125 24.628906 14.832031 24.628906 Z M 14.832031 24.628906 " fill-opacity="1" fill-rule="nonzero"/><path fill="#05ad44" d="M 14.832031 29.71875 L 12.351562 29.71875 C 12.152344 29.71875 11.988281 29.554688 11.988281 29.355469 L 11.988281 26.875 C 11.988281 26.675781 12.152344 26.515625 12.351562 26.515625 L 14.832031 26.515625 C 15.03125 26.515625 15.191406 26.675781 15.191406 26.875 L 15.191406 29.359375 C 15.191406 29.554688 15.03125 29.71875 14.832031 29.71875 Z M 14.832031 29.71875 " fill-opacity="1" fill-rule="nonzero"/><path fill="#05ad44" d="M 19.917969 19.546875 L 17.4375 19.546875 C 17.238281 19.546875 17.078125 19.382812 17.078125 19.183594 L 17.078125 16.703125 C 17.078125 16.503906 17.238281 16.34375 17.4375 16.34375 L 19.917969 16.34375 C 20.117188 16.34375 20.28125 16.503906 20.28125 16.703125 L 20.28125 19.183594 C 20.277344 19.382812 20.117188 19.546875 19.917969 19.546875 Z M 19.917969 19.546875 " fill-opacity="1" fill-rule="nonzero"/><path fill="#05ad44" d="M 19.917969 24.628906 L 17.4375 24.628906 C 17.238281 24.628906 17.078125 24.46875 17.078125 24.269531 L 17.078125 21.789062 C 17.078125 21.589844 17.238281 21.425781 17.4375 21.425781 L 19.917969 21.425781 C 20.117188 21.425781 20.28125 21.589844 20.28125 21.789062 L 20.28125 24.269531 C 20.277344 24.472656 20.117188 24.628906 19.917969 24.628906 Z M 19.917969 24.628906 " fill-opacity="1" fill-rule="nonzero"/><path fill="#05ad44" d="M 19.917969 29.71875 L 17.4375 29.71875 C 17.238281 29.71875 17.078125 29.554688 17.078125 29.355469 L 17.078125 26.875 C 17.078125 26.675781 17.238281 26.515625 17.4375 26.515625 L 19.917969 26.515625 C 20.117188 26.515625 20.28125 26.675781 20.28125 26.875 L 20.28125 29.359375 C 20.277344 29.554688 20.117188 29.71875 19.917969 29.71875 Z M 19.917969 29.71875 " fill-opacity="1" fill-rule="nonzero"/><path fill="#05ad44" d="M 25.007812 19.546875 L 22.527344 19.546875 C 22.328125 19.546875 22.164062 19.382812 22.164062 19.183594 L 22.164062 16.703125 C 22.164062 16.503906 22.328125 16.34375 22.527344 16.34375 L 25.007812 16.34375 C 25.207031 16.34375 25.367188 16.503906 25.367188 16.703125 L 25.367188 19.183594 C 25.363281 19.382812 25.203125 19.546875 25.007812 19.546875 Z M 25.007812 19.546875 " fill-opacity="1" fill-rule="nonzero"/><path fill="#05ad44" d="M 25.007812 24.628906 L 22.527344 24.628906 C 22.328125 24.628906 22.164062 24.46875 22.164062 24.269531 L 22.164062 21.789062 C 22.164062 21.589844 22.328125 21.425781 22.527344 21.425781 L 25.007812 21.425781 C 25.207031 21.425781 25.367188 21.589844 25.367188 21.789062 L 25.367188 24.269531 C 25.363281 24.472656 25.203125 24.628906 25.007812 24.628906 Z M 25.007812 24.628906 " fill-opacity="1" fill-rule="nonzero"/><g clip-path="url(#98e57dc8c7)"><path fill="#ff3131" d="M 34.9375 7.398438 C 34.894531 7.175781 34.671875 7.023438 34.449219 7.066406 C 34.226562 7.105469 34.074219 7.328125 34.117188 7.550781 C 34.15625 7.785156 34.1875 8.027344 34.1875 8.269531 C 34.1875 10.46875 32.40625 12.25 30.207031 12.25 C 28.011719 12.25 26.226562 10.476562 26.226562 8.28125 C 26.226562 6.082031 28.011719 4.300781 30.207031 4.300781 C 30.746094 4.300781 31.269531 4.402344 31.757812 4.613281 C 31.96875 4.707031 32.210938 4.605469 32.304688 4.390625 C 32.394531 4.179688 32.292969 3.9375 32.082031 3.84375 C 31.484375 3.601562 30.855469 3.472656 30.207031 3.472656 C 27.554688 3.472656 25.398438 5.628906 25.398438 8.28125 C 25.398438 10.933594 27.554688 13.089844 30.207031 13.089844 C 32.859375 13.089844 35.015625 10.933594 35.015625 8.28125 C 35.015625 7.976562 34.988281 7.683594 34.9375 7.398438 " fill-opacity="1" fill-rule="nonzero"/></g><path fill="#ff3131" d="M 29.082031 7.074219 C 28.585938 6.355469 27.402344 7.042969 27.910156 7.765625 C 28.515625 8.636719 29.074219 9.546875 29.679688 10.417969 C 29.972656 10.832031 30.570312 10.871094 30.855469 10.417969 C 31.96875 8.613281 33.125 6.863281 34.601562 5.335938 C 35.210938 4.707031 34.246094 3.734375 33.640625 4.371094 C 32.332031 5.730469 31.25 7.25 30.246094 8.828125 C 29.863281 8.242188 29.488281 7.652344 29.082031 7.074219 " fill-opacity="1" fill-rule="nonzero"/></svg>