<svg xmlns="http://www.w3.org/2000/svg" xmlns:xlink="http://www.w3.org/1999/xlink" width="49" zoomAndPan="magnify" viewBox="0 0 36.75 37.5" height="50" preserveAspectRatio="xMidYMid meet" version="1.0"><defs><clipPath id="ba85200af9"><path d="M 2.734375 5 L 6 5 L 6 7 L 2.734375 7 Z M 2.734375 5 " clip-rule="nonzero"/></clipPath><clipPath id="20a389c2ab"><path d="M 2.734375 11 L 6 11 L 6 13 L 2.734375 13 Z M 2.734375 11 " clip-rule="nonzero"/></clipPath><clipPath id="e87aee2162"><path d="M 2.734375 16 L 6 16 L 6 18 L 2.734375 18 Z M 2.734375 16 " clip-rule="nonzero"/></clipPath><clipPath id="fd42206250"><path d="M 2.734375 22 L 6 22 L 6 24 L 2.734375 24 Z M 2.734375 22 " clip-rule="nonzero"/></clipPath><clipPath id="88f20881a2"><path d="M 2.734375 27 L 6 27 L 6 29 L 2.734375 29 Z M 2.734375 27 " clip-rule="nonzero"/></clipPath><clipPath id="d18dd79677"><path d="M 4 3.472656 L 9 3.472656 L 9 31 L 4 31 Z M 4 3.472656 " clip-rule="nonzero"/></clipPath><clipPath id="a245fb6274"><path d="M 9 3.472656 L 25 3.472656 L 25 31 L 9 31 Z M 9 3.472656 " clip-rule="nonzero"/></clipPath><clipPath id="08ad37b72c"><path d="M 27 3.472656 L 32 3.472656 L 32 6 L 27 6 Z M 27 3.472656 " clip-rule="nonzero"/></clipPath><clipPath id="8b25f8d09d"><path d="M 30 29 L 33.820312 29 L 33.820312 33 L 30 33 Z M 30 29 " clip-rule="nonzero"/></clipPath><clipPath id="a44e84be9d"><path d="M 14.042969 10 L 33.820312 10 L 33.820312 33.074219 L 14.042969 33.074219 Z M 14.042969 10 " clip-rule="nonzero"/></clipPath></defs><g clip-path="url(#ba85200af9)"><path fill="#0279ce" d="M 3.179688 6.503906 L 5.296875 6.503906 C 5.496094 6.503906 5.691406 6.257812 5.691406 6.015625 C 5.691406 5.71875 5.496094 5.519531 5.246094 5.519531 L 3.179688 5.519531 C 2.929688 5.519531 2.734375 5.71875 2.734375 6.015625 C 2.734375 6.257812 2.929688 6.503906 3.179688 6.503906 " fill-opacity="1" fill-rule="nonzero"/></g><g clip-path="url(#20a389c2ab)"><path fill="#0279ce" d="M 3.179688 12.023438 L 5.296875 12.023438 C 5.542969 12.023438 5.742188 11.828125 5.742188 11.53125 C 5.742188 11.234375 5.542969 11.039062 5.296875 11.039062 L 3.179688 11.039062 C 2.929688 11.039062 2.734375 11.234375 2.734375 11.53125 C 2.734375 11.828125 2.929688 12.023438 3.179688 12.023438 " fill-opacity="1" fill-rule="nonzero"/></g><g clip-path="url(#e87aee2162)"><path fill="#0279ce" d="M 3.179688 17.59375 L 5.296875 17.59375 C 5.542969 17.59375 5.742188 17.394531 5.742188 17.097656 C 5.742188 16.804688 5.542969 16.605469 5.296875 16.605469 L 3.179688 16.605469 C 2.929688 16.605469 2.734375 16.804688 2.734375 17.097656 C 2.734375 17.394531 2.929688 17.59375 3.179688 17.59375 " fill-opacity="1" fill-rule="nonzero"/></g><g clip-path="url(#fd42206250)"><path fill="#0279ce" d="M 3.179688 23.15625 L 5.296875 23.15625 C 5.542969 23.15625 5.742188 22.960938 5.742188 22.667969 C 5.742188 22.371094 5.542969 22.171875 5.296875 22.171875 L 3.179688 22.171875 C 2.929688 22.171875 2.734375 22.371094 2.734375 22.667969 C 2.734375 22.914062 2.929688 23.15625 3.179688 23.15625 " fill-opacity="1" fill-rule="nonzero"/></g><g clip-path="url(#88f20881a2)"><path fill="#0279ce" d="M 5.691406 28.234375 C 5.691406 27.941406 5.496094 27.742188 5.246094 27.742188 L 3.179688 27.742188 C 2.929688 27.742188 2.734375 27.941406 2.734375 28.234375 C 2.734375 28.53125 2.929688 28.726562 3.179688 28.726562 L 5.296875 28.726562 C 5.496094 28.726562 5.691406 28.480469 5.691406 28.234375 " fill-opacity="1" fill-rule="nonzero"/></g><g clip-path="url(#d18dd79677)"><path fill="#0279ce" d="M 4.949219 4.042969 L 4.949219 4.535156 L 5.246094 4.535156 C 6.035156 4.535156 6.675781 5.222656 6.675781 6.015625 C 6.675781 6.851562 6.035156 7.492188 5.246094 7.492188 L 4.949219 7.492188 L 4.949219 10.101562 L 5.246094 10.101562 C 6.035156 10.101562 6.675781 10.742188 6.675781 11.578125 C 6.675781 12.371094 6.035156 13.058594 5.246094 13.058594 L 4.949219 13.058594 L 4.949219 15.671875 L 5.246094 15.671875 C 6.035156 15.671875 6.675781 16.3125 6.675781 17.148438 C 6.675781 17.988281 6.035156 18.625 5.246094 18.625 L 4.949219 18.628906 L 4.949219 21.238281 L 5.246094 21.238281 C 6.035156 21.238281 6.675781 21.878906 6.675781 22.714844 C 6.675781 23.503906 6.035156 24.195312 5.246094 24.195312 L 4.949219 24.195312 L 4.949219 26.804688 L 5.246094 26.804688 C 6.035156 26.804688 6.675781 27.496094 6.675781 28.28125 C 6.675781 29.121094 6.035156 29.761719 5.246094 29.761719 L 4.949219 29.761719 C 4.949219 30.007812 5.195312 30.253906 5.445312 30.253906 L 8.054688 30.253906 L 8.054688 3.546875 L 5.445312 3.546875 C 5.195312 3.546875 4.949219 3.746094 4.949219 4.042969 " fill-opacity="1" fill-rule="nonzero"/></g><g clip-path="url(#a245fb6274)"><path fill="#0279ce" d="M 11.75 7.050781 L 11.699219 7.050781 C 11.453125 7.050781 11.210938 6.800781 11.210938 6.554688 C 11.210938 6.257812 11.453125 6.0625 11.699219 6.0625 L 21.703125 6.0625 C 21.953125 6.0625 22.195312 6.257812 22.195312 6.554688 C 22.195312 6.800781 21.953125 7.050781 21.703125 7.050781 Z M 24.363281 9.609375 L 24.363281 4.042969 C 24.363281 3.746094 24.117188 3.546875 23.871094 3.546875 L 9.042969 3.546875 L 9.042969 30.15625 L 13.179688 30.15625 L 13.179688 11.089844 C 13.179688 10.25 13.871094 9.609375 14.65625 9.609375 L 24.363281 9.609375 " fill-opacity="1" fill-rule="nonzero"/></g><path fill="#0279ce" d="M 31.015625 20.84375 L 28.207031 20.84375 L 29.585938 23.703125 Z M 31.015625 20.84375 " fill-opacity="1" fill-rule="nonzero"/><g clip-path="url(#08ad37b72c)"><path fill="#0279ce" d="M 31.308594 4.535156 C 31.308594 3.992188 30.867188 3.546875 30.324219 3.546875 L 28.847656 3.546875 C 28.304688 3.546875 27.863281 3.992188 27.863281 4.535156 L 27.863281 5.765625 L 31.308594 5.765625 L 31.308594 4.535156 " fill-opacity="1" fill-rule="nonzero"/></g><path fill="#0279ce" d="M 27.863281 6.75 L 31.308594 6.75 L 31.308594 19.859375 L 27.863281 19.859375 L 27.863281 6.75 " fill-opacity="1" fill-rule="nonzero"/><g clip-path="url(#8b25f8d09d)"><path fill="#0279ce" d="M 30.273438 32.421875 L 33.183594 29.566406 L 30.273438 29.566406 Z M 30.273438 32.421875 " fill-opacity="1" fill-rule="nonzero"/></g><g clip-path="url(#a44e84be9d)"><path fill="#0279ce" d="M 26.433594 29.269531 L 17.074219 29.269531 C 16.773438 29.269531 16.578125 29.023438 16.578125 28.777344 C 16.578125 28.480469 16.773438 28.285156 17.074219 28.285156 L 26.433594 28.285156 C 26.679688 28.285156 26.925781 28.480469 26.925781 28.777344 C 26.925781 29.023438 26.730469 29.269531 26.433594 29.269531 Z M 17.074219 24.832031 L 25.003906 24.832031 C 25.25 24.832031 25.5 25.03125 25.5 25.328125 C 25.5 25.574219 25.25 25.820312 25.003906 25.820312 L 17.074219 25.820312 C 16.773438 25.820312 16.578125 25.574219 16.578125 25.328125 C 16.578125 25.03125 16.773438 24.832031 17.074219 24.832031 Z M 17.074219 21.386719 L 24.511719 21.386719 C 24.757812 21.386719 25.003906 21.582031 25.003906 21.878906 C 25.003906 22.171875 24.757812 22.371094 24.511719 22.371094 L 17.074219 22.371094 C 16.773438 22.371094 16.578125 22.171875 16.578125 21.878906 C 16.578125 21.582031 16.773438 21.386719 17.074219 21.386719 Z M 17.074219 17.9375 L 24.019531 17.9375 C 24.269531 17.9375 24.511719 18.132812 24.511719 18.429688 C 24.511719 18.722656 24.269531 18.921875 24.019531 18.921875 L 17.074219 18.921875 C 16.773438 18.921875 16.578125 18.722656 16.578125 18.429688 C 16.578125 18.132812 16.773438 17.9375 17.074219 17.9375 Z M 17.074219 14.488281 L 24.019531 14.488281 C 24.269531 14.488281 24.511719 14.683594 24.511719 14.980469 C 24.511719 15.277344 24.269531 15.472656 24.019531 15.472656 L 17.074219 15.472656 C 16.773438 15.472656 16.578125 15.277344 16.578125 14.980469 C 16.578125 14.683594 16.773438 14.488281 17.074219 14.488281 Z M 33.382812 10.597656 L 32.34375 10.597656 C 32.34375 20.941406 32.394531 20.351562 32.296875 20.546875 L 30.078125 24.984375 C 29.882812 25.328125 29.390625 25.375 29.191406 24.984375 L 26.976562 20.546875 C 26.925781 20.5 26.925781 20.398438 26.925781 20.351562 L 26.925781 10.59375 L 14.65625 10.59375 C 14.410156 10.59375 14.167969 10.84375 14.167969 11.089844 L 14.167969 32.621094 C 14.167969 32.914062 14.410156 33.109375 14.65625 33.109375 L 29.292969 33.109375 L 29.292969 29.070312 C 29.292969 28.824219 29.539062 28.582031 29.785156 28.582031 L 33.824219 28.582031 L 33.824219 11.089844 C 33.871094 10.84375 33.625 10.597656 33.382812 10.597656 " fill-opacity="1" fill-rule="nonzero"/></g></svg>