<svg xmlns="http://www.w3.org/2000/svg" xmlns:xlink="http://www.w3.org/1999/xlink" width="58" zoomAndPan="magnify" viewBox="0 0 43.5 43.499999" height="58" preserveAspectRatio="xMidYMid meet" version="1.0"><defs><clipPath id="98b5b31c59"><path d="M 0.128906 0.402344 L 42.269531 0.402344 L 42.269531 42.542969 L 0.128906 42.542969 Z M 0.128906 0.402344 " clip-rule="nonzero"/></clipPath><clipPath id="1edffd6a16"><path d="M 21.199219 0.402344 C 9.5625 0.402344 0.128906 9.835938 0.128906 21.472656 C 0.128906 33.109375 9.5625 42.542969 21.199219 42.542969 C 32.835938 42.542969 42.269531 33.109375 42.269531 21.472656 C 42.269531 9.835938 32.835938 0.402344 21.199219 0.402344 Z M 21.199219 0.402344 " clip-rule="nonzero"/></clipPath><clipPath id="f67cea0254"><path d="M 10.5625 18 L 13 18 L 13 20 L 10.5625 20 Z M 10.5625 18 " clip-rule="nonzero"/></clipPath><clipPath id="76ec7cf2c4"><path d="M 10.5625 13.601562 L 32 13.601562 L 32 29.171875 L 10.5625 29.171875 Z M 10.5625 13.601562 " clip-rule="nonzero"/></clipPath></defs><g clip-path="url(#98b5b31c59)"><g clip-path="url(#1edffd6a16)"><path fill="#fff1e5" d="M 0.128906 0.402344 L 42.269531 0.402344 L 42.269531 42.542969 L 0.128906 42.542969 Z M 0.128906 0.402344 " fill-opacity="1" fill-rule="nonzero"/></g></g><g clip-path="url(#f67cea0254)"><path fill="#d66708" d="M 10.847656 18.953125 C 10.863281 18.972656 10.875 18.992188 10.890625 19.007812 C 11.269531 19.402344 11.613281 19.441406 12.058594 19.132812 C 12.105469 19.101562 12.152344 19.070312 12.199219 19.035156 C 12.234375 19.015625 12.265625 18.996094 12.300781 18.980469 C 11.476562 18.507812 10.988281 18.828125 10.847656 18.953125 " fill-opacity="1" fill-rule="nonzero"/></g><g clip-path="url(#76ec7cf2c4)"><path fill="#d66708" d="M 28.074219 28.886719 C 28.179688 28.738281 28.269531 28.609375 28.367188 28.46875 C 28.464844 28.523438 28.542969 28.570312 28.621094 28.613281 C 28.699219 28.652344 28.78125 28.691406 28.875 28.734375 C 28.636719 28.933594 28.375 28.917969 28.074219 28.886719 Z M 26.640625 26.175781 C 26.453125 25.902344 26.503906 25.417969 26.695312 25.273438 C 26.71875 25.285156 26.71875 25.289062 26.742188 25.300781 C 26.710938 25.574219 26.675781 25.851562 26.640625 26.175781 Z M 26.324219 25.34375 C 26.230469 25.375 26.191406 25.414062 26.191406 25.519531 C 26.1875 25.6875 26.164062 25.859375 26.144531 26.027344 C 26.136719 26.066406 26.125 26.101562 26.105469 26.148438 C 26.089844 26.191406 26.027344 26.191406 26.011719 26.152344 C 25.90625 25.902344 25.9375 25.660156 25.921875 25.429688 C 25.667969 25.394531 25.421875 25.359375 25.214844 25.328125 C 25.214844 25.515625 25.21875 25.714844 25.214844 25.917969 C 25.214844 25.921875 25.210938 25.929688 25.210938 25.933594 C 25.195312 26 25.109375 26.023438 25.054688 25.984375 C 25.039062 25.972656 25.027344 25.964844 25.027344 25.949219 C 24.992188 25.804688 24.949219 25.65625 24.957031 25.507812 C 24.960938 25.316406 24.914062 25.226562 24.710938 25.171875 C 24.132812 25.015625 23.722656 24.539062 23.613281 23.945312 C 23.933594 23.789062 24.261719 23.632812 24.582031 23.464844 C 25.089844 23.195312 25.675781 23.328125 25.988281 23.8125 C 26.199219 24.136719 26.414062 24.460938 26.582031 24.804688 C 26.742188 25.152344 26.691406 25.222656 26.324219 25.34375 Z M 25.265625 29.09375 C 25.382812 28.949219 25.484375 28.824219 25.585938 28.695312 C 25.78125 28.8125 25.960938 28.917969 26.160156 29.039062 C 25.867188 29.171875 25.582031 29.140625 25.265625 29.09375 Z M 18.945312 28.609375 C 18.941406 28.5625 18.9375 28.546875 18.941406 28.539062 C 19.011719 28.457031 19.082031 28.375 19.152344 28.296875 C 19.308594 28.417969 19.460938 28.539062 19.613281 28.65625 C 19.390625 28.640625 19.164062 28.625 18.945312 28.609375 Z M 16.601562 28.839844 C 16.773438 28.691406 16.914062 28.578125 17.074219 28.4375 C 17.222656 28.554688 17.367188 28.664062 17.535156 28.796875 C 17.21875 28.964844 16.929688 28.847656 16.601562 28.839844 Z M 14.472656 15.917969 C 14.792969 15.863281 15.128906 15.820312 15.460938 15.746094 C 15.628906 15.707031 15.785156 15.609375 15.949219 15.542969 C 15.960938 15.5625 15.957031 15.554688 15.96875 15.574219 C 15.882812 15.644531 15.808594 15.726562 15.714844 15.777344 C 15.320312 16.007812 14.925781 16.277344 14.472656 15.917969 Z M 13.054688 16.890625 C 12.914062 16.988281 12.738281 17.003906 12.570312 16.949219 C 12.578125 16.773438 12.65625 16.613281 12.796875 16.515625 C 12.9375 16.417969 13.113281 16.402344 13.28125 16.457031 C 13.273438 16.632812 13.195312 16.792969 13.054688 16.890625 Z M 11.292969 18.425781 C 11.25 18.535156 11.148438 18.519531 11.09375 18.414062 C 11.023438 18.273438 11.085938 18.121094 11.242188 18.070312 C 11.515625 17.980469 11.636719 18.035156 11.648438 18.277344 C 11.476562 18.203125 11.367188 18.25 11.292969 18.425781 Z M 31.703125 22.898438 C 31.601562 22.410156 31.433594 22.007812 31.28125 21.867188 C 31.273438 21.832031 31.269531 21.792969 31.261719 21.757812 C 31.144531 21.160156 30.96875 20.570312 30.738281 19.992188 C 30.507812 19.417969 30.21875 18.859375 29.871094 18.335938 C 29.695312 18.074219 29.503906 17.816406 29.300781 17.574219 C 29.195312 17.449219 29.089844 17.332031 28.972656 17.214844 C 28.941406 17.179688 28.90625 17.148438 28.871094 17.113281 C 28.785156 16.964844 28.664062 16.839844 28.503906 16.753906 C 28.085938 16.53125 27.636719 16.417969 27.160156 16.414062 C 26.40625 16.402344 25.683594 16.59375 24.957031 16.765625 C 24.050781 16.976562 23.136719 17.164062 22.195312 17.175781 C 21.335938 17.1875 20.496094 17.074219 19.667969 16.890625 C 19.523438 16.457031 19.140625 16.117188 18.65625 16.054688 C 18.210938 15.996094 17.785156 16.175781 17.507812 16.492188 C 17.363281 16.5 17.21875 16.546875 17.070312 16.558594 C 16.460938 16.601562 15.894531 16.460938 15.398438 16.089844 C 15.5 16.03125 15.609375 15.972656 15.71875 15.90625 C 15.816406 15.847656 15.925781 15.800781 16 15.71875 C 16.054688 15.660156 16.09375 15.539062 16.070312 15.476562 C 16.042969 15.414062 15.929688 15.351562 15.855469 15.351562 C 15.4375 15.335938 15.015625 15.191406 14.558594 15.410156 C 14.734375 15.074219 14.703125 14.792969 14.5 14.550781 C 14.382812 14.410156 14.230469 14.289062 14.074219 14.191406 C 13.824219 14.03125 13.507812 13.964844 13.390625 13.621094 C 13.230469 13.773438 13.214844 13.921875 13.289062 14.0625 C 13.382812 14.242188 13.511719 14.40625 13.625 14.578125 C 13.707031 14.707031 13.785156 14.835938 13.867188 14.964844 C 13.855469 14.980469 13.839844 15 13.824219 15.019531 C 13.757812 15.007812 13.644531 15.015625 13.625 14.976562 C 13.511719 14.757812 13.316406 14.769531 13.125 14.769531 C 12.96875 14.769531 12.820312 14.824219 12.664062 14.746094 C 12.601562 14.714844 12.46875 14.746094 12.417969 14.796875 C 12.3125 14.894531 12.210938 14.902344 12.136719 14.8125 C 12.078125 14.742188 12.050781 14.628906 12.046875 14.53125 C 12.042969 14.445312 12.101562 14.359375 12.113281 14.269531 C 12.140625 14.058594 12.179688 13.835938 11.976562 13.6875 C 11.890625 13.886719 11.824219 14.085938 11.722656 14.265625 C 11.550781 14.570312 11.367188 14.863281 11.546875 15.230469 C 11.460938 15.21875 11.402344 15.203125 11.34375 15.199219 C 11.285156 15.195312 11.222656 15.195312 11.164062 15.203125 C 10.992188 15.230469 10.945312 15.304688 10.992188 15.464844 C 11.007812 15.523438 11.03125 15.582031 11.070312 15.628906 C 11.296875 15.921875 11.476562 16.269531 11.902344 16.316406 C 11.832031 16.691406 11.398438 17.417969 11.125 17.550781 C 10.75 17.734375 10.5625 17.976562 10.589844 18.417969 C 10.601562 18.621094 10.574219 18.792969 10.773438 18.871094 C 10.882812 18.769531 11.453125 18.304688 12.417969 18.910156 L 12.414062 18.917969 C 12.492188 18.910156 12.570312 18.929688 12.652344 18.96875 C 12.878906 19.085938 13.109375 19.082031 13.332031 18.964844 C 13.4375 18.90625 13.503906 18.933594 13.554688 19.023438 C 13.648438 19.207031 13.75 19.386719 13.828125 19.574219 C 13.992188 19.988281 14.171875 20.382812 14.433594 20.75 C 14.644531 21.050781 14.820312 21.390625 14.960938 21.730469 C 15.074219 22.007812 15.101562 22.316406 15.175781 22.609375 C 15.40625 23.507812 15.886719 24.207031 16.761719 24.59375 C 16.808594 24.613281 16.84375 24.675781 16.863281 24.730469 C 16.957031 24.992188 17.042969 25.253906 17.136719 25.515625 C 17.320312 26.035156 17.453125 26.5625 17.40625 27.117188 C 17.347656 27.757812 17.125 28.304688 16.546875 28.660156 C 16.496094 28.691406 16.429688 28.777344 16.441406 28.824219 C 16.453125 28.875 16.539062 28.945312 16.597656 28.949219 C 16.867188 28.980469 17.136719 29.003906 17.40625 29 C 17.539062 29 17.652344 28.921875 17.707031 28.773438 C 17.769531 28.59375 17.851562 28.417969 17.933594 28.242188 C 17.953125 28.195312 17.992188 28.15625 18.035156 28.128906 C 18.332031 27.945312 18.359375 27.90625 18.292969 27.554688 C 18.214844 27.121094 18.1875 26.691406 18.285156 26.253906 C 18.386719 25.820312 18.363281 25.390625 18.265625 24.957031 C 18.234375 24.820312 18.222656 24.683594 18.203125 24.546875 C 18.21875 24.539062 18.210938 24.542969 18.230469 24.539062 C 18.371094 24.914062 18.527344 25.289062 18.65625 25.667969 C 18.828125 26.179688 19.003906 26.6875 19.132812 27.207031 C 19.257812 27.695312 19.179688 28.148438 18.757812 28.492188 C 18.652344 28.578125 18.667969 28.667969 18.800781 28.699219 C 18.988281 28.742188 19.179688 28.785156 19.371094 28.789062 C 19.734375 28.792969 19.867188 28.664062 19.925781 28.300781 C 19.9375 28.222656 19.957031 28.121094 20.011719 28.074219 C 20.195312 27.90625 20.207031 27.703125 20.160156 27.492188 C 20.125 27.339844 20.050781 27.195312 20.011719 27.042969 C 19.96875 26.863281 19.90625 26.675781 19.914062 26.492188 C 19.933594 26.054688 19.925781 25.621094 19.742188 25.210938 C 19.710938 25.132812 19.6875 25.046875 19.675781 24.964844 C 19.65625 24.789062 19.648438 24.613281 19.632812 24.414062 C 20.230469 24.582031 20.789062 24.648438 21.351562 24.566406 C 21.617188 24.527344 21.855469 24.570312 22.097656 24.65625 C 22.316406 24.738281 22.523438 24.679688 22.742188 24.628906 C 22.898438 24.59375 23.070312 24.597656 23.234375 24.617188 C 23.421875 24.640625 23.609375 24.699219 23.796875 24.746094 C 23.828125 24.753906 23.863281 24.773438 23.890625 24.796875 C 24.167969 25.039062 24.46875 25.25 24.804688 25.347656 C 24.835938 25.566406 24.851562 25.765625 24.894531 25.960938 C 24.921875 26.085938 25.007812 26.210938 25.15625 26.1875 C 25.308594 26.167969 25.34375 26.027344 25.347656 25.894531 C 25.351562 25.757812 25.347656 25.621094 25.347656 25.480469 C 25.511719 25.496094 25.652344 25.511719 25.785156 25.527344 C 25.820312 25.734375 25.835938 25.933594 25.886719 26.125 C 25.894531 26.152344 25.910156 26.179688 25.933594 26.203125 C 25.996094 26.277344 26.109375 26.28125 26.179688 26.214844 C 26.210938 26.183594 26.234375 26.152344 26.246094 26.117188 C 26.292969 25.957031 26.289062 25.78125 26.316406 25.613281 C 26.324219 25.566406 26.351562 25.523438 26.367188 25.476562 C 26.433594 25.757812 26.324219 26.054688 26.597656 26.304688 C 26.386719 26.792969 26.164062 27.296875 25.949219 27.804688 C 25.734375 28.3125 25.390625 28.734375 25.042969 29.175781 C 25.261719 29.230469 25.464844 29.246094 25.667969 29.269531 C 26.089844 29.320312 26.367188 29.148438 26.488281 28.738281 C 26.546875 28.542969 26.671875 28.40625 26.851562 28.308594 C 27.058594 28.195312 27.171875 28.011719 27.210938 27.773438 C 27.253906 27.492188 27.308594 27.207031 27.394531 26.9375 C 27.542969 26.457031 27.722656 25.988281 27.90625 25.476562 C 28.78125 26.679688 28.582031 27.8125 27.875 28.984375 C 28.050781 29.003906 28.226562 29.042969 28.398438 29.039062 C 28.933594 29.023438 29.21875 28.707031 29.203125 28.171875 C 29.203125 28.117188 29.191406 28.058594 29.210938 28.011719 C 29.382812 27.652344 29.339844 27.28125 29.273438 26.90625 C 29.246094 26.777344 29.476562 23.632812 29.5 23.007812 C 29.539062 21.976562 29.554688 20.945312 29.527344 19.917969 C 29.519531 19.613281 29.488281 19.3125 29.4375 19.011719 C 29.746094 19.386719 30.027344 19.789062 30.277344 20.214844 C 30.566406 20.726562 30.816406 21.265625 31.015625 21.828125 C 31.023438 21.859375 31.035156 21.894531 31.046875 21.925781 C 30.96875 22.125 30.972656 22.550781 31.070312 23.027344 C 31.199219 23.664062 31.445312 24.152344 31.617188 24.117188 C 31.792969 24.082031 31.832031 23.535156 31.703125 22.898438 " fill-opacity="1" fill-rule="nonzero"/></g><path fill="#d66708" d="M 12.929688 16.566406 C 12.832031 16.546875 12.75 16.632812 12.765625 16.730469 C 12.777344 16.785156 12.824219 16.828125 12.875 16.839844 C 12.976562 16.859375 13.058594 16.773438 13.039062 16.675781 C 13.03125 16.621094 12.984375 16.578125 12.929688 16.566406 " fill-opacity="1" fill-rule="nonzero"/></svg>