<svg xmlns="http://www.w3.org/2000/svg" xmlns:xlink="http://www.w3.org/1999/xlink" width="43" zoomAndPan="magnify" viewBox="0 0 32.25 31.499999" height="42" preserveAspectRatio="xMidYMid meet" version="1.0"><defs><clipPath id="023fa5a815"><path d="M 0.660156 0.273438 L 30.710938 0.273438 L 30.710938 30.324219 L 0.660156 30.324219 Z M 0.660156 0.273438 " clip-rule="nonzero"/></clipPath></defs><g clip-path="url(#023fa5a815)"><path fill="#ffffff" d="M 15.742188 0.273438 C 14.753906 0.273438 13.773438 0.371094 12.800781 0.5625 C 11.828125 0.757812 10.886719 1.042969 9.972656 1.421875 C 9.054688 1.800781 8.1875 2.265625 7.363281 2.816406 C 6.539062 3.367188 5.777344 3.992188 5.078125 4.691406 C 4.378906 5.390625 3.753906 6.152344 3.203125 6.976562 C 2.652344 7.800781 2.1875 8.667969 1.808594 9.585938 C 1.429688 10.5 1.144531 11.441406 0.949219 12.414062 C 0.757812 13.386719 0.660156 14.367188 0.660156 15.355469 C 0.660156 16.347656 0.757812 17.328125 0.949219 18.300781 C 1.144531 19.269531 1.429688 20.214844 1.808594 21.128906 C 2.1875 22.042969 2.652344 22.914062 3.203125 23.738281 C 3.753906 24.558594 4.378906 25.320312 5.078125 26.023438 C 5.777344 26.722656 6.539062 27.347656 7.363281 27.898438 C 8.1875 28.449219 9.054688 28.914062 9.972656 29.292969 C 10.886719 29.671875 11.828125 29.957031 12.800781 30.148438 C 13.773438 30.34375 14.753906 30.441406 15.742188 30.441406 C 16.734375 30.441406 17.714844 30.34375 18.6875 30.148438 C 19.65625 29.957031 20.601562 29.671875 21.515625 29.292969 C 22.429688 28.914062 23.300781 28.449219 24.121094 27.898438 C 24.945312 27.347656 25.707031 26.722656 26.410156 26.023438 C 27.109375 25.320312 27.734375 24.558594 28.285156 23.738281 C 28.835938 22.914062 29.300781 22.042969 29.679688 21.128906 C 30.058594 20.214844 30.34375 19.269531 30.535156 18.300781 C 30.730469 17.328125 30.828125 16.347656 30.828125 15.355469 C 30.828125 14.367188 30.730469 13.386719 30.535156 12.414062 C 30.34375 11.441406 30.058594 10.5 29.679688 9.585938 C 29.300781 8.667969 28.835938 7.800781 28.285156 6.976562 C 27.734375 6.152344 27.109375 5.390625 26.410156 4.691406 C 25.707031 3.992188 24.945312 3.367188 24.121094 2.816406 C 23.300781 2.265625 22.429688 1.800781 21.515625 1.421875 C 20.601562 1.042969 19.65625 0.757812 18.6875 0.5625 C 17.714844 0.371094 16.734375 0.273438 15.742188 0.273438 Z M 9.457031 13.925781 C 9.566406 13.664062 9.757812 13.535156 10.035156 13.535156 L 12.273438 13.535156 L 12.273438 7.25 C 12.273438 7.078125 12.335938 6.929688 12.457031 6.804688 C 12.582031 6.683594 12.730469 6.621094 12.902344 6.621094 L 18.648438 6.621094 C 18.820312 6.621094 18.96875 6.683594 19.089844 6.804688 C 19.214844 6.929688 19.273438 7.078125 19.273438 7.25 L 19.273438 13.535156 L 21.511719 13.535156 C 21.789062 13.539062 21.980469 13.667969 22.085938 13.921875 C 22.191406 14.179688 22.144531 14.40625 21.953125 14.601562 L 19.097656 17.457031 L 16.183594 20.382812 C 16.0625 20.507812 15.914062 20.570312 15.742188 20.574219 C 15.566406 20.574219 15.414062 20.511719 15.289062 20.382812 L 12.4375 17.492188 L 9.570312 14.628906 C 9.371094 14.417969 9.335938 14.183594 9.457031 13.925781 Z M 22.117188 23.402344 C 22.117188 23.574219 22.054688 23.722656 21.933594 23.84375 C 21.808594 23.96875 21.660156 24.03125 21.488281 24.03125 L 10 24.03125 C 9.824219 24.03125 9.675781 23.96875 9.554688 23.84375 C 9.433594 23.722656 9.371094 23.574219 9.371094 23.402344 L 9.371094 22.144531 C 9.371094 21.96875 9.433594 21.824219 9.554688 21.699219 C 9.675781 21.578125 9.824219 21.515625 10 21.515625 L 21.476562 21.515625 C 21.648438 21.515625 21.796875 21.578125 21.917969 21.699219 C 22.042969 21.824219 22.101562 21.96875 22.101562 22.144531 L 22.101562 23.402344 Z M 22.117188 23.402344 " fill-opacity="1" fill-rule="nonzero"/><path fill="#ffffff" d="M 15.742188 0.273438 C 14.753906 0.273438 13.773438 0.371094 12.800781 0.5625 C 11.828125 0.757812 10.886719 1.042969 9.972656 1.421875 C 9.054688 1.800781 8.1875 2.265625 7.363281 2.816406 C 6.539062 3.367188 5.777344 3.992188 5.078125 4.691406 C 4.378906 5.390625 3.753906 6.152344 3.203125 6.976562 C 2.652344 7.800781 2.1875 8.667969 1.808594 9.585938 C 1.429688 10.5 1.144531 11.441406 0.949219 12.414062 C 0.757812 13.386719 0.660156 14.367188 0.660156 15.355469 C 0.660156 16.347656 0.757812 17.328125 0.949219 18.300781 C 1.144531 19.269531 1.429688 20.214844 1.808594 21.128906 C 2.1875 22.042969 2.652344 22.914062 3.203125 23.738281 C 3.753906 24.558594 4.378906 25.320312 5.078125 26.023438 C 5.777344 26.722656 6.539062 27.347656 7.363281 27.898438 C 8.1875 28.449219 9.054688 28.914062 9.972656 29.292969 C 10.886719 29.671875 11.828125 29.957031 12.800781 30.148438 C 13.773438 30.34375 14.753906 30.441406 15.742188 30.441406 C 16.734375 30.441406 17.714844 30.34375 18.6875 30.148438 C 19.65625 29.957031 20.601562 29.671875 21.515625 29.292969 C 22.429688 28.914062 23.300781 28.449219 24.121094 27.898438 C 24.945312 27.347656 25.707031 26.722656 26.410156 26.023438 C 27.109375 25.320312 27.734375 24.558594 28.285156 23.738281 C 28.835938 22.914062 29.300781 22.042969 29.679688 21.128906 C 30.058594 20.214844 30.34375 19.269531 30.535156 18.300781 C 30.730469 17.328125 30.828125 16.347656 30.828125 15.355469 C 30.828125 14.367188 30.730469 13.386719 30.535156 12.414062 C 30.34375 11.441406 30.058594 10.5 29.679688 9.585938 C 29.300781 8.667969 28.835938 7.800781 28.285156 6.976562 C 27.734375 6.152344 27.109375 5.390625 26.410156 4.691406 C 25.707031 3.992188 24.945312 3.367188 24.121094 2.816406 C 23.300781 2.265625 22.429688 1.800781 21.515625 1.421875 C 20.601562 1.042969 19.65625 0.757812 18.6875 0.5625 C 17.714844 0.371094 16.734375 0.273438 15.742188 0.273438 Z M 9.457031 13.925781 C 9.566406 13.664062 9.757812 13.535156 10.035156 13.535156 L 12.273438 13.535156 L 12.273438 7.25 C 12.273438 7.078125 12.335938 6.929688 12.457031 6.804688 C 12.582031 6.683594 12.730469 6.621094 12.902344 6.621094 L 18.648438 6.621094 C 18.820312 6.621094 18.96875 6.683594 19.089844 6.804688 C 19.214844 6.929688 19.273438 7.078125 19.273438 7.25 L 19.273438 13.535156 L 21.511719 13.535156 C 21.789062 13.539062 21.980469 13.667969 22.085938 13.921875 C 22.191406 14.179688 22.144531 14.40625 21.953125 14.601562 L 19.097656 17.457031 L 16.183594 20.382812 C 16.0625 20.507812 15.914062 20.570312 15.742188 20.574219 C 15.566406 20.574219 15.414062 20.511719 15.289062 20.382812 L 12.4375 17.492188 L 9.570312 14.628906 C 9.371094 14.417969 9.335938 14.183594 9.457031 13.925781 Z M 22.117188 23.402344 C 22.117188 23.574219 22.054688 23.722656 21.933594 23.84375 C 21.808594 23.96875 21.660156 24.03125 21.488281 24.03125 L 10 24.03125 C 9.824219 24.03125 9.675781 23.96875 9.554688 23.84375 C 9.433594 23.722656 9.371094 23.574219 9.371094 23.402344 L 9.371094 22.144531 C 9.371094 21.96875 9.433594 21.824219 9.554688 21.699219 C 9.675781 21.578125 9.824219 21.515625 10 21.515625 L 21.476562 21.515625 C 21.648438 21.515625 21.796875 21.578125 21.917969 21.699219 C 22.042969 21.824219 22.101562 21.96875 22.101562 22.144531 L 22.101562 23.402344 Z M 22.117188 23.402344 " fill-opacity="1" fill-rule="nonzero"/></g></svg>