<svg xmlns="http://www.w3.org/2000/svg" xmlns:xlink="http://www.w3.org/1999/xlink" width="414" zoomAndPan="magnify" viewBox="0 0 310.5 671.999985" height="896" preserveAspectRatio="xMidYMid meet" version="1.0"><defs><clipPath id="5c6bf7cb21"><path d="M 0 0.539062 L 36.46875 0.539062 L 36.46875 37.007812 L 0 37.007812 Z M 0 0.539062 " clip-rule="nonzero"/></clipPath><clipPath id="f3536c1ff8"><path d="M 18.234375 0.539062 C 8.164062 0.539062 0 8.703125 0 18.773438 C 0 28.84375 8.164062 37.007812 18.234375 37.007812 C 28.304688 37.007812 36.46875 28.84375 36.46875 18.773438 C 36.46875 8.703125 28.304688 0.539062 18.234375 0.539062 Z M 18.234375 0.539062 " clip-rule="nonzero"/></clipPath><clipPath id="9464221df1"><path d="M 8.042969 8.582031 L 28.261719 8.582031 L 28.261719 28.800781 L 8.042969 28.800781 Z M 8.042969 8.582031 " clip-rule="nonzero"/></clipPath><clipPath id="5291f6119a"><path d="M 36.476562 214.738281 L 279.085938 214.738281 L 279.085938 457.347656 L 36.476562 457.347656 Z M 36.476562 214.738281 " clip-rule="nonzero"/></clipPath></defs><g clip-path="url(#5c6bf7cb21)"><g clip-path="url(#f3536c1ff8)"><path stroke-linecap="butt" transform="matrix(0.748794, 0, 0, 0.748794, 0.000000000000045224, 0.540185)" fill="none" stroke-linejoin="miter" d="M 24.351652 -0.00149965 C 10.902946 -0.00149965 -0.000000000000060396 10.901446 -0.000000000000060396 24.350152 C -0.000000000000060396 37.798858 10.902946 48.701804 24.351652 48.701804 C 37.800357 48.701804 48.703303 37.798858 48.703303 24.350152 C 48.703303 10.901446 37.800357 -0.00149965 24.351652 -0.00149965 Z M 24.351652 -0.00149965 " stroke="#1a9dfc" stroke-width="2" stroke-opacity="1" stroke-miterlimit="4"/></g></g><g clip-path="url(#9464221df1)"><path fill="#1a9dfc" d="M 18.234375 8.582031 C 12.613281 8.582031 8.042969 13.152344 8.042969 18.773438 C 8.042969 24.394531 12.613281 28.964844 18.234375 28.964844 C 23.855469 28.964844 28.421875 24.394531 28.421875 18.773438 C 28.421875 13.152344 23.855469 8.582031 18.234375 8.582031 Z M 23.960938 19.757812 L 19.21875 19.757812 L 19.21875 24.5 C 19.21875 25.039062 18.777344 25.484375 18.234375 25.484375 C 17.6875 25.484375 17.246094 25.039062 17.246094 24.5 L 17.246094 19.757812 L 12.507812 19.757812 C 11.96875 19.757812 11.519531 19.320312 11.519531 18.773438 C 11.519531 18.226562 11.96875 17.785156 12.507812 17.785156 L 17.246094 17.785156 L 17.246094 13.046875 C 17.246094 12.507812 17.6875 12.058594 18.234375 12.058594 C 18.777344 12.058594 19.21875 12.507812 19.21875 13.046875 L 19.21875 17.785156 L 23.960938 17.785156 C 24.5 17.785156 24.945312 18.226562 24.945312 18.773438 C 24.945312 19.320312 24.5 19.757812 23.960938 19.757812 Z M 23.960938 19.757812 " fill-opacity="1" fill-rule="nonzero"/></g><g clip-path="url(#5291f6119a)"><path fill="#a6a6a6" d="M 229.949219 290.476562 L 226.648438 293.777344 L 199.992188 267.125 L 203.292969 263.824219 C 206.605469 260.511719 211.976562 260.511719 215.285156 263.824219 L 229.949219 278.484375 C 233.261719 281.796875 233.261719 287.167969 229.949219 290.476562 Z M 128.160156 392.269531 L 101.507812 365.613281 L 197.300781 269.820312 L 223.953125 296.476562 Z M 83.976562 409.796875 L 97.800781 369.316406 L 124.457031 395.972656 Z M 157.757812 214.746094 C 90.78125 214.746094 36.484375 269.042969 36.484375 336.019531 C 36.484375 402.992188 90.78125 457.285156 157.757812 457.285156 C 224.730469 457.285156 279.027344 402.992188 279.027344 336.019531 C 279.027344 269.042969 224.730469 214.746094 157.757812 214.746094 " fill-opacity="1" fill-rule="nonzero"/></g></svg>