<svg xmlns="http://www.w3.org/2000/svg" xmlns:xlink="http://www.w3.org/1999/xlink" width="50" zoomAndPan="magnify" viewBox="0 0 37.5 37.499999" height="50" preserveAspectRatio="xMidYMid meet" version="1.0"><defs><clipPath id="334ef4df7c"><path d="M 4 3.839844 L 33.402344 3.839844 L 33.402344 33.445312 L 4 33.445312 Z M 4 3.839844 " clip-rule="nonzero"/></clipPath></defs><g clip-path="url(#334ef4df7c)"><path fill="#0279ce" d="M 17.695312 3.839844 C 17.558594 3.839844 17.421875 3.867188 17.292969 3.921875 C 17.164062 3.972656 17.050781 4.050781 16.953125 4.148438 C 16.855469 4.246094 16.777344 4.359375 16.722656 4.488281 C 16.671875 4.617188 16.644531 4.753906 16.644531 4.894531 L 16.644531 6 C 15.777344 6.066406 14.925781 6.210938 14.085938 6.441406 C 13.25 6.671875 12.4375 6.976562 11.660156 7.359375 C 10.878906 7.742188 10.140625 8.195312 9.449219 8.71875 C 8.753906 9.242188 8.117188 9.828125 7.535156 10.472656 C 6.953125 11.117188 6.433594 11.8125 5.984375 12.554688 C 5.535156 13.300781 5.160156 14.078125 4.855469 14.894531 C 4.554688 15.707031 4.332031 16.546875 4.191406 17.402344 C 4.050781 18.261719 3.988281 19.125 4.011719 19.992188 C 4.035156 20.859375 4.136719 21.71875 4.324219 22.570312 C 4.507812 23.417969 4.773438 24.242188 5.117188 25.039062 C 5.460938 25.839844 5.875 26.597656 6.363281 27.316406 C 6.847656 28.039062 7.398438 28.703125 8.015625 29.320312 C 8.628906 29.933594 9.296875 30.484375 10.015625 30.972656 C 10.734375 31.460938 11.496094 31.875 12.292969 32.21875 C 13.09375 32.558594 13.914062 32.824219 14.765625 33.011719 C 15.613281 33.195312 16.472656 33.300781 17.339844 33.324219 C 18.210938 33.34375 19.074219 33.285156 19.929688 33.140625 C 20.789062 33 21.625 32.777344 22.441406 32.476562 C 23.253906 32.175781 24.035156 31.800781 24.777344 31.347656 C 25.519531 30.898438 26.214844 30.382812 26.859375 29.800781 C 27.507812 29.21875 28.089844 28.578125 28.613281 27.886719 C 29.136719 27.191406 29.589844 26.457031 29.972656 25.675781 C 30.355469 24.894531 30.664062 24.085938 30.890625 23.246094 C 31.121094 22.410156 31.269531 21.554688 31.335938 20.691406 L 32.441406 20.691406 C 32.582031 20.691406 32.714844 20.664062 32.84375 20.609375 C 32.972656 20.554688 33.085938 20.480469 33.183594 20.382812 C 33.285156 20.28125 33.359375 20.167969 33.414062 20.039062 C 33.46875 19.910156 33.492188 19.777344 33.492188 19.636719 C 33.492188 19.121094 33.46875 18.601562 33.417969 18.089844 C 33.363281 17.574219 33.289062 17.0625 33.1875 16.554688 C 33.085938 16.050781 32.960938 15.546875 32.808594 15.054688 C 32.660156 14.558594 32.484375 14.070312 32.285156 13.59375 C 32.089844 13.117188 31.867188 12.648438 31.625 12.195312 C 31.378906 11.738281 31.113281 11.292969 30.824219 10.863281 C 30.539062 10.433594 30.230469 10.019531 29.902344 9.621094 C 29.574219 9.21875 29.226562 8.835938 28.863281 8.472656 C 28.496094 8.105469 28.113281 7.757812 27.714844 7.429688 C 27.3125 7.101562 26.898438 6.796875 26.46875 6.507812 C 26.039062 6.21875 25.597656 5.953125 25.140625 5.710938 C 24.683594 5.464844 24.21875 5.246094 23.738281 5.046875 C 23.261719 4.847656 22.777344 4.675781 22.28125 4.523438 C 21.785156 4.375 21.285156 4.246094 20.777344 4.144531 C 20.269531 4.046875 19.757812 3.96875 19.246094 3.917969 C 18.730469 3.867188 18.214844 3.839844 17.695312 3.839844 Z M 12.433594 18.582031 C 12.804688 18.582031 13.164062 18.644531 13.515625 18.773438 C 13.863281 18.898438 14.183594 19.082031 14.464844 19.324219 C 14.75 19.5625 14.988281 19.84375 15.171875 20.167969 C 15.355469 20.488281 15.480469 20.835938 15.542969 21.203125 C 15.605469 21.566406 15.605469 21.933594 15.539062 22.300781 C 15.472656 22.667969 15.34375 23.011719 15.15625 23.332031 C 14.96875 23.652344 14.730469 23.929688 14.441406 24.167969 C 14.15625 24.40625 13.835938 24.585938 13.484375 24.707031 L 13.484375 25.957031 L 11.378906 25.957031 L 11.378906 24.707031 C 11.070312 24.601562 10.789062 24.449219 10.527344 24.25 C 10.269531 24.054688 10.042969 23.824219 9.855469 23.558594 C 9.667969 23.292969 9.523438 23.007812 9.421875 22.695312 C 9.324219 22.386719 9.273438 22.066406 9.273438 21.742188 L 11.378906 21.742188 C 11.378906 21.882812 11.40625 22.015625 11.457031 22.144531 C 11.511719 22.273438 11.589844 22.386719 11.6875 22.488281 C 11.785156 22.585938 11.898438 22.664062 12.027344 22.714844 C 12.15625 22.769531 12.292969 22.796875 12.433594 22.796875 C 12.570312 22.796875 12.707031 22.769531 12.835938 22.714844 C 12.964844 22.664062 13.078125 22.585938 13.175781 22.488281 C 13.273438 22.386719 13.351562 22.273438 13.40625 22.144531 C 13.457031 22.015625 13.484375 21.882812 13.484375 21.742188 C 13.484375 21.601562 13.457031 21.46875 13.40625 21.339844 C 13.351562 21.210938 13.273438 21.097656 13.175781 20.996094 C 13.078125 20.898438 12.964844 20.824219 12.835938 20.769531 C 12.707031 20.714844 12.570312 20.691406 12.433594 20.691406 C 12.058594 20.691406 11.699219 20.628906 11.347656 20.5 C 11 20.371094 10.679688 20.1875 10.398438 19.949219 C 10.113281 19.710938 9.875 19.429688 9.691406 19.105469 C 9.507812 18.785156 9.382812 18.4375 9.320312 18.070312 C 9.257812 17.703125 9.257812 17.339844 9.324219 16.972656 C 9.390625 16.605469 9.519531 16.261719 9.707031 15.941406 C 9.894531 15.621094 10.132812 15.34375 10.421875 15.105469 C 10.707031 14.867188 11.027344 14.6875 11.378906 14.566406 L 11.378906 13.316406 L 13.484375 13.316406 L 13.484375 14.566406 C 13.792969 14.671875 14.074219 14.824219 14.335938 15.023438 C 14.59375 15.21875 14.820312 15.449219 15.007812 15.714844 C 15.195312 15.980469 15.339844 16.265625 15.441406 16.578125 C 15.539062 16.886719 15.589844 17.203125 15.589844 17.53125 L 13.484375 17.53125 C 13.484375 17.390625 13.457031 17.257812 13.40625 17.128906 C 13.351562 17 13.273438 16.882812 13.175781 16.785156 C 13.078125 16.6875 12.964844 16.609375 12.835938 16.558594 C 12.707031 16.503906 12.570312 16.476562 12.433594 16.476562 C 12.292969 16.476562 12.15625 16.503906 12.027344 16.558594 C 11.898438 16.609375 11.785156 16.6875 11.6875 16.785156 C 11.589844 16.882812 11.511719 17 11.457031 17.128906 C 11.40625 17.257812 11.378906 17.390625 11.378906 17.53125 C 11.378906 17.667969 11.40625 17.804688 11.457031 17.933594 C 11.511719 18.0625 11.589844 18.175781 11.6875 18.273438 C 11.785156 18.375 11.898438 18.449219 12.027344 18.503906 C 12.15625 18.554688 12.292969 18.582031 12.433594 18.582031 Z M 26.597656 27.039062 L 20.234375 20.691406 L 29.230469 20.691406 C 29.011719 23.082031 28.136719 25.195312 26.597656 27.039062 Z M 18.75 18.582031 L 18.75 5.988281 C 19.558594 6.050781 20.351562 6.1875 21.136719 6.390625 C 21.921875 6.59375 22.679688 6.867188 23.414062 7.207031 C 24.148438 7.546875 24.851562 7.945312 25.515625 8.410156 C 26.179688 8.875 26.796875 9.390625 27.371094 9.964844 C 27.941406 10.535156 28.460938 11.15625 28.921875 11.820312 C 29.386719 12.484375 29.789062 13.183594 30.128906 13.917969 C 30.464844 14.652344 30.738281 15.414062 30.941406 16.195312 C 31.148438 16.980469 31.28125 17.777344 31.34375 18.582031 Z M 18.75 18.582031 " fill-opacity="1" fill-rule="nonzero"/></g><path fill="#0279ce" d="M 19.804688 15.425781 L 24.015625 15.425781 L 24.015625 17.53125 L 19.804688 17.53125 Z M 19.804688 15.425781 " fill-opacity="1" fill-rule="nonzero"/><path fill="#0279ce" d="M 19.804688 12.265625 L 24.015625 12.265625 L 24.015625 14.371094 L 19.804688 14.371094 Z M 19.804688 12.265625 " fill-opacity="1" fill-rule="nonzero"/></svg>