<svg xmlns="http://www.w3.org/2000/svg" xmlns:xlink="http://www.w3.org/1999/xlink" width="49" zoomAndPan="magnify" viewBox="0 0 36.75 37.5" height="50" preserveAspectRatio="xMidYMid meet" version="1.0"><defs><clipPath id="3b03457a48"><path d="M 5.136719 5 L 14 5 L 14 22 L 5.136719 22 Z M 5.136719 5 " clip-rule="nonzero"/></clipPath><clipPath id="21c2860897"><path d="M 8 3.792969 L 21 3.792969 L 21 18 L 8 18 Z M 8 3.792969 " clip-rule="nonzero"/></clipPath><clipPath id="ab402feb9a"><path d="M 9 4 L 31.78125 4 L 31.78125 26 L 9 26 Z M 9 4 " clip-rule="nonzero"/></clipPath><clipPath id="fd1aa6cebf"><path d="M 13 16 L 25 16 L 25 33.398438 L 13 33.398438 Z M 13 16 " clip-rule="nonzero"/></clipPath><clipPath id="7a1fca50f2"><path d="M 5.136719 21 L 15 21 L 15 27 L 5.136719 27 Z M 5.136719 21 " clip-rule="nonzero"/></clipPath></defs><g clip-path="url(#3b03457a48)"><path fill="#f15555" d="M 8.335938 5.277344 L 5.753906 21.007812 L 13.710938 6.160156 Z M 8.335938 5.277344 " fill-opacity="1" fill-rule="nonzero"/></g><path fill="#f15555" d="M 6.773438 21.097656 L 14.058594 25.003906 L 8.035156 18.742188 Z M 6.773438 21.097656 " fill-opacity="1" fill-rule="nonzero"/><g clip-path="url(#21c2860897)"><path fill="#f15555" d="M 20.398438 6.128906 L 16.046875 3.796875 L 8.835938 17.253906 Z M 20.398438 6.128906 " fill-opacity="1" fill-rule="nonzero"/></g><g clip-path="url(#ab402feb9a)"><path fill="#f15555" d="M 16.359375 25.746094 C 16.410156 25.628906 16.46875 25.496094 16.546875 25.328125 C 17.234375 23.820312 16.835938 21.882812 15.859375 18.832031 C 15.238281 16.882812 16.023438 15.894531 16.546875 15.476562 C 16.597656 15.4375 16.65625 15.410156 16.710938 15.378906 C 16.382812 13.914062 16.777344 12.320312 17.914062 11.183594 C 19.683594 9.414062 22.554688 9.414062 24.324219 11.183594 C 26.09375 12.953125 26.09375 15.824219 24.324219 17.59375 C 23.382812 18.535156 22.128906 18.957031 20.898438 18.898438 C 20.933594 18.984375 21.921875 22.230469 21.921875 22.230469 L 31.441406 13.070312 L 23.15625 4.785156 L 9.007812 18.394531 L 16.359375 25.746094 " fill-opacity="1" fill-rule="nonzero"/></g><g clip-path="url(#fd1aa6cebf)"><path fill="#f15555" d="M 21.15625 22.964844 L 20.121094 19.464844 C 20.023438 19.230469 19.898438 18.964844 19.761719 18.691406 C 19.761719 18.6875 19.761719 18.6875 19.761719 18.6875 C 19.28125 17.746094 18.613281 16.703125 18.175781 16.359375 C 17.882812 16.132812 17.339844 16.054688 17.132812 16.214844 C 17.058594 16.273438 16.984375 16.351562 16.917969 16.433594 C 16.90625 16.445312 16.898438 16.457031 16.890625 16.46875 C 16.859375 16.507812 16.832031 16.550781 16.800781 16.597656 C 16.789062 16.621094 16.777344 16.644531 16.761719 16.667969 C 16.742188 16.710938 16.71875 16.753906 16.699219 16.804688 C 16.6875 16.835938 16.675781 16.875 16.664062 16.910156 C 16.648438 16.957031 16.636719 17 16.625 17.050781 C 16.613281 17.097656 16.605469 17.148438 16.597656 17.199219 C 16.59375 17.25 16.585938 17.296875 16.582031 17.347656 C 16.578125 17.410156 16.578125 17.476562 16.578125 17.542969 C 16.582031 17.59375 16.578125 17.640625 16.582031 17.691406 C 16.589844 17.773438 16.605469 17.863281 16.617188 17.953125 C 16.625 18 16.628906 18.042969 16.640625 18.089844 C 16.667969 18.230469 16.707031 18.382812 16.757812 18.542969 C 17.804688 21.820312 18.21875 23.933594 17.402344 25.71875 C 17.3125 25.917969 17.246094 26.0625 17.195312 26.183594 C 17.191406 26.183594 17.191406 26.1875 17.191406 26.191406 C 17.140625 26.304688 17.105469 26.390625 17.082031 26.46875 C 17.027344 26.621094 17.011719 26.738281 16.980469 26.964844 L 16.914062 27.417969 L 13.007812 26.964844 C 13.011719 27.738281 13.179688 29.371094 14.355469 30.945312 L 14.449219 31.070312 L 14.449219 33.488281 L 22.230469 33.351562 L 21.773438 33.351562 L 21.773438 30.96875 L 21.828125 30.863281 C 21.847656 30.820312 24.128906 26.367188 24.601562 22.917969 C 24.695312 22.238281 24.769531 21.460938 24.824219 20.828125 L 21.484375 24.082031 L 21.15625 22.964844 " fill-opacity="1" fill-rule="nonzero"/></g><path fill="#f15555" d="M 22.003906 14.484375 C 22.210938 14.382812 22.394531 14.339844 22.566406 14.347656 C 22.800781 14.363281 23.035156 14.496094 23.285156 14.757812 C 23.285156 14.761719 23.289062 14.761719 23.289062 14.761719 C 23.304688 14.777344 23.339844 14.824219 23.390625 14.921875 C 23.429688 14.992188 23.453125 15.074219 23.460938 15.175781 C 23.472656 15.273438 23.457031 15.390625 23.417969 15.523438 C 23.394531 15.601562 23.351562 15.683594 23.292969 15.773438 Z M 21.398438 14.90625 C 21.402344 14.90625 21.402344 14.902344 21.402344 14.902344 C 21.402344 14.902344 21.40625 14.902344 21.40625 14.902344 C 21.402344 14.902344 21.402344 14.902344 21.398438 14.90625 Z M 20.417969 14.628906 C 20.25 14.683594 20.101562 14.714844 19.972656 14.714844 C 19.867188 14.71875 19.761719 14.699219 19.679688 14.664062 C 19.589844 14.621094 19.503906 14.566406 19.425781 14.503906 C 19.207031 14.300781 19.09375 14.058594 19.089844 13.761719 C 19.085938 13.519531 19.175781 13.273438 19.355469 13.027344 L 20.777344 14.449219 C 20.644531 14.535156 20.523438 14.59375 20.417969 14.628906 Z M 21.195312 16.617188 C 21.074219 16.527344 20.882812 16.496094 20.695312 16.664062 C 20.582031 16.773438 20.5625 16.878906 20.570312 16.953125 C 20.574219 17.023438 20.609375 17.128906 20.734375 17.207031 C 21.039062 17.417969 21.363281 17.523438 21.699219 17.523438 C 21.828125 17.523438 21.957031 17.507812 22.089844 17.476562 C 22.480469 17.390625 22.863281 17.195312 23.226562 16.898438 L 23.386719 17.058594 C 23.5 17.167969 23.617188 17.210938 23.714844 17.1875 C 23.820312 17.175781 23.910156 17.136719 23.980469 17.066406 C 24.046875 17 24.089844 16.910156 24.105469 16.792969 C 24.117188 16.667969 24.070312 16.550781 23.980469 16.460938 L 23.816406 16.296875 C 24.085938 15.933594 24.210938 15.574219 24.195312 15.230469 C 24.175781 14.839844 24.050781 14.511719 23.828125 14.253906 C 23.714844 14.117188 23.578125 13.992188 23.410156 13.878906 C 23.238281 13.757812 23.050781 13.679688 22.839844 13.632812 C 22.628906 13.585938 22.394531 13.59375 22.136719 13.652344 C 21.925781 13.699219 21.699219 13.796875 21.464844 13.945312 L 20.007812 12.488281 C 20.050781 12.472656 20.09375 12.460938 20.132812 12.453125 C 20.269531 12.425781 20.402344 12.421875 20.523438 12.433594 C 20.644531 12.445312 20.753906 12.476562 20.855469 12.527344 C 20.96875 12.585938 21.0625 12.648438 21.152344 12.71875 C 21.261719 12.8125 21.359375 12.824219 21.433594 12.816406 C 21.496094 12.808594 21.589844 12.78125 21.667969 12.679688 C 21.722656 12.609375 21.824219 12.425781 21.632812 12.140625 C 21.277344 11.800781 20.886719 11.628906 20.457031 11.636719 C 20.105469 11.636719 19.773438 11.742188 19.464844 11.945312 L 19.25 11.730469 C 19.160156 11.644531 19.039062 11.601562 18.914062 11.613281 C 18.808594 11.625 18.71875 11.667969 18.648438 11.738281 C 18.578125 11.808594 18.539062 11.898438 18.527344 12.019531 C 18.523438 12.097656 18.542969 12.214844 18.65625 12.328125 L 18.835938 12.507812 C 18.695312 12.675781 18.585938 12.855469 18.503906 13.035156 C 18.390625 13.289062 18.328125 13.539062 18.324219 13.78125 C 18.316406 14.027344 18.363281 14.265625 18.457031 14.492188 C 18.558594 14.722656 18.707031 14.921875 18.90625 15.082031 C 19.269531 15.378906 19.675781 15.515625 20.132812 15.476562 C 20.515625 15.445312 20.902344 15.285156 21.304688 14.976562 L 22.707031 16.378906 C 22.4375 16.59375 22.183594 16.71875 21.941406 16.753906 C 21.648438 16.792969 21.398438 16.742188 21.195312 16.617188 " fill-opacity="1" fill-rule="nonzero"/><g clip-path="url(#7a1fca50f2)"><path fill="#f15555" d="M 5.660156 21.585938 L 5.15625 24.652344 L 14.171875 26.132812 Z M 5.660156 21.585938 " fill-opacity="1" fill-rule="nonzero"/></g></svg>