<svg xmlns="http://www.w3.org/2000/svg" xmlns:xlink="http://www.w3.org/1999/xlink" width="50" zoomAndPan="magnify" viewBox="0 0 37.5 37.499999" height="50" preserveAspectRatio="xMidYMid meet" version="1.0"><defs><clipPath id="de33f2dff9"><path d="M 13.566406 16.007812 L 34.976562 16.007812 L 34.976562 33.347656 L 13.566406 33.347656 Z M 13.566406 16.007812 " clip-rule="nonzero"/></clipPath><clipPath id="6d0b4944c2"><path d="M 1.730469 4 L 16 4 L 16 23 L 1.730469 23 Z M 1.730469 4 " clip-rule="nonzero"/></clipPath></defs><g clip-path="url(#de33f2dff9)"><path fill="#0279ce" d="M 34.976562 17.15625 C 34.976562 17.15625 32.300781 18.949219 31.097656 24.3125 C 29.730469 30.421875 24.9375 33.695312 17.742188 33.316406 C 16.296875 33.242188 15.167969 33.066406 14.480469 32.929688 C 19.5 23.242188 27.511719 19.988281 28.261719 19.699219 C 18.925781 22.351562 15.023438 28.308594 13.792969 30.671875 C 14.109375 25.488281 16.011719 12.414062 34.976562 17.15625 " fill-opacity="1" fill-rule="nonzero"/></g><g clip-path="url(#6d0b4944c2)"><path fill="#0279ce" d="M 15.046875 21.011719 C 14.730469 18.746094 13.28125 12.808594 6.492188 7.980469 C 7.015625 8.433594 12.5625 13.363281 13.839844 22.640625 C 13.246094 22.554688 12.28125 22.371094 11.089844 22.015625 C 5.160156 20.257812 2.226562 16.234375 2.875 10.898438 C 3.441406 6.214844 1.789062 4 1.789062 4 C 18.492188 5.605469 16.277344 16.726562 15.046875 21.011719 " fill-opacity="1" fill-rule="nonzero"/></g></svg>