<svg xmlns="http://www.w3.org/2000/svg" xmlns:xlink="http://www.w3.org/1999/xlink" width="50" zoomAndPan="magnify" viewBox="0 0 37.5 37.499999" height="50" preserveAspectRatio="xMidYMid meet" version="1.0"><defs><clipPath id="1148806ace"><path d="M 0.394531 7.117188 L 34 7.117188 L 34 30.0625 L 0.394531 30.0625 Z M 0.394531 7.117188 " clip-rule="nonzero"/></clipPath><clipPath id="1fd3ff1391"><path d="M 27 20 L 36.660156 20 L 36.660156 30.0625 L 27 30.0625 Z M 27 20 " clip-rule="nonzero"/></clipPath></defs><g clip-path="url(#1148806ace)"><path fill="#22b2bb" d="M 31.691406 20.019531 C 32.195312 20.019531 32.691406 20.085938 33.15625 20.21875 L 33.15625 16.613281 C 33.15625 16.375 32.960938 16.1875 32.730469 16.1875 L 31.265625 16.1875 L 31.265625 12.28125 L 33.023438 10.519531 C 33.464844 10.074219 33.464844 9.363281 33.023438 8.917969 C 32.578125 8.472656 31.859375 8.472656 31.417969 8.917969 L 29.414062 10.929688 C 29.375 10.992188 29 11.222656 29 11.804688 L 29 16.1875 L 25.855469 16.1875 L 24.089844 14.3125 L 24.089844 7.546875 C 24.089844 7.316406 23.902344 7.125 23.664062 7.125 L 18.59375 7.125 C 16.472656 7.125 14.75 8.84375 14.75 10.964844 L 14.75 14.484375 C 14.75 14.546875 14.769531 14.601562 14.789062 14.660156 L 13.113281 17.433594 L 7.957031 21.996094 L 0.824219 21.996094 C 0.589844 21.996094 0.398438 22.1875 0.398438 22.421875 C 0.398438 22.660156 0.589844 22.847656 0.824219 22.847656 L 2.425781 22.847656 L 2.425781 25.550781 C 2.425781 25.652344 2.460938 25.746094 2.53125 25.828125 L 3.816406 27.324219 C 3.902344 27.417969 4.019531 27.46875 4.136719 27.46875 C 4.234375 27.46875 4.335938 27.4375 4.417969 27.367188 C 4.59375 27.214844 4.613281 26.941406 4.460938 26.765625 L 3.277344 25.390625 L 3.277344 22.847656 L 5.613281 22.847656 L 5.613281 25.550781 C 5.613281 25.652344 5.652344 25.746094 5.714844 25.828125 L 7.003906 27.324219 C 7.085938 27.417969 7.203125 27.46875 7.324219 27.46875 C 7.425781 27.46875 7.519531 27.4375 7.601562 27.367188 C 7.78125 27.214844 7.800781 26.941406 7.644531 26.765625 L 6.460938 25.390625 L 6.460938 22.847656 L 8.800781 22.847656 L 8.800781 25.550781 C 8.800781 25.652344 8.835938 25.746094 8.902344 25.828125 L 10.191406 27.324219 C 10.273438 27.417969 10.394531 27.46875 10.511719 27.46875 C 10.609375 27.46875 10.710938 27.4375 10.789062 27.367188 C 10.964844 27.214844 10.988281 26.941406 10.835938 26.765625 L 9.652344 25.390625 L 9.652344 22.847656 L 11.765625 22.847656 C 11.714844 23.175781 11.679688 23.507812 11.679688 23.847656 C 11.679688 27.367188 14.542969 30.230469 18.054688 30.230469 C 21.585938 30.230469 24.453125 27.367188 24.453125 23.847656 L 24.453125 23.78125 C 24.410156 20.296875 21.542969 17.464844 18.054688 17.464844 C 15.164062 17.464844 12.746094 19.382812 11.953125 21.996094 L 9.25 21.996094 L 12.90625 18.75 L 12.902344 18.785156 C 14.21875 17.445312 16.042969 16.613281 18.054688 16.613281 C 22.003906 16.613281 25.257812 19.828125 25.300781 23.769531 L 25.300781 23.847656 C 25.300781 23.96875 25.296875 24.085938 25.289062 24.207031 L 26.332031 24.207031 C 26.933594 21.804688 29.109375 20.019531 31.691406 20.019531 Z M 18.058594 19.863281 C 20.257812 19.863281 22.046875 21.652344 22.046875 23.847656 C 22.046875 26.042969 20.257812 27.828125 18.058594 27.828125 C 15.867188 27.828125 14.082031 26.042969 14.082031 23.847656 C 14.082031 21.652344 15.867188 19.863281 18.058594 19.863281 Z M 23.238281 14.058594 L 19.84375 14.058594 L 19.84375 7.972656 L 23.238281 7.972656 Z M 23.238281 14.058594 " fill-opacity="1" fill-rule="nonzero"/></g><path fill="#22b2bb" d="M 31.695312 24.273438 C 30.992188 24.273438 30.417969 24.84375 30.417969 25.550781 C 30.417969 26.253906 30.992188 26.828125 31.695312 26.828125 C 32.398438 26.828125 32.976562 26.253906 32.976562 25.550781 C 32.976562 24.84375 32.398438 24.273438 31.695312 24.273438 Z M 31.695312 24.273438 " fill-opacity="1" fill-rule="nonzero"/><g clip-path="url(#1fd3ff1391)"><path fill="#22b2bb" d="M 31.691406 20.867188 C 29.128906 20.867188 27.019531 22.945312 27.019531 25.550781 C 27.019531 28.132812 29.113281 30.230469 31.691406 30.230469 C 34.277344 30.230469 36.378906 28.132812 36.378906 25.550781 C 36.378906 22.957031 34.289062 20.867188 31.691406 20.867188 Z M 31.695312 27.675781 C 30.523438 27.675781 29.570312 26.722656 29.570312 25.550781 C 29.570312 24.375 30.523438 23.421875 31.695312 23.421875 C 32.867188 23.421875 33.824219 24.375 33.824219 25.550781 C 33.824219 26.722656 32.867188 27.675781 31.695312 27.675781 Z M 31.695312 27.675781 " fill-opacity="1" fill-rule="nonzero"/></g><path fill="#22b2bb" d="M 18.058594 26.980469 C 19.789062 26.980469 21.195312 25.574219 21.195312 23.847656 C 21.195312 22.121094 19.789062 20.714844 18.058594 20.714844 C 16.335938 20.714844 14.933594 22.121094 14.933594 23.847656 C 14.933594 25.574219 16.335938 26.980469 18.058594 26.980469 Z M 18.058594 26.980469 " fill-opacity="1" fill-rule="nonzero"/></svg>