<svg xmlns="http://www.w3.org/2000/svg" xmlns:xlink="http://www.w3.org/1999/xlink" width="50" zoomAndPan="magnify" viewBox="0 0 37.5 37.499999" height="50" preserveAspectRatio="xMidYMid meet" version="1.0"><defs><clipPath id="6a5b5e3f46"><path d="M 4.007812 3.472656 L 32.875 3.472656 L 32.875 33.074219 L 4.007812 33.074219 Z M 4.007812 3.472656 " clip-rule="nonzero"/></clipPath></defs><g clip-path="url(#6a5b5e3f46)"><path fill="#5166b4" d="M 7.976562 18.816406 L 28.765625 18.816406 L 28.765625 33.167969 L 32.726562 33.167969 L 32.726562 12.875 L 18.371094 3.472656 L 4.019531 12.875 L 4.019531 33.167969 L 7.976562 33.167969 Z M 13.421875 10.894531 L 14.175781 10.894531 C 14.394531 10.894531 14.578125 10.75 14.648438 10.546875 C 14.691406 10.425781 14.738281 10.3125 14.792969 10.199219 C 14.886719 10.003906 14.859375 9.773438 14.707031 9.617188 L 14.171875 9.085938 L 15.570312 7.683594 L 16.105469 8.21875 C 16.257812 8.371094 16.488281 8.398438 16.6875 8.304688 C 16.800781 8.253906 16.914062 8.207031 17.03125 8.164062 C 17.238281 8.089844 17.382812 7.90625 17.382812 7.691406 L 17.382812 6.933594 L 19.363281 6.933594 L 19.363281 7.691406 C 19.363281 7.90625 19.507812 8.089844 19.710938 8.164062 C 19.828125 8.207031 19.945312 8.253906 20.058594 8.304688 C 20.253906 8.398438 20.484375 8.371094 20.640625 8.21875 L 21.171875 7.683594 L 22.570312 9.085938 L 22.039062 9.617188 C 21.886719 9.769531 21.859375 10.003906 21.953125 10.199219 C 22.003906 10.3125 22.050781 10.425781 22.09375 10.546875 C 22.167969 10.75 22.351562 10.894531 22.566406 10.894531 L 23.320312 10.894531 L 23.320312 12.875 L 22.566406 12.875 C 22.351562 12.875 22.167969 13.019531 22.09375 13.222656 C 22.050781 13.34375 22.003906 13.457031 21.953125 13.570312 C 21.859375 13.765625 21.886719 14 22.039062 14.152344 L 22.574219 14.683594 L 21.171875 16.085938 L 20.640625 15.550781 C 20.488281 15.398438 20.253906 15.371094 20.058594 15.464844 C 19.945312 15.515625 19.828125 15.566406 19.710938 15.605469 C 19.507812 15.679688 19.363281 15.863281 19.363281 16.082031 L 19.363281 16.835938 L 17.382812 16.835938 L 17.382812 16.082031 C 17.382812 15.863281 17.238281 15.679688 17.03125 15.609375 C 16.914062 15.566406 16.800781 15.519531 16.6875 15.464844 C 16.492188 15.371094 16.257812 15.398438 16.105469 15.550781 L 15.574219 16.085938 L 14.171875 14.6875 L 14.707031 14.152344 C 14.859375 14 14.886719 13.765625 14.792969 13.570312 C 14.742188 13.457031 14.691406 13.34375 14.648438 13.226562 C 14.578125 13.019531 14.394531 12.875 14.175781 12.875 L 13.421875 12.875 Z M 13.421875 10.894531 " fill-opacity="1" fill-rule="nonzero"/></g><path fill="#5166b4" d="M 20.351562 11.886719 C 20.351562 12.148438 20.300781 12.398438 20.203125 12.644531 C 20.101562 12.886719 19.957031 13.097656 19.773438 13.285156 C 19.585938 13.472656 19.371094 13.613281 19.128906 13.714844 C 18.886719 13.816406 18.636719 13.863281 18.371094 13.863281 C 18.109375 13.863281 17.855469 13.816406 17.613281 13.714844 C 17.371094 13.613281 17.15625 13.472656 16.972656 13.285156 C 16.785156 13.097656 16.644531 12.886719 16.542969 12.644531 C 16.441406 12.398438 16.390625 12.148438 16.390625 11.886719 C 16.390625 11.621094 16.441406 11.371094 16.542969 11.128906 C 16.644531 10.886719 16.785156 10.671875 16.972656 10.484375 C 17.15625 10.300781 17.371094 10.15625 17.613281 10.054688 C 17.855469 9.957031 18.109375 9.90625 18.371094 9.90625 C 18.636719 9.90625 18.886719 9.957031 19.128906 10.054688 C 19.371094 10.15625 19.585938 10.300781 19.773438 10.484375 C 19.957031 10.671875 20.101562 10.886719 20.203125 11.128906 C 20.300781 11.371094 20.351562 11.621094 20.351562 11.886719 Z M 20.351562 11.886719 " fill-opacity="1" fill-rule="nonzero"/><path fill="#5166b4" d="M 9.957031 27.722656 L 9.957031 32.671875 L 14.90625 32.671875 L 14.90625 27.722656 L 12.929688 27.722656 L 12.929688 29.703125 L 11.9375 29.703125 L 11.9375 27.722656 Z M 9.957031 27.722656 " fill-opacity="1" fill-rule="nonzero"/><path fill="#5166b4" d="M 15.898438 32.671875 L 20.847656 32.671875 L 20.847656 27.722656 L 18.867188 27.722656 L 18.867188 29.703125 L 17.878906 29.703125 L 17.878906 27.722656 L 15.898438 27.722656 Z M 15.898438 32.671875 " fill-opacity="1" fill-rule="nonzero"/><path fill="#5166b4" d="M 26.785156 27.722656 L 24.808594 27.722656 L 24.808594 29.703125 L 23.816406 29.703125 L 23.816406 27.722656 L 21.835938 27.722656 L 21.835938 32.671875 L 26.785156 32.671875 Z M 26.785156 27.722656 " fill-opacity="1" fill-rule="nonzero"/><path fill="#5166b4" d="M 15.898438 21.785156 L 15.898438 26.734375 L 20.847656 26.734375 L 20.847656 21.785156 L 18.867188 21.785156 L 18.867188 23.765625 L 17.878906 23.765625 L 17.878906 21.785156 Z M 15.898438 21.785156 " fill-opacity="1" fill-rule="nonzero"/><path fill="#5166b4" d="M 26.785156 21.785156 L 24.808594 21.785156 L 24.808594 23.765625 L 23.816406 23.765625 L 23.816406 21.785156 L 21.835938 21.785156 L 21.835938 26.734375 L 26.785156 26.734375 Z M 26.785156 21.785156 " fill-opacity="1" fill-rule="nonzero"/></svg>