<svg xmlns="http://www.w3.org/2000/svg" xmlns:xlink="http://www.w3.org/1999/xlink" width="49" zoomAndPan="magnify" viewBox="0 0 36.75 37.5" height="50" preserveAspectRatio="xMidYMid meet" version="1.0"><defs><clipPath id="d47bcbf02e"><path d="M 7.328125 3.65625 L 28.792969 3.65625 L 28.792969 33.261719 L 7.328125 33.261719 Z M 7.328125 3.65625 " clip-rule="nonzero"/></clipPath></defs><g clip-path="url(#d47bcbf02e)"><path fill="#5166b4" d="M 18.914062 3.941406 C 18.824219 3.851562 18.71875 3.777344 18.597656 3.726562 C 18.476562 3.679688 18.351562 3.652344 18.222656 3.652344 C 18.09375 3.652344 17.964844 3.679688 17.847656 3.726562 C 17.726562 3.777344 17.621094 3.851562 17.527344 3.941406 C 17.113281 4.347656 7.332031 14.039062 7.332031 22.464844 C 7.332031 23.179688 7.402344 23.886719 7.542969 24.589844 C 7.679688 25.289062 7.886719 25.96875 8.160156 26.632812 C 8.433594 27.292969 8.769531 27.917969 9.167969 28.511719 C 9.566406 29.109375 10.015625 29.65625 10.523438 30.164062 C 11.027344 30.667969 11.578125 31.121094 12.171875 31.519531 C 12.765625 31.914062 13.394531 32.25 14.054688 32.523438 C 14.714844 32.796875 15.394531 33.003906 16.097656 33.144531 C 16.800781 33.285156 17.507812 33.351562 18.222656 33.351562 C 18.9375 33.351562 19.644531 33.285156 20.347656 33.144531 C 21.046875 33.003906 21.730469 32.796875 22.390625 32.523438 C 23.050781 32.25 23.675781 31.914062 24.273438 31.519531 C 24.867188 31.121094 25.417969 30.667969 25.921875 30.164062 C 26.425781 29.65625 26.878906 29.109375 27.277344 28.511719 C 27.671875 27.917969 28.007812 27.292969 28.28125 26.632812 C 28.554688 25.96875 28.761719 25.289062 28.902344 24.589844 C 29.042969 23.886719 29.109375 23.179688 29.109375 22.464844 C 29.109375 14.039062 19.332031 4.347656 18.914062 3.941406 Z M 18.222656 29.394531 C 17.765625 29.394531 17.316406 29.347656 16.871094 29.257812 C 16.425781 29.167969 15.992188 29.039062 15.570312 28.863281 C 15.152344 28.691406 14.753906 28.476562 14.375 28.222656 C 13.996094 27.96875 13.644531 27.683594 13.324219 27.363281 C 13.003906 27.039062 12.714844 26.691406 12.460938 26.3125 C 12.210938 25.933594 11.996094 25.535156 11.820312 25.113281 C 11.648438 24.695312 11.515625 24.261719 11.425781 23.816406 C 11.335938 23.371094 11.292969 22.917969 11.292969 22.464844 C 11.292969 22.332031 11.316406 22.207031 11.367188 22.085938 C 11.417969 21.964844 11.488281 21.855469 11.582031 21.765625 C 11.675781 21.671875 11.78125 21.597656 11.902344 21.550781 C 12.023438 21.5 12.152344 21.472656 12.28125 21.472656 C 12.414062 21.472656 12.539062 21.5 12.660156 21.550781 C 12.78125 21.597656 12.890625 21.671875 12.984375 21.765625 C 13.074219 21.855469 13.148438 21.964844 13.195312 22.085938 C 13.246094 22.207031 13.273438 22.332031 13.273438 22.464844 C 13.273438 22.789062 13.304688 23.109375 13.367188 23.429688 C 13.429688 23.75 13.523438 24.058594 13.648438 24.359375 C 13.773438 24.660156 13.925781 24.945312 14.105469 25.214844 C 14.285156 25.484375 14.492188 25.734375 14.722656 25.964844 C 14.953125 26.195312 15.203125 26.398438 15.472656 26.578125 C 15.742188 26.761719 16.027344 26.914062 16.328125 27.035156 C 16.628906 27.160156 16.9375 27.253906 17.257812 27.320312 C 17.574219 27.382812 17.898438 27.414062 18.222656 27.414062 C 18.351562 27.414062 18.480469 27.4375 18.601562 27.488281 C 18.722656 27.539062 18.828125 27.609375 18.921875 27.703125 C 19.015625 27.796875 19.085938 27.902344 19.136719 28.023438 C 19.1875 28.144531 19.210938 28.273438 19.210938 28.402344 C 19.210938 28.535156 19.1875 28.660156 19.136719 28.78125 C 19.085938 28.902344 19.015625 29.011719 18.921875 29.101562 C 18.828125 29.195312 18.722656 29.269531 18.601562 29.316406 C 18.480469 29.367188 18.351562 29.394531 18.222656 29.394531 Z M 18.222656 29.394531 " fill-opacity="1" fill-rule="nonzero"/></g></svg>