<svg xmlns="http://www.w3.org/2000/svg" xmlns:xlink="http://www.w3.org/1999/xlink" width="108" zoomAndPan="magnify" viewBox="0 0 81 80.999996" height="108" preserveAspectRatio="xMidYMid meet" version="1.0"><defs><clipPath id="40b236401f"><path d="M 23 10.46875 L 37 10.46875 L 37 24 L 23 24 Z M 23 10.46875 " clip-rule="nonzero"/></clipPath><clipPath id="a7820a13d4"><path d="M 43 10.46875 L 57 10.46875 L 57 24 L 43 24 Z M 43 10.46875 " clip-rule="nonzero"/></clipPath><clipPath id="d66d713d41"><path d="M 28 50 L 52 50 L 52 69.71875 L 28 69.71875 Z M 28 50 " clip-rule="nonzero"/></clipPath><clipPath id="b21aad3f87"><path d="M 7.882812 42 L 31 42 L 31 63 L 7.882812 63 Z M 7.882812 42 " clip-rule="nonzero"/></clipPath><clipPath id="b33e06dc6d"><path d="M 49 42 L 72.382812 42 L 72.382812 63 L 49 63 Z M 49 42 " clip-rule="nonzero"/></clipPath></defs><g clip-path="url(#40b236401f)"><path fill="#cb6ce6" d="M 36.332031 16.933594 C 36.332031 17.359375 36.289062 17.777344 36.207031 18.195312 C 36.125 18.609375 36 19.015625 35.839844 19.40625 C 35.675781 19.800781 35.476562 20.171875 35.242188 20.523438 C 35.003906 20.878906 34.738281 21.203125 34.4375 21.503906 C 34.136719 21.804688 33.8125 22.074219 33.457031 22.308594 C 33.105469 22.542969 32.730469 22.742188 32.339844 22.90625 C 31.949219 23.070312 31.542969 23.191406 31.128906 23.273438 C 30.710938 23.355469 30.289062 23.398438 29.867188 23.398438 C 29.441406 23.398438 29.019531 23.355469 28.605469 23.273438 C 28.1875 23.191406 27.785156 23.070312 27.390625 22.90625 C 27 22.742188 26.628906 22.542969 26.273438 22.308594 C 25.921875 22.074219 25.59375 21.804688 25.296875 21.503906 C 24.996094 21.203125 24.726562 20.878906 24.492188 20.523438 C 24.253906 20.171875 24.054688 19.800781 23.894531 19.40625 C 23.730469 19.015625 23.609375 18.609375 23.527344 18.195312 C 23.441406 17.777344 23.402344 17.359375 23.402344 16.933594 C 23.402344 16.507812 23.441406 16.089844 23.527344 15.671875 C 23.609375 15.257812 23.730469 14.851562 23.894531 14.460938 C 24.054688 14.066406 24.253906 13.695312 24.492188 13.34375 C 24.726562 12.988281 24.996094 12.664062 25.296875 12.363281 C 25.59375 12.0625 25.921875 11.792969 26.273438 11.558594 C 26.628906 11.324219 27 11.125 27.390625 10.960938 C 27.785156 10.800781 28.1875 10.675781 28.605469 10.59375 C 29.019531 10.511719 29.441406 10.46875 29.867188 10.46875 C 30.289062 10.46875 30.710938 10.511719 31.128906 10.59375 C 31.542969 10.675781 31.949219 10.800781 32.339844 10.960938 C 32.730469 11.125 33.105469 11.324219 33.457031 11.558594 C 33.8125 11.792969 34.136719 12.0625 34.4375 12.363281 C 34.738281 12.664062 35.003906 12.988281 35.242188 13.34375 C 35.476562 13.695312 35.675781 14.066406 35.839844 14.460938 C 36 14.851562 36.125 15.257812 36.207031 15.671875 C 36.289062 16.089844 36.332031 16.507812 36.332031 16.933594 Z M 36.332031 16.933594 " fill-opacity="1" fill-rule="nonzero"/></g><g clip-path="url(#a7820a13d4)"><path fill="#cb6ce6" d="M 56.757812 16.933594 C 56.757812 17.359375 56.71875 17.777344 56.632812 18.195312 C 56.550781 18.609375 56.429688 19.015625 56.265625 19.40625 C 56.105469 19.800781 55.90625 20.171875 55.667969 20.523438 C 55.433594 20.878906 55.164062 21.203125 54.863281 21.503906 C 54.566406 21.804688 54.238281 22.074219 53.886719 22.308594 C 53.53125 22.542969 53.160156 22.742188 52.769531 22.90625 C 52.375 23.070312 51.972656 23.191406 51.554688 23.273438 C 51.136719 23.355469 50.71875 23.398438 50.292969 23.398438 C 49.871094 23.398438 49.449219 23.355469 49.03125 23.273438 C 48.617188 23.191406 48.210938 23.070312 47.820312 22.90625 C 47.429688 22.742188 47.054688 22.542969 46.703125 22.308594 C 46.347656 22.074219 46.023438 21.804688 45.722656 21.503906 C 45.421875 21.203125 45.15625 20.878906 44.917969 20.523438 C 44.683594 20.171875 44.484375 19.800781 44.320312 19.40625 C 44.160156 19.015625 44.035156 18.609375 43.953125 18.195312 C 43.871094 17.777344 43.828125 17.359375 43.828125 16.933594 C 43.828125 16.507812 43.871094 16.089844 43.953125 15.671875 C 44.035156 15.257812 44.160156 14.851562 44.320312 14.460938 C 44.484375 14.066406 44.683594 13.695312 44.917969 13.34375 C 45.15625 12.988281 45.421875 12.664062 45.722656 12.363281 C 46.023438 12.0625 46.347656 11.792969 46.703125 11.558594 C 47.054688 11.324219 47.429688 11.125 47.820312 10.960938 C 48.210938 10.800781 48.617188 10.675781 49.03125 10.59375 C 49.449219 10.511719 49.871094 10.46875 50.292969 10.46875 C 50.71875 10.46875 51.136719 10.511719 51.554688 10.59375 C 51.972656 10.675781 52.375 10.800781 52.769531 10.960938 C 53.160156 11.125 53.53125 11.324219 53.886719 11.558594 C 54.238281 11.792969 54.566406 12.0625 54.863281 12.363281 C 55.164062 12.664062 55.433594 12.988281 55.667969 13.34375 C 55.90625 13.695312 56.105469 14.066406 56.265625 14.460938 C 56.429688 14.851562 56.550781 15.257812 56.632812 15.671875 C 56.71875 16.089844 56.757812 16.507812 56.757812 16.933594 Z M 56.757812 16.933594 " fill-opacity="1" fill-rule="nonzero"/></g><path fill="#cb6ce6" d="M 48 41.535156 C 48 42.042969 47.953125 42.546875 47.851562 43.046875 C 47.753906 43.546875 47.605469 44.03125 47.410156 44.503906 C 47.214844 44.972656 46.976562 45.417969 46.695312 45.84375 C 46.410156 46.265625 46.089844 46.660156 45.730469 47.019531 C 45.371094 47.378906 44.976562 47.699219 44.554688 47.984375 C 44.128906 48.265625 43.683594 48.503906 43.210938 48.699219 C 42.742188 48.894531 42.257812 49.042969 41.757812 49.140625 C 41.257812 49.242188 40.753906 49.289062 40.246094 49.289062 C 39.734375 49.289062 39.230469 49.242188 38.730469 49.140625 C 38.230469 49.042969 37.746094 48.894531 37.277344 48.699219 C 36.804688 48.503906 36.359375 48.265625 35.933594 47.984375 C 35.511719 47.699219 35.121094 47.378906 34.757812 47.019531 C 34.398438 46.660156 34.078125 46.265625 33.792969 45.84375 C 33.511719 45.417969 33.273438 44.972656 33.078125 44.503906 C 32.882812 44.03125 32.734375 43.546875 32.636719 43.046875 C 32.535156 42.546875 32.488281 42.042969 32.488281 41.535156 C 32.488281 41.023438 32.535156 40.519531 32.636719 40.019531 C 32.734375 39.519531 32.882812 39.035156 33.078125 38.566406 C 33.273438 38.09375 33.511719 37.648438 33.792969 37.222656 C 34.078125 36.800781 34.398438 36.410156 34.757812 36.046875 C 35.121094 35.6875 35.511719 35.367188 35.933594 35.082031 C 36.359375 34.800781 36.804688 34.5625 37.277344 34.367188 C 37.746094 34.171875 38.230469 34.023438 38.730469 33.925781 C 39.230469 33.824219 39.734375 33.777344 40.246094 33.777344 C 40.753906 33.777344 41.257812 33.824219 41.757812 33.925781 C 42.257812 34.023438 42.742188 34.171875 43.210938 34.367188 C 43.683594 34.5625 44.128906 34.800781 44.554688 35.082031 C 44.976562 35.367188 45.371094 35.6875 45.730469 36.046875 C 46.089844 36.410156 46.410156 36.800781 46.695312 37.222656 C 46.976562 37.648438 47.214844 38.09375 47.410156 38.566406 C 47.605469 39.035156 47.753906 39.519531 47.851562 40.019531 C 47.953125 40.519531 48 41.023438 48 41.535156 Z M 48 41.535156 " fill-opacity="1" fill-rule="nonzero"/><g clip-path="url(#d66d713d41)"><path fill="#cb6ce6" d="M 40.246094 69.976562 C 32.285156 69.976562 29.425781 68.003906 29.125 67.777344 C 28.800781 67.535156 28.609375 67.152344 28.609375 66.746094 L 28.609375 62.21875 C 28.609375 55.804688 33.828125 50.582031 40.246094 50.582031 C 46.660156 50.582031 51.878906 55.804688 51.878906 62.21875 L 51.878906 66.746094 C 51.878906 67.152344 51.6875 67.535156 51.363281 67.777344 C 51.0625 68.003906 48.203125 69.976562 40.246094 69.976562 Z M 40.246094 69.976562 " fill-opacity="1" fill-rule="nonzero"/></g><g clip-path="url(#b21aad3f87)"><path fill="#cb6ce6" d="M 30.800781 51.617188 C 29.539062 46.554688 24.96875 42.792969 19.523438 42.792969 C 13.109375 42.792969 7.886719 48.011719 7.886719 54.425781 L 7.886719 58.953125 C 7.886719 59.359375 8.078125 59.742188 8.40625 59.988281 C 8.703125 60.210938 11.5625 62.183594 19.523438 62.183594 C 22.28125 62.183594 24.414062 61.945312 26.054688 61.625 C 26.21875 57.652344 28.015625 54.097656 30.800781 51.617188 Z M 30.800781 51.617188 " fill-opacity="1" fill-rule="nonzero"/></g><g clip-path="url(#b33e06dc6d)"><path fill="#cb6ce6" d="M 60.894531 42.792969 C 55.46875 42.792969 50.910156 46.53125 49.628906 51.5625 C 52.453125 54.050781 54.273438 57.632812 54.4375 61.640625 C 56.066406 61.953125 58.179688 62.183594 60.894531 62.183594 C 68.851562 62.183594 71.714844 60.210938 72.015625 59.988281 C 72.339844 59.742188 72.53125 59.359375 72.53125 58.953125 L 72.53125 54.425781 C 72.53125 48.011719 67.3125 42.792969 60.894531 42.792969 Z M 60.894531 42.792969 " fill-opacity="1" fill-rule="nonzero"/></g><path fill="#cb6ce6" d="M 68.6875 33.777344 C 68.6875 34.285156 68.636719 34.789062 68.539062 35.289062 C 68.4375 35.789062 68.292969 36.273438 68.097656 36.746094 C 67.902344 37.214844 67.664062 37.664062 67.378906 38.085938 C 67.097656 38.507812 66.777344 38.902344 66.414062 39.261719 C 66.054688 39.621094 65.664062 39.941406 65.238281 40.226562 C 64.816406 40.507812 64.371094 40.746094 63.898438 40.941406 C 63.429688 41.136719 62.941406 41.285156 62.445312 41.382812 C 61.945312 41.484375 61.441406 41.535156 60.929688 41.535156 C 60.421875 41.535156 59.917969 41.484375 59.417969 41.382812 C 58.917969 41.285156 58.433594 41.136719 57.960938 40.941406 C 57.492188 40.746094 57.042969 40.507812 56.621094 40.226562 C 56.195312 39.941406 55.804688 39.621094 55.445312 39.261719 C 55.085938 38.902344 54.761719 38.507812 54.480469 38.085938 C 54.199219 37.664062 53.957031 37.214844 53.761719 36.746094 C 53.570312 36.273438 53.421875 35.789062 53.320312 35.289062 C 53.222656 34.789062 53.171875 34.285156 53.171875 33.777344 C 53.171875 33.265625 53.222656 32.761719 53.320312 32.261719 C 53.421875 31.761719 53.570312 31.277344 53.761719 30.808594 C 53.957031 30.335938 54.199219 29.890625 54.480469 29.464844 C 54.761719 29.042969 55.085938 28.652344 55.445312 28.289062 C 55.804688 27.929688 56.195312 27.609375 56.621094 27.324219 C 57.042969 27.042969 57.492188 26.804688 57.960938 26.609375 C 58.433594 26.414062 58.917969 26.265625 59.417969 26.167969 C 59.917969 26.070312 60.421875 26.019531 60.929688 26.019531 C 61.441406 26.019531 61.945312 26.070312 62.445312 26.167969 C 62.941406 26.265625 63.429688 26.414062 63.898438 26.609375 C 64.371094 26.804688 64.816406 27.042969 65.238281 27.324219 C 65.664062 27.609375 66.054688 27.929688 66.414062 28.289062 C 66.777344 28.652344 67.097656 29.042969 67.378906 29.464844 C 67.664062 29.890625 67.902344 30.335938 68.097656 30.808594 C 68.292969 31.277344 68.4375 31.761719 68.539062 32.261719 C 68.636719 32.761719 68.6875 33.265625 68.6875 33.777344 Z M 68.6875 33.777344 " fill-opacity="1" fill-rule="nonzero"/><path fill="#cb6ce6" d="M 27.316406 33.777344 C 27.316406 34.285156 27.265625 34.789062 27.167969 35.289062 C 27.066406 35.789062 26.917969 36.273438 26.726562 36.746094 C 26.53125 37.214844 26.292969 37.664062 26.007812 38.085938 C 25.726562 38.507812 25.402344 38.902344 25.042969 39.261719 C 24.683594 39.621094 24.292969 39.941406 23.867188 40.226562 C 23.445312 40.507812 22.996094 40.746094 22.527344 40.941406 C 22.054688 41.136719 21.570312 41.285156 21.070312 41.382812 C 20.570312 41.484375 20.066406 41.535156 19.558594 41.535156 C 19.046875 41.535156 18.542969 41.484375 18.042969 41.382812 C 17.546875 41.285156 17.058594 41.136719 16.589844 40.941406 C 16.117188 40.746094 15.671875 40.507812 15.25 40.226562 C 14.824219 39.941406 14.433594 39.621094 14.074219 39.261719 C 13.710938 38.902344 13.390625 38.507812 13.109375 38.085938 C 12.824219 37.664062 12.585938 37.214844 12.390625 36.746094 C 12.195312 36.273438 12.050781 35.789062 11.949219 35.289062 C 11.851562 34.789062 11.800781 34.285156 11.800781 33.777344 C 11.800781 33.265625 11.851562 32.761719 11.949219 32.261719 C 12.050781 31.761719 12.195312 31.277344 12.390625 30.808594 C 12.585938 30.335938 12.824219 29.890625 13.109375 29.464844 C 13.390625 29.042969 13.710938 28.652344 14.074219 28.289062 C 14.433594 27.929688 14.824219 27.609375 15.25 27.324219 C 15.671875 27.042969 16.117188 26.804688 16.589844 26.609375 C 17.058594 26.414062 17.546875 26.265625 18.042969 26.167969 C 18.542969 26.070312 19.046875 26.019531 19.558594 26.019531 C 20.066406 26.019531 20.570312 26.070312 21.070312 26.167969 C 21.570312 26.265625 22.054688 26.414062 22.527344 26.609375 C 22.996094 26.804688 23.445312 27.042969 23.867188 27.324219 C 24.292969 27.609375 24.683594 27.929688 25.042969 28.289062 C 25.402344 28.652344 25.726562 29.042969 26.007812 29.464844 C 26.292969 29.890625 26.53125 30.335938 26.726562 30.808594 C 26.917969 31.277344 27.066406 31.761719 27.167969 32.261719 C 27.265625 32.761719 27.316406 33.265625 27.316406 33.777344 Z M 27.316406 33.777344 " fill-opacity="1" fill-rule="nonzero"/><path fill="#cb6ce6" d="M 50.585938 41.535156 C 50.585938 42.984375 50.285156 44.363281 49.746094 45.613281 C 51.007812 44.015625 52.597656 42.714844 54.398438 41.785156 C 52.074219 39.890625 50.589844 37.003906 50.589844 33.777344 C 50.589844 30.53125 52.09375 27.632812 54.441406 25.734375 C 53.207031 25.074219 51.808594 24.691406 50.292969 24.691406 C 46.105469 24.691406 42.648438 27.464844 41.59375 31.289062 C 46.660156 31.953125 50.585938 36.289062 50.585938 41.535156 Z M 50.585938 41.535156 " fill-opacity="1" fill-rule="nonzero"/><path fill="#cb6ce6" d="M 29.902344 33.777344 C 29.902344 37.015625 28.402344 39.910156 26.0625 41.808594 C 27.945312 42.785156 29.589844 44.171875 30.871094 45.875 C 30.253906 44.554688 29.902344 43.085938 29.902344 41.535156 C 29.902344 36.398438 33.667969 32.136719 38.582031 31.335938 C 37.542969 27.484375 34.070312 24.691406 29.867188 24.691406 C 28.429688 24.691406 27.09375 25.03125 25.90625 25.628906 C 28.332031 27.523438 29.902344 30.46875 29.902344 33.777344 Z M 29.902344 33.777344 " fill-opacity="1" fill-rule="nonzero"/></svg>