<svg xmlns="http://www.w3.org/2000/svg" xmlns:xlink="http://www.w3.org/1999/xlink" width="108" zoomAndPan="magnify" viewBox="0 0 81 80.999996" height="108" preserveAspectRatio="xMidYMid meet" version="1.0"><defs><clipPath id="e32a7fce22"><path d="M 0 0 L 80.417969 0 L 80.417969 80.417969 L 0 80.417969 Z M 0 0 " clip-rule="nonzero"/></clipPath><clipPath id="92e061687c"><path d="M 40.210938 0 C 18.003906 0 0 18.003906 0 40.210938 C 0 62.417969 18.003906 80.417969 40.210938 80.417969 C 62.417969 80.417969 80.417969 62.417969 80.417969 40.210938 C 80.417969 18.003906 62.417969 0 40.210938 0 Z M 40.210938 0 " clip-rule="nonzero"/></clipPath><clipPath id="79142e1bf4"><path d="M 44 44 L 70.195312 44 L 70.195312 70.195312 L 44 70.195312 Z M 44 44 " clip-rule="nonzero"/></clipPath><clipPath id="372076a683"><path d="M 10.195312 10.195312 L 61 10.195312 L 61 63 L 10.195312 63 Z M 10.195312 10.195312 " clip-rule="nonzero"/></clipPath></defs><g clip-path="url(#e32a7fce22)"><g clip-path="url(#92e061687c)"><path fill="#ffeffe" d="M 0 0 L 80.417969 0 L 80.417969 80.417969 L 0 80.417969 Z M 0 0 " fill-opacity="1" fill-rule="nonzero"/></g></g><path fill="#8d0588" d="M 35.507812 20.753906 C 31.511719 20.753906 28.234375 23.417969 28.234375 28.054688 C 28.234375 29.441406 28.542969 30.855469 29.070312 32.132812 C 30.261719 35.160156 32.703125 37.546875 35.507812 37.546875 C 38.308594 37.546875 40.777344 35.160156 41.972656 32.132812 C 42.5 30.859375 42.777344 29.441406 42.777344 28.054688 C 42.777344 23.417969 39.53125 20.753906 35.507812 20.753906 Z M 35.507812 20.753906 " fill-opacity="1" fill-rule="nonzero"/><path fill="#8d0588" d="M 55.777344 52.863281 C 55.640625 52.992188 55.546875 53.132812 55.480469 53.289062 C 55.421875 53.449219 55.390625 53.613281 55.390625 53.789062 C 55.390625 54.183594 55.519531 54.503906 55.78125 54.75 C 56.039062 54.996094 56.375 55.203125 56.789062 55.371094 L 57.097656 52.316406 C 56.78125 52.363281 56.515625 52.433594 56.300781 52.527344 C 56.085938 52.625 55.910156 52.734375 55.777344 52.863281 Z M 55.777344 52.863281 " fill-opacity="1" fill-rule="nonzero"/><path fill="#8d0588" d="M 58.382812 58.820312 L 58.054688 62.132812 C 59.183594 61.949219 59.75 61.34375 59.75 60.308594 C 59.75 59.917969 59.621094 59.609375 59.371094 59.382812 C 59.121094 59.160156 58.792969 58.96875 58.382812 58.816406 Z M 58.382812 58.820312 " fill-opacity="1" fill-rule="nonzero"/><g clip-path="url(#79142e1bf4)"><path fill="#8d0588" d="M 57.273438 44.339844 C 50.140625 44.339844 44.339844 50.140625 44.339844 57.273438 C 44.339844 64.410156 50.140625 70.21875 57.273438 70.21875 C 64.410156 70.21875 70.21875 64.410156 70.21875 57.273438 C 70.21875 50.140625 64.410156 44.339844 57.273438 44.339844 Z M 62.4375 61.644531 C 62.21875 62.207031 61.898438 62.703125 61.472656 63.136719 C 61.046875 63.570312 60.527344 63.925781 59.910156 64.195312 C 59.292969 64.46875 58.585938 64.632812 57.792969 64.695312 L 57.667969 65.945312 C 57.65625 66.128906 57.570312 66.300781 57.417969 66.453125 C 57.261719 66.601562 57.0625 66.675781 56.824219 66.675781 L 55.65625 66.675781 L 55.859375 64.601562 C 55.070312 64.476562 54.316406 64.253906 53.601562 63.929688 C 52.886719 63.613281 52.28125 63.226562 51.789062 62.777344 L 52.773438 61.378906 C 52.855469 61.261719 52.96875 61.167969 53.109375 61.089844 C 53.25 61.011719 53.398438 60.972656 53.558594 60.972656 C 53.714844 60.972656 53.890625 61.015625 54.058594 61.101562 C 54.230469 61.183594 54.417969 61.285156 54.621094 61.402344 C 54.820312 61.519531 55.042969 61.640625 55.289062 61.761719 C 55.53125 61.886719 55.808594 61.988281 56.117188 62.070312 L 56.496094 58.273438 C 56 58.136719 55.511719 57.980469 55.019531 57.796875 C 54.527344 57.617188 54.089844 57.371094 53.699219 57.0625 C 53.308594 56.753906 52.992188 56.359375 52.746094 55.882812 C 52.503906 55.40625 52.382812 54.808594 52.382812 54.089844 C 52.382812 53.558594 52.492188 53.042969 52.710938 52.535156 C 52.929688 52.035156 53.25 51.578125 53.675781 51.175781 C 54.09375 50.773438 54.613281 50.441406 55.230469 50.183594 C 55.847656 49.925781 56.554688 49.777344 57.347656 49.738281 L 57.460938 48.621094 C 57.476562 48.433594 57.558594 48.261719 57.714844 48.113281 C 57.867188 47.960938 58.066406 47.886719 58.304688 47.886719 L 59.476562 47.886719 L 59.28125 49.859375 C 60.023438 49.996094 60.65625 50.214844 61.191406 50.515625 C 61.722656 50.816406 62.171875 51.140625 62.542969 51.480469 L 61.761719 52.601562 C 61.644531 52.765625 61.527344 52.890625 61.40625 52.964844 C 61.289062 53.042969 61.144531 53.082031 60.980469 53.082031 C 60.878906 53.082031 60.757812 53.058594 60.617188 53.007812 C 60.476562 52.957031 60.324219 52.894531 60.160156 52.824219 C 59.996094 52.753906 59.820312 52.683594 59.628906 52.605469 C 59.441406 52.527344 59.242188 52.457031 59.027344 52.398438 L 58.667969 55.976562 C 58.996094 56.070312 59.328125 56.171875 59.65625 56.28125 C 59.980469 56.394531 60.300781 56.519531 60.605469 56.664062 C 60.910156 56.8125 61.191406 56.976562 61.457031 57.164062 C 61.722656 57.351562 61.949219 57.574219 62.144531 57.828125 C 62.339844 58.085938 62.492188 58.375 62.601562 58.707031 C 62.710938 59.035156 62.765625 59.417969 62.765625 59.847656 C 62.765625 60.484375 62.65625 61.082031 62.4375 61.644531 Z M 62.4375 61.644531 " fill-opacity="1" fill-rule="nonzero"/></g><g clip-path="url(#372076a683)"><path fill="#8d0588" d="M 40.066406 57.28125 C 40.066406 51.105469 43.347656 45.695312 48.242188 42.660156 C 47.988281 42.292969 47.714844 41.941406 47.402344 41.628906 C 46.652344 40.910156 45.769531 40.410156 44.820312 40.046875 L 41.910156 39.21875 C 41.328125 38.9375 40.601562 39.246094 40.410156 39.878906 L 37.21875 47.820312 L 36.746094 43.402344 C 37.246094 43.320312 37.636719 42.878906 37.636719 42.355469 L 37.636719 41.378906 C 37.636719 40.769531 37.164062 40.296875 36.554688 40.296875 L 34.472656 40.296875 C 33.859375 40.296875 33.363281 40.769531 33.363281 41.378906 L 33.363281 42.355469 C 33.363281 42.878906 33.777344 43.320312 34.277344 43.402344 L 33.777344 47.761719 L 30.644531 39.855469 C 30.445312 39.21875 29.757812 38.910156 29.148438 39.1875 L 26.175781 40.046875 C 25.230469 40.410156 24.34375 40.910156 23.625 41.628906 C 22.484375 42.742188 21.734375 44.210938 21.519531 45.792969 L 20.808594 48.394531 C 18.25 45.058594 16.71875 40.839844 16.71875 36.253906 C 16.71875 25.480469 25.152344 16.71875 35.515625 16.71875 C 45.875 16.71875 54.300781 25.480469 54.300781 36.253906 C 54.300781 37.679688 54.136719 39.070312 53.851562 40.414062 C 54.960938 40.1875 56.109375 40.066406 57.285156 40.066406 C 58.386719 40.066406 59.457031 40.183594 60.503906 40.382812 C 60.710938 39.035156 60.824219 37.65625 60.824219 36.253906 C 60.824219 21.882812 49.46875 10.191406 35.515625 10.191406 C 21.558594 10.191406 10.191406 21.878906 10.191406 36.25 C 10.191406 50.621094 21.546875 62.308594 35.507812 62.308594 C 37.28125 62.308594 39.011719 62.121094 40.679688 61.761719 C 40.292969 60.328125 40.066406 58.832031 40.066406 57.28125 Z M 40.066406 57.28125 " fill-opacity="1" fill-rule="nonzero"/></g></svg>