<svg xmlns="http://www.w3.org/2000/svg" xmlns:xlink="http://www.w3.org/1999/xlink" width="50" zoomAndPan="magnify" viewBox="0 0 37.5 37.499999" height="50" preserveAspectRatio="xMidYMid meet" version="1.0"><defs><clipPath id="1a18c1322e"><path d="M 10 3.65625 L 27 3.65625 L 27 21 L 10 21 Z M 10 3.65625 " clip-rule="nonzero"/></clipPath><clipPath id="48a202a215"><path d="M 7.03125 24 L 13 24 L 13 33.261719 L 7.03125 33.261719 Z M 7.03125 24 " clip-rule="nonzero"/></clipPath><clipPath id="3508bcbb8e"><path d="M 24 24 L 29.976562 24 L 29.976562 33.261719 L 24 33.261719 Z M 24 24 " clip-rule="nonzero"/></clipPath></defs><g clip-path="url(#1a18c1322e)"><path fill="#a955e8" d="M 25.9375 13.117188 C 26.484375 13.117188 26.851562 12.75 26.851562 12.203125 C 26.851562 11.652344 26.484375 11.289062 25.9375 11.289062 C 25.9375 9.003906 24.839844 6.90625 23.195312 5.625 L 23.195312 7.636719 C 23.195312 8.183594 22.832031 8.550781 22.285156 8.550781 C 21.734375 8.550781 21.371094 8.183594 21.371094 7.636719 L 21.371094 4.53125 C 19.636719 3.800781 17.625 3.800781 15.890625 4.53125 L 15.890625 7.636719 C 15.890625 8.183594 15.523438 8.550781 14.976562 8.550781 C 14.429688 8.550781 14.0625 8.183594 14.0625 7.636719 L 14.0625 5.625 C 12.417969 6.90625 11.324219 9.003906 11.324219 11.289062 C 10.777344 11.289062 10.410156 11.652344 10.410156 12.203125 C 10.410156 12.75 10.777344 13.117188 11.324219 13.117188 L 12.328125 13.117188 C 11.78125 17.042969 14.792969 20.421875 18.628906 20.421875 C 22.464844 20.421875 25.480469 17.042969 24.933594 13.117188 Z M 18.628906 18.59375 C 15.800781 18.59375 13.605469 16.039062 14.15625 13.117188 L 23.105469 13.117188 C 23.652344 16.039062 21.460938 18.59375 18.628906 18.59375 Z M 18.628906 18.59375 " fill-opacity="1" fill-rule="nonzero"/></g><g clip-path="url(#48a202a215)"><path fill="#a955e8" d="M 7.121094 32.203125 L 7.03125 33.207031 L 10.410156 33.207031 L 10.410156 30.46875 C 10.410156 29.464844 11.230469 28.640625 12.238281 28.640625 L 12.238281 24.167969 C 9.589844 25.992188 7.671875 28.824219 7.121094 32.203125 Z M 7.121094 32.203125 " fill-opacity="1" fill-rule="nonzero"/></g><path fill="#a955e8" d="M 18.628906 22.25 C 16.984375 22.25 15.433594 22.613281 14.0625 23.164062 L 14.0625 28.640625 L 23.195312 28.640625 L 23.195312 23.164062 C 21.828125 22.613281 20.273438 22.25 18.628906 22.25 Z M 18.628906 22.25 " fill-opacity="1" fill-rule="nonzero"/><g clip-path="url(#3508bcbb8e)"><path fill="#a955e8" d="M 30.230469 33.207031 L 30.046875 32.203125 C 29.589844 28.824219 27.671875 25.992188 24.933594 24.167969 L 24.933594 28.640625 C 25.9375 28.640625 26.757812 29.464844 26.757812 30.46875 L 26.757812 33.207031 Z M 30.230469 33.207031 " fill-opacity="1" fill-rule="nonzero"/></g></svg>