<svg xmlns="http://www.w3.org/2000/svg" xmlns:xlink="http://www.w3.org/1999/xlink" width="50" zoomAndPan="magnify" viewBox="0 0 37.5 37.499999" height="50" preserveAspectRatio="xMidYMid meet" version="1.0"><defs><clipPath id="d70c20ad63"><path d="M 8 3.472656 L 31.375 3.472656 L 31.375 33.074219 L 8 33.074219 Z M 8 3.472656 " clip-rule="nonzero"/></clipPath><clipPath id="cf7b369792"><path d="M 5.472656 6 L 13 6 L 13 10 L 5.472656 10 Z M 5.472656 6 " clip-rule="nonzero"/></clipPath><clipPath id="6af91eeb33"><path d="M 5.472656 11 L 13 11 L 13 15 L 5.472656 15 Z M 5.472656 11 " clip-rule="nonzero"/></clipPath><clipPath id="70a432c617"><path d="M 5.472656 16 L 13 16 L 13 20 L 5.472656 20 Z M 5.472656 16 " clip-rule="nonzero"/></clipPath><clipPath id="cc4c570b14"><path d="M 5.472656 21 L 13 21 L 13 25 L 5.472656 25 Z M 5.472656 21 " clip-rule="nonzero"/></clipPath><clipPath id="7996e3fa69"><path d="M 5.472656 26 L 13 26 L 13 30 L 5.472656 30 Z M 5.472656 26 " clip-rule="nonzero"/></clipPath></defs><g clip-path="url(#d70c20ad63)"><path fill="#0279ce" d="M 30.003906 33.160156 L 10.007812 33.160156 C 9.28125 33.160156 8.6875 32.566406 8.6875 31.855469 L 8.6875 30.359375 L 11.15625 30.359375 C 12.339844 30.359375 13.3125 29.386719 13.3125 28.203125 C 13.3125 27.019531 12.339844 26.046875 11.15625 26.046875 L 8.6875 26.046875 L 8.6875 25.421875 L 11.15625 25.421875 C 12.339844 25.421875 13.3125 24.449219 13.3125 23.265625 C 13.3125 22.066406 12.339844 21.109375 11.15625 21.109375 L 8.6875 21.109375 L 8.6875 20.46875 L 11.15625 20.46875 C 12.339844 20.46875 13.3125 19.511719 13.3125 18.3125 C 13.3125 17.128906 12.339844 16.15625 11.15625 16.15625 L 8.6875 16.15625 L 8.6875 15.527344 L 11.15625 15.527344 C 12.339844 15.527344 13.3125 14.554688 13.3125 13.375 C 13.3125 12.191406 12.339844 11.21875 11.15625 11.21875 L 8.6875 11.21875 L 8.6875 10.589844 L 11.15625 10.589844 C 12.339844 10.589844 13.3125 9.617188 13.3125 8.4375 C 13.3125 7.234375 12.339844 6.28125 11.15625 6.28125 L 8.6875 6.28125 L 8.6875 4.785156 C 8.6875 4.070312 9.28125 3.480469 10.007812 3.480469 L 30.003906 3.480469 C 30.734375 3.480469 31.308594 4.070312 31.308594 4.785156 L 31.308594 31.855469 C 31.308594 32.566406 30.734375 33.160156 30.003906 33.160156 Z M 27.65625 30.167969 L 14.859375 30.167969 C 14.390625 30.167969 14.390625 29.472656 14.859375 29.472656 L 27.65625 29.472656 C 28.125 29.472656 28.125 30.167969 27.65625 30.167969 Z M 27.65625 25.527344 L 14.859375 25.527344 C 14.390625 25.527344 14.390625 24.832031 14.859375 24.832031 L 27.65625 24.832031 C 28.125 24.832031 28.125 25.527344 27.65625 25.527344 Z M 27.65625 20.882812 L 14.859375 20.882812 C 14.390625 20.882812 14.390625 20.1875 14.859375 20.1875 L 27.65625 20.1875 C 28.125 20.1875 28.125 20.882812 27.65625 20.882812 Z M 21.308594 14.519531 C 20.492188 14.433594 19.9375 13.945312 19.832031 13.128906 C 19.761719 12.679688 20.457031 12.574219 20.511719 13.027344 C 20.667969 14.105469 21.972656 13.894531 22.300781 13.617188 C 22.804688 13.164062 22.753906 12.140625 21.625 12.015625 C 19.503906 11.792969 19.535156 9.21875 21.308594 8.851562 C 21.308594 8.574219 21.242188 8.105469 21.65625 8.105469 C 22.074219 8.105469 22.007812 8.574219 22.007812 8.835938 C 22.824219 8.921875 23.363281 9.410156 23.484375 10.226562 C 23.554688 10.679688 22.859375 10.78125 22.789062 10.332031 C 22.648438 9.253906 21.328125 9.445312 21.015625 9.722656 C 20.492188 10.175781 20.5625 11.199219 21.691406 11.320312 C 23.796875 11.566406 23.761719 14.136719 22.007812 14.484375 C 22.007812 14.867188 22.09375 15.40625 21.65625 15.40625 C 21.222656 15.40625 21.308594 14.886719 21.308594 14.519531 Z M 27.707031 17.042969 L 15.609375 17.042969 C 15.417969 17.042969 15.261719 16.886719 15.261719 16.695312 L 15.261719 6.820312 C 15.261719 6.628906 15.417969 6.472656 15.609375 6.472656 L 27.707031 6.472656 C 27.898438 6.472656 28.054688 6.628906 28.054688 6.820312 L 28.054688 16.695312 C 28.054688 16.886719 27.898438 17.042969 27.707031 17.042969 Z M 15.957031 16.347656 L 27.359375 16.347656 L 27.359375 7.167969 L 15.957031 7.167969 Z M 15.957031 16.347656 " fill-opacity="1" fill-rule="evenodd"/></g><g clip-path="url(#cf7b369792)"><path fill="#0279ce" d="M 11.15625 9.894531 L 6.933594 9.894531 C 6.132812 9.894531 5.472656 9.234375 5.472656 8.4375 C 5.472656 7.617188 6.132812 6.976562 6.933594 6.976562 L 11.15625 6.976562 C 11.957031 6.976562 12.617188 7.617188 12.617188 8.4375 C 12.617188 9.234375 11.957031 9.894531 11.15625 9.894531 Z M 11.15625 9.894531 " fill-opacity="1" fill-rule="evenodd"/></g><g clip-path="url(#6af91eeb33)"><path fill="#0279ce" d="M 11.15625 14.832031 L 6.933594 14.832031 C 6.132812 14.832031 5.472656 14.171875 5.472656 13.375 C 5.472656 12.574219 6.132812 11.914062 6.933594 11.914062 L 11.15625 11.914062 C 11.957031 11.914062 12.617188 12.574219 12.617188 13.375 C 12.617188 14.171875 11.957031 14.832031 11.15625 14.832031 Z M 11.15625 14.832031 " fill-opacity="1" fill-rule="evenodd"/></g><g clip-path="url(#70a432c617)"><path fill="#0279ce" d="M 11.15625 19.769531 L 6.933594 19.769531 C 6.132812 19.769531 5.472656 19.128906 5.472656 18.3125 C 5.472656 17.511719 6.132812 16.851562 6.933594 16.851562 L 11.15625 16.851562 C 11.957031 16.851562 12.617188 17.511719 12.617188 18.3125 C 12.617188 19.128906 11.957031 19.769531 11.15625 19.769531 Z M 11.15625 19.769531 " fill-opacity="1" fill-rule="evenodd"/></g><g clip-path="url(#cc4c570b14)"><path fill="#0279ce" d="M 11.15625 24.726562 L 6.933594 24.726562 C 6.132812 24.726562 5.472656 24.066406 5.472656 23.265625 C 5.472656 22.449219 6.132812 21.804688 6.933594 21.804688 L 11.15625 21.804688 C 11.957031 21.804688 12.617188 22.449219 12.617188 23.265625 C 12.617188 24.066406 11.957031 24.726562 11.15625 24.726562 Z M 11.15625 24.726562 " fill-opacity="1" fill-rule="evenodd"/></g><g clip-path="url(#7996e3fa69)"><path fill="#0279ce" d="M 11.15625 29.664062 L 6.933594 29.664062 C 6.132812 29.664062 5.472656 29.003906 5.472656 28.203125 C 5.472656 27.402344 6.132812 26.742188 6.933594 26.742188 L 11.15625 26.742188 C 11.957031 26.742188 12.617188 27.402344 12.617188 28.203125 C 12.617188 29.003906 11.957031 29.664062 11.15625 29.664062 Z M 11.15625 29.664062 " fill-opacity="1" fill-rule="evenodd"/></g></svg>