<svg xmlns="http://www.w3.org/2000/svg" xmlns:xlink="http://www.w3.org/1999/xlink" width="50" zoomAndPan="magnify" viewBox="0 0 37.5 37.499999" height="50" preserveAspectRatio="xMidYMid meet" version="1.0"><defs><clipPath id="b7c6cf7acb"><path d="M 5 18 L 35.390625 18 L 35.390625 33.398438 L 5 33.398438 Z M 5 18 " clip-rule="nonzero"/></clipPath><clipPath id="5566b627d7"><path d="M 1.34375 22 L 9 22 L 9 31 L 1.34375 31 Z M 1.34375 22 " clip-rule="nonzero"/></clipPath><clipPath id="faecb2ae75"><path d="M 13 3.792969 L 30 3.792969 L 30 20 L 13 20 Z M 13 3.792969 " clip-rule="nonzero"/></clipPath></defs><g clip-path="url(#b7c6cf7acb)"><path fill="#0279ce" d="M 33.964844 26.339844 L 23.167969 32.574219 C 23.167969 32.574219 23.160156 32.582031 23.160156 32.582031 C 23.144531 32.589844 21.664062 33.460938 19.164062 33.367188 C 15.976562 33.25 12.5625 31.617188 9.273438 28.640625 L 5.488281 22.09375 L 10.632812 19.125 C 13.402344 17.804688 14.257812 18.738281 15.921875 20.96875 C 17.34375 22.871094 20.085938 23.796875 21.582031 24.179688 C 22 24.28125 22.375 24.417969 22.707031 24.574219 C 22.714844 24.582031 22.722656 24.582031 22.738281 24.589844 C 23.546875 24.964844 24.113281 25.46875 24.378906 26.074219 C 24.386719 26.089844 24.394531 26.105469 24.402344 26.121094 C 24.441406 26.222656 24.480469 26.324219 24.503906 26.433594 C 24.675781 27.15625 24.410156 27.933594 23.804688 28.460938 C 23.074219 29.09375 22.007812 29.230469 20.957031 28.820312 C 20.949219 28.8125 20.941406 28.8125 20.933594 28.8125 L 15.8125 27.234375 C 15.609375 27.171875 15.398438 27.289062 15.335938 27.492188 C 15.273438 27.699219 15.390625 27.910156 15.585938 27.972656 L 20.6875 29.542969 C 22.007812 30.054688 23.359375 29.863281 24.308594 29.039062 C 25.132812 28.324219 25.492188 27.257812 25.25 26.253906 C 25.242188 26.207031 25.226562 26.167969 25.210938 26.121094 L 31.664062 22.390625 C 32.042969 22.171875 32.457031 22.078125 32.859375 22.085938 C 32.875 22.085938 32.890625 22.085938 32.90625 22.085938 C 33.660156 22.125 34.371094 22.523438 34.773438 23.222656 C 35.425781 24.3125 35.046875 25.710938 33.964844 26.339844 Z M 33.964844 26.339844 " fill-opacity="1" fill-rule="nonzero"/></g><g clip-path="url(#5566b627d7)"><path fill="#0279ce" d="M 4.820312 22.46875 L 1.34375 24.480469 L 4.964844 30.75 L 8.441406 28.742188 Z M 5.726562 29.621094 C 5.027344 29.621094 4.453125 29.054688 4.453125 28.347656 C 4.453125 27.652344 5.019531 27.078125 5.726562 27.078125 C 6.425781 27.078125 6.996094 27.644531 6.996094 28.347656 C 6.996094 29.046875 6.425781 29.621094 5.726562 29.621094 Z M 5.726562 29.621094 " fill-opacity="1" fill-rule="nonzero"/></g><path fill="#0279ce" d="M 32.550781 21.324219 C 32.113281 21.363281 31.679688 21.496094 31.289062 21.722656 L 24.898438 25.414062 C 24.636719 24.996094 24.230469 24.542969 23.5625 24.148438 L 28.757812 19.585938 C 29.710938 18.753906 31.152344 18.851562 31.988281 19.800781 C 32.363281 20.214844 32.558594 20.757812 32.550781 21.324219 Z M 32.550781 21.324219 " fill-opacity="1" fill-rule="nonzero"/><path fill="#0279ce" d="M 6.21875 28.347656 C 6.21875 28.484375 6.171875 28.601562 6.074219 28.699219 C 5.976562 28.796875 5.863281 28.84375 5.726562 28.84375 C 5.589844 28.84375 5.472656 28.796875 5.375 28.699219 C 5.277344 28.601562 5.230469 28.484375 5.230469 28.347656 C 5.230469 28.210938 5.277344 28.097656 5.375 28 C 5.472656 27.902344 5.589844 27.855469 5.726562 27.855469 C 5.863281 27.855469 5.976562 27.902344 6.074219 28 C 6.171875 28.097656 6.21875 28.210938 6.21875 28.347656 Z M 6.21875 28.347656 " fill-opacity="1" fill-rule="nonzero"/><g clip-path="url(#faecb2ae75)"><path fill="#0279ce" d="M 25.1875 3.824219 L 17.863281 3.824219 L 13.519531 8.574219 C 13.582031 13.605469 16.777344 18.050781 21.519531 19.714844 C 26.269531 18.058594 29.464844 13.605469 29.519531 8.574219 Z M 21.671875 18.425781 C 21.625 18.441406 21.574219 18.457031 21.519531 18.457031 C 21.472656 18.457031 21.417969 18.449219 21.371094 18.425781 C 19.511719 17.664062 17.894531 16.390625 16.714844 14.757812 C 15.53125 13.117188 14.832031 11.195312 14.699219 9.175781 C 14.691406 9.074219 14.730469 8.964844 14.800781 8.894531 L 18.253906 5.109375 C 18.324219 5.03125 18.429688 4.984375 18.539062 4.984375 L 24.503906 4.984375 C 24.613281 4.984375 24.714844 5.03125 24.785156 5.109375 L 28.242188 8.894531 C 28.3125 8.972656 28.351562 9.074219 28.34375 9.175781 C 28.203125 11.1875 27.503906 13.117188 26.324219 14.757812 C 25.140625 16.390625 23.53125 17.664062 21.671875 18.425781 Z M 21.671875 18.425781 " fill-opacity="1" fill-rule="nonzero"/></g><path fill="#0279ce" d="M 24.339844 5.753906 L 18.710938 5.753906 L 15.484375 9.289062 C 15.796875 12.953125 18.144531 16.203125 21.527344 17.648438 C 24.90625 16.203125 27.261719 12.945312 27.574219 9.289062 Z M 24.582031 11.257812 L 21.574219 14.265625 C 21.292969 14.554688 20.910156 14.695312 20.539062 14.695312 C 20.164062 14.695312 19.785156 14.554688 19.496094 14.265625 L 18.476562 13.246094 C 17.902344 12.671875 17.902344 11.738281 18.476562 11.164062 C 19.039062 10.597656 19.964844 10.589844 20.539062 11.148438 L 22.511719 9.175781 C 22.785156 8.902344 23.152344 8.746094 23.546875 8.746094 C 23.9375 8.746094 24.308594 8.894531 24.589844 9.175781 C 24.867188 9.453125 25.023438 9.820312 25.023438 10.214844 C 25.007812 10.605469 24.859375 10.976562 24.582031 11.257812 Z M 24.582031 11.257812 " fill-opacity="1" fill-rule="nonzero"/><path fill="#0279ce" d="M 24.238281 10.214844 C 24.238281 10.402344 24.167969 10.574219 24.035156 10.707031 L 21.027344 13.714844 C 20.75 13.988281 20.3125 13.988281 20.039062 13.714844 L 19.015625 12.695312 C 18.742188 12.421875 18.742188 11.980469 19.015625 11.707031 C 19.148438 11.570312 19.332031 11.5 19.511719 11.5 C 19.691406 11.5 19.871094 11.570312 20.007812 11.707031 L 20.265625 11.964844 C 20.335938 12.035156 20.4375 12.074219 20.539062 12.074219 C 20.640625 12.074219 20.734375 12.035156 20.816406 11.964844 L 23.050781 9.726562 C 23.183594 9.59375 23.359375 9.523438 23.546875 9.523438 C 23.734375 9.523438 23.90625 9.59375 24.042969 9.726562 C 24.167969 9.851562 24.238281 10.027344 24.238281 10.214844 Z M 24.238281 10.214844 " fill-opacity="1" fill-rule="nonzero"/></svg>