<svg xmlns="http://www.w3.org/2000/svg" xmlns:xlink="http://www.w3.org/1999/xlink" width="50" zoomAndPan="magnify" viewBox="0 0 37.5 37.499999" height="50" preserveAspectRatio="xMidYMid meet" version="1.0"><defs><clipPath id="f4a8623934"><path d="M 2.863281 27 L 33.949219 27 L 33.949219 34.1875 L 2.863281 34.1875 Z M 2.863281 27 " clip-rule="nonzero"/></clipPath><clipPath id="553e3051ab"><path d="M 11 3.101562 L 26 3.101562 L 26 12 L 11 12 Z M 11 3.101562 " clip-rule="nonzero"/></clipPath></defs><path fill="#67ef38" d="M 28.375 30.226562 L 30.703125 30.226562 L 30.703125 31.960938 L 28.375 31.960938 Z M 28.375 30.226562 " fill-opacity="1" fill-rule="nonzero"/><path fill="#67ef38" d="M 9.164062 12.316406 L 9.164062 25.65625 C 9.164062 25.894531 9.25 26.101562 9.417969 26.269531 C 9.585938 26.4375 9.792969 26.523438 10.03125 26.523438 L 26.859375 26.523438 C 27.097656 26.523438 27.304688 26.4375 27.472656 26.269531 C 27.640625 26.101562 27.726562 25.894531 27.726562 25.65625 L 27.726562 12.316406 C 27.726562 12.078125 27.640625 11.875 27.472656 11.703125 C 27.304688 11.535156 27.097656 11.449219 26.859375 11.449219 L 21.820312 11.449219 L 21.820312 10.671875 C 21.835938 10.027344 21.722656 9.410156 21.480469 8.816406 C 21.234375 8.222656 20.882812 7.703125 20.417969 7.257812 C 19.695312 6.546875 18.832031 6.230469 17.820312 6.304688 C 15.859375 6.464844 14.359375 8.382812 14.386719 10.675781 L 16.117188 10.648438 C 16.117188 9.3125 16.941406 8.113281 17.964844 8.027344 C 18.457031 8.003906 18.878906 8.167969 19.222656 8.519531 C 19.824219 9.109375 20.113281 9.824219 20.089844 10.664062 L 20.089844 11.449219 L 10.03125 11.449219 C 9.792969 11.449219 9.585938 11.535156 9.417969 11.703125 C 9.25 11.875 9.164062 12.078125 9.164062 12.316406 Z M 10.894531 13.183594 L 25.996094 13.183594 L 25.996094 24.792969 L 10.894531 24.792969 Z M 10.894531 13.183594 " fill-opacity="1" fill-rule="nonzero"/><g clip-path="url(#f4a8623934)"><path fill="#67ef38" d="M 5.511719 34.25 L 31.378906 34.25 C 31.730469 34.253906 32.066406 34.1875 32.390625 34.054688 C 32.714844 33.921875 33.003906 33.730469 33.25 33.484375 C 33.5 33.238281 33.691406 32.953125 33.828125 32.628906 C 33.960938 32.304688 34.027344 31.96875 34.027344 31.617188 L 34.027344 30.566406 C 34.027344 30.21875 33.960938 29.882812 33.828125 29.558594 C 33.691406 29.238281 33.503906 28.953125 33.257812 28.707031 C 33.007812 28.460938 32.726562 28.269531 32.402344 28.136719 C 32.082031 28 31.746094 27.933594 31.398438 27.933594 L 5.511719 27.933594 C 5.160156 27.933594 4.824219 27.996094 4.5 28.128906 C 4.175781 28.261719 3.890625 28.453125 3.640625 28.699219 C 3.390625 28.945312 3.199219 29.230469 3.066406 29.554688 C 2.929688 29.878906 2.863281 30.214844 2.863281 30.566406 L 2.863281 31.617188 C 2.863281 31.96875 2.929688 32.304688 3.0625 32.628906 C 3.199219 32.953125 3.390625 33.238281 3.640625 33.484375 C 3.886719 33.730469 4.175781 33.921875 4.5 34.054688 C 4.824219 34.1875 5.160156 34.253906 5.511719 34.25 Z M 4.59375 30.566406 C 4.59375 30.316406 4.679688 30.105469 4.855469 29.929688 C 5.03125 29.753906 5.246094 29.664062 5.492188 29.664062 L 31.378906 29.664062 C 31.632812 29.660156 31.847656 29.746094 32.027344 29.921875 C 32.207031 30.101562 32.296875 30.3125 32.296875 30.566406 L 32.296875 31.617188 C 32.296875 31.867188 32.210938 32.078125 32.035156 32.253906 C 31.859375 32.429688 31.644531 32.519531 31.398438 32.519531 L 5.511719 32.519531 C 5.257812 32.523438 5.042969 32.4375 4.863281 32.261719 C 4.683594 32.085938 4.59375 31.871094 4.59375 31.617188 Z M 4.59375 30.566406 " fill-opacity="1" fill-rule="nonzero"/></g><path fill="#67ef38" d="M 5.839844 30.226562 L 8.167969 30.226562 L 8.167969 31.960938 L 5.839844 31.960938 Z M 5.839844 30.226562 " fill-opacity="1" fill-rule="nonzero"/><path fill="#67ef38" d="M 17.28125 30.226562 L 19.609375 30.226562 L 19.609375 31.960938 L 17.28125 31.960938 Z M 17.28125 30.226562 " fill-opacity="1" fill-rule="nonzero"/><path fill="#67ef38" d="M 11.464844 30.226562 L 13.792969 30.226562 L 13.792969 31.960938 L 11.464844 31.960938 Z M 11.464844 30.226562 " fill-opacity="1" fill-rule="nonzero"/><path fill="#67ef38" d="M 23.058594 30.226562 L 25.386719 30.226562 L 25.386719 31.960938 L 23.058594 31.960938 Z M 23.058594 30.226562 " fill-opacity="1" fill-rule="nonzero"/><g clip-path="url(#553e3051ab)"><path fill="#67ef38" d="M 25.113281 11.433594 L 25.113281 9.109375 C 25.113281 8.367188 24.964844 7.660156 24.667969 6.980469 C 24.371094 6.304688 23.949219 5.714844 23.40625 5.214844 C 22.671875 4.535156 21.832031 4.027344 20.890625 3.691406 C 19.949219 3.355469 18.980469 3.214844 17.980469 3.273438 C 14.492188 3.472656 11.714844 6.089844 11.785156 9.109375 L 13.515625 9.070312 C 13.46875 6.976562 15.515625 5.148438 18.078125 5.003906 C 18.835938 4.957031 19.574219 5.0625 20.289062 5.3125 C 21.007812 5.566406 21.644531 5.949219 22.207031 6.464844 C 22.984375 7.167969 23.375 8.042969 23.378906 9.089844 L 23.378906 11.429688 Z M 25.113281 11.433594 " fill-opacity="1" fill-rule="nonzero"/></g><path fill="#67ef38" d="M 18.445312 14.59375 C 17.941406 14.589844 17.453125 14.667969 16.972656 14.824219 C 16.496094 14.980469 16.054688 15.207031 15.648438 15.507812 C 15.246094 15.804688 14.898438 16.160156 14.609375 16.570312 C 14.320312 16.980469 14.101562 17.425781 13.953125 17.910156 C 13.808594 18.390625 13.742188 18.882812 13.753906 19.382812 C 13.769531 19.886719 13.859375 20.375 14.03125 20.847656 C 14.203125 21.320312 14.441406 21.753906 14.753906 22.152344 C 15.0625 22.546875 15.429688 22.882812 15.847656 23.160156 L 16.332031 22.449219 C 16.964844 22.050781 17.65625 21.871094 18.402344 21.90625 C 19.417969 21.96875 20.261719 22.382812 20.929688 23.152344 L 21.019531 23.074219 L 21.058594 23.132812 C 21.460938 22.859375 21.808594 22.527344 22.105469 22.140625 L 22.246094 22.03125 L 22.222656 22.015625 C 22.480469 21.667969 22.683594 21.292969 22.832031 20.886719 C 22.984375 20.484375 23.074219 20.066406 23.109375 19.636719 C 23.144531 19.207031 23.121094 18.777344 23.039062 18.355469 C 22.953125 17.929688 22.8125 17.527344 22.617188 17.144531 C 22.421875 16.757812 22.179688 16.40625 21.882812 16.089844 C 21.589844 15.773438 21.261719 15.503906 20.890625 15.277344 C 20.523438 15.050781 20.132812 14.882812 19.714844 14.765625 C 19.300781 14.648438 18.875 14.59375 18.445312 14.59375 Z M 18.445312 16.324219 C 18.988281 16.324219 19.492188 16.464844 19.957031 16.746094 C 20.421875 17.023438 20.785156 17.402344 21.039062 17.882812 C 21.292969 18.363281 21.40625 18.875 21.378906 19.414062 C 21.351562 19.957031 21.183594 20.453125 20.882812 20.90625 C 20.390625 20.613281 19.867188 20.40625 19.3125 20.285156 C 19.546875 20.15625 19.75 19.984375 19.910156 19.769531 C 20.070312 19.554688 20.179688 19.3125 20.234375 19.050781 C 20.289062 18.785156 20.289062 18.523438 20.226562 18.261719 C 20.164062 17.996094 20.050781 17.757812 19.882812 17.546875 C 19.71875 17.335938 19.515625 17.167969 19.273438 17.046875 C 19.03125 16.925781 18.777344 16.859375 18.507812 16.851562 C 18.238281 16.839844 17.980469 16.890625 17.730469 16.996094 C 17.484375 17.101562 17.269531 17.253906 17.089844 17.453125 C 16.910156 17.65625 16.777344 17.886719 16.699219 18.144531 C 16.621094 18.402344 16.601562 18.664062 16.640625 18.929688 C 16.675781 19.199219 16.769531 19.445312 16.917969 19.671875 C 17.0625 19.898438 17.25 20.082031 17.480469 20.226562 C 16.925781 20.308594 16.398438 20.472656 15.894531 20.71875 C 15.769531 20.496094 15.671875 20.257812 15.605469 20.011719 C 15.539062 19.761719 15.507812 19.507812 15.507812 19.25 C 15.507812 18.992188 15.542969 18.742188 15.609375 18.492188 C 15.675781 18.246094 15.773438 18.007812 15.902344 17.785156 C 16.03125 17.5625 16.1875 17.363281 16.371094 17.179688 C 16.554688 17 16.757812 16.84375 16.980469 16.714844 C 17.203125 16.585938 17.4375 16.488281 17.6875 16.421875 C 17.933594 16.355469 18.1875 16.324219 18.445312 16.324219 Z M 18.351562 18.6875 C 18.351562 18.625 18.382812 18.59375 18.445312 18.59375 C 18.507812 18.59375 18.539062 18.625 18.539062 18.6875 C 18.539062 18.792969 18.351562 18.792969 18.351562 18.6875 Z M 18.351562 18.6875 " fill-opacity="1" fill-rule="nonzero"/></svg>