<svg xmlns="http://www.w3.org/2000/svg" xmlns:xlink="http://www.w3.org/1999/xlink" width="50" zoomAndPan="magnify" viewBox="0 0 37.5 37.499999" height="50" preserveAspectRatio="xMidYMid meet" version="1.0"><defs><clipPath id="19fbce61f4"><path d="M 0.472656 0.554688 L 36.527344 0.554688 L 36.527344 36.609375 L 0.472656 36.609375 Z M 0.472656 0.554688 " clip-rule="nonzero"/></clipPath><clipPath id="a7d1179927"><path d="M 18.5 0.554688 C 8.542969 0.554688 0.472656 8.625 0.472656 18.582031 C 0.472656 28.539062 8.542969 36.609375 18.5 36.609375 C 28.457031 36.609375 36.527344 28.539062 36.527344 18.582031 C 36.527344 8.625 28.457031 0.554688 18.5 0.554688 Z M 18.5 0.554688 " clip-rule="nonzero"/></clipPath><radialGradient gradientTransform="matrix(1, 0, 0, 1, 0.473271, 0.554997)" gradientUnits="userSpaceOnUse" r="25.494725" cx="18.027493" id="3d6946dd4a" cy="18.027493" fx="18.027493" fy="18.027493"><stop stop-opacity="1" stop-color="rgb(89.237976%, 100%, 93.540955%)" offset="0"/><stop stop-opacity="1" stop-color="rgb(88.996887%, 100%, 93.304443%)" offset="0.0078125"/><stop stop-opacity="1" stop-color="rgb(88.835144%, 100%, 93.145752%)" offset="0.0117188"/><stop stop-opacity="1" stop-color="rgb(88.674927%, 100%, 92.988586%)" offset="0.015625"/><stop stop-opacity="1" stop-color="rgb(88.513184%, 100%, 92.831421%)" offset="0.0195312"/><stop stop-opacity="1" stop-color="rgb(88.352966%, 100%, 92.672729%)" offset="0.0234375"/><stop stop-opacity="1" stop-color="rgb(88.191223%, 100%, 92.515564%)" offset="0.0273438"/><stop stop-opacity="1" stop-color="rgb(88.031006%, 100%, 92.356873%)" offset="0.03125"/><stop stop-opacity="1" stop-color="rgb(87.869263%, 100%, 92.199707%)" offset="0.0351562"/><stop stop-opacity="1" stop-color="rgb(87.709045%, 100%, 92.041016%)" offset="0.0390625"/><stop stop-opacity="1" stop-color="rgb(87.547302%, 100%, 91.88385%)" offset="0.0429688"/><stop stop-opacity="1" stop-color="rgb(87.387085%, 100%, 91.726685%)" offset="0.046875"/><stop stop-opacity="1" stop-color="rgb(87.226868%, 100%, 91.567993%)" offset="0.0507812"/><stop stop-opacity="1" stop-color="rgb(87.065125%, 100%, 91.410828%)" offset="0.0546875"/><stop stop-opacity="1" stop-color="rgb(86.904907%, 100%, 91.252136%)" offset="0.0585938"/><stop stop-opacity="1" stop-color="rgb(86.743164%, 100%, 91.094971%)" offset="0.0625"/><stop stop-opacity="1" stop-color="rgb(86.582947%, 100%, 90.937805%)" offset="0.0664062"/><stop stop-opacity="1" stop-color="rgb(86.421204%, 100%, 90.779114%)" offset="0.0703125"/><stop stop-opacity="1" stop-color="rgb(86.260986%, 100%, 90.621948%)" offset="0.0742188"/><stop stop-opacity="1" stop-color="rgb(86.099243%, 100%, 90.463257%)" offset="0.078125"/><stop stop-opacity="1" stop-color="rgb(85.939026%, 100%, 90.306091%)" offset="0.0820312"/><stop stop-opacity="1" stop-color="rgb(85.777283%, 100%, 90.1474%)" offset="0.0859375"/><stop stop-opacity="1" stop-color="rgb(85.617065%, 100%, 89.990234%)" offset="0.0898438"/><stop stop-opacity="1" stop-color="rgb(85.455322%, 100%, 89.833069%)" offset="0.09375"/><stop stop-opacity="1" stop-color="rgb(85.295105%, 100%, 89.674377%)" offset="0.0976562"/><stop stop-opacity="1" stop-color="rgb(85.133362%, 100%, 89.517212%)" offset="0.101562"/><stop stop-opacity="1" stop-color="rgb(84.973145%, 100%, 89.358521%)" offset="0.105469"/><stop stop-opacity="1" stop-color="rgb(84.811401%, 100%, 89.201355%)" offset="0.109375"/><stop stop-opacity="1" stop-color="rgb(84.651184%, 100%, 89.042664%)" offset="0.113281"/><stop stop-opacity="1" stop-color="rgb(84.490967%, 100%, 88.885498%)" offset="0.117188"/><stop stop-opacity="1" stop-color="rgb(84.329224%, 100%, 88.728333%)" offset="0.121094"/><stop stop-opacity="1" stop-color="rgb(84.169006%, 100%, 88.569641%)" offset="0.125"/><stop stop-opacity="1" stop-color="rgb(84.007263%, 100%, 88.412476%)" offset="0.128906"/><stop stop-opacity="1" stop-color="rgb(83.847046%, 100%, 88.253784%)" offset="0.132812"/><stop stop-opacity="1" stop-color="rgb(83.685303%, 100%, 88.096619%)" offset="0.136719"/><stop stop-opacity="1" stop-color="rgb(83.525085%, 100%, 87.937927%)" offset="0.140625"/><stop stop-opacity="1" stop-color="rgb(83.363342%, 100%, 87.780762%)" offset="0.144531"/><stop stop-opacity="1" stop-color="rgb(83.203125%, 100%, 87.623596%)" offset="0.148438"/><stop stop-opacity="1" stop-color="rgb(83.041382%, 100%, 87.464905%)" offset="0.152344"/><stop stop-opacity="1" stop-color="rgb(82.881165%, 100%, 87.307739%)" offset="0.15625"/><stop stop-opacity="1" stop-color="rgb(82.719421%, 100%, 87.149048%)" offset="0.160156"/><stop stop-opacity="1" stop-color="rgb(82.559204%, 100%, 86.991882%)" offset="0.164062"/><stop stop-opacity="1" stop-color="rgb(82.397461%, 100%, 86.834717%)" offset="0.167969"/><stop stop-opacity="1" stop-color="rgb(82.237244%, 100%, 86.676025%)" offset="0.171875"/><stop stop-opacity="1" stop-color="rgb(82.0755%, 100%, 86.51886%)" offset="0.175781"/><stop stop-opacity="1" stop-color="rgb(81.915283%, 100%, 86.360168%)" offset="0.179688"/><stop stop-opacity="1" stop-color="rgb(81.755066%, 100%, 86.203003%)" offset="0.183594"/><stop stop-opacity="1" stop-color="rgb(81.593323%, 100%, 86.044312%)" offset="0.1875"/><stop stop-opacity="1" stop-color="rgb(81.433105%, 100%, 85.887146%)" offset="0.191406"/><stop stop-opacity="1" stop-color="rgb(81.271362%, 100%, 85.72998%)" offset="0.195312"/><stop stop-opacity="1" stop-color="rgb(81.111145%, 100%, 85.571289%)" offset="0.199219"/><stop stop-opacity="1" stop-color="rgb(80.949402%, 100%, 85.414124%)" offset="0.203125"/><stop stop-opacity="1" stop-color="rgb(80.789185%, 100%, 85.255432%)" offset="0.207031"/><stop stop-opacity="1" stop-color="rgb(80.627441%, 100%, 85.098267%)" offset="0.210938"/><stop stop-opacity="1" stop-color="rgb(80.467224%, 100%, 84.939575%)" offset="0.214844"/><stop stop-opacity="1" stop-color="rgb(80.305481%, 100%, 84.78241%)" offset="0.21875"/><stop stop-opacity="1" stop-color="rgb(80.145264%, 100%, 84.625244%)" offset="0.222656"/><stop stop-opacity="1" stop-color="rgb(79.983521%, 100%, 84.466553%)" offset="0.226562"/><stop stop-opacity="1" stop-color="rgb(79.823303%, 100%, 84.309387%)" offset="0.230469"/><stop stop-opacity="1" stop-color="rgb(79.66156%, 100%, 84.150696%)" offset="0.234375"/><stop stop-opacity="1" stop-color="rgb(79.501343%, 100%, 83.99353%)" offset="0.238281"/><stop stop-opacity="1" stop-color="rgb(79.3396%, 100%, 83.834839%)" offset="0.242188"/><stop stop-opacity="1" stop-color="rgb(79.179382%, 100%, 83.677673%)" offset="0.246094"/><stop stop-opacity="1" stop-color="rgb(79.017639%, 100%, 83.520508%)" offset="0.25"/><stop stop-opacity="1" stop-color="rgb(78.77655%, 100%, 83.282471%)" offset="0.253906"/><stop stop-opacity="1" stop-color="rgb(78.45459%, 100%, 82.966614%)" offset="0.261719"/><stop stop-opacity="1" stop-color="rgb(78.132629%, 100%, 82.652283%)" offset="0.269531"/><stop stop-opacity="1" stop-color="rgb(77.810669%, 100%, 82.336426%)" offset="0.277344"/><stop stop-opacity="1" stop-color="rgb(77.488708%, 100%, 82.020569%)" offset="0.285156"/><stop stop-opacity="1" stop-color="rgb(77.166748%, 100%, 81.704712%)" offset="0.292969"/><stop stop-opacity="1" stop-color="rgb(76.844788%, 100%, 81.388855%)" offset="0.300781"/><stop stop-opacity="1" stop-color="rgb(76.522827%, 100%, 81.072998%)" offset="0.308594"/><stop stop-opacity="1" stop-color="rgb(76.202393%, 100%, 80.758667%)" offset="0.316406"/><stop stop-opacity="1" stop-color="rgb(75.880432%, 100%, 80.44281%)" offset="0.324219"/><stop stop-opacity="1" stop-color="rgb(75.558472%, 100%, 80.126953%)" offset="0.332031"/><stop stop-opacity="1" stop-color="rgb(75.236511%, 100%, 79.811096%)" offset="0.339844"/><stop stop-opacity="1" stop-color="rgb(74.914551%, 100%, 79.495239%)" offset="0.347656"/><stop stop-opacity="1" stop-color="rgb(74.59259%, 100%, 79.179382%)" offset="0.355469"/><stop stop-opacity="1" stop-color="rgb(74.27063%, 100%, 78.863525%)" offset="0.363281"/><stop stop-opacity="1" stop-color="rgb(73.948669%, 100%, 78.549194%)" offset="0.371094"/><stop stop-opacity="1" stop-color="rgb(73.626709%, 100%, 78.233337%)" offset="0.378906"/><stop stop-opacity="1" stop-color="rgb(73.304749%, 100%, 77.91748%)" offset="0.386719"/><stop stop-opacity="1" stop-color="rgb(72.982788%, 100%, 77.601624%)" offset="0.394531"/><stop stop-opacity="1" stop-color="rgb(72.660828%, 100%, 77.285767%)" offset="0.402344"/><stop stop-opacity="1" stop-color="rgb(72.338867%, 100%, 76.96991%)" offset="0.410156"/><stop stop-opacity="1" stop-color="rgb(72.016907%, 100%, 76.655579%)" offset="0.417969"/><stop stop-opacity="1" stop-color="rgb(71.694946%, 100%, 76.339722%)" offset="0.425781"/><stop stop-opacity="1" stop-color="rgb(71.372986%, 100%, 76.023865%)" offset="0.433594"/><stop stop-opacity="1" stop-color="rgb(71.051025%, 100%, 75.708008%)" offset="0.441406"/><stop stop-opacity="1" stop-color="rgb(70.729065%, 100%, 75.392151%)" offset="0.449219"/><stop stop-opacity="1" stop-color="rgb(70.40863%, 100%, 75.076294%)" offset="0.457031"/><stop stop-opacity="1" stop-color="rgb(70.08667%, 100%, 74.760437%)" offset="0.464844"/><stop stop-opacity="1" stop-color="rgb(69.764709%, 100%, 74.446106%)" offset="0.472656"/><stop stop-opacity="1" stop-color="rgb(69.442749%, 100%, 74.130249%)" offset="0.480469"/><stop stop-opacity="1" stop-color="rgb(69.120789%, 100%, 73.814392%)" offset="0.488281"/><stop stop-opacity="1" stop-color="rgb(68.798828%, 100%, 73.498535%)" offset="0.496094"/><stop stop-opacity="1" stop-color="rgb(68.557739%, 100%, 73.262024%)" offset="0.503906"/><stop stop-opacity="1" stop-color="rgb(68.395996%, 100%, 73.104858%)" offset="0.507812"/><stop stop-opacity="1" stop-color="rgb(68.235779%, 100%, 72.946167%)" offset="0.511719"/><stop stop-opacity="1" stop-color="rgb(68.074036%, 100%, 72.789001%)" offset="0.515625"/><stop stop-opacity="1" stop-color="rgb(67.913818%, 100%, 72.63031%)" offset="0.519531"/><stop stop-opacity="1" stop-color="rgb(67.752075%, 100%, 72.473145%)" offset="0.523438"/><stop stop-opacity="1" stop-color="rgb(67.591858%, 100%, 72.314453%)" offset="0.527344"/><stop stop-opacity="1" stop-color="rgb(67.430115%, 100%, 72.157288%)" offset="0.53125"/><stop stop-opacity="1" stop-color="rgb(67.269897%, 100%, 72.000122%)" offset="0.535156"/><stop stop-opacity="1" stop-color="rgb(67.10968%, 100%, 71.841431%)" offset="0.539062"/><stop stop-opacity="1" stop-color="rgb(66.947937%, 100%, 71.684265%)" offset="0.542969"/><stop stop-opacity="1" stop-color="rgb(66.78772%, 100%, 71.525574%)" offset="0.546875"/><stop stop-opacity="1" stop-color="rgb(66.625977%, 100%, 71.368408%)" offset="0.550781"/><stop stop-opacity="1" stop-color="rgb(66.465759%, 100%, 71.211243%)" offset="0.554688"/><stop stop-opacity="1" stop-color="rgb(66.304016%, 100%, 71.052551%)" offset="0.558594"/><stop stop-opacity="1" stop-color="rgb(66.143799%, 100%, 70.895386%)" offset="0.5625"/><stop stop-opacity="1" stop-color="rgb(65.982056%, 100%, 70.736694%)" offset="0.566406"/><stop stop-opacity="1" stop-color="rgb(65.821838%, 100%, 70.579529%)" offset="0.570312"/><stop stop-opacity="1" stop-color="rgb(65.660095%, 100%, 70.420837%)" offset="0.574219"/><stop stop-opacity="1" stop-color="rgb(65.499878%, 100%, 70.263672%)" offset="0.578125"/><stop stop-opacity="1" stop-color="rgb(65.338135%, 100%, 70.106506%)" offset="0.582031"/><stop stop-opacity="1" stop-color="rgb(65.177917%, 100%, 69.947815%)" offset="0.585938"/><stop stop-opacity="1" stop-color="rgb(65.016174%, 100%, 69.790649%)" offset="0.589844"/><stop stop-opacity="1" stop-color="rgb(64.855957%, 100%, 69.631958%)" offset="0.59375"/><stop stop-opacity="1" stop-color="rgb(64.694214%, 100%, 69.474792%)" offset="0.597656"/><stop stop-opacity="1" stop-color="rgb(64.533997%, 100%, 69.316101%)" offset="0.601562"/><stop stop-opacity="1" stop-color="rgb(64.373779%, 100%, 69.158936%)" offset="0.605469"/><stop stop-opacity="1" stop-color="rgb(64.212036%, 100%, 69.00177%)" offset="0.609375"/><stop stop-opacity="1" stop-color="rgb(64.051819%, 100%, 68.843079%)" offset="0.613281"/><stop stop-opacity="1" stop-color="rgb(63.890076%, 100%, 68.685913%)" offset="0.617188"/><stop stop-opacity="1" stop-color="rgb(63.729858%, 100%, 68.527222%)" offset="0.621094"/><stop stop-opacity="1" stop-color="rgb(63.568115%, 100%, 68.370056%)" offset="0.625"/><stop stop-opacity="1" stop-color="rgb(63.327026%, 100%, 68.133545%)" offset="0.628906"/><stop stop-opacity="1" stop-color="rgb(63.005066%, 100%, 67.817688%)" offset="0.636719"/><stop stop-opacity="1" stop-color="rgb(62.683105%, 100%, 67.501831%)" offset="0.644531"/><stop stop-opacity="1" stop-color="rgb(62.361145%, 100%, 67.185974%)" offset="0.652344"/><stop stop-opacity="1" stop-color="rgb(62.039185%, 100%, 66.870117%)" offset="0.660156"/><stop stop-opacity="1" stop-color="rgb(61.717224%, 100%, 66.55426%)" offset="0.667969"/><stop stop-opacity="1" stop-color="rgb(61.395264%, 100%, 66.239929%)" offset="0.675781"/><stop stop-opacity="1" stop-color="rgb(61.073303%, 100%, 65.924072%)" offset="0.683594"/><stop stop-opacity="1" stop-color="rgb(60.751343%, 100%, 65.608215%)" offset="0.691406"/><stop stop-opacity="1" stop-color="rgb(60.429382%, 100%, 65.292358%)" offset="0.699219"/><stop stop-opacity="1" stop-color="rgb(60.107422%, 100%, 64.976501%)" offset="0.707031"/><stop stop-opacity="1" stop-color="rgb(59.785461%, 100%, 64.660645%)" offset="0.714844"/><stop stop-opacity="1" stop-color="rgb(59.463501%, 100%, 64.344788%)" offset="0.722656"/><stop stop-opacity="1" stop-color="rgb(59.141541%, 100%, 64.030457%)" offset="0.730469"/><stop stop-opacity="1" stop-color="rgb(58.821106%, 100%, 63.7146%)" offset="0.738281"/><stop stop-opacity="1" stop-color="rgb(58.499146%, 100%, 63.398743%)" offset="0.746094"/><stop stop-opacity="1" stop-color="rgb(58.258057%, 100%, 63.162231%)" offset="0.753906"/><stop stop-opacity="1" stop-color="rgb(58.096313%, 100%, 63.00354%)" offset="0.757812"/><stop stop-opacity="1" stop-color="rgb(57.936096%, 100%, 62.846375%)" offset="0.761719"/><stop stop-opacity="1" stop-color="rgb(57.774353%, 100%, 62.689209%)" offset="0.765625"/><stop stop-opacity="1" stop-color="rgb(57.614136%, 100%, 62.530518%)" offset="0.769531"/><stop stop-opacity="1" stop-color="rgb(57.452393%, 100%, 62.373352%)" offset="0.773438"/><stop stop-opacity="1" stop-color="rgb(57.292175%, 100%, 62.214661%)" offset="0.777344"/><stop stop-opacity="1" stop-color="rgb(57.130432%, 100%, 62.057495%)" offset="0.78125"/><stop stop-opacity="1" stop-color="rgb(56.970215%, 100%, 61.90033%)" offset="0.785156"/><stop stop-opacity="1" stop-color="rgb(56.808472%, 100%, 61.741638%)" offset="0.789062"/><stop stop-opacity="1" stop-color="rgb(56.648254%, 100%, 61.584473%)" offset="0.792969"/><stop stop-opacity="1" stop-color="rgb(56.486511%, 100%, 61.425781%)" offset="0.796875"/><stop stop-opacity="1" stop-color="rgb(56.326294%, 100%, 61.268616%)" offset="0.800781"/><stop stop-opacity="1" stop-color="rgb(56.164551%, 100%, 61.109924%)" offset="0.804688"/><stop stop-opacity="1" stop-color="rgb(56.004333%, 100%, 60.952759%)" offset="0.808594"/><stop stop-opacity="1" stop-color="rgb(55.844116%, 100%, 60.795593%)" offset="0.8125"/><stop stop-opacity="1" stop-color="rgb(55.601501%, 100%, 60.557556%)" offset="0.816406"/><stop stop-opacity="1" stop-color="rgb(55.279541%, 100%, 60.241699%)" offset="0.824219"/><stop stop-opacity="1" stop-color="rgb(54.957581%, 100%, 59.927368%)" offset="0.832031"/><stop stop-opacity="1" stop-color="rgb(54.63562%, 100%, 59.611511%)" offset="0.839844"/><stop stop-opacity="1" stop-color="rgb(54.31366%, 100%, 59.295654%)" offset="0.847656"/><stop stop-opacity="1" stop-color="rgb(53.991699%, 100%, 58.979797%)" offset="0.855469"/><stop stop-opacity="1" stop-color="rgb(53.669739%, 100%, 58.66394%)" offset="0.863281"/><stop stop-opacity="1" stop-color="rgb(53.347778%, 100%, 58.348083%)" offset="0.871094"/><stop stop-opacity="1" stop-color="rgb(53.106689%, 100%, 58.111572%)" offset="0.878906"/><stop stop-opacity="1" stop-color="rgb(52.946472%, 100%, 57.954407%)" offset="0.882812"/><stop stop-opacity="1" stop-color="rgb(52.786255%, 100%, 57.795715%)" offset="0.886719"/><stop stop-opacity="1" stop-color="rgb(52.624512%, 100%, 57.63855%)" offset="0.890625"/><stop stop-opacity="1" stop-color="rgb(52.464294%, 100%, 57.481384%)" offset="0.894531"/><stop stop-opacity="1" stop-color="rgb(52.302551%, 100%, 57.322693%)" offset="0.898438"/><stop stop-opacity="1" stop-color="rgb(52.142334%, 100%, 57.165527%)" offset="0.902344"/><stop stop-opacity="1" stop-color="rgb(51.980591%, 100%, 57.006836%)" offset="0.90625"/><stop stop-opacity="1" stop-color="rgb(51.739502%, 100%, 56.770325%)" offset="0.910156"/><stop stop-opacity="1" stop-color="rgb(51.417542%, 100%, 56.454468%)" offset="0.917969"/><stop stop-opacity="1" stop-color="rgb(51.095581%, 100%, 56.138611%)" offset="0.925781"/><stop stop-opacity="1" stop-color="rgb(50.773621%, 100%, 55.82428%)" offset="0.933594"/><stop stop-opacity="1" stop-color="rgb(50.532532%, 100%, 55.587769%)" offset="0.941406"/><stop stop-opacity="1" stop-color="rgb(50.370789%, 100%, 55.429077%)" offset="0.945312"/><stop stop-opacity="1" stop-color="rgb(50.210571%, 100%, 55.271912%)" offset="0.949219"/><stop stop-opacity="1" stop-color="rgb(50.050354%, 100%, 55.11322%)" offset="0.953125"/><stop stop-opacity="1" stop-color="rgb(49.807739%, 100%, 54.876709%)" offset="0.957031"/><stop stop-opacity="1" stop-color="rgb(49.485779%, 100%, 54.560852%)" offset="0.964844"/><stop stop-opacity="1" stop-color="rgb(49.24469%, 100%, 54.324341%)" offset="0.972656"/><stop stop-opacity="1" stop-color="rgb(49.084473%, 100%, 54.167175%)" offset="0.976562"/><stop stop-opacity="1" stop-color="rgb(48.841858%, 100%, 53.929138%)" offset="0.980469"/><stop stop-opacity="1" stop-color="rgb(48.600769%, 100%, 53.692627%)" offset="0.988281"/><stop stop-opacity="1" stop-color="rgb(48.35968%, 100%, 53.456116%)" offset="0.992188"/><stop stop-opacity="1" stop-color="rgb(48.199463%, 100%, 53.29895%)" offset="1"/></radialGradient><clipPath id="cc43514e73"><path d="M 6.632812 25 L 30.316406 25 L 30.316406 30.398438 L 6.632812 30.398438 Z M 6.632812 25 " clip-rule="nonzero"/></clipPath><clipPath id="4dbd02f545"><path d="M 13 6.714844 L 24 6.714844 L 24 14 L 13 14 Z M 13 6.714844 " clip-rule="nonzero"/></clipPath></defs><g clip-path="url(#19fbce61f4)"><g clip-path="url(#a7d1179927)"><path fill="url(#3d6946dd4a)" d="M 0.472656 0.554688 L 0.472656 36.609375 L 36.527344 36.609375 L 36.527344 0.554688 Z M 0.472656 0.554688 " fill-rule="nonzero"/></g></g><path fill="#16763a" d="M 26.058594 27.371094 L 27.832031 27.371094 L 27.832031 28.6875 L 26.058594 28.6875 Z M 26.058594 27.371094 " fill-opacity="1" fill-rule="nonzero"/><path fill="#16763a" d="M 11.429688 13.730469 L 11.429688 23.890625 C 11.429688 24.070312 11.496094 24.226562 11.625 24.355469 C 11.753906 24.484375 11.910156 24.546875 12.089844 24.546875 L 24.90625 24.546875 C 25.085938 24.546875 25.242188 24.484375 25.371094 24.355469 C 25.5 24.226562 25.5625 24.070312 25.5625 23.890625 L 25.5625 13.730469 C 25.5625 13.550781 25.5 13.394531 25.371094 13.265625 C 25.242188 13.136719 25.085938 13.070312 24.90625 13.070312 L 21.070312 13.070312 L 21.070312 12.480469 C 21.09375 11.457031 20.738281 10.589844 20 9.878906 C 19.449219 9.339844 18.792969 9.097656 18.023438 9.152344 C 16.53125 9.273438 15.386719 10.734375 15.40625 12.480469 L 16.726562 12.460938 C 16.726562 11.445312 17.355469 10.53125 18.132812 10.464844 C 18.507812 10.449219 18.828125 10.574219 19.089844 10.839844 C 19.546875 11.289062 19.765625 11.832031 19.75 12.472656 L 19.75 13.070312 L 12.089844 13.070312 C 11.910156 13.070312 11.753906 13.136719 11.625 13.265625 C 11.496094 13.394531 11.429688 13.550781 11.429688 13.730469 Z M 12.75 14.390625 L 24.246094 14.390625 L 24.246094 23.230469 L 12.75 23.230469 Z M 12.75 14.390625 " fill-opacity="1" fill-rule="nonzero"/><g clip-path="url(#cc43514e73)"><path fill="#16763a" d="M 8.648438 30.429688 L 28.347656 30.429688 C 28.613281 30.433594 28.871094 30.382812 29.117188 30.28125 C 29.363281 30.183594 29.582031 30.039062 29.773438 29.847656 C 29.960938 29.660156 30.105469 29.445312 30.210938 29.199219 C 30.3125 28.953125 30.363281 28.695312 30.363281 28.425781 L 30.363281 27.625 C 30.363281 27.359375 30.3125 27.105469 30.210938 26.859375 C 30.109375 26.613281 29.964844 26.398438 29.773438 26.210938 C 29.585938 26.023438 29.371094 25.878906 29.125 25.777344 C 28.878906 25.675781 28.625 25.625 28.359375 25.621094 L 8.648438 25.621094 C 8.382812 25.621094 8.125 25.671875 7.878906 25.773438 C 7.632812 25.875 7.414062 26.019531 7.226562 26.207031 C 7.035156 26.394531 6.890625 26.609375 6.789062 26.855469 C 6.683594 27.105469 6.632812 27.359375 6.632812 27.625 L 6.632812 28.425781 C 6.632812 28.695312 6.683594 28.953125 6.785156 29.199219 C 6.890625 29.445312 7.035156 29.660156 7.222656 29.847656 C 7.414062 30.039062 7.632812 30.183594 7.878906 30.28125 C 8.125 30.382812 8.382812 30.433594 8.648438 30.429688 Z M 7.949219 27.625 C 7.949219 27.4375 8.019531 27.277344 8.152344 27.140625 C 8.285156 27.007812 8.445312 26.941406 8.636719 26.941406 L 28.347656 26.941406 C 28.539062 26.9375 28.703125 27.003906 28.839844 27.136719 C 28.976562 27.273438 29.042969 27.433594 29.042969 27.625 L 29.042969 28.425781 C 29.042969 28.617188 28.976562 28.777344 28.84375 28.914062 C 28.710938 29.046875 28.546875 29.113281 28.359375 29.113281 L 8.648438 29.113281 C 8.457031 29.117188 8.292969 29.050781 8.15625 28.917969 C 8.019531 28.78125 7.949219 28.621094 7.949219 28.425781 Z M 7.949219 27.625 " fill-opacity="1" fill-rule="nonzero"/></g><path fill="#16763a" d="M 8.898438 27.371094 L 10.671875 27.371094 L 10.671875 28.6875 L 8.898438 28.6875 Z M 8.898438 27.371094 " fill-opacity="1" fill-rule="nonzero"/><path fill="#16763a" d="M 17.609375 27.371094 L 19.382812 27.371094 L 19.382812 28.6875 L 17.609375 28.6875 Z M 17.609375 27.371094 " fill-opacity="1" fill-rule="nonzero"/><path fill="#16763a" d="M 13.179688 27.371094 L 14.953125 27.371094 L 14.953125 28.6875 L 13.179688 28.6875 Z M 13.179688 27.371094 " fill-opacity="1" fill-rule="nonzero"/><path fill="#16763a" d="M 22.011719 27.371094 L 23.785156 27.371094 L 23.785156 28.6875 L 22.011719 28.6875 Z M 22.011719 27.371094 " fill-opacity="1" fill-rule="nonzero"/><g clip-path="url(#4dbd02f545)"><path fill="#16763a" d="M 23.574219 13.058594 L 23.574219 11.289062 C 23.574219 10.726562 23.460938 10.1875 23.234375 9.667969 C 23.011719 9.152344 22.691406 8.703125 22.273438 8.324219 C 21.714844 7.804688 21.078125 7.417969 20.359375 7.164062 C 19.644531 6.90625 18.90625 6.800781 18.144531 6.847656 C 15.488281 6.996094 13.371094 8.992188 13.425781 11.289062 L 14.742188 11.257812 C 14.707031 9.664062 16.265625 8.273438 18.21875 8.164062 C 19.421875 8.089844 20.472656 8.460938 21.363281 9.273438 C 21.953125 9.8125 22.25 10.476562 22.253906 11.277344 L 22.253906 13.054688 Z M 23.574219 13.058594 " fill-opacity="1" fill-rule="nonzero"/></g><path fill="#16763a" d="M 18.496094 15.464844 C 18.113281 15.464844 17.742188 15.523438 17.378906 15.640625 C 17.011719 15.757812 16.675781 15.933594 16.371094 16.160156 C 16.0625 16.386719 15.796875 16.65625 15.578125 16.96875 C 15.355469 17.285156 15.191406 17.621094 15.078125 17.988281 C 14.96875 18.355469 14.917969 18.730469 14.925781 19.113281 C 14.9375 19.496094 15.007812 19.867188 15.136719 20.226562 C 15.265625 20.585938 15.449219 20.917969 15.6875 21.21875 C 15.921875 21.519531 16.199219 21.777344 16.519531 21.988281 L 16.890625 21.445312 C 17.371094 21.144531 17.894531 21.003906 18.464844 21.03125 C 19.238281 21.082031 19.878906 21.398438 20.390625 21.980469 L 20.457031 21.921875 L 20.488281 21.96875 C 20.792969 21.757812 21.058594 21.507812 21.285156 21.214844 L 21.390625 21.128906 L 21.375 21.117188 C 21.769531 20.578125 21.996094 19.972656 22.050781 19.304688 C 22.105469 18.636719 21.980469 18.003906 21.675781 17.40625 C 21.371094 16.808594 20.933594 16.335938 20.359375 15.984375 C 19.789062 15.636719 19.167969 15.460938 18.496094 15.464844 Z M 18.496094 16.785156 C 18.910156 16.785156 19.296875 16.890625 19.648438 17.101562 C 20.003906 17.316406 20.277344 17.605469 20.472656 17.96875 C 20.667969 18.335938 20.753906 18.722656 20.730469 19.136719 C 20.710938 19.550781 20.585938 19.925781 20.351562 20.269531 C 19.980469 20.050781 19.582031 19.890625 19.15625 19.800781 C 19.339844 19.703125 19.488281 19.570312 19.613281 19.40625 C 19.738281 19.242188 19.820312 19.058594 19.859375 18.859375 C 19.902344 18.65625 19.902344 18.457031 19.855469 18.257812 C 19.808594 18.058594 19.71875 17.875 19.59375 17.714844 C 19.46875 17.554688 19.3125 17.425781 19.128906 17.332031 C 18.945312 17.238281 18.75 17.191406 18.546875 17.183594 C 18.339844 17.175781 18.144531 17.214844 17.953125 17.292969 C 17.765625 17.375 17.601562 17.492188 17.464844 17.644531 C 17.328125 17.796875 17.230469 17.972656 17.167969 18.167969 C 17.109375 18.363281 17.09375 18.5625 17.121094 18.769531 C 17.152344 18.972656 17.222656 19.160156 17.332031 19.332031 C 17.445312 19.503906 17.589844 19.644531 17.761719 19.753906 C 17.339844 19.816406 16.9375 19.941406 16.554688 20.128906 C 16.460938 19.957031 16.386719 19.777344 16.335938 19.589844 C 16.285156 19.398438 16.261719 19.207031 16.261719 19.011719 C 16.261719 18.816406 16.289062 18.625 16.339844 18.433594 C 16.390625 18.246094 16.464844 18.066406 16.5625 17.894531 C 16.660156 17.726562 16.78125 17.574219 16.917969 17.433594 C 17.058594 17.296875 17.210938 17.179688 17.382812 17.082031 C 17.550781 16.984375 17.730469 16.910156 17.921875 16.859375 C 18.109375 16.808594 18.300781 16.78125 18.496094 16.785156 Z M 18.425781 18.582031 C 18.425781 18.535156 18.449219 18.511719 18.496094 18.511719 C 18.546875 18.511719 18.570312 18.535156 18.570312 18.582031 C 18.570312 18.660156 18.425781 18.660156 18.425781 18.582031 Z M 18.425781 18.582031 " fill-opacity="1" fill-rule="nonzero"/></svg>