<svg xmlns="http://www.w3.org/2000/svg" xmlns:xlink="http://www.w3.org/1999/xlink" width="49" zoomAndPan="magnify" viewBox="0 0 36.75 37.5" height="50" preserveAspectRatio="xMidYMid meet" version="1.0"><defs><clipPath id="0edb4d320a"><path d="M 0.144531 0.601562 L 36.199219 0.601562 L 36.199219 36.65625 L 0.144531 36.65625 Z M 0.144531 0.601562 " clip-rule="nonzero"/></clipPath><clipPath id="4bed74367a"><path d="M 18.171875 0.601562 C 8.214844 0.601562 0.144531 8.671875 0.144531 18.628906 C 0.144531 28.585938 8.214844 36.65625 18.171875 36.65625 C 28.128906 36.65625 36.199219 28.585938 36.199219 18.628906 C 36.199219 8.671875 28.128906 0.601562 18.171875 0.601562 Z M 18.171875 0.601562 " clip-rule="nonzero"/></clipPath><clipPath id="3609f4f3b1"><path d="M 9.089844 8.21875 L 27.59375 8.21875 L 27.59375 28.203125 L 9.089844 28.203125 Z M 9.089844 8.21875 " clip-rule="nonzero"/></clipPath></defs><g clip-path="url(#0edb4d320a)"><g clip-path="url(#4bed74367a)"><path fill="#fff7d8" d="M 0.144531 0.601562 L 36.199219 0.601562 L 36.199219 36.65625 L 0.144531 36.65625 Z M 0.144531 0.601562 " fill-opacity="1" fill-rule="nonzero"/></g></g><g clip-path="url(#3609f4f3b1)"><path fill="#ff914d" d="M 27.1875 27.125 L 26.75 23.011719 C 26.644531 22 25.992188 21.125 25.050781 20.734375 L 21.167969 19.109375 C 21.210938 20.015625 21.09375 20.917969 20.820312 21.78125 L 19.492188 26.808594 L 18.570312 22.121094 L 18.988281 21.332031 C 19.046875 21.199219 19.003906 21.042969 18.886719 20.953125 L 18.460938 20.625 C 18.460938 20.625 19.84375 19.867188 20.695312 18.90625 L 20.4375 17.824219 C 20.964844 17.164062 21.128906 15.960938 21.128906 15.960938 C 21.84375 15.777344 22.371094 13.6875 21.707031 13.632812 C 22.304688 11.023438 21.398438 8.28125 18.167969 8.238281 C 16.863281 8.21875 15.152344 9.089844 15.558594 10.011719 C 14.4375 9.976562 14.257812 12.101562 14.628906 13.632812 C 13.964844 13.6875 14.492188 15.777344 15.210938 15.960938 C 15.210938 15.960938 15.375 17.164062 15.902344 17.824219 L 15.644531 18.90625 C 16.496094 19.867188 17.875 20.625 17.875 20.625 L 17.449219 20.953125 C 17.332031 21.042969 17.292969 21.199219 17.347656 21.332031 L 17.765625 22.121094 L 16.847656 26.808594 L 15.519531 21.78125 C 15.242188 20.917969 15.125 20.015625 15.171875 19.109375 L 11.285156 20.734375 C 10.34375 21.125 9.695312 22 9.585938 23.011719 L 9.152344 27.125 C 9.09375 27.671875 9.519531 28.144531 10.070312 28.144531 L 26.269531 28.144531 C 26.816406 28.144531 27.242188 27.671875 27.1875 27.125 " fill-opacity="1" fill-rule="nonzero"/></g></svg>