<svg xmlns="http://www.w3.org/2000/svg" xmlns:xlink="http://www.w3.org/1999/xlink" width="108" zoomAndPan="magnify" viewBox="0 0 81 80.999996" height="108" preserveAspectRatio="xMidYMid meet" version="1.0"><defs><clipPath id="7a766f0eab"><path d="M 0 0 L 80.417969 0 L 80.417969 80.417969 L 0 80.417969 Z M 0 0 " clip-rule="nonzero"/></clipPath><clipPath id="38306d6134"><path d="M 40.210938 0 C 18.003906 0 0 18.003906 0 40.210938 C 0 62.417969 18.003906 80.417969 40.210938 80.417969 C 62.417969 80.417969 80.417969 62.417969 80.417969 40.210938 C 80.417969 18.003906 62.417969 0 40.210938 0 Z M 40.210938 0 " clip-rule="nonzero"/></clipPath><clipPath id="00960746e2"><path d="M 13.71875 45 L 58 45 L 58 67 L 13.71875 67 Z M 13.71875 45 " clip-rule="nonzero"/></clipPath><clipPath id="7182da147b"><path d="M 22 13.3125 L 66.96875 13.3125 L 66.96875 35 L 22 35 Z M 22 13.3125 " clip-rule="nonzero"/></clipPath></defs><g clip-path="url(#7a766f0eab)"><g clip-path="url(#38306d6134)"><path fill="#eff8ff" d="M 0 0 L 80.417969 0 L 80.417969 80.417969 L 0 80.417969 Z M 0 0 " fill-opacity="1" fill-rule="nonzero"/></g></g><g clip-path="url(#00960746e2)"><path fill="#004cb2" d="M 56.792969 53.765625 C 56.472656 53.347656 56.0625 53.054688 55.5625 52.890625 C 55.0625 52.722656 54.5625 52.710938 54.054688 52.851562 L 44.597656 55.460938 C 44.628906 55.300781 44.640625 55.140625 44.636719 54.980469 C 44.640625 54.601562 44.570312 54.238281 44.429688 53.890625 C 44.285156 53.539062 44.082031 53.234375 43.816406 52.964844 C 43.550781 52.695312 43.246094 52.488281 42.898438 52.34375 C 42.550781 52.195312 42.191406 52.121094 41.8125 52.121094 L 35.839844 52.121094 C 34.585938 50.886719 33.148438 49.925781 31.53125 49.230469 C 29.914062 48.539062 28.222656 48.164062 26.464844 48.105469 L 22.941406 48.105469 L 22.941406 47.65625 C 22.9375 47.382812 22.878906 47.117188 22.769531 46.863281 C 22.664062 46.609375 22.511719 46.386719 22.3125 46.191406 C 22.117188 45.996094 21.890625 45.847656 21.636719 45.742188 C 21.378906 45.640625 21.113281 45.585938 20.835938 45.585938 L 15.820312 45.585938 C 15.542969 45.585938 15.273438 45.640625 15.015625 45.746094 C 14.757812 45.851562 14.53125 46.003906 14.332031 46.203125 C 14.136719 46.398438 13.984375 46.628906 13.878906 46.886719 C 13.769531 47.140625 13.71875 47.410156 13.71875 47.691406 L 13.71875 62.828125 C 13.71875 63.109375 13.769531 63.375 13.878906 63.632812 C 13.984375 63.890625 14.136719 64.121094 14.332031 64.316406 C 14.53125 64.511719 14.757812 64.664062 15.015625 64.773438 C 15.273438 64.878906 15.542969 64.933594 15.820312 64.933594 L 20.835938 64.933594 C 21.117188 64.933594 21.382812 64.878906 21.640625 64.773438 C 21.898438 64.664062 22.128906 64.511719 22.324219 64.316406 C 22.523438 64.121094 22.671875 63.890625 22.78125 63.632812 C 22.886719 63.375 22.941406 63.109375 22.941406 62.828125 L 22.941406 62.683594 L 32.984375 66.167969 C 34.242188 66.601562 35.535156 66.769531 36.867188 66.671875 C 38.195312 66.574219 39.449219 66.21875 40.632812 65.605469 L 55.957031 57.644531 C 56.125 57.554688 56.28125 57.453125 56.425781 57.328125 C 56.570312 57.207031 56.699219 57.074219 56.816406 56.921875 C 56.929688 56.773438 57.027344 56.609375 57.109375 56.441406 C 57.1875 56.269531 57.25 56.089844 57.289062 55.90625 C 57.332031 55.71875 57.351562 55.535156 57.351562 55.34375 C 57.351562 55.15625 57.332031 54.96875 57.289062 54.785156 C 57.25 54.597656 57.1875 54.421875 57.109375 54.25 C 57.027344 54.078125 56.929688 53.917969 56.816406 53.765625 Z M 55.699219 55.554688 C 55.636719 55.855469 55.46875 56.074219 55.195312 56.214844 L 39.871094 64.179688 C 38.878906 64.695312 37.824219 64.992188 36.707031 65.074219 C 35.59375 65.15625 34.507812 65.015625 33.449219 64.652344 L 22.941406 61 L 22.941406 49.761719 L 26.464844 49.761719 C 30.222656 49.761719 33.167969 51.808594 34.972656 53.527344 C 35.128906 53.671875 35.3125 53.742188 35.527344 53.742188 L 41.8125 53.742188 C 42.097656 53.746094 42.351562 53.835938 42.578125 54.015625 C 42.800781 54.195312 42.941406 54.421875 43.007812 54.703125 C 43.070312 54.980469 43.042969 55.25 42.917969 55.507812 C 42.796875 55.765625 42.605469 55.960938 42.351562 56.085938 L 42.269531 56.085938 C 42.125 56.144531 41.972656 56.175781 41.8125 56.175781 L 32.355469 56.175781 C 32.136719 56.175781 31.945312 56.253906 31.789062 56.410156 C 31.632812 56.566406 31.554688 56.753906 31.554688 56.976562 C 31.554688 57.199219 31.632812 57.386719 31.789062 57.546875 C 31.945312 57.703125 32.136719 57.78125 32.355469 57.78125 L 41.8125 57.78125 C 42.199219 57.78125 42.566406 57.707031 42.921875 57.554688 L 54.488281 54.34375 C 54.679688 54.289062 54.871094 54.292969 55.058594 54.359375 C 55.246094 54.421875 55.402344 54.53125 55.523438 54.691406 C 55.734375 54.949219 55.792969 55.238281 55.699219 55.554688 Z M 55.699219 55.554688 " fill-opacity="1" fill-rule="nonzero"/></g><g clip-path="url(#7182da147b)"><path fill="#004cb2" d="M 64.59375 15.484375 L 59.578125 15.484375 C 59.296875 15.484375 59.03125 15.539062 58.773438 15.644531 C 58.515625 15.75 58.289062 15.902344 58.089844 16.101562 C 57.894531 16.296875 57.742188 16.523438 57.632812 16.78125 C 57.527344 17.039062 57.472656 17.308594 57.472656 17.585938 L 57.472656 17.730469 L 47.433594 14.246094 C 46.171875 13.816406 44.878906 13.648438 43.550781 13.746094 C 42.222656 13.84375 40.964844 14.199219 39.78125 14.808594 L 24.480469 22.773438 C 24.164062 22.898438 23.878906 23.078125 23.632812 23.316406 C 23.386719 23.554688 23.191406 23.828125 23.054688 24.140625 C 22.917969 24.457031 22.84375 24.785156 22.839844 25.128906 C 22.832031 25.46875 22.890625 25.800781 23.015625 26.121094 C 23.140625 26.4375 23.320312 26.722656 23.558594 26.96875 C 23.792969 27.21875 24.070312 27.410156 24.382812 27.546875 C 24.695312 27.683594 25.023438 27.757812 25.367188 27.765625 C 25.710938 27.773438 26.039062 27.714844 26.359375 27.589844 L 35.816406 24.957031 C 35.789062 25.117188 35.777344 25.277344 35.777344 25.4375 C 35.773438 25.816406 35.84375 26.175781 35.988281 26.527344 C 36.128906 26.875 36.332031 27.183594 36.597656 27.453125 C 36.863281 27.71875 37.167969 27.925781 37.515625 28.074219 C 37.863281 28.21875 38.226562 28.292969 38.601562 28.296875 L 44.566406 28.296875 C 45.820312 29.527344 47.257812 30.492188 48.875 31.183594 C 50.496094 31.878906 52.183594 32.253906 53.941406 32.308594 L 57.464844 32.308594 L 57.464844 32.757812 C 57.464844 33.039062 57.519531 33.304688 57.625 33.5625 C 57.734375 33.820312 57.886719 34.046875 58.082031 34.246094 C 58.28125 34.441406 58.507812 34.59375 58.765625 34.703125 C 59.023438 34.808594 59.289062 34.863281 59.570312 34.863281 L 64.585938 34.863281 C 64.867188 34.863281 65.140625 34.808594 65.402344 34.703125 C 65.660156 34.59375 65.890625 34.4375 66.089844 34.238281 C 66.289062 34.035156 66.441406 33.804688 66.546875 33.542969 C 66.652344 33.28125 66.703125 33.007812 66.699219 32.726562 L 66.699219 17.585938 C 66.699219 17.308594 66.644531 17.039062 66.539062 16.78125 C 66.429688 16.523438 66.277344 16.296875 66.082031 16.101562 C 65.882812 15.902344 65.65625 15.75 65.398438 15.644531 C 65.140625 15.539062 64.875 15.484375 64.59375 15.484375 Z M 57.472656 30.671875 L 53.949219 30.671875 C 50.195312 30.671875 47.246094 28.625 45.441406 26.90625 C 45.285156 26.761719 45.101562 26.6875 44.886719 26.691406 L 38.601562 26.691406 C 38.4375 26.6875 38.28125 26.65625 38.132812 26.59375 C 37.980469 26.53125 37.847656 26.441406 37.734375 26.324219 C 37.617188 26.210938 37.527344 26.074219 37.46875 25.925781 C 37.40625 25.773438 37.375 25.617188 37.375 25.453125 C 37.371094 25.21875 37.433594 25 37.5625 24.796875 C 37.6875 24.597656 37.859375 24.449219 38.070312 24.347656 C 38.09375 24.351562 38.113281 24.351562 38.136719 24.347656 C 38.285156 24.289062 38.441406 24.257812 38.601562 24.257812 L 48.058594 24.257812 C 48.28125 24.257812 48.46875 24.179688 48.625 24.023438 C 48.78125 23.867188 48.859375 23.675781 48.859375 23.457031 C 48.859375 23.234375 48.78125 23.042969 48.625 22.886719 C 48.46875 22.730469 48.28125 22.652344 48.058594 22.652344 L 38.601562 22.652344 C 38.21875 22.652344 37.851562 22.726562 37.503906 22.878906 L 25.925781 26.089844 C 25.734375 26.140625 25.542969 26.136719 25.355469 26.074219 C 25.167969 26.011719 25.011719 25.902344 24.890625 25.742188 C 24.800781 25.628906 24.742188 25.5 24.710938 25.359375 C 24.675781 25.21875 24.675781 25.074219 24.707031 24.933594 C 24.738281 24.792969 24.796875 24.664062 24.886719 24.546875 C 24.976562 24.433594 25.082031 24.339844 25.210938 24.273438 L 40.542969 16.238281 C 41.535156 15.722656 42.589844 15.421875 43.707031 15.339844 C 44.824219 15.257812 45.910156 15.398438 46.964844 15.765625 L 57.472656 19.417969 Z M 57.472656 30.671875 " fill-opacity="1" fill-rule="nonzero"/></g><path fill="#004cb2" d="M 40.207031 31.203125 C 39.617188 31.203125 39.03125 31.257812 38.449219 31.375 C 37.871094 31.488281 37.308594 31.660156 36.761719 31.886719 C 36.214844 32.113281 35.695312 32.390625 35.203125 32.71875 C 34.710938 33.046875 34.257812 33.421875 33.839844 33.839844 C 33.421875 34.257812 33.046875 34.710938 32.71875 35.203125 C 32.390625 35.695312 32.113281 36.214844 31.886719 36.761719 C 31.660156 37.308594 31.488281 37.871094 31.375 38.449219 C 31.257812 39.03125 31.199219 39.617188 31.199219 40.207031 C 31.199219 40.800781 31.257812 41.386719 31.375 41.964844 C 31.488281 42.546875 31.660156 43.109375 31.886719 43.65625 C 32.113281 44.203125 32.390625 44.71875 32.71875 45.210938 C 33.046875 45.703125 33.421875 46.160156 33.839844 46.578125 C 34.257812 46.996094 34.710938 47.367188 35.203125 47.695312 C 35.695312 48.027344 36.214844 48.304688 36.761719 48.53125 C 37.308594 48.753906 37.871094 48.925781 38.449219 49.042969 C 39.03125 49.15625 39.617188 49.214844 40.207031 49.214844 C 40.796875 49.214844 41.382812 49.15625 41.964844 49.042969 C 42.542969 48.925781 43.109375 48.753906 43.652344 48.53125 C 44.199219 48.304688 44.71875 48.027344 45.210938 47.695312 C 45.703125 47.367188 46.15625 46.996094 46.574219 46.578125 C 46.996094 46.160156 47.367188 45.703125 47.695312 45.210938 C 48.023438 44.71875 48.300781 44.203125 48.527344 43.65625 C 48.753906 43.109375 48.925781 42.546875 49.039062 41.964844 C 49.15625 41.386719 49.214844 40.800781 49.214844 40.207031 C 49.214844 39.617188 49.15625 39.03125 49.039062 38.453125 C 48.925781 37.871094 48.753906 37.308594 48.527344 36.761719 C 48.300781 36.214844 48.023438 35.699219 47.695312 35.207031 C 47.363281 34.714844 46.992188 34.261719 46.574219 33.84375 C 46.15625 33.425781 45.699219 33.050781 45.210938 32.722656 C 44.71875 32.394531 44.199219 32.117188 43.652344 31.890625 C 43.105469 31.664062 42.542969 31.492188 41.964844 31.375 C 41.382812 31.261719 40.796875 31.203125 40.207031 31.203125 Z M 40.207031 39.40625 C 40.515625 39.40625 40.8125 39.460938 41.101562 39.566406 C 41.390625 39.671875 41.648438 39.824219 41.882812 40.023438 C 42.117188 40.222656 42.308594 40.457031 42.460938 40.726562 C 42.609375 40.996094 42.710938 41.28125 42.757812 41.582031 C 42.804688 41.886719 42.800781 42.191406 42.742188 42.492188 C 42.679688 42.792969 42.570312 43.074219 42.410156 43.335938 C 42.25 43.601562 42.050781 43.828125 41.808594 44.015625 C 41.570312 44.207031 41.300781 44.351562 41.011719 44.445312 L 41.011719 45.175781 C 41.011719 45.398438 40.933594 45.589844 40.773438 45.746094 C 40.617188 45.902344 40.429688 45.980469 40.207031 45.980469 C 39.984375 45.980469 39.796875 45.902344 39.640625 45.746094 C 39.484375 45.589844 39.40625 45.398438 39.40625 45.175781 L 39.40625 44.445312 C 38.871094 44.277344 38.4375 43.964844 38.109375 43.515625 C 37.777344 43.0625 37.609375 42.558594 37.605469 42 C 37.605469 41.777344 37.683594 41.585938 37.839844 41.429688 C 38 41.273438 38.1875 41.195312 38.410156 41.195312 C 38.632812 41.195312 38.820312 41.273438 38.976562 41.429688 C 39.132812 41.585938 39.210938 41.777344 39.210938 42 C 39.214844 42.269531 39.316406 42.5 39.507812 42.691406 C 39.703125 42.882812 39.9375 42.976562 40.207031 42.976562 C 40.460938 42.953125 40.675781 42.847656 40.847656 42.660156 C 41.019531 42.472656 41.105469 42.25 41.105469 41.996094 C 41.105469 41.738281 41.019531 41.515625 40.847656 41.328125 C 40.675781 41.140625 40.460938 41.035156 40.207031 41.011719 C 39.898438 41.015625 39.597656 40.964844 39.308594 40.859375 C 39.019531 40.753906 38.753906 40.601562 38.519531 40.402344 C 38.285156 40.203125 38.089844 39.96875 37.9375 39.699219 C 37.785156 39.433594 37.6875 39.144531 37.636719 38.839844 C 37.589844 38.535156 37.59375 38.230469 37.65625 37.929688 C 37.714844 37.625 37.828125 37.34375 37.988281 37.082031 C 38.152344 36.820312 38.355469 36.59375 38.597656 36.402344 C 38.839844 36.210938 39.109375 36.070312 39.40625 35.976562 L 39.40625 35.246094 C 39.40625 35.027344 39.484375 34.835938 39.640625 34.679688 C 39.796875 34.523438 39.984375 34.445312 40.207031 34.445312 C 40.429688 34.445312 40.617188 34.523438 40.773438 34.679688 C 40.933594 34.835938 41.011719 35.027344 41.011719 35.246094 L 41.011719 35.976562 C 41.539062 36.152344 41.964844 36.464844 42.289062 36.917969 C 42.617188 37.367188 42.78125 37.871094 42.785156 38.425781 C 42.785156 38.648438 42.707031 38.835938 42.550781 38.992188 C 42.390625 39.152344 42.203125 39.230469 41.980469 39.230469 C 41.757812 39.230469 41.570312 39.152344 41.414062 38.992188 C 41.257812 38.835938 41.179688 38.648438 41.179688 38.425781 C 41.183594 38.296875 41.160156 38.167969 41.113281 38.046875 C 41.0625 37.925781 40.992188 37.820312 40.902344 37.726562 C 40.8125 37.632812 40.703125 37.5625 40.585938 37.511719 C 40.464844 37.460938 40.339844 37.4375 40.207031 37.4375 C 39.9375 37.4375 39.703125 37.535156 39.511719 37.726562 C 39.320312 37.917969 39.222656 38.152344 39.222656 38.421875 C 39.222656 38.695312 39.320312 38.925781 39.511719 39.117188 C 39.703125 39.308594 39.9375 39.40625 40.207031 39.40625 Z M 40.207031 39.40625 " fill-opacity="1" fill-rule="nonzero"/></svg>