<svg xmlns="http://www.w3.org/2000/svg" xmlns:xlink="http://www.w3.org/1999/xlink" width="50" zoomAndPan="magnify" viewBox="0 0 37.5 37.499999" height="50" preserveAspectRatio="xMidYMid meet" version="1.0"><defs><clipPath id="4de3936604"><path d="M 0.375 2.546875 L 36.640625 2.546875 L 36.640625 34.371094 L 0.375 34.371094 Z M 0.375 2.546875 " clip-rule="nonzero"/></clipPath></defs><g clip-path="url(#4de3936604)"><path fill="#22b2bb" d="M 20.378906 5.742188 L 2.628906 5.742188 C 1.558594 5.742188 0.679688 6.617188 0.679688 7.691406 L 0.679688 28.988281 C 0.679688 30.0625 1.558594 30.9375 2.628906 30.9375 L 24.695312 30.9375 L 24.695312 33.679688 C 24.695312 33.894531 24.875 34.070312 25.089844 34.070312 L 34.148438 34.070312 C 35.230469 34.070312 36.117188 33.1875 36.117188 32.101562 L 36.117188 7.691406 C 36.117188 6.617188 35.238281 5.738281 34.164062 5.738281 L 32.160156 5.738281 C 30.921875 3.871094 28.808594 2.570312 26.273438 2.570312 C 23.730469 2.574219 21.621094 3.871094 20.378906 5.742188 Z M 26.273438 4.941406 C 28.886719 4.941406 30.996094 7.054688 30.996094 9.667969 C 30.996094 12.28125 28.886719 14.390625 26.273438 14.390625 C 23.65625 14.390625 21.546875 12.28125 21.546875 9.667969 C 21.546875 7.054688 23.65625 4.941406 26.273438 4.941406 Z M 26.273438 6.132812 C 26.183594 6.132812 26.089844 6.164062 26.019531 6.226562 L 24.894531 7.164062 L 24.894531 7.082031 C 24.894531 6.867188 24.71875 6.691406 24.5 6.691406 C 24.285156 6.691406 24.109375 6.867188 24.109375 7.082031 L 24.109375 7.816406 C 23.757812 8.113281 23.402344 8.40625 23.050781 8.699219 C 22.882812 8.839844 22.863281 9.085938 23 9.253906 C 23.128906 9.40625 23.347656 9.441406 23.515625 9.332031 L 23.515625 11.644531 C 23.296875 11.644531 23.121094 11.824219 23.121094 12.042969 C 23.121094 12.257812 23.296875 12.433594 23.515625 12.433594 L 29.027344 12.433594 C 29.246094 12.433594 29.421875 12.257812 29.421875 12.042969 C 29.421875 11.824219 29.246094 11.644531 29.027344 11.644531 L 29.027344 9.332031 C 29.195312 9.4375 29.414062 9.40625 29.542969 9.253906 C 29.679688 9.085938 29.660156 8.839844 29.492188 8.699219 L 28.886719 8.195312 L 26.523438 6.226562 C 26.453125 6.164062 26.363281 6.132812 26.273438 6.132812 Z M 19.925781 6.527344 C 18.988281 8.417969 18.871094 10.726562 19.945312 12.855469 L 21.257812 15.449219 L 19.550781 15.605469 C 19.34375 15.621094 19.1875 15.789062 19.183594 15.996094 L 19.183594 18.894531 C 19.183594 19.113281 19.359375 19.289062 19.578125 19.289062 L 23.011719 18.917969 L 23.667969 20.21875 C 22.3125 20.449219 20.90625 20.601562 19.550781 20.703125 C 19.34375 20.71875 19.183594 20.890625 19.183594 21.09375 L 19.183594 25.820312 C 19.183594 25.925781 19.226562 26.027344 19.300781 26.101562 L 23.351562 30.152344 L 21.707031 30.152344 L 18.003906 26.445312 L 18.003906 21.210938 C 18.003906 20.996094 17.828125 20.820312 17.609375 20.820312 L 12.492188 20.820312 C 4.90625 20.816406 2.648438 23.917969 2.648438 25.820312 L 2.648438 30.152344 L 2.628906 30.152344 C 1.984375 30.152344 1.46875 29.636719 1.46875 28.988281 L 1.46875 23.726562 C 1.644531 23.460938 2.296875 22.554688 3.617188 21.613281 C 5.179688 20.496094 7.648438 19.402344 11.308594 19.402344 L 17.625 19.402344 C 17.835938 19.394531 18 19.222656 18.003906 19.011719 L 18.003906 16.105469 C 18.003906 15.886719 17.828125 15.710938 17.609375 15.710938 L 11.308594 15.675781 C 6.175781 15.675781 2.824219 17.910156 1.46875 19.027344 L 1.46875 7.691406 C 1.46875 7.042969 1.984375 6.527344 2.628906 6.527344 Z M 32.617188 6.527344 L 34.164062 6.527344 C 34.8125 6.527344 35.328125 7.042969 35.328125 7.691406 L 35.328125 9.84375 L 33.21875 11.0625 C 33.542969 9.484375 33.292969 7.894531 32.617188 6.527344 Z M 26.273438 7.039062 L 28.242188 8.683594 L 28.242188 11.644531 L 27.453125 11.644531 L 27.453125 10.070312 C 27.453125 9.851562 27.277344 9.679688 27.058594 9.679688 L 25.484375 9.679688 C 25.265625 9.679688 25.09375 9.855469 25.089844 10.070312 L 25.089844 11.648438 L 24.304688 11.648438 L 24.304688 8.683594 Z M 4.617188 7.511719 C 4.402344 7.511719 4.222656 7.6875 4.222656 7.90625 C 4.222656 8.671875 3.609375 9.285156 2.84375 9.285156 C 2.625 9.28125 2.449219 9.460938 2.449219 9.679688 C 2.449219 9.894531 2.628906 10.070312 2.84375 10.070312 C 4.035156 10.070312 5.011719 9.097656 5.011719 7.90625 C 5.011719 7.6875 4.835938 7.515625 4.617188 7.511719 Z M 6.585938 7.710938 C 6.378906 7.710938 6.207031 7.875 6.195312 8.082031 C 6.105469 9.796875 4.742188 11.167969 3.027344 11.253906 C 2.820312 11.265625 2.652344 11.4375 2.652344 11.648438 L 2.648438 16.371094 C 2.648438 16.445312 2.667969 16.515625 2.707031 16.582031 C 2.824219 16.765625 3.066406 16.820312 3.25 16.703125 C 4.910156 15.660156 7.609375 14.371094 11.304688 14.371094 C 11.304688 14.371094 14.167969 14.402344 17.609375 14.402344 C 17.824219 14.402344 18 14.226562 18 14.007812 L 18 8.101562 C 18 7.886719 17.824219 7.710938 17.609375 7.710938 Z M 25.878906 8.101562 C 25.660156 8.101562 25.484375 8.277344 25.484375 8.496094 C 25.484375 8.714844 25.660156 8.890625 25.878906 8.890625 L 26.667969 8.890625 C 26.882812 8.890625 27.058594 8.714844 27.058594 8.496094 C 27.058594 8.28125 26.882812 8.105469 26.667969 8.101562 Z M 14.855469 9.285156 L 16.035156 9.285156 C 16.253906 9.28125 16.429688 9.460938 16.429688 9.679688 L 16.429688 12.433594 C 16.429688 12.652344 16.253906 12.832031 16.035156 12.828125 L 11.308594 12.828125 C 11.089844 12.828125 10.917969 12.652344 10.917969 12.433594 C 10.917969 12.21875 11.09375 12.042969 11.308594 12.042969 L 15.640625 12.042969 L 15.640625 10.070312 L 14.855469 10.070312 C 14.636719 10.070312 14.460938 9.894531 14.460938 9.679688 C 14.460938 9.460938 14.636719 9.28125 14.855469 9.285156 Z M 35.328125 10.753906 L 35.328125 12.75 L 31.542969 14.9375 L 32.59375 12.855469 C 32.710938 12.625 32.8125 12.390625 32.902344 12.15625 Z M 35.328125 13.660156 L 35.328125 14.953125 L 31.050781 17.417969 C 30.945312 17.480469 30.871094 17.589844 30.859375 17.714844 L 30.726562 18.8125 C 30.710938 18.929688 30.753906 19.050781 30.839844 19.136719 L 35.328125 23.621094 L 35.328125 25.265625 L 29.347656 19.285156 L 30.894531 16.222656 Z M 23.679688 15.453125 C 23.726562 15.453125 23.773438 15.464844 23.816406 15.484375 C 24.570312 15.800781 25.398438 15.976562 26.273438 15.976562 C 27.144531 15.976562 27.972656 15.800781 28.726562 15.484375 C 28.925781 15.398438 29.160156 15.492188 29.246094 15.691406 C 29.328125 15.890625 29.234375 16.121094 29.035156 16.207031 C 28.1875 16.566406 27.25 16.765625 26.273438 16.765625 C 25.292969 16.765625 24.355469 16.566406 23.507812 16.207031 C 23.308594 16.121094 23.214844 15.890625 23.296875 15.691406 C 23.359375 15.546875 23.496094 15.453125 23.652344 15.449219 Z M 21.636719 16.199219 L 22.636719 18.175781 C 21.746094 18.300781 20.855469 18.398438 19.972656 18.46875 L 19.972656 16.359375 C 20.523438 16.316406 21.078125 16.261719 21.636719 16.199219 Z M 11.308594 16.507812 L 17.214844 16.507812 L 17.214844 18.632812 L 11.308594 18.582031 C 7.488281 18.582031 4.839844 19.773438 3.160156 20.972656 C 2.417969 21.5 1.859375 22.035156 1.46875 22.46875 L 1.46875 20.078125 C 2.058594 19.492188 5.398438 16.507812 11.308594 16.507812 Z M 28.972656 20.023438 L 35.328125 26.378906 L 35.328125 30.527344 C 35 30.277344 34.589844 30.152344 34.148438 30.152344 L 24.464844 30.152344 L 19.972656 25.660156 L 19.972656 21.445312 C 21.316406 21.335938 22.699219 21.1875 24.039062 20.953125 L 25.15625 23.167969 C 25.609375 24.058594 26.933594 24.058594 27.382812 23.167969 Z M 21.546875 22.277344 C 21.332031 22.277344 21.152344 22.453125 21.152344 22.671875 L 21.152344 25.035156 C 21.152344 25.253906 21.328125 25.429688 21.546875 25.429688 L 30.601562 25.429688 C 30.820312 25.429688 30.996094 25.253906 30.996094 25.035156 L 30.996094 23.066406 C 30.996094 22.847656 30.820312 22.667969 30.601562 22.671875 L 29.027344 22.671875 C 28.808594 22.671875 28.632812 22.847656 28.632812 23.066406 C 28.632812 23.28125 28.808594 23.457031 29.027344 23.457031 L 30.210938 23.457031 L 30.210938 24.640625 L 21.941406 24.640625 L 21.941406 23.066406 L 23.515625 23.066406 C 23.734375 23.066406 23.910156 22.886719 23.910156 22.671875 C 23.910156 22.453125 23.734375 22.277344 23.515625 22.277344 Z M 11.703125 22.671875 L 15.640625 22.671875 C 15.859375 22.671875 16.035156 22.847656 16.035156 23.066406 L 16.035156 30.152344 L 15.246094 30.152344 L 15.246094 27.398438 L 11.703125 27.398438 C 11.484375 27.398438 11.308594 27.21875 11.308594 27 L 11.308594 23.066406 C 11.308594 22.847656 11.484375 22.667969 11.703125 22.671875 Z M 7.375 23.066406 L 9.738281 23.066406 C 9.953125 23.066406 10.128906 23.242188 10.128906 23.457031 L 10.128906 28.183594 C 10.128906 28.398438 9.953125 28.574219 9.738281 28.578125 L 5.402344 28.578125 C 5.1875 28.574219 5.011719 28.402344 5.011719 28.183594 L 5.011719 25.820312 C 5.011719 25.605469 5.1875 25.429688 5.402344 25.429688 L 6.976562 25.429688 L 6.976562 23.457031 C 6.976562 23.242188 7.15625 23.066406 7.375 23.066406 Z M 12.097656 23.457031 L 12.097656 26.609375 L 15.246094 26.609375 L 15.246094 23.457031 Z M 7.765625 23.855469 L 7.765625 25.429688 L 9.339844 25.429688 L 9.339844 23.855469 Z M 5.796875 26.214844 L 5.796875 27.789062 L 9.339844 27.789062 L 9.339844 26.214844 Z M 25.089844 26.214844 C 24.871094 26.214844 24.695312 26.390625 24.695312 26.609375 L 24.695312 28.972656 C 24.695312 29.1875 24.875 29.367188 25.089844 29.363281 L 31.390625 29.363281 C 31.605469 29.363281 31.785156 29.1875 31.785156 28.972656 L 31.785156 26.609375 C 31.785156 26.390625 31.609375 26.214844 31.390625 26.214844 Z M 12.492188 28.382812 C 12.707031 28.382812 12.882812 28.558594 12.882812 28.773438 L 12.882812 30.152344 L 12.097656 30.152344 L 12.097656 28.773438 C 12.097656 28.554688 12.273438 28.378906 12.492188 28.382812 Z M 12.492188 28.382812 " fill-opacity="1" fill-rule="nonzero"/></g></svg>