<svg xmlns="http://www.w3.org/2000/svg" xmlns:xlink="http://www.w3.org/1999/xlink" width="175" zoomAndPan="magnify" viewBox="0 0 131.25 131.999998" height="176" preserveAspectRatio="xMidYMid meet" version="1.0"><defs><clipPath id="26f1517ab2"><path d="M 0 0.550781 L 130.503906 0.550781 L 130.503906 131.054688 L 0 131.054688 Z M 0 0.550781 " clip-rule="nonzero"/></clipPath></defs><g clip-path="url(#26f1517ab2)"><path fill="#ffffff" d="M 65.234375 0.550781 C 29.25 0.550781 0 29.800781 0 65.785156 C 0 101.769531 29.25 131.019531 65.234375 131.019531 C 101.21875 131.019531 130.46875 101.769531 130.46875 65.785156 C 130.46875 29.800781 101.21875 0.550781 65.234375 0.550781 Z M 101.890625 72.097656 L 71.546875 72.097656 L 71.546875 102.441406 C 71.546875 105.894531 68.726562 108.753906 65.234375 108.753906 C 61.742188 108.753906 58.921875 105.894531 58.921875 102.441406 L 58.921875 72.097656 L 28.578125 72.097656 C 25.125 72.097656 22.265625 69.277344 22.265625 65.785156 C 22.265625 62.289062 25.125 59.472656 28.578125 59.472656 L 58.921875 59.472656 L 58.921875 29.125 C 58.921875 25.675781 61.742188 22.8125 65.234375 22.8125 C 68.726562 22.8125 71.546875 25.675781 71.546875 29.125 L 71.546875 59.472656 L 101.890625 59.472656 C 105.34375 59.472656 108.207031 62.289062 108.207031 65.785156 C 108.207031 69.277344 105.34375 72.097656 101.890625 72.097656 Z M 101.890625 72.097656 " fill-opacity="1" fill-rule="nonzero"/></g></svg>