<svg xmlns="http://www.w3.org/2000/svg" xmlns:xlink="http://www.w3.org/1999/xlink" width="50" zoomAndPan="magnify" viewBox="0 0 37.5 37.499999" height="50" preserveAspectRatio="xMidYMid meet" version="1.0"><defs><clipPath id="af9f0ecbb8"><path d="M 17 3.535156 L 19 3.535156 L 19 7 L 17 7 Z M 17 3.535156 " clip-rule="nonzero"/></clipPath><clipPath id="81a0702439"><path d="M 23 25 L 31.484375 25 L 31.484375 33.140625 L 23 33.140625 Z M 23 25 " clip-rule="nonzero"/></clipPath><clipPath id="cf4869e33f"><path d="M 14 25 L 23 25 L 23 33.140625 L 14 33.140625 Z M 14 25 " clip-rule="nonzero"/></clipPath><clipPath id="2583e21e8f"><path d="M 5.578125 25 L 14 25 L 14 33.140625 L 5.578125 33.140625 Z M 5.578125 25 " clip-rule="nonzero"/></clipPath></defs><g clip-path="url(#af9f0ecbb8)"><path fill="#a955e8" d="M 17.945312 3.546875 L 18.933594 3.546875 L 18.933594 6.019531 L 17.945312 6.019531 Z M 17.945312 3.546875 " fill-opacity="1" fill-rule="nonzero"/></g><path fill="#a955e8" d="M 24.871094 11.957031 L 27.34375 11.957031 L 27.34375 12.945312 L 24.871094 12.945312 Z M 24.871094 11.957031 " fill-opacity="1" fill-rule="nonzero"/><path fill="#a955e8" d="M 9.535156 11.957031 L 12.007812 11.957031 L 12.007812 12.945312 L 9.535156 12.945312 Z M 9.535156 11.957031 " fill-opacity="1" fill-rule="nonzero"/><path fill="#a955e8" d="M 23.761719 7.417969 L 25.507812 5.671875 L 26.207031 6.371094 L 24.460938 8.117188 Z M 23.761719 7.417969 " fill-opacity="1" fill-rule="nonzero"/><path fill="#a955e8" d="M 10.40625 6.371094 L 11.105469 5.671875 L 12.855469 7.417969 L 12.15625 8.117188 Z M 10.40625 6.371094 " fill-opacity="1" fill-rule="nonzero"/><path fill="#a955e8" d="M 17.203125 10.371094 L 18.265625 9.308594 C 18.359375 9.210938 18.515625 9.210938 18.613281 9.308594 L 19.675781 10.371094 L 19.675781 7.503906 L 17.203125 7.503906 Z M 17.203125 10.371094 " fill-opacity="1" fill-rule="nonzero"/><path fill="#a955e8" d="M 14.484375 7.503906 L 14.484375 15.417969 L 22.394531 15.417969 L 22.394531 7.503906 L 20.171875 7.503906 L 20.171875 10.964844 C 20.171875 11.066406 20.109375 11.15625 20.019531 11.195312 C 19.988281 11.207031 19.953125 11.214844 19.921875 11.214844 C 19.859375 11.214844 19.796875 11.1875 19.75 11.140625 L 18.4375 9.832031 L 17.128906 11.140625 C 17.058594 11.210938 16.953125 11.234375 16.859375 11.195312 C 16.769531 11.15625 16.707031 11.066406 16.707031 10.964844 L 16.707031 7.503906 Z M 14.484375 7.503906 " fill-opacity="1" fill-rule="nonzero"/><path fill="#a955e8" d="M 21.65625 19.273438 L 22.714844 18.210938 C 22.8125 18.113281 22.96875 18.113281 23.066406 18.210938 L 24.125 19.273438 L 24.125 16.40625 L 21.652344 16.40625 L 21.652344 19.273438 Z M 21.65625 19.273438 " fill-opacity="1" fill-rule="nonzero"/><path fill="#a955e8" d="M 26.847656 16.40625 L 24.621094 16.40625 L 24.621094 19.871094 C 24.621094 19.96875 24.5625 20.058594 24.46875 20.097656 C 24.4375 20.109375 24.40625 20.117188 24.375 20.117188 C 24.308594 20.117188 24.246094 20.089844 24.199219 20.042969 L 22.890625 18.734375 L 21.582031 20.042969 C 21.511719 20.113281 21.40625 20.136719 21.3125 20.097656 C 21.21875 20.058594 21.160156 19.96875 21.160156 19.871094 L 21.160156 16.40625 L 18.933594 16.40625 L 18.933594 24.320312 L 26.847656 24.320312 Z M 26.847656 16.40625 " fill-opacity="1" fill-rule="nonzero"/><path fill="#a955e8" d="M 13.8125 18.210938 C 13.910156 18.113281 14.066406 18.113281 14.164062 18.210938 L 15.222656 19.273438 L 15.222656 16.40625 L 12.75 16.40625 L 12.75 19.273438 Z M 13.8125 18.210938 " fill-opacity="1" fill-rule="nonzero"/><path fill="#a955e8" d="M 17.945312 16.40625 L 15.71875 16.40625 L 15.71875 19.871094 C 15.71875 19.96875 15.660156 20.058594 15.566406 20.097656 C 15.535156 20.109375 15.503906 20.117188 15.472656 20.117188 C 15.40625 20.117188 15.34375 20.089844 15.296875 20.042969 L 13.988281 18.734375 L 12.679688 20.042969 C 12.609375 20.113281 12.5 20.136719 12.410156 20.097656 C 12.316406 20.058594 12.257812 19.96875 12.257812 19.871094 L 12.257812 16.40625 L 10.03125 16.40625 L 10.03125 24.320312 L 17.945312 24.320312 Z M 17.945312 16.40625 " fill-opacity="1" fill-rule="nonzero"/><path fill="#a955e8" d="M 26.105469 28.175781 L 27.167969 27.113281 C 27.261719 27.015625 27.421875 27.015625 27.515625 27.113281 L 28.578125 28.175781 L 28.578125 25.308594 L 26.105469 25.308594 Z M 26.105469 28.175781 " fill-opacity="1" fill-rule="nonzero"/><g clip-path="url(#81a0702439)"><path fill="#a955e8" d="M 29.074219 28.773438 C 29.074219 28.871094 29.011719 28.960938 28.921875 29 C 28.890625 29.015625 28.859375 29.019531 28.824219 29.019531 C 28.761719 29.019531 28.699219 28.996094 28.652344 28.949219 L 27.34375 27.636719 L 26.035156 28.945312 C 25.960938 29.019531 25.855469 29.039062 25.765625 29 C 25.671875 28.960938 25.609375 28.871094 25.609375 28.773438 L 25.609375 25.308594 L 23.386719 25.308594 L 23.386719 33.222656 L 31.300781 33.222656 L 31.300781 25.308594 L 29.074219 25.308594 Z M 29.074219 28.773438 " fill-opacity="1" fill-rule="nonzero"/></g><path fill="#a955e8" d="M 17.203125 28.175781 L 18.265625 27.113281 C 18.359375 27.015625 18.515625 27.015625 18.613281 27.113281 L 19.675781 28.175781 L 19.675781 25.308594 L 17.203125 25.308594 Z M 17.203125 28.175781 " fill-opacity="1" fill-rule="nonzero"/><g clip-path="url(#cf4869e33f)"><path fill="#a955e8" d="M 22.394531 25.308594 L 20.171875 25.308594 L 20.171875 28.773438 C 20.171875 28.871094 20.109375 28.960938 20.019531 29 C 19.988281 29.015625 19.953125 29.019531 19.921875 29.019531 C 19.859375 29.019531 19.796875 28.996094 19.75 28.949219 L 18.4375 27.636719 L 17.128906 28.945312 C 17.058594 29.019531 16.953125 29.039062 16.859375 29 C 16.769531 28.960938 16.707031 28.871094 16.707031 28.773438 L 16.707031 25.308594 L 14.484375 25.308594 L 14.484375 33.222656 L 22.394531 33.222656 Z M 22.394531 25.308594 " fill-opacity="1" fill-rule="nonzero"/></g><path fill="#a955e8" d="M 8.300781 28.175781 L 9.363281 27.113281 C 9.457031 27.015625 9.613281 27.015625 9.710938 27.113281 L 10.773438 28.175781 L 10.773438 25.308594 L 8.300781 25.308594 Z M 8.300781 28.175781 " fill-opacity="1" fill-rule="nonzero"/><g clip-path="url(#2583e21e8f)"><path fill="#a955e8" d="M 5.578125 33.222656 L 13.492188 33.222656 L 13.492188 25.308594 L 11.265625 25.308594 L 11.265625 28.773438 C 11.265625 28.871094 11.207031 28.960938 11.113281 29 C 11.085938 29.015625 11.050781 29.019531 11.019531 29.019531 C 10.957031 29.019531 10.894531 28.996094 10.84375 28.949219 L 9.535156 27.636719 L 8.226562 28.945312 C 8.15625 29.019531 8.050781 29.039062 7.957031 29 C 7.867188 28.960938 7.804688 28.871094 7.804688 28.773438 L 7.804688 25.308594 L 5.578125 25.308594 Z M 5.578125 33.222656 " fill-opacity="1" fill-rule="nonzero"/></g></svg>