<svg xmlns="http://www.w3.org/2000/svg" xmlns:xlink="http://www.w3.org/1999/xlink" width="50" zoomAndPan="magnify" viewBox="0 0 37.5 37.499999" height="50" preserveAspectRatio="xMidYMid meet" version="1.0"><defs><clipPath id="1f9d3d8904"><path d="M 11 3.65625 L 29 3.65625 L 29 18 L 11 18 Z M 11 3.65625 " clip-rule="nonzero"/></clipPath><clipPath id="9baa6d5f5d"><path d="M 4.574219 27 L 32.699219 27 L 32.699219 33.261719 L 4.574219 33.261719 Z M 4.574219 27 " clip-rule="nonzero"/></clipPath></defs><path fill="#d66708" d="M 30.042969 13.753906 C 30.109375 13.753906 30.171875 13.730469 30.21875 13.679688 C 30.269531 13.632812 30.292969 13.574219 30.292969 13.503906 L 30.292969 9.179688 C 30.292969 9.109375 30.269531 9.050781 30.21875 9 C 30.171875 8.953125 30.109375 8.925781 30.042969 8.925781 C 29.972656 8.925781 29.914062 8.953125 29.863281 9 C 29.816406 9.050781 29.789062 9.109375 29.789062 9.179688 L 29.789062 13.503906 C 29.789062 13.574219 29.816406 13.632812 29.863281 13.679688 C 29.914062 13.730469 29.972656 13.753906 30.042969 13.753906 Z M 30.042969 13.753906 " fill-opacity="1" fill-rule="nonzero"/><path fill="#d66708" d="M 30.042969 15.777344 C 30.109375 15.777344 30.171875 15.753906 30.21875 15.703125 C 30.269531 15.65625 30.292969 15.59375 30.292969 15.527344 L 30.292969 14.753906 C 30.292969 14.683594 30.269531 14.625 30.21875 14.574219 C 30.171875 14.523438 30.109375 14.5 30.042969 14.5 C 29.972656 14.5 29.914062 14.523438 29.863281 14.574219 C 29.816406 14.625 29.789062 14.683594 29.789062 14.753906 L 29.789062 15.527344 C 29.789062 15.59375 29.816406 15.65625 29.863281 15.703125 C 29.914062 15.753906 29.972656 15.777344 30.042969 15.777344 Z M 30.042969 15.777344 " fill-opacity="1" fill-rule="nonzero"/><g clip-path="url(#1f9d3d8904)"><path fill="#d66708" d="M 12.105469 10.964844 L 14.464844 10.964844 C 14.621094 10.964844 14.707031 11.039062 14.726562 11.191406 C 14.734375 11.265625 14.714844 11.332031 14.664062 11.386719 C 14.613281 11.441406 14.550781 11.46875 14.476562 11.46875 L 12.839844 11.46875 C 12.6875 11.46875 12.554688 11.523438 12.449219 11.628906 C 12.339844 11.738281 12.285156 11.867188 12.285156 12.019531 L 12.285156 13.140625 C 12.285156 13.292969 12.339844 13.421875 12.449219 13.53125 C 12.554688 13.636719 12.6875 13.691406 12.839844 13.691406 L 14.464844 13.691406 C 14.621094 13.691406 14.707031 13.765625 14.726562 13.917969 C 14.734375 13.992188 14.714844 14.058594 14.664062 14.113281 C 14.613281 14.167969 14.550781 14.195312 14.476562 14.195312 L 13.3125 14.195312 C 13.183594 14.195312 13.074219 14.242188 12.984375 14.332031 C 12.761719 14.558594 12.652344 14.832031 12.652344 15.144531 L 12.652344 15.722656 C 12.652344 15.84375 12.691406 15.949219 12.769531 16.042969 C 12.84375 16.136719 12.941406 16.195312 13.0625 16.214844 L 16.226562 16.828125 L 19.234375 17.246094 C 20.128906 17.371094 21.019531 17.351562 21.910156 17.1875 L 24.054688 16.792969 C 24.816406 16.652344 25.585938 16.582031 26.359375 16.582031 L 28.402344 16.582031 C 28.488281 16.582031 28.566406 16.550781 28.628906 16.488281 C 28.691406 16.425781 28.722656 16.347656 28.722656 16.257812 L 28.722656 8.3125 C 28.722656 8.222656 28.691406 8.148438 28.628906 8.085938 C 28.566406 8.019531 28.488281 7.988281 28.402344 7.988281 L 26.175781 7.988281 C 25.105469 7.992188 24.179688 7.628906 23.394531 6.902344 L 20.289062 4.039062 C 20.011719 3.78125 19.683594 3.65625 19.308594 3.65625 L 16.050781 3.65625 C 15.859375 3.65625 15.675781 3.691406 15.5 3.765625 C 15.320312 3.839844 15.164062 3.941406 15.03125 4.078125 C 14.894531 4.214844 14.789062 4.371094 14.714844 4.546875 C 14.644531 4.726562 14.605469 4.910156 14.605469 5.101562 L 14.605469 5.714844 L 14.984375 5.714844 C 15.40625 5.714844 15.785156 5.589844 16.128906 5.34375 L 16.882812 4.796875 C 17.011719 4.699219 17.128906 4.710938 17.234375 4.832031 C 17.28125 4.886719 17.300781 4.953125 17.289062 5.023438 C 17.28125 5.09375 17.246094 5.152344 17.1875 5.195312 L 16.425781 5.75 C 15.996094 6.0625 15.515625 6.21875 14.984375 6.21875 L 12.839844 6.21875 C 12.6875 6.21875 12.554688 6.273438 12.449219 6.378906 C 12.339844 6.488281 12.285156 6.617188 12.285156 6.769531 L 12.285156 7.667969 C 12.285156 7.820312 12.339844 7.949219 12.449219 8.058594 C 12.554688 8.164062 12.6875 8.21875 12.839844 8.21875 L 14.464844 8.21875 C 14.621094 8.214844 14.707031 8.292969 14.726562 8.445312 C 14.734375 8.519531 14.714844 8.585938 14.664062 8.640625 C 14.613281 8.695312 14.550781 8.722656 14.476562 8.722656 L 12.105469 8.722656 C 11.953125 8.722656 11.824219 8.777344 11.714844 8.882812 C 11.609375 8.992188 11.554688 9.121094 11.554688 9.273438 L 11.554688 10.414062 C 11.554688 10.566406 11.609375 10.695312 11.714844 10.804688 C 11.824219 10.910156 11.953125 10.964844 12.105469 10.964844 Z M 12.105469 10.964844 " fill-opacity="1" fill-rule="nonzero"/></g><g clip-path="url(#9baa6d5f5d)"><path fill="#d66708" d="M 32.695312 29.050781 C 31.875 29.003906 31.421875 28.742188 30.988281 28.488281 C 30.546875 28.230469 30.128906 27.988281 29.28125 27.988281 C 28.429688 27.988281 28.015625 28.230469 27.574219 28.488281 C 27.09375 28.769531 26.597656 29.054688 25.613281 29.054688 C 24.792969 29.054688 24.300781 28.851562 23.894531 28.628906 C 23.472656 28.394531 23.039062 28.375 22.597656 28.570312 C 22.148438 28.765625 21.863281 29.101562 21.746094 29.578125 C 21.667969 29.890625 21.546875 30.183594 21.378906 30.460938 C 21.210938 30.738281 21.003906 30.980469 20.761719 31.195312 C 20.519531 31.40625 20.25 31.582031 19.957031 31.710938 C 19.660156 31.84375 19.355469 31.929688 19.03125 31.96875 C 18.710938 32.003906 18.394531 31.996094 18.074219 31.9375 C 17.757812 31.878906 17.457031 31.773438 17.171875 31.621094 C 16.886719 31.472656 16.628906 31.28125 16.402344 31.050781 C 16.171875 30.824219 15.984375 30.566406 15.835938 30.28125 C 15.472656 29.59375 14.925781 29.128906 14.1875 28.878906 C 13.910156 28.777344 13.640625 28.648438 13.386719 28.488281 C 12.945312 28.230469 12.53125 27.988281 11.679688 27.988281 C 10.832031 27.988281 10.414062 28.230469 9.972656 28.488281 C 9.496094 28.769531 9 29.054688 8.015625 29.054688 C 7.027344 29.054688 6.535156 28.769531 6.054688 28.488281 C 5.660156 28.257812 5.285156 28.039062 4.597656 27.996094 L 4.597656 33.351562 L 32.695312 33.351562 Z M 32.695312 29.050781 " fill-opacity="1" fill-rule="nonzero"/></g><path fill="#d66708" d="M 19.820312 20.464844 L 19.503906 19.070312 C 19.445312 18.914062 19.316406 18.898438 19.210938 18.992188 L 18.238281 20.042969 C 18.011719 20.28125 17.878906 20.566406 17.84375 20.894531 C 17.804688 21.226562 17.871094 21.53125 18.039062 21.816406 C 18.144531 22.003906 18.304688 22.128906 18.515625 22.183594 C 18.722656 22.238281 18.921875 22.210938 19.109375 22.105469 C 19.394531 21.941406 19.605469 21.707031 19.738281 21.402344 C 19.867188 21.097656 19.898438 20.785156 19.820312 20.464844 Z M 19.820312 20.464844 " fill-opacity="1" fill-rule="nonzero"/><path fill="#d66708" d="M 16.632812 23.257812 L 15.273438 22.828125 C 15.132812 22.796875 15.027344 22.875 15.054688 23.039062 L 15.464844 24.410156 C 15.558594 24.726562 15.738281 24.984375 16.003906 25.183594 C 16.265625 25.378906 16.566406 25.480469 16.894531 25.480469 L 16.902344 25.480469 C 17.117188 25.480469 17.300781 25.40625 17.453125 25.253906 C 17.605469 25.101562 17.683594 24.917969 17.6875 24.703125 C 17.691406 24.371094 17.59375 24.074219 17.398438 23.804688 C 17.207031 23.539062 16.949219 23.355469 16.632812 23.257812 Z M 16.632812 23.257812 " fill-opacity="1" fill-rule="nonzero"/><path fill="#d66708" d="M 18.78125 29.382812 C 19.085938 29.257812 19.324219 29.050781 19.492188 28.765625 C 19.660156 28.480469 19.726562 28.175781 19.691406 27.84375 L 19.546875 26.421875 C 19.511719 26.261719 19.382812 26.230469 19.265625 26.308594 L 18.171875 27.230469 C 17.917969 27.441406 17.753906 27.707031 17.675781 28.027344 C 17.597656 28.351562 17.625 28.664062 17.753906 28.96875 C 17.839844 29.167969 17.980469 29.304688 18.183594 29.386719 C 18.382812 29.46875 18.582031 29.46875 18.78125 29.382812 Z M 18.78125 29.382812 " fill-opacity="1" fill-rule="nonzero"/></svg>