<svg xmlns="http://www.w3.org/2000/svg" xmlns:xlink="http://www.w3.org/1999/xlink" width="50" zoomAndPan="magnify" viewBox="0 0 37.5 37.499999" height="50" preserveAspectRatio="xMidYMid meet" version="1.0"><defs><clipPath id="86c1c94e5f"><path d="M 30 10 L 34.40625 10 L 34.40625 20 L 30 20 Z M 30 10 " clip-rule="nonzero"/></clipPath><clipPath id="695f3b6f46"><path d="M 22 3.828125 L 29 3.828125 L 29 11 L 22 11 Z M 22 3.828125 " clip-rule="nonzero"/></clipPath><clipPath id="38fba72cc2"><path d="M 2.578125 6 L 29 6 L 29 33.433594 L 2.578125 33.433594 Z M 2.578125 6 " clip-rule="nonzero"/></clipPath></defs><path fill="#e48f60" d="M 30.269531 17.210938 C 29.929688 17.015625 29.617188 16.820312 29.332031 16.621094 C 29.332031 15.457031 29.324219 14.292969 29.3125 13.125 C 29.292969 11.910156 28.292969 10.980469 27.078125 10.957031 C 26.714844 10.949219 26.351562 10.953125 25.984375 10.957031 C 24.609375 10.964844 23.640625 11.933594 23.636719 13.304688 C 23.636719 14.078125 23.644531 14.84375 23.632812 15.613281 C 23.628906 15.742188 23.566406 15.9375 23.472656 15.980469 C 22.820312 16.285156 22.152344 16.558594 21.464844 16.847656 C 21.015625 15.90625 20.625 15.046875 20.199219 14.203125 C 19.976562 13.757812 19.871094 13.21875 19.335938 12.980469 C 19.265625 12.945312 19.234375 12.824219 19.191406 12.742188 C 18.78125 11.90625 18.378906 11.066406 17.957031 10.238281 C 17.863281 10.054688 17.722656 9.84375 17.550781 9.765625 C 17.148438 9.582031 16.714844 9.460938 16.289062 9.332031 C 16.015625 9.25 15.800781 9.363281 15.707031 9.632812 C 15.609375 9.910156 15.703125 10.144531 15.984375 10.261719 C 16.195312 10.351562 16.414062 10.429688 16.632812 10.480469 C 16.921875 10.550781 17.09375 10.707031 17.21875 10.976562 C 17.546875 11.699219 17.910156 12.410156 18.257812 13.125 C 18.3125 13.234375 18.402344 13.367188 18.378906 13.460938 C 18.273438 13.890625 18.488281 14.222656 18.65625 14.570312 C 18.859375 14.980469 19.058594 15.394531 19.253906 15.8125 C 19.464844 16.253906 19.664062 16.703125 19.882812 17.175781 C 19.695312 17.226562 19.5625 17.257812 19.4375 17.296875 C 18.792969 17.496094 18.523438 17.988281 18.699219 18.652344 C 18.839844 19.1875 19.363281 19.472656 19.972656 19.339844 C 20.257812 19.277344 20.542969 19.210938 20.832031 19.144531 C 20.96875 19.433594 21.082031 19.695312 21.214844 19.941406 C 21.4375 20.34375 21.824219 20.476562 22.207031 20.300781 C 22.644531 20.097656 22.796875 19.71875 22.617188 19.261719 C 22.546875 19.089844 22.46875 18.921875 22.375 18.71875 C 22.804688 18.570312 23.199219 18.429688 23.621094 18.28125 C 23.746094 19.484375 23.324219 20.71875 24.265625 21.71875 C 24.070312 21.875 23.917969 22.027344 23.734375 22.132812 C 22.773438 22.6875 22.148438 23.492188 21.746094 24.535156 C 21.320312 25.640625 20.777344 26.699219 20.296875 27.785156 C 20.042969 28.363281 20.175781 28.875 20.632812 29.234375 C 21.339844 29.785156 22.191406 29.574219 22.574219 28.734375 C 23.144531 27.5 23.703125 26.253906 24.277344 25.019531 C 24.347656 24.867188 24.445312 24.703125 24.574219 24.601562 C 25.519531 23.886719 26.480469 23.183594 27.4375 22.480469 C 27.542969 22.402344 27.671875 22.351562 27.796875 22.300781 C 28.695312 21.96875 29.3125 21.175781 29.320312 20.210938 C 29.328125 19.261719 29.332031 18.316406 29.332031 17.367188 C 29.699219 17.679688 30.027344 17.9375 30.273438 18.125 L 30.273438 16.996094 C 30.273438 17.066406 30.273438 17.136719 30.273438 17.203125 Z M 30.269531 17.210938 " fill-opacity="1" fill-rule="nonzero"/><g clip-path="url(#86c1c94e5f)"><path fill="#e48f60" d="M 34.5 11.9375 C 34.5 11.261719 34.105469 10.890625 33.433594 10.886719 C 32.746094 10.882812 32.054688 10.882812 31.367188 10.886719 C 30.65625 10.886719 30.273438 11.269531 30.269531 11.988281 C 30.265625 13.070312 30.269531 14.148438 30.269531 15.230469 C 30.269531 15.820312 30.269531 16.410156 30.269531 17 L 30.269531 18.128906 C 30.269531 18.257812 30.269531 18.382812 30.269531 18.511719 C 30.273438 19.25 30.652344 19.625 31.398438 19.628906 C 32.074219 19.632812 32.75 19.636719 33.421875 19.628906 C 34.09375 19.625 34.496094 19.246094 34.5 18.582031 C 34.507812 16.367188 34.507812 14.152344 34.5 11.9375 Z M 34.5 11.9375 " fill-opacity="1" fill-rule="nonzero"/></g><g clip-path="url(#695f3b6f46)"><path fill="#e48f60" d="M 25.304688 10.054688 C 27.003906 10.046875 28.394531 8.652344 28.398438 6.953125 C 28.40625 5.234375 27.003906 3.832031 25.285156 3.835938 C 23.566406 3.835938 22.167969 5.238281 22.171875 6.953125 C 22.175781 8.664062 23.59375 10.066406 25.304688 10.054688 Z M 25.304688 10.054688 " fill-opacity="1" fill-rule="nonzero"/></g><path fill="#e48f60" d="M 29.023438 24.914062 C 28.59375 24.402344 28.160156 23.894531 27.707031 23.363281 C 26.972656 23.910156 26.273438 24.425781 25.605469 24.925781 C 25.890625 25.179688 26.152344 25.367188 26.355469 25.601562 C 27.203125 26.582031 28.035156 27.574219 28.875 28.558594 C 29.375 29.148438 30.066406 29.226562 30.621094 28.765625 C 31.21875 28.261719 31.273438 27.570312 30.753906 26.953125 C 30.179688 26.273438 29.601562 25.59375 29.027344 24.917969 Z M 29.023438 24.914062 " fill-opacity="1" fill-rule="nonzero"/><g clip-path="url(#38fba72cc2)"><path fill="#e48f60" d="M 27.714844 32.46875 C 27.527344 32.339844 27.320312 32.21875 27.101562 32.164062 C 25.9375 31.878906 24.78125 31.53125 23.597656 31.359375 C 20.109375 30.847656 16.589844 30.65625 13.0625 30.597656 C 12.070312 30.578125 11.074219 30.59375 10.058594 30.59375 L 10.058594 28.160156 C 11.476562 28.179688 12.765625 27.886719 13.699219 26.742188 C 14.605469 25.636719 14.867188 24.328125 14.902344 22.910156 C 13.101562 22.933594 11.421875 23.113281 10.070312 24.460938 L 10.070312 20.707031 C 11.773438 20.828125 13.292969 20.46875 14.417969 19.140625 C 15.503906 17.859375 15.84375 16.316406 15.859375 14.65625 C 14.757812 14.589844 13.730469 14.691406 12.71875 14.960938 C 11.6875 15.234375 10.804688 15.765625 10.03125 16.652344 C 10.03125 15.765625 10.046875 15.011719 10.023438 14.257812 C 10.015625 13.933594 10.105469 13.699219 10.339844 13.472656 C 10.839844 12.988281 11.199219 12.410156 11.4375 11.746094 C 12.117188 9.824219 10.867188 7.53125 9.15625 6.140625 C 8.820312 6.523438 8.464844 6.890625 8.152344 7.296875 C 7.878906 7.644531 7.621094 8.015625 7.414062 8.40625 C 6.488281 10.144531 6.585938 11.761719 7.824219 13.140625 C 8.308594 13.679688 8.480469 14.199219 8.421875 14.875 C 8.390625 15.265625 8.414062 15.65625 8.414062 16.050781 C 8.414062 16.21875 8.414062 16.382812 8.414062 16.550781 C 7.632812 15.753906 6.75 15.238281 5.722656 14.960938 C 4.699219 14.683594 3.660156 14.582031 2.578125 14.660156 C 2.589844 16.132812 2.871094 17.503906 3.691406 18.714844 C 4.816406 20.375 6.496094 20.828125 8.390625 20.71875 L 8.390625 24.496094 C 7.71875 23.808594 6.980469 23.390625 6.125 23.183594 C 5.285156 22.980469 4.433594 22.886719 3.535156 22.921875 C 3.558594 24.261719 3.8125 25.484375 4.585938 26.550781 C 5.515625 27.832031 6.867188 28.183594 8.414062 28.160156 C 8.414062 28.90625 8.421875 29.617188 8.398438 30.328125 C 8.398438 30.335938 8.394531 30.34375 8.390625 30.351562 L 8.390625 33.511719 C 14.195312 33.511719 20.003906 33.511719 25.808594 33.511719 C 25.902344 33.511719 26 33.523438 26.089844 33.507812 C 26.609375 33.417969 27.128906 33.347656 27.636719 33.21875 C 27.789062 33.183594 27.96875 33 28.003906 32.847656 C 28.03125 32.746094 27.84375 32.5625 27.710938 32.46875 Z M 27.714844 32.46875 " fill-opacity="1" fill-rule="nonzero"/></g></svg>