<svg xmlns="http://www.w3.org/2000/svg" xmlns:xlink="http://www.w3.org/1999/xlink" width="50" zoomAndPan="magnify" viewBox="0 0 37.5 37.499999" height="50" preserveAspectRatio="xMidYMid meet" version="1.0"><defs><clipPath id="1cd0e3133c"><path d="M 10 3.535156 L 17 3.535156 L 17 10 L 10 10 Z M 10 3.535156 " clip-rule="nonzero"/></clipPath><clipPath id="02008b0080"><path d="M 20 3.535156 L 27 3.535156 L 27 10 L 20 10 Z M 20 3.535156 " clip-rule="nonzero"/></clipPath><clipPath id="984933d38a"><path d="M 12 23 L 25 23 L 25 33.140625 L 12 33.140625 Z M 12 23 " clip-rule="nonzero"/></clipPath><clipPath id="ddfeb156c2"><path d="M 2.589844 19 L 15 19 L 15 30 L 2.589844 30 Z M 2.589844 19 " clip-rule="nonzero"/></clipPath></defs><g clip-path="url(#1cd0e3133c)"><path fill="#d66708" d="M 16.789062 6.765625 C 16.789062 7.195312 16.707031 7.605469 16.542969 8 C 16.382812 8.398438 16.148438 8.746094 15.84375 9.046875 C 15.542969 9.351562 15.195312 9.585938 14.796875 9.746094 C 14.402344 9.910156 13.992188 9.992188 13.5625 9.992188 C 13.136719 9.992188 12.722656 9.910156 12.328125 9.746094 C 11.933594 9.585938 11.582031 9.351562 11.28125 9.046875 C 10.976562 8.746094 10.746094 8.398438 10.582031 8 C 10.417969 7.605469 10.335938 7.195312 10.335938 6.765625 C 10.335938 6.339844 10.417969 5.925781 10.582031 5.53125 C 10.746094 5.136719 10.976562 4.785156 11.28125 4.484375 C 11.582031 4.179688 11.933594 3.949219 12.328125 3.785156 C 12.722656 3.621094 13.136719 3.539062 13.5625 3.539062 C 13.992188 3.539062 14.402344 3.621094 14.796875 3.785156 C 15.195312 3.949219 15.542969 4.179688 15.84375 4.484375 C 16.148438 4.785156 16.382812 5.136719 16.542969 5.53125 C 16.707031 5.925781 16.789062 6.339844 16.789062 6.765625 Z M 16.789062 6.765625 " fill-opacity="1" fill-rule="nonzero"/></g><g clip-path="url(#02008b0080)"><path fill="#d66708" d="M 26.988281 6.765625 C 26.988281 7.195312 26.90625 7.605469 26.746094 8 C 26.582031 8.398438 26.347656 8.746094 26.042969 9.046875 C 25.742188 9.351562 25.394531 9.585938 24.996094 9.746094 C 24.601562 9.910156 24.191406 9.992188 23.761719 9.992188 C 23.335938 9.992188 22.921875 9.910156 22.527344 9.746094 C 22.132812 9.585938 21.78125 9.351562 21.480469 9.046875 C 21.175781 8.746094 20.945312 8.398438 20.78125 8 C 20.617188 7.605469 20.535156 7.195312 20.535156 6.765625 C 20.535156 6.339844 20.617188 5.925781 20.78125 5.53125 C 20.945312 5.136719 21.175781 4.785156 21.480469 4.484375 C 21.78125 4.179688 22.132812 3.949219 22.527344 3.785156 C 22.921875 3.621094 23.335938 3.539062 23.761719 3.539062 C 24.191406 3.539062 24.601562 3.621094 24.996094 3.785156 C 25.394531 3.949219 25.742188 4.179688 26.042969 4.484375 C 26.347656 4.785156 26.582031 5.136719 26.746094 5.53125 C 26.90625 5.925781 26.988281 6.339844 26.988281 6.765625 Z M 26.988281 6.765625 " fill-opacity="1" fill-rule="nonzero"/></g><path fill="#d66708" d="M 22.617188 19.046875 C 22.617188 19.5625 22.519531 20.054688 22.324219 20.53125 C 22.125 21.003906 21.847656 21.425781 21.484375 21.789062 C 21.121094 22.152344 20.703125 22.429688 20.226562 22.628906 C 19.753906 22.824219 19.257812 22.921875 18.746094 22.921875 C 18.230469 22.921875 17.738281 22.824219 17.261719 22.628906 C 16.789062 22.429688 16.367188 22.152344 16.003906 21.789062 C 15.640625 21.425781 15.363281 21.003906 15.167969 20.53125 C 14.96875 20.054688 14.871094 19.5625 14.871094 19.046875 C 14.871094 18.535156 14.96875 18.039062 15.167969 17.566406 C 15.363281 17.09375 15.640625 16.671875 16.003906 16.308594 C 16.367188 15.945312 16.789062 15.667969 17.261719 15.46875 C 17.738281 15.273438 18.230469 15.175781 18.746094 15.175781 C 19.257812 15.175781 19.753906 15.273438 20.226562 15.46875 C 20.703125 15.667969 21.121094 15.945312 21.484375 16.308594 C 21.847656 16.671875 22.125 17.09375 22.324219 17.566406 C 22.519531 18.039062 22.617188 18.535156 22.617188 19.046875 Z M 22.617188 19.046875 " fill-opacity="1" fill-rule="nonzero"/><g clip-path="url(#984933d38a)"><path fill="#d66708" d="M 18.746094 33.25 C 14.769531 33.25 13.34375 32.265625 13.191406 32.152344 C 13.03125 32.03125 12.933594 31.839844 12.933594 31.636719 L 12.933594 29.378906 C 12.933594 26.171875 15.542969 23.566406 18.746094 23.566406 C 21.949219 23.566406 24.554688 26.171875 24.554688 29.378906 L 24.554688 31.636719 C 24.554688 31.839844 24.457031 32.03125 24.296875 32.152344 C 24.148438 32.265625 22.71875 33.25 18.746094 33.25 Z M 18.746094 33.25 " fill-opacity="1" fill-rule="nonzero"/></g><g clip-path="url(#ddfeb156c2)"><path fill="#d66708" d="M 14.03125 24.082031 C 13.398438 21.554688 11.117188 19.675781 8.398438 19.675781 C 5.195312 19.675781 2.589844 22.28125 2.589844 25.488281 L 2.589844 27.746094 C 2.589844 27.949219 2.683594 28.140625 2.847656 28.261719 C 2.996094 28.375 4.425781 29.359375 8.398438 29.359375 C 9.777344 29.359375 10.839844 29.242188 11.660156 29.082031 C 11.742188 27.097656 12.640625 25.320312 14.03125 24.082031 Z M 14.03125 24.082031 " fill-opacity="1" fill-rule="nonzero"/></g><path fill="#d66708" d="M 29.054688 19.675781 C 26.347656 19.675781 24.070312 21.542969 23.429688 24.058594 C 24.839844 25.296875 25.75 27.085938 25.832031 29.089844 C 26.644531 29.242188 27.699219 29.359375 29.054688 29.359375 C 33.027344 29.359375 34.457031 28.375 34.605469 28.261719 C 34.769531 28.140625 34.867188 27.949219 34.867188 27.746094 L 34.867188 25.488281 C 34.867188 22.28125 32.257812 19.675781 29.054688 19.675781 Z M 29.054688 19.675781 " fill-opacity="1" fill-rule="nonzero"/><path fill="#d66708" d="M 32.945312 15.175781 C 32.945312 15.6875 32.847656 16.183594 32.652344 16.65625 C 32.453125 17.132812 32.175781 17.550781 31.8125 17.914062 C 31.449219 18.277344 31.03125 18.558594 30.554688 18.753906 C 30.082031 18.949219 29.585938 19.046875 29.074219 19.046875 C 28.558594 19.046875 28.066406 18.949219 27.589844 18.753906 C 27.117188 18.558594 26.699219 18.277344 26.335938 17.914062 C 25.972656 17.550781 25.691406 17.132812 25.496094 16.65625 C 25.296875 16.183594 25.199219 15.6875 25.199219 15.175781 C 25.199219 14.660156 25.296875 14.167969 25.496094 13.691406 C 25.691406 13.21875 25.972656 12.800781 26.335938 12.4375 C 26.699219 12.074219 27.117188 11.792969 27.589844 11.597656 C 28.066406 11.402344 28.558594 11.300781 29.074219 11.300781 C 29.585938 11.300781 30.082031 11.402344 30.554688 11.597656 C 31.03125 11.792969 31.449219 12.074219 31.8125 12.4375 C 32.175781 12.800781 32.453125 13.21875 32.652344 13.691406 C 32.847656 14.167969 32.945312 14.660156 32.945312 15.175781 Z M 32.945312 15.175781 " fill-opacity="1" fill-rule="nonzero"/><path fill="#d66708" d="M 12.289062 15.175781 C 12.289062 15.6875 12.191406 16.183594 11.996094 16.65625 C 11.796875 17.132812 11.519531 17.550781 11.15625 17.914062 C 10.792969 18.277344 10.371094 18.558594 9.898438 18.753906 C 9.421875 18.949219 8.929688 19.046875 8.414062 19.046875 C 7.902344 19.046875 7.410156 18.949219 6.933594 18.753906 C 6.460938 18.558594 6.039062 18.277344 5.675781 17.914062 C 5.3125 17.550781 5.035156 17.132812 4.835938 16.65625 C 4.640625 16.183594 4.542969 15.6875 4.542969 15.175781 C 4.542969 14.660156 4.640625 14.167969 4.835938 13.691406 C 5.035156 13.21875 5.3125 12.800781 5.675781 12.4375 C 6.039062 12.074219 6.460938 11.792969 6.933594 11.597656 C 7.410156 11.402344 7.902344 11.300781 8.414062 11.300781 C 8.929688 11.300781 9.421875 11.402344 9.898438 11.597656 C 10.371094 11.792969 10.792969 12.074219 11.15625 12.4375 C 11.519531 12.800781 11.796875 13.21875 11.996094 13.691406 C 12.191406 14.167969 12.289062 14.660156 12.289062 15.175781 Z M 12.289062 15.175781 " fill-opacity="1" fill-rule="nonzero"/><path fill="#d66708" d="M 23.910156 19.046875 C 23.910156 19.773438 23.757812 20.460938 23.488281 21.085938 C 24.117188 20.289062 24.914062 19.640625 25.8125 19.175781 C 24.652344 18.226562 23.910156 16.785156 23.910156 15.175781 C 23.910156 13.554688 24.660156 12.109375 25.832031 11.160156 C 25.214844 10.832031 24.519531 10.640625 23.761719 10.640625 C 21.671875 10.640625 19.945312 12.023438 19.417969 13.933594 C 21.945312 14.265625 23.910156 16.429688 23.910156 19.046875 Z M 23.910156 19.046875 " fill-opacity="1" fill-rule="nonzero"/><path fill="#d66708" d="M 13.582031 15.175781 C 13.582031 16.792969 12.832031 18.238281 11.664062 19.183594 C 12.605469 19.671875 13.425781 20.367188 14.0625 21.214844 C 13.757812 20.554688 13.582031 19.824219 13.582031 19.046875 C 13.582031 16.484375 15.460938 14.355469 17.914062 13.957031 C 17.394531 12.035156 15.664062 10.640625 13.5625 10.640625 C 12.84375 10.640625 12.179688 10.808594 11.585938 11.109375 C 12.796875 12.054688 13.582031 13.523438 13.582031 15.175781 Z M 13.582031 15.175781 " fill-opacity="1" fill-rule="nonzero"/></svg>