<svg xmlns="http://www.w3.org/2000/svg" xmlns:xlink="http://www.w3.org/1999/xlink" width="108" zoomAndPan="magnify" viewBox="0 0 81 80.999996" height="108" preserveAspectRatio="xMidYMid meet" version="1.0"><defs><clipPath id="f445a35c8a"><path d="M 0 0 L 80.417969 0 L 80.417969 80.417969 L 0 80.417969 Z M 0 0 " clip-rule="nonzero"/></clipPath><clipPath id="b6ea3b7739"><path d="M 40.210938 0 C 18.003906 0 0 18.003906 0 40.210938 C 0 62.417969 18.003906 80.417969 40.210938 80.417969 C 62.417969 80.417969 80.417969 62.417969 80.417969 40.210938 C 80.417969 18.003906 62.417969 0 40.210938 0 Z M 40.210938 0 " clip-rule="nonzero"/></clipPath><clipPath id="395422178e"><path d="M 9.777344 9.777344 L 70 9.777344 L 70 70 L 9.777344 70 Z M 9.777344 9.777344 " clip-rule="nonzero"/></clipPath></defs><g clip-path="url(#f445a35c8a)"><g clip-path="url(#b6ea3b7739)"><path fill="#fff9f3" d="M 0 0 L 80.417969 0 L 80.417969 80.417969 L 0 80.417969 Z M 0 0 " fill-opacity="1" fill-rule="nonzero"/></g></g><g clip-path="url(#395422178e)"><path fill="#fa8000" d="M 39.609375 9.777344 C 38.632812 9.78125 37.660156 9.828125 36.6875 9.925781 C 35.714844 10.023438 34.75 10.167969 33.792969 10.359375 C 32.835938 10.550781 31.886719 10.785156 30.953125 11.070312 C 30.019531 11.355469 29.101562 11.683594 28.199219 12.058594 C 27.296875 12.433594 26.414062 12.851562 25.554688 13.3125 C 24.691406 13.773438 23.855469 14.273438 23.042969 14.816406 C 22.234375 15.359375 21.449219 15.941406 20.695312 16.5625 C 19.941406 17.179688 19.21875 17.835938 18.527344 18.527344 C 17.835938 19.21875 17.179688 19.941406 16.5625 20.695312 C 15.941406 21.449219 15.359375 22.234375 14.816406 23.042969 C 14.273438 23.855469 13.773438 24.691406 13.3125 25.554688 C 12.851562 26.414062 12.433594 27.296875 12.058594 28.199219 C 11.683594 29.101562 11.355469 30.019531 11.070312 30.953125 C 10.785156 31.886719 10.550781 32.835938 10.359375 33.792969 C 10.167969 34.75 10.023438 35.714844 9.925781 36.6875 C 9.828125 37.660156 9.78125 38.632812 9.777344 39.609375 C 9.792969 40.582031 9.851562 41.554688 9.960938 42.519531 C 10.066406 43.488281 10.222656 44.449219 10.421875 45.398438 C 10.621094 46.351562 10.867188 47.292969 11.15625 48.222656 C 11.449219 49.152344 11.78125 50.0625 12.160156 50.960938 C 12.539062 51.855469 12.960938 52.734375 13.425781 53.589844 C 13.886719 54.445312 14.390625 55.277344 14.933594 56.082031 C 15.480469 56.890625 16.058594 57.667969 16.679688 58.421875 C 17.296875 59.171875 17.949219 59.890625 18.640625 60.578125 C 19.328125 61.269531 20.046875 61.921875 20.796875 62.539062 C 21.550781 63.160156 22.328125 63.742188 23.136719 64.285156 C 23.945312 64.828125 24.773438 65.332031 25.632812 65.792969 C 26.488281 66.257812 27.363281 66.679688 28.257812 67.058594 C 29.15625 67.4375 30.070312 67.769531 30.996094 68.0625 C 31.925781 68.351562 32.867188 68.597656 33.820312 68.796875 C 34.773438 68.996094 35.730469 69.152344 36.699219 69.257812 C 37.667969 69.367188 38.636719 69.425781 39.609375 69.441406 C 43.4375 69.425781 47.128906 68.710938 50.6875 67.292969 C 51.257812 67.691406 51.859375 68.035156 52.488281 68.328125 C 53.121094 68.621094 53.769531 68.859375 54.441406 69.039062 C 55.113281 69.21875 55.796875 69.335938 56.488281 69.394531 C 57.183594 69.457031 57.875 69.457031 58.570312 69.394531 C 59.261719 69.332031 59.945312 69.210938 60.617188 69.03125 C 61.285156 68.851562 61.9375 68.613281 62.566406 68.316406 C 63.199219 68.023438 63.796875 67.675781 64.367188 67.277344 C 64.9375 66.878906 65.46875 66.433594 65.957031 65.941406 C 66.449219 65.449219 66.894531 64.917969 67.292969 64.347656 C 67.691406 63.777344 68.039062 63.175781 68.332031 62.546875 C 68.625 61.917969 68.863281 61.265625 69.042969 60.59375 C 69.222656 59.921875 69.34375 59.238281 69.402344 58.546875 C 69.464844 57.855469 69.464844 57.160156 69.402344 56.46875 C 69.34375 55.773438 69.222656 55.09375 69.042969 54.421875 C 68.863281 53.75 68.625 53.097656 68.332031 52.46875 C 68.039062 51.835938 67.691406 51.238281 67.292969 50.667969 C 68.734375 47.121094 69.449219 43.4375 69.441406 39.609375 C 69.441406 38.632812 69.390625 37.660156 69.292969 36.6875 C 69.195312 35.714844 69.054688 34.75 68.863281 33.792969 C 68.671875 32.835938 68.433594 31.886719 68.148438 30.953125 C 67.863281 30.019531 67.535156 29.101562 67.160156 28.199219 C 66.785156 27.296875 66.367188 26.414062 65.90625 25.554688 C 65.445312 24.691406 64.945312 23.855469 64.402344 23.042969 C 63.859375 22.234375 63.277344 21.449219 62.660156 20.695312 C 62.039062 19.941406 61.382812 19.21875 60.691406 18.527344 C 60.003906 17.835938 59.28125 17.179688 58.523438 16.5625 C 57.769531 15.941406 56.988281 15.359375 56.175781 14.816406 C 55.363281 14.273438 54.527344 13.773438 53.664062 13.3125 C 52.804688 12.851562 51.921875 12.433594 51.019531 12.058594 C 50.117188 11.683594 49.199219 11.355469 48.265625 11.070312 C 47.332031 10.785156 46.382812 10.550781 45.425781 10.359375 C 44.46875 10.167969 43.503906 10.023438 42.53125 9.925781 C 41.5625 9.828125 40.585938 9.78125 39.609375 9.777344 Z M 39.609375 23.699219 C 40.261719 23.699219 40.910156 23.761719 41.550781 23.890625 C 42.191406 24.019531 42.8125 24.207031 43.414062 24.457031 C 44.019531 24.707031 44.589844 25.011719 45.132812 25.375 C 45.675781 25.738281 46.179688 26.152344 46.640625 26.613281 C 47.101562 27.074219 47.515625 27.574219 47.878906 28.117188 C 48.242188 28.660156 48.546875 29.234375 48.796875 29.839844 C 49.046875 30.441406 49.234375 31.0625 49.363281 31.703125 C 49.488281 32.34375 49.554688 32.992188 49.554688 33.644531 C 49.554688 34.296875 49.488281 34.941406 49.363281 35.582031 C 49.234375 36.222656 49.046875 36.84375 48.796875 37.449219 C 48.546875 38.050781 48.242188 38.625 47.878906 39.167969 C 47.515625 39.710938 47.101562 40.214844 46.640625 40.675781 C 46.179688 41.136719 45.675781 41.546875 45.132812 41.910156 C 44.589844 42.273438 44.019531 42.582031 43.414062 42.832031 C 42.8125 43.082031 42.191406 43.269531 41.550781 43.394531 C 40.910156 43.523438 40.261719 43.585938 39.609375 43.585938 C 38.957031 43.585938 38.308594 43.523438 37.667969 43.394531 C 37.03125 43.269531 36.40625 43.082031 35.804688 42.832031 C 35.199219 42.582031 34.628906 42.273438 34.085938 41.910156 C 33.542969 41.546875 33.039062 41.136719 32.578125 40.675781 C 32.117188 40.214844 31.703125 39.710938 31.339844 39.167969 C 30.980469 38.625 30.671875 38.050781 30.421875 37.449219 C 30.171875 36.84375 29.984375 36.222656 29.855469 35.582031 C 29.730469 34.941406 29.664062 34.296875 29.664062 33.644531 C 29.664062 32.992188 29.730469 32.34375 29.855469 31.703125 C 29.984375 31.0625 30.171875 30.441406 30.421875 29.839844 C 30.671875 29.234375 30.980469 28.660156 31.339844 28.117188 C 31.703125 27.574219 32.117188 27.074219 32.578125 26.613281 C 33.039062 26.152344 33.542969 25.738281 34.085938 25.375 C 34.628906 25.011719 35.199219 24.707031 35.804688 24.457031 C 36.40625 24.207031 37.03125 24.019531 37.667969 23.890625 C 38.308594 23.761719 38.957031 23.699219 39.609375 23.699219 Z M 47.636719 64.179688 C 46.4375 64.574219 45.210938 64.878906 43.964844 65.09375 C 42.714844 65.304688 41.460938 65.429688 40.195312 65.457031 C 38.929688 65.484375 37.667969 65.421875 36.414062 65.261719 C 35.15625 65.105469 33.921875 64.855469 32.703125 64.515625 C 31.484375 64.175781 30.296875 63.75 29.140625 63.234375 C 27.984375 62.71875 26.871094 62.121094 25.804688 61.441406 C 24.738281 60.761719 23.726562 60.007812 22.769531 59.179688 C 21.8125 58.347656 20.921875 57.453125 20.097656 56.492188 C 20.960938 55.496094 21.894531 54.570312 22.902344 53.714844 C 23.90625 52.859375 24.972656 52.085938 26.09375 51.394531 C 27.21875 50.703125 28.386719 50.101562 29.605469 49.589844 C 30.820312 49.078125 32.066406 48.660156 33.347656 48.339844 C 34.628906 48.019531 35.925781 47.796875 37.238281 47.675781 C 38.550781 47.554688 39.867188 47.53125 41.183594 47.609375 C 42.5 47.691406 43.804688 47.871094 45.09375 48.148438 C 46.382812 48.425781 47.644531 48.804688 48.878906 49.273438 C 47.820312 50.382812 47.003906 51.648438 46.433594 53.074219 C 45.863281 54.496094 45.578125 55.976562 45.574219 57.507812 C 45.566406 59.945312 46.253906 62.171875 47.636719 64.179688 Z M 57.507812 65.464844 C 56.988281 65.457031 56.472656 65.398438 55.964844 65.292969 C 55.453125 65.1875 54.960938 65.03125 54.480469 64.832031 C 54 64.628906 53.546875 64.382812 53.113281 64.089844 C 52.679688 63.800781 52.28125 63.472656 51.914062 63.101562 C 51.546875 62.734375 51.214844 62.335938 50.925781 61.902344 C 50.636719 61.472656 50.390625 61.015625 50.1875 60.535156 C 49.984375 60.058594 49.828125 59.5625 49.722656 59.054688 C 49.617188 58.542969 49.558594 58.027344 49.554688 57.507812 C 49.554688 56.984375 49.605469 56.46875 49.707031 55.957031 C 49.808594 55.445312 49.960938 54.945312 50.160156 54.464844 C 50.359375 53.980469 50.605469 53.523438 50.894531 53.089844 C 51.183594 52.65625 51.515625 52.253906 51.882812 51.882812 C 52.253906 51.515625 52.65625 51.183594 53.089844 50.894531 C 53.523438 50.605469 53.980469 50.359375 54.464844 50.160156 C 54.945312 49.960938 55.445312 49.808594 55.957031 49.707031 C 56.46875 49.605469 56.984375 49.554688 57.507812 49.554688 C 58.03125 49.554688 58.546875 49.605469 59.058594 49.707031 C 59.574219 49.808594 60.070312 49.960938 60.550781 50.160156 C 61.035156 50.359375 61.492188 50.605469 61.929688 50.894531 C 62.363281 51.183594 62.765625 51.515625 63.132812 51.882812 C 63.503906 52.253906 63.832031 52.65625 64.121094 53.089844 C 64.414062 53.523438 64.65625 53.980469 64.859375 54.464844 C 65.058594 54.945312 65.207031 55.445312 65.308594 55.957031 C 65.414062 56.46875 65.464844 56.984375 65.464844 57.507812 C 65.464844 58.03125 65.414062 58.546875 65.308594 59.058594 C 65.207031 59.574219 65.058594 60.070312 64.859375 60.550781 C 64.65625 61.035156 64.414062 61.492188 64.121094 61.929688 C 63.832031 62.363281 63.503906 62.765625 63.132812 63.132812 C 62.765625 63.503906 62.363281 63.832031 61.929688 64.121094 C 61.492188 64.414062 61.035156 64.65625 60.550781 64.859375 C 60.070312 65.058594 59.574219 65.207031 59.058594 65.308594 C 58.546875 65.414062 58.03125 65.464844 57.507812 65.464844 Z M 57.507812 65.464844 " fill-opacity="1" fill-rule="nonzero"/></g><path fill="#fa8000" d="M 61.484375 55.519531 L 59.496094 55.519531 L 59.496094 53.53125 C 59.496094 53.265625 59.445312 53.011719 59.34375 52.769531 C 59.246094 52.527344 59.101562 52.3125 58.914062 52.125 C 58.726562 51.9375 58.511719 51.792969 58.269531 51.695312 C 58.027344 51.59375 57.773438 51.542969 57.507812 51.542969 C 57.246094 51.542969 56.992188 51.59375 56.746094 51.695312 C 56.503906 51.792969 56.289062 51.9375 56.101562 52.125 C 55.914062 52.3125 55.773438 52.527344 55.671875 52.769531 C 55.570312 53.011719 55.519531 53.265625 55.519531 53.53125 L 55.519531 55.519531 L 53.53125 55.519531 C 53.265625 55.519531 53.011719 55.570312 52.769531 55.671875 C 52.527344 55.773438 52.3125 55.914062 52.125 56.101562 C 51.9375 56.289062 51.792969 56.503906 51.695312 56.746094 C 51.59375 56.992188 51.542969 57.246094 51.542969 57.507812 C 51.542969 57.773438 51.59375 58.027344 51.695312 58.269531 C 51.792969 58.511719 51.9375 58.726562 52.125 58.914062 C 52.3125 59.101562 52.527344 59.246094 52.769531 59.34375 C 53.011719 59.445312 53.265625 59.496094 53.53125 59.496094 L 55.519531 59.496094 L 55.519531 61.484375 C 55.519531 61.75 55.570312 62.003906 55.671875 62.246094 C 55.773438 62.492188 55.914062 62.707031 56.101562 62.890625 C 56.289062 63.078125 56.503906 63.222656 56.746094 63.324219 C 56.992188 63.425781 57.246094 63.472656 57.507812 63.472656 C 57.773438 63.472656 58.027344 63.425781 58.269531 63.324219 C 58.511719 63.222656 58.726562 63.078125 58.914062 62.890625 C 59.101562 62.707031 59.246094 62.492188 59.34375 62.246094 C 59.445312 62.003906 59.496094 61.75 59.496094 61.484375 L 59.496094 59.496094 L 61.484375 59.496094 C 61.75 59.496094 62.003906 59.445312 62.246094 59.34375 C 62.492188 59.246094 62.707031 59.101562 62.890625 58.914062 C 63.078125 58.726562 63.222656 58.511719 63.324219 58.269531 C 63.425781 58.027344 63.472656 57.773438 63.472656 57.507812 C 63.472656 57.246094 63.425781 56.992188 63.324219 56.746094 C 63.222656 56.503906 63.078125 56.289062 62.890625 56.101562 C 62.707031 55.914062 62.492188 55.773438 62.246094 55.671875 C 62.003906 55.570312 61.75 55.519531 61.484375 55.519531 Z M 61.484375 55.519531 " fill-opacity="1" fill-rule="nonzero"/></svg>