<svg xmlns="http://www.w3.org/2000/svg" xmlns:xlink="http://www.w3.org/1999/xlink" width="108" zoomAndPan="magnify" viewBox="0 0 81 80.999996" height="108" preserveAspectRatio="xMidYMid meet" version="1.0"><defs><clipPath id="3913d5a775"><path d="M 0 0 L 80.417969 0 L 80.417969 80.417969 L 0 80.417969 Z M 0 0 " clip-rule="nonzero"/></clipPath><clipPath id="52fe9fa1e4"><path d="M 40.210938 0 C 18.003906 0 0 18.003906 0 40.210938 C 0 62.417969 18.003906 80.417969 40.210938 80.417969 C 62.417969 80.417969 80.417969 62.417969 80.417969 40.210938 C 80.417969 18.003906 62.417969 0 40.210938 0 Z M 40.210938 0 " clip-rule="nonzero"/></clipPath><clipPath id="bcd80b13fc"><path d="M 12.300781 13.3125 L 67.800781 13.3125 L 67.800781 67.3125 L 12.300781 67.3125 Z M 12.300781 13.3125 " clip-rule="nonzero"/></clipPath></defs><g clip-path="url(#3913d5a775)"><g clip-path="url(#52fe9fa1e4)"><path fill="#e8fff4" d="M 0 0 L 80.417969 0 L 80.417969 80.417969 L 0 80.417969 Z M 0 0 " fill-opacity="1" fill-rule="nonzero"/></g></g><g clip-path="url(#bcd80b13fc)"><path fill="#00bf63" d="M 53.386719 26.863281 C 53.648438 27.125 53.648438 27.648438 53.320312 27.910156 C 53.058594 28.171875 52.535156 28.171875 52.273438 27.84375 C 51.425781 26.925781 50.902344 25.75 50.640625 24.574219 C 50.441406 23.328125 50.574219 22.085938 51.03125 20.910156 C 51.488281 19.730469 52.273438 18.75 53.257812 18.03125 C 54.238281 17.3125 55.414062 16.789062 56.65625 16.722656 C 57.902344 16.589844 59.144531 16.789062 60.191406 17.3125 C 61.238281 17.835938 62.152344 18.617188 62.808594 19.664062 C 63.265625 20.515625 63.984375 21.171875 64.835938 21.5625 C 65.6875 21.957031 66.667969 22.152344 67.648438 22.085938 C 67.78125 22.085938 67.976562 22.019531 68.105469 22.019531 L 68.105469 23.527344 C 68.042969 23.527344 67.910156 23.589844 67.78125 23.589844 C 66.472656 23.722656 65.226562 23.460938 64.179688 22.871094 C 63.070312 22.347656 62.152344 21.496094 61.5 20.449219 C 60.976562 19.601562 60.320312 19.011719 59.535156 18.683594 C 58.75 18.292969 57.769531 18.097656 56.789062 18.226562 C 55.808594 18.292969 54.890625 18.617188 54.105469 19.207031 C 53.386719 19.796875 52.796875 20.582031 52.40625 21.496094 C 52.078125 22.414062 51.949219 23.328125 52.144531 24.3125 C 52.339844 25.226562 52.734375 26.078125 53.386719 26.863281 Z M 50.507812 13.320312 L 53.453125 16.265625 C 53.058594 16.460938 52.734375 16.65625 52.40625 16.917969 C 51.226562 17.835938 50.246094 19.011719 49.722656 20.386719 C 49.394531 21.234375 49.199219 22.085938 49.199219 22.9375 C 49.070312 23.003906 49.003906 23.066406 48.9375 23.199219 C 47.367188 24.769531 47.367188 27.320312 48.9375 28.824219 C 50.507812 30.394531 52.996094 30.394531 54.566406 28.824219 C 56.132812 27.253906 56.132812 24.769531 54.566406 23.199219 C 54.304688 22.871094 53.910156 22.609375 53.519531 22.414062 C 53.582031 22.28125 53.648438 22.152344 53.714844 21.957031 C 53.976562 21.300781 54.367188 20.710938 54.957031 20.320312 C 55.480469 19.925781 56.132812 19.664062 56.789062 19.601562 L 64.441406 27.253906 L 64.441406 36.085938 L 61.890625 38.636719 C 61.171875 39.359375 60.453125 40.144531 59.667969 40.863281 C 59.273438 40.011719 58.554688 39.421875 57.640625 38.964844 C 57.179688 38.769531 56.722656 38.636719 56.265625 38.507812 C 56.070312 38.441406 55.742188 38.3125 55.609375 38.246094 L 55.023438 37.851562 L 54.367188 38.113281 C 53.058594 38.636719 51.226562 39.621094 50.703125 41.058594 C 50.574219 41.125 50.507812 41.191406 50.441406 41.253906 C 49.984375 41.714844 49.65625 42.300781 49.527344 42.957031 C 49.332031 43.542969 49.265625 44.265625 49.332031 44.851562 L 49.394531 45.703125 C 49.265625 45.835938 49.132812 46.03125 49.070312 46.226562 C 49.003906 46.488281 48.9375 46.683594 48.9375 46.945312 C 48.9375 47.078125 48.9375 47.273438 48.9375 47.46875 C 48.9375 47.601562 49.003906 47.796875 49.003906 47.929688 C 49.070312 48.058594 49.070312 48.253906 49.132812 48.386719 C 49.132812 48.582031 49.199219 48.777344 49.265625 48.976562 C 49.265625 49.105469 49.332031 49.300781 49.394531 49.433594 C 49.460938 49.628906 49.527344 49.824219 49.65625 49.957031 C 49.722656 50.152344 49.855469 50.28125 49.984375 50.414062 C 49.265625 51.132812 48.546875 51.917969 47.761719 52.636719 C 47.105469 52.769531 46.453125 52.964844 45.796875 53.160156 C 44.621094 53.554688 43.507812 54.144531 42.855469 55.191406 C 42.265625 55.777344 42.003906 56.5625 41.808594 57.347656 C 41.675781 57.742188 41.609375 58.394531 41.609375 58.851562 C 39.648438 60.882812 37.75 62.777344 35.65625 64.9375 C 35.070312 65.460938 34.152344 65.460938 33.5625 64.9375 L 12.824219 44.199219 C 12.300781 43.609375 12.300781 42.695312 12.824219 42.105469 L 41.675781 13.320312 Z M 55.085938 55.320312 L 56.003906 55.84375 C 56.132812 55.910156 56.070312 56.105469 56.003906 56.300781 L 55.675781 57.023438 C 55.609375 57.152344 55.480469 57.9375 55.546875 58.066406 L 55.675781 58.265625 L 56.132812 60.097656 L 56.332031 64.9375 C 56.332031 65.070312 56.394531 65.132812 56.460938 65.132812 C 56.59375 65.132812 56.65625 65.070312 56.65625 65.003906 C 57.703125 60.816406 59.339844 58.265625 59.011719 53.554688 C 59.011719 53.488281 59.078125 53.421875 59.078125 53.421875 C 59.144531 53.421875 59.210938 53.421875 59.273438 53.421875 C 61.566406 53.945312 64.574219 54.40625 65.6875 56.039062 C 66.011719 56.300781 66.210938 56.628906 66.472656 57.742188 C 66.667969 58.394531 66.929688 63.957031 67.191406 65.003906 C 67.257812 65.460938 67.191406 65.917969 66.929688 66.375 C 66.601562 66.769531 66.210938 67.03125 65.75 67.097656 L 43.835938 67.097656 C 43.378906 67.03125 42.917969 66.769531 42.65625 66.375 C 42.394531 65.917969 42.265625 65.460938 42.394531 65.003906 C 42.65625 63.957031 42.917969 58.394531 43.050781 57.742188 C 43.378906 56.628906 43.574219 56.300781 43.902344 56.039062 C 44.6875 54.535156 47.171875 54.207031 50.3125 53.421875 C 50.378906 53.421875 50.378906 53.421875 50.441406 53.421875 C 50.507812 53.421875 50.507812 53.488281 50.507812 53.554688 C 50.246094 58.265625 51.882812 60.816406 52.863281 65.003906 C 52.929688 65.070312 52.996094 65.132812 53.058594 65.132812 C 53.191406 65.132812 53.257812 65.070312 53.257812 64.9375 L 53.453125 60.097656 L 53.910156 58.265625 L 53.976562 58.132812 C 54.042969 58.003906 53.976562 57.21875 53.84375 57.085938 L 53.453125 56.300781 C 53.386719 56.105469 53.320312 55.910156 53.453125 55.84375 L 54.238281 55.386719 L 51.949219 53.359375 C 51.882812 53.226562 51.816406 53.160156 51.816406 53.03125 L 51.816406 51.589844 C 51.554688 51.066406 51.359375 50.414062 51.292969 49.695312 C 51.226562 49.628906 51.226562 49.628906 51.164062 49.628906 C 51.097656 49.5625 51.03125 49.5625 50.964844 49.5 C 50.902344 49.433594 50.835938 49.367188 50.769531 49.300781 C 50.703125 49.171875 50.703125 49.105469 50.640625 48.976562 C 50.574219 48.84375 50.574219 48.714844 50.507812 48.582031 C 50.507812 48.453125 50.441406 48.253906 50.378906 48.125 C 50.378906 47.992188 50.378906 47.863281 50.3125 47.730469 C 50.3125 47.601562 50.3125 47.46875 50.3125 47.339844 C 50.3125 47.207031 50.246094 47.144531 50.3125 47.011719 C 50.3125 46.882812 50.3125 46.816406 50.3125 46.683594 C 50.378906 46.621094 50.441406 46.488281 50.507812 46.421875 C 50.574219 46.359375 50.703125 46.292969 50.769531 46.292969 L 50.640625 44.789062 C 50.640625 44.328125 50.640625 43.804688 50.769531 43.28125 C 50.902344 42.890625 51.097656 42.496094 51.359375 42.234375 C 51.488281 42.105469 51.6875 42.105469 51.882812 42.105469 C 51.949219 42.039062 51.949219 42.105469 51.949219 42.039062 C 51.949219 42.039062 51.882812 41.976562 51.882812 41.976562 C 51.75 40.796875 53.910156 39.75 54.890625 39.359375 C 55.742188 40.011719 58.359375 39.882812 58.75 42.367188 C 58.949219 42.890625 58.949219 43.152344 58.949219 43.675781 C 58.949219 43.742188 58.949219 43.804688 58.949219 43.871094 C 58.949219 44.066406 59.011719 44.132812 59.011719 44.265625 C 59.011719 44.589844 59.011719 44.984375 59.011719 45.3125 C 59.011719 45.636719 58.949219 45.964844 58.949219 46.292969 C 59.078125 46.359375 59.144531 46.359375 59.210938 46.421875 C 59.339844 46.554688 59.40625 46.621094 59.40625 46.75 C 59.472656 46.882812 59.472656 47.011719 59.472656 47.144531 C 59.472656 47.273438 59.472656 47.40625 59.472656 47.535156 C 59.472656 47.667969 59.40625 47.796875 59.40625 47.929688 C 59.40625 48.058594 59.339844 48.191406 59.339844 48.320312 C 59.339844 48.453125 59.273438 48.582031 59.210938 48.714844 C 59.210938 48.84375 59.144531 48.910156 59.078125 49.039062 C 59.078125 49.171875 59.011719 49.238281 58.949219 49.300781 C 58.949219 49.367188 58.882812 49.433594 58.816406 49.5 C 58.75 49.5625 58.6875 49.5625 58.554688 49.628906 C 58.488281 49.628906 58.425781 49.695312 58.359375 49.695312 L 58.359375 50.347656 C 58.292969 50.609375 58.292969 50.804688 58.164062 51.003906 C 58.03125 51.394531 57.835938 51.722656 57.574219 51.984375 L 57.574219 53.03125 C 57.574219 53.160156 57.574219 53.226562 57.441406 53.359375 Z M 61.171875 59.179688 L 62.9375 59.179688 C 63.070312 59.179688 63.199219 59.246094 63.199219 59.375 L 63.199219 60.621094 C 63.199219 61.273438 62.675781 61.730469 62.023438 61.730469 C 61.433594 61.730469 60.910156 61.273438 60.910156 60.621094 L 60.910156 59.441406 C 60.910156 59.3125 61.042969 59.179688 61.171875 59.179688 Z M 61.171875 59.179688 " fill-opacity="1" fill-rule="nonzero"/></g></svg>