<svg xmlns="http://www.w3.org/2000/svg" xmlns:xlink="http://www.w3.org/1999/xlink" width="150" zoomAndPan="magnify" viewBox="0 0 112.5 112.499997" height="150" preserveAspectRatio="xMidYMid meet" version="1.0"><defs><clipPath id="4257b98de0"><path d="M 0 0 L 112.003906 0 L 112.003906 112.003906 L 0 112.003906 Z M 0 0 " clip-rule="nonzero"/></clipPath><clipPath id="3cf705d041"><path d="M 56 0 C 25.074219 0 0 25.074219 0 56 C 0 86.929688 25.074219 112.003906 56 112.003906 C 86.929688 112.003906 112.003906 86.929688 112.003906 56 C 112.003906 25.074219 86.929688 0 56 0 Z M 56 0 " clip-rule="nonzero"/></clipPath><radialGradient gradientTransform="matrix(1, 0, 0, 1, 0.0000015, 0.000000995575)" gradientUnits="userSpaceOnUse" r="79.197376" cx="56.001105" id="9b024a9764" cy="56.001105" fx="56.001105" fy="56.001105"><stop stop-opacity="1" stop-color="rgb(91.993713%, 99.54834%, 100%)" offset="0"/><stop stop-opacity="1" stop-color="rgb(92.356873%, 99.455261%, 100%)" offset="0.03125"/><stop stop-opacity="1" stop-color="rgb(92.695618%, 99.36676%, 100%)" offset="0.0585938"/><stop stop-opacity="1" stop-color="rgb(93.034363%, 99.279785%, 100%)" offset="0.0859375"/><stop stop-opacity="1" stop-color="rgb(93.373108%, 99.19281%, 100%)" offset="0.113281"/><stop stop-opacity="1" stop-color="rgb(93.687439%, 99.110413%, 100%)" offset="0.140625"/><stop stop-opacity="1" stop-color="rgb(93.978882%, 99.035645%, 100%)" offset="0.164062"/><stop stop-opacity="1" stop-color="rgb(94.268799%, 98.960876%, 100%)" offset="0.1875"/><stop stop-opacity="1" stop-color="rgb(94.560242%, 98.886108%, 100%)" offset="0.210938"/><stop stop-opacity="1" stop-color="rgb(94.850159%, 98.81134%, 100%)" offset="0.234375"/><stop stop-opacity="1" stop-color="rgb(95.117188%, 98.742676%, 100%)" offset="0.257812"/><stop stop-opacity="1" stop-color="rgb(95.358276%, 98.680115%, 100%)" offset="0.277344"/><stop stop-opacity="1" stop-color="rgb(95.600891%, 98.617554%, 100%)" offset="0.296875"/><stop stop-opacity="1" stop-color="rgb(95.843506%, 98.554993%, 100%)" offset="0.316406"/><stop stop-opacity="1" stop-color="rgb(96.086121%, 98.492432%, 100%)" offset="0.335938"/><stop stop-opacity="1" stop-color="rgb(96.327209%, 98.429871%, 100%)" offset="0.355469"/><stop stop-opacity="1" stop-color="rgb(96.569824%, 98.36731%, 100%)" offset="0.375"/><stop stop-opacity="1" stop-color="rgb(96.788025%, 98.310852%, 100%)" offset="0.394531"/><stop stop-opacity="1" stop-color="rgb(96.981812%, 98.260498%, 100%)" offset="0.410156"/><stop stop-opacity="1" stop-color="rgb(97.175598%, 98.21167%, 100%)" offset="0.425781"/><stop stop-opacity="1" stop-color="rgb(97.467041%, 98.136902%, 100%)" offset="0.441406"/><stop stop-opacity="1" stop-color="rgb(97.756958%, 98.060608%, 100%)" offset="0.472656"/><stop stop-opacity="1" stop-color="rgb(97.901917%, 98.023987%, 100%)" offset="0.488281"/><stop stop-opacity="1" stop-color="rgb(97.975159%, 98.005676%, 100%)" offset="0.496094"/><stop stop-opacity="1" stop-color="rgb(97.648621%, 97.683716%, 100%)" offset="0.5"/><stop stop-opacity="1" stop-color="rgb(96.946716%, 97.053528%, 100%)" offset="0.503906"/><stop stop-opacity="1" stop-color="rgb(96.244812%, 96.421814%, 100%)" offset="0.507812"/><stop stop-opacity="1" stop-color="rgb(95.542908%, 95.791626%, 100%)" offset="0.511719"/><stop stop-opacity="1" stop-color="rgb(94.842529%, 95.161438%, 100%)" offset="0.515625"/><stop stop-opacity="1" stop-color="rgb(94.140625%, 94.53125%, 100%)" offset="0.519531"/><stop stop-opacity="1" stop-color="rgb(93.438721%, 93.901062%, 100%)" offset="0.523438"/><stop stop-opacity="1" stop-color="rgb(92.736816%, 93.269348%, 100%)" offset="0.527344"/><stop stop-opacity="1" stop-color="rgb(92.036438%, 92.63916%, 100%)" offset="0.53125"/><stop stop-opacity="1" stop-color="rgb(91.334534%, 92.008972%, 100%)" offset="0.535156"/><stop stop-opacity="1" stop-color="rgb(90.632629%, 91.378784%, 100%)" offset="0.539062"/><stop stop-opacity="1" stop-color="rgb(89.930725%, 90.748596%, 100%)" offset="0.542969"/><stop stop-opacity="1" stop-color="rgb(89.228821%, 90.118408%, 100%)" offset="0.546875"/><stop stop-opacity="1" stop-color="rgb(88.528442%, 89.486694%, 100%)" offset="0.550781"/><stop stop-opacity="1" stop-color="rgb(87.826538%, 88.856506%, 100%)" offset="0.554688"/><stop stop-opacity="1" stop-color="rgb(87.124634%, 88.226318%, 100%)" offset="0.558594"/><stop stop-opacity="1" stop-color="rgb(86.422729%, 87.59613%, 100%)" offset="0.5625"/><stop stop-opacity="1" stop-color="rgb(85.722351%, 86.965942%, 100%)" offset="0.566406"/><stop stop-opacity="1" stop-color="rgb(85.020447%, 86.334229%, 100%)" offset="0.570312"/><stop stop-opacity="1" stop-color="rgb(84.318542%, 85.704041%, 100%)" offset="0.574219"/><stop stop-opacity="1" stop-color="rgb(83.616638%, 85.073853%, 100%)" offset="0.578125"/><stop stop-opacity="1" stop-color="rgb(82.914734%, 84.443665%, 100%)" offset="0.582031"/><stop stop-opacity="1" stop-color="rgb(82.214355%, 83.813477%, 100%)" offset="0.585938"/><stop stop-opacity="1" stop-color="rgb(81.512451%, 83.183289%, 100%)" offset="0.589844"/><stop stop-opacity="1" stop-color="rgb(80.810547%, 82.551575%, 100%)" offset="0.59375"/><stop stop-opacity="1" stop-color="rgb(80.108643%, 81.921387%, 100%)" offset="0.597656"/><stop stop-opacity="1" stop-color="rgb(79.408264%, 81.291199%, 100%)" offset="0.601562"/><stop stop-opacity="1" stop-color="rgb(78.70636%, 80.661011%, 100%)" offset="0.605469"/><stop stop-opacity="1" stop-color="rgb(78.004456%, 80.030823%, 100%)" offset="0.609375"/><stop stop-opacity="1" stop-color="rgb(77.302551%, 79.399109%, 100%)" offset="0.613281"/><stop stop-opacity="1" stop-color="rgb(76.602173%, 78.768921%, 100%)" offset="0.617188"/><stop stop-opacity="1" stop-color="rgb(75.900269%, 78.138733%, 100%)" offset="0.621094"/><stop stop-opacity="1" stop-color="rgb(75.198364%, 77.508545%, 100%)" offset="0.625"/><stop stop-opacity="1" stop-color="rgb(74.49646%, 76.878357%, 100%)" offset="0.628906"/><stop stop-opacity="1" stop-color="rgb(73.794556%, 76.248169%, 100%)" offset="0.632812"/><stop stop-opacity="1" stop-color="rgb(73.094177%, 75.616455%, 100%)" offset="0.636719"/><stop stop-opacity="1" stop-color="rgb(72.392273%, 74.986267%, 100%)" offset="0.640625"/><stop stop-opacity="1" stop-color="rgb(71.690369%, 74.356079%, 100%)" offset="0.644531"/><stop stop-opacity="1" stop-color="rgb(70.988464%, 73.725891%, 100%)" offset="0.648438"/><stop stop-opacity="1" stop-color="rgb(70.288086%, 73.095703%, 100%)" offset="0.652344"/><stop stop-opacity="1" stop-color="rgb(69.586182%, 72.463989%, 100%)" offset="0.65625"/><stop stop-opacity="1" stop-color="rgb(68.884277%, 71.833801%, 100%)" offset="0.660156"/><stop stop-opacity="1" stop-color="rgb(68.182373%, 71.203613%, 100%)" offset="0.664062"/><stop stop-opacity="1" stop-color="rgb(67.480469%, 70.573425%, 100%)" offset="0.667969"/><stop stop-opacity="1" stop-color="rgb(66.78009%, 69.943237%, 100%)" offset="0.671875"/><stop stop-opacity="1" stop-color="rgb(66.078186%, 69.313049%, 100%)" offset="0.675781"/><stop stop-opacity="1" stop-color="rgb(65.376282%, 68.681335%, 100%)" offset="0.679688"/><stop stop-opacity="1" stop-color="rgb(64.674377%, 68.051147%, 100%)" offset="0.683594"/><stop stop-opacity="1" stop-color="rgb(63.973999%, 67.420959%, 100%)" offset="0.6875"/><stop stop-opacity="1" stop-color="rgb(63.272095%, 66.790771%, 100%)" offset="0.691406"/><stop stop-opacity="1" stop-color="rgb(62.57019%, 66.160583%, 100%)" offset="0.695312"/><stop stop-opacity="1" stop-color="rgb(61.868286%, 65.52887%, 100%)" offset="0.699219"/><stop stop-opacity="1" stop-color="rgb(61.166382%, 64.898682%, 100%)" offset="0.703125"/><stop stop-opacity="1" stop-color="rgb(60.466003%, 64.268494%, 100%)" offset="0.707031"/><stop stop-opacity="1" stop-color="rgb(59.764099%, 63.638306%, 100%)" offset="0.710938"/><stop stop-opacity="1" stop-color="rgb(59.062195%, 63.008118%, 100%)" offset="0.714844"/><stop stop-opacity="1" stop-color="rgb(58.360291%, 62.376404%, 100%)" offset="0.71875"/><stop stop-opacity="1" stop-color="rgb(57.659912%, 61.746216%, 100%)" offset="0.722656"/><stop stop-opacity="1" stop-color="rgb(56.958008%, 61.116028%, 100%)" offset="0.726562"/><stop stop-opacity="1" stop-color="rgb(56.256104%, 60.48584%, 100%)" offset="0.730469"/><stop stop-opacity="1" stop-color="rgb(55.554199%, 59.855652%, 100%)" offset="0.734375"/><stop stop-opacity="1" stop-color="rgb(54.852295%, 59.225464%, 100%)" offset="0.738281"/><stop stop-opacity="1" stop-color="rgb(54.151917%, 58.59375%, 100%)" offset="0.742188"/><stop stop-opacity="1" stop-color="rgb(53.450012%, 57.963562%, 100%)" offset="0.746094"/><stop stop-opacity="1" stop-color="rgb(52.748108%, 57.333374%, 100%)" offset="0.75"/><stop stop-opacity="1" stop-color="rgb(52.046204%, 56.703186%, 100%)" offset="0.753906"/><stop stop-opacity="1" stop-color="rgb(51.345825%, 56.072998%, 100%)" offset="0.757812"/><stop stop-opacity="1" stop-color="rgb(50.643921%, 55.441284%, 100%)" offset="0.761719"/><stop stop-opacity="1" stop-color="rgb(49.942017%, 54.811096%, 100%)" offset="0.765625"/><stop stop-opacity="1" stop-color="rgb(49.240112%, 54.180908%, 100%)" offset="0.769531"/><stop stop-opacity="1" stop-color="rgb(48.538208%, 53.55072%, 100%)" offset="0.773438"/><stop stop-opacity="1" stop-color="rgb(47.83783%, 52.920532%, 100%)" offset="0.777344"/><stop stop-opacity="1" stop-color="rgb(47.135925%, 52.290344%, 100%)" offset="0.78125"/><stop stop-opacity="1" stop-color="rgb(46.434021%, 51.65863%, 100%)" offset="0.785156"/><stop stop-opacity="1" stop-color="rgb(45.732117%, 51.028442%, 100%)" offset="0.789062"/><stop stop-opacity="1" stop-color="rgb(45.031738%, 50.398254%, 100%)" offset="0.792969"/><stop stop-opacity="1" stop-color="rgb(44.329834%, 49.768066%, 100%)" offset="0.796875"/><stop stop-opacity="1" stop-color="rgb(43.62793%, 49.137878%, 100%)" offset="0.800781"/><stop stop-opacity="1" stop-color="rgb(42.926025%, 48.506165%, 100%)" offset="0.804688"/><stop stop-opacity="1" stop-color="rgb(42.224121%, 47.875977%, 100%)" offset="0.808594"/><stop stop-opacity="1" stop-color="rgb(41.523743%, 47.245789%, 100%)" offset="0.8125"/><stop stop-opacity="1" stop-color="rgb(40.821838%, 46.615601%, 100%)" offset="0.816406"/><stop stop-opacity="1" stop-color="rgb(40.119934%, 45.985413%, 100%)" offset="0.820312"/><stop stop-opacity="1" stop-color="rgb(39.41803%, 45.355225%, 100%)" offset="0.824219"/><stop stop-opacity="1" stop-color="rgb(38.717651%, 44.723511%, 100%)" offset="0.828125"/><stop stop-opacity="1" stop-color="rgb(38.015747%, 44.093323%, 100%)" offset="0.832031"/><stop stop-opacity="1" stop-color="rgb(37.313843%, 43.463135%, 100%)" offset="0.835938"/><stop stop-opacity="1" stop-color="rgb(36.611938%, 42.832947%, 100%)" offset="0.839844"/><stop stop-opacity="1" stop-color="rgb(35.910034%, 42.202759%, 100%)" offset="0.84375"/><stop stop-opacity="1" stop-color="rgb(35.209656%, 41.571045%, 100%)" offset="0.847656"/><stop stop-opacity="1" stop-color="rgb(34.507751%, 40.940857%, 100%)" offset="0.851562"/><stop stop-opacity="1" stop-color="rgb(33.805847%, 40.310669%, 100%)" offset="0.855469"/><stop stop-opacity="1" stop-color="rgb(33.103943%, 39.680481%, 100%)" offset="0.859375"/><stop stop-opacity="1" stop-color="rgb(32.403564%, 39.050293%, 100%)" offset="0.863281"/><stop stop-opacity="1" stop-color="rgb(31.70166%, 38.418579%, 100%)" offset="0.867188"/><stop stop-opacity="1" stop-color="rgb(30.999756%, 37.788391%, 100%)" offset="0.871094"/><stop stop-opacity="1" stop-color="rgb(30.297852%, 37.158203%, 100%)" offset="0.875"/><stop stop-opacity="1" stop-color="rgb(29.597473%, 36.528015%, 100%)" offset="0.878906"/><stop stop-opacity="1" stop-color="rgb(28.895569%, 35.897827%, 100%)" offset="0.882812"/><stop stop-opacity="1" stop-color="rgb(28.193665%, 35.267639%, 100%)" offset="0.886719"/><stop stop-opacity="1" stop-color="rgb(27.49176%, 34.635925%, 100%)" offset="0.890625"/><stop stop-opacity="1" stop-color="rgb(26.789856%, 34.005737%, 100%)" offset="0.894531"/><stop stop-opacity="1" stop-color="rgb(26.089478%, 33.375549%, 100%)" offset="0.898438"/><stop stop-opacity="1" stop-color="rgb(25.387573%, 32.745361%, 100%)" offset="0.902344"/><stop stop-opacity="1" stop-color="rgb(24.685669%, 32.115173%, 100%)" offset="0.90625"/><stop stop-opacity="1" stop-color="rgb(23.983765%, 31.483459%, 100%)" offset="0.910156"/><stop stop-opacity="1" stop-color="rgb(23.283386%, 30.853271%, 100%)" offset="0.914062"/><stop stop-opacity="1" stop-color="rgb(22.581482%, 30.223083%, 100%)" offset="0.917969"/><stop stop-opacity="1" stop-color="rgb(21.879578%, 29.592896%, 100%)" offset="0.921875"/><stop stop-opacity="1" stop-color="rgb(21.177673%, 28.962708%, 100%)" offset="0.925781"/><stop stop-opacity="1" stop-color="rgb(20.475769%, 28.33252%, 100%)" offset="0.929688"/><stop stop-opacity="1" stop-color="rgb(19.775391%, 27.700806%, 100%)" offset="0.933594"/><stop stop-opacity="1" stop-color="rgb(19.073486%, 27.070618%, 100%)" offset="0.9375"/><stop stop-opacity="1" stop-color="rgb(18.371582%, 26.44043%, 100%)" offset="0.941406"/><stop stop-opacity="1" stop-color="rgb(17.669678%, 25.810242%, 100%)" offset="0.945312"/><stop stop-opacity="1" stop-color="rgb(16.969299%, 25.180054%, 100%)" offset="0.949219"/><stop stop-opacity="1" stop-color="rgb(16.267395%, 24.54834%, 100%)" offset="0.953125"/><stop stop-opacity="1" stop-color="rgb(15.565491%, 23.918152%, 100%)" offset="0.957031"/><stop stop-opacity="1" stop-color="rgb(14.863586%, 23.287964%, 100%)" offset="0.960938"/><stop stop-opacity="1" stop-color="rgb(14.161682%, 22.657776%, 100%)" offset="0.964844"/><stop stop-opacity="1" stop-color="rgb(13.461304%, 22.027588%, 100%)" offset="0.96875"/><stop stop-opacity="1" stop-color="rgb(12.759399%, 21.3974%, 100%)" offset="0.972656"/><stop stop-opacity="1" stop-color="rgb(12.057495%, 20.765686%, 100%)" offset="0.976562"/><stop stop-opacity="1" stop-color="rgb(11.355591%, 20.135498%, 100%)" offset="0.980469"/><stop stop-opacity="1" stop-color="rgb(10.655212%, 19.50531%, 100%)" offset="0.984375"/><stop stop-opacity="1" stop-color="rgb(9.953308%, 18.875122%, 100%)" offset="0.988281"/><stop stop-opacity="1" stop-color="rgb(9.251404%, 18.244934%, 100%)" offset="0.992188"/><stop stop-opacity="1" stop-color="rgb(8.5495%, 17.61322%, 100%)" offset="0.996094"/><stop stop-opacity="1" stop-color="rgb(8.198547%, 17.298889%, 100%)" offset="1"/></radialGradient><clipPath id="fdf8576efd"><path d="M 104 48 L 108.246094 48 L 108.246094 60 L 104 60 Z M 104 48 " clip-rule="nonzero"/></clipPath><clipPath id="1763e71c28"><path d="M 104 22 L 108.246094 22 L 108.246094 42 L 104 42 Z M 104 22 " clip-rule="nonzero"/></clipPath><clipPath id="6ae10eb196"><path d="M 7 0 L 105 0 L 105 112.003906 L 7 112.003906 Z M 7 0 " clip-rule="nonzero"/></clipPath><clipPath id="030ea5ff1e"><path d="M 3.710938 76 L 8 76 L 8 90 L 3.710938 90 Z M 3.710938 76 " clip-rule="nonzero"/></clipPath><clipPath id="208ce10f98"><path d="M 3.710938 52 L 8 52 L 8 68 L 3.710938 68 Z M 3.710938 52 " clip-rule="nonzero"/></clipPath></defs><g clip-path="url(#4257b98de0)"><g clip-path="url(#3cf705d041)"><path fill="url(#9b024a9764)" d="M 0 0 L 0 112.003906 L 112.003906 112.003906 L 112.003906 0 Z M 0 0 " fill-rule="nonzero"/></g></g><g clip-path="url(#fdf8576efd)"><path fill="#2409ff" d="M 106.316406 48.640625 C 105.292969 48.640625 104.453125 49.476562 104.453125 50.503906 L 104.453125 57.957031 C 104.453125 58.984375 105.292969 59.820312 106.316406 59.820312 C 107.34375 59.820312 108.183594 58.984375 108.183594 57.957031 L 108.183594 50.503906 C 108.183594 49.476562 107.34375 48.640625 106.316406 48.640625 Z M 106.316406 48.640625 " fill-opacity="1" fill-rule="nonzero"/></g><g clip-path="url(#1763e71c28)"><path fill="#2409ff" d="M 108.183594 24.414062 C 108.183594 23.386719 107.34375 22.550781 106.316406 22.550781 C 105.292969 22.550781 104.453125 23.386719 104.453125 24.414062 L 104.453125 39.320312 C 104.453125 40.347656 105.292969 41.183594 106.316406 41.183594 C 107.34375 41.183594 108.183594 40.347656 108.183594 39.320312 Z M 108.183594 24.414062 " fill-opacity="1" fill-rule="nonzero"/></g><g clip-path="url(#6ae10eb196)"><path fill="#2409ff" d="M 98.863281 15.09375 L 102.589844 15.09375 C 103.335938 15.09375 104.027344 14.648438 104.304688 13.941406 C 104.605469 13.25 104.4375 12.449219 103.914062 11.910156 L 92.734375 0.726562 C 92.003906 0 90.8125 0 90.085938 0.726562 L 78.90625 11.910156 C 78.382812 12.449219 78.214844 13.25 78.511719 13.941406 C 78.792969 14.648438 79.484375 15.09375 80.226562 15.09375 L 83.953125 15.09375 L 83.953125 25.476562 C 76.183594 18.746094 66.417969 15.09375 56 15.09375 C 33.171875 15.09375 14.441406 32.835938 13.214844 55.589844 C 13.15625 55.738281 13.136719 55.925781 13.136719 56.09375 L 13.136719 97.09375 L 9.410156 97.09375 C 8.664062 97.09375 7.976562 97.539062 7.695312 98.25 C 7.398438 98.9375 7.566406 99.738281 8.089844 100.28125 L 19.269531 111.460938 C 19.640625 111.816406 20.109375 112.003906 20.59375 112.003906 C 21.078125 112.003906 21.542969 111.816406 21.914062 111.460938 L 33.097656 100.28125 C 33.621094 99.738281 33.785156 98.9375 33.488281 98.25 C 33.210938 97.539062 32.519531 97.09375 31.773438 97.09375 L 28.046875 97.09375 L 28.046875 90.441406 C 35.816406 97.167969 45.582031 100.820312 56 100.820312 C 79.632812 100.820312 98.863281 81.589844 98.863281 57.957031 Z M 56 85.910156 C 40.589844 85.910156 28.046875 73.371094 28.046875 57.957031 C 28.046875 42.546875 40.589844 30.003906 56 30.003906 C 71.414062 30.003906 83.953125 42.546875 83.953125 57.957031 C 83.953125 73.371094 71.414062 85.910156 56 85.910156 Z M 56 85.910156 " fill-opacity="1" fill-rule="nonzero"/></g><path fill="#2409ff" d="M 91.578125 91.671875 C 82.074219 101.175781 69.4375 106.410156 56 106.410156 C 54.976562 106.410156 54.136719 107.25 54.136719 108.273438 C 54.136719 109.300781 54.976562 110.136719 56 110.136719 C 70.445312 110.136719 84.011719 104.511719 94.222656 94.316406 C 94.949219 93.589844 94.949219 92.398438 94.222656 91.671875 C 93.496094 90.945312 92.304688 90.945312 91.578125 91.671875 Z M 91.578125 91.671875 " fill-opacity="1" fill-rule="nonzero"/><path fill="#2409ff" d="M 56.074219 39.320312 C 56.058594 39.320312 56.019531 39.320312 56 39.320312 C 45.734375 39.320312 37.363281 47.691406 37.363281 57.957031 C 37.363281 68.207031 45.695312 76.554688 55.925781 76.59375 C 55.945312 76.59375 55.984375 76.59375 56 76.59375 C 66.269531 76.59375 74.636719 68.226562 74.636719 57.957031 C 74.636719 47.707031 66.308594 39.359375 56.074219 39.320312 Z M 56 56.09375 C 59.597656 56.09375 62.523438 59.019531 62.523438 62.617188 C 62.523438 65.5625 60.546875 68.058594 57.863281 68.859375 L 57.863281 71.003906 C 57.863281 72.027344 57.027344 72.867188 56 72.867188 C 54.976562 72.867188 54.136719 72.027344 54.136719 71.003906 L 54.136719 68.859375 C 51.453125 68.058594 49.476562 65.5625 49.476562 62.617188 C 49.476562 61.59375 50.316406 60.753906 51.34375 60.753906 C 52.367188 60.753906 53.207031 61.59375 53.207031 62.617188 C 53.207031 64.164062 54.453125 65.414062 56 65.414062 C 57.546875 65.414062 58.796875 64.164062 58.796875 62.617188 C 58.796875 61.070312 57.546875 59.820312 56 59.820312 C 52.40625 59.820312 49.476562 56.894531 49.476562 53.300781 C 49.476562 50.355469 51.453125 47.855469 54.136719 47.054688 L 54.136719 44.914062 C 54.136719 43.886719 54.976562 43.050781 56 43.050781 C 57.027344 43.050781 57.863281 43.886719 57.863281 44.914062 L 57.863281 47.054688 C 60.546875 47.855469 62.523438 50.355469 62.523438 53.300781 C 62.523438 54.324219 61.683594 55.164062 60.660156 55.164062 C 59.636719 55.164062 58.796875 54.324219 58.796875 53.300781 C 58.796875 51.753906 57.546875 50.503906 56 50.503906 C 54.453125 50.503906 53.207031 51.753906 53.207031 53.300781 C 53.207031 54.84375 54.453125 56.09375 56 56.09375 Z M 56 56.09375 " fill-opacity="1" fill-rule="nonzero"/><path fill="#2409ff" d="M 20.425781 20.519531 C 29.929688 11.015625 42.566406 5.777344 56 5.777344 C 57.027344 5.777344 57.863281 4.9375 57.863281 3.914062 C 57.863281 2.886719 57.027344 2.050781 56 2.050781 C 41.558594 2.050781 27.992188 7.679688 17.777344 17.871094 C 17.050781 18.597656 17.050781 19.792969 17.777344 20.519531 C 18.152344 20.871094 18.636719 21.058594 19.101562 21.058594 C 19.585938 21.058594 20.050781 20.871094 20.425781 20.519531 Z M 20.425781 20.519531 " fill-opacity="1" fill-rule="nonzero"/><g clip-path="url(#030ea5ff1e)"><path fill="#2409ff" d="M 5.683594 76.59375 C 4.660156 76.59375 3.820312 77.433594 3.820312 78.457031 L 3.820312 87.777344 C 3.820312 88.800781 4.660156 89.640625 5.683594 89.640625 C 6.707031 89.640625 7.546875 88.800781 7.546875 87.777344 L 7.546875 78.457031 C 7.546875 77.433594 6.707031 76.59375 5.683594 76.59375 Z M 5.683594 76.59375 " fill-opacity="1" fill-rule="nonzero"/></g><g clip-path="url(#208ce10f98)"><path fill="#2409ff" d="M 7.546875 54.230469 C 7.546875 53.207031 6.707031 52.367188 5.683594 52.367188 C 4.660156 52.367188 3.820312 53.207031 3.820312 54.230469 L 3.820312 65.414062 C 3.820312 66.4375 4.660156 67.277344 5.683594 67.277344 C 6.707031 67.277344 7.546875 66.4375 7.546875 65.414062 Z M 7.546875 54.230469 " fill-opacity="1" fill-rule="nonzero"/></g></svg>